<?xml version="1.0" encoding="UTF-8" standalone="no"?>

<svg
   viewBox="0 0 43.681844 36.493073"
   version="1.1"
   id="svg5"
   inkscape:version="1.2.2 (732a01da63, 2022-12-09)"
   sodipodi:docname="grudzień 2011 - zad. 7.svg"
   xmlns:inkscape="http://www.inkscape.org/namespaces/inkscape"
   xmlns:sodipodi="http://sodipodi.sourceforge.net/DTD/sodipodi-0.dtd"
   xmlns="http://www.w3.org/2000/svg"
   xmlns:svg="http://www.w3.org/2000/svg">
  <sodipodi:namedview
     id="namedview7"
     pagecolor="#ffffff"
     bordercolor="#000000"
     borderopacity="0.25"
     inkscape:showpageshadow="2"
     inkscape:pageopacity="0.0"
     inkscape:pagecheckerboard="0"
     inkscape:deskcolor="#d1d1d1"
     inkscape:document-units="mm"
     showgrid="false"
     inkscape:zoom="1.829812"
     inkscape:cx="-148.9224"
     inkscape:cy="77.330348"
     inkscape:window-width="1958"
     inkscape:window-height="1368"
     inkscape:window-x="2553"
     inkscape:window-y="127"
     inkscape:window-maximized="0"
     inkscape:current-layer="layer1" />
  <defs
     id="defs2">
    <clipPath
       clipPathUnits="userSpaceOnUse"
       id="clipEmfPath1">
      <path
         d="M 0,0 H 601.09294 V 344.25796 H 0 Z"
         id="path278" />
    </clipPath>
    <pattern
       id="EMFhbasepattern"
       patternUnits="userSpaceOnUse"
       width="6"
       height="6"
       x="0"
       y="0" />
    <clipPath
       clipPathUnits="userSpaceOnUse"
       id="clipEmfPath1-0">
      <path
         d="M 0,0 H 601.09294 V 281.60749 H 0 Z"
         id="path697" />
    </clipPath>
    <clipPath
       clipPathUnits="userSpaceOnUse"
       id="clipEmfPath2">
      <path
         d="m 316.92829,14.54386 h 52.58165 v 62.330828 h -52.58165 z"
         id="path700" />
    </clipPath>
    <clipPath
       clipPathUnits="userSpaceOnUse"
       id="clipEmfPath3">
      <path
         d="m 318.52734,15.34375 v 60.732422 h 24.45118 V 15.34375 Z"
         id="path703" />
    </clipPath>
    <clipPath
       clipPathUnits="userSpaceOnUse"
       id="clipEmfPath4">
      <path
         d="m 343.29883,15.34375 v 29.886719 h 24.61328 V 15.34375 Z"
         id="path706" />
    </clipPath>
    <clipPath
       clipPathUnits="userSpaceOnUse"
       id="clipEmfPath5">
      <path
         d="m 342.97852,46.029297 v 30.046875 h 24.45312 V 46.029297 Z"
         id="path709" />
    </clipPath>
    <pattern
       id="EMFhbasepattern-6"
       patternUnits="userSpaceOnUse"
       width="6"
       height="6"
       x="0"
       y="0" />
    <clipPath
       clipPathUnits="userSpaceOnUse"
       id="clipEmfPath1-4">
      <path
         d="M 0,0 H 601.09294 V 221.51418 H 0 Z"
         id="path1547" />
    </clipPath>
    <pattern
       id="EMFhbasepattern-7"
       patternUnits="userSpaceOnUse"
       width="6"
       height="6"
       x="0"
       y="0" />
    <clipPath
       clipPathUnits="userSpaceOnUse"
       id="clipEmfPath1-6">
      <path
         d="M 0,0 H 686.11858 V 297.42993 H 0 Z"
         id="path1856" />
    </clipPath>
    <pattern
       id="EMFhbasepattern-0"
       patternUnits="userSpaceOnUse"
       width="6"
       height="6"
       x="0"
       y="0" />
    <clipPath
       clipPathUnits="userSpaceOnUse"
       id="clipEmfPath1-5">
      <path
         d="M -236.05804,0 H 450.06055 V 160.46193 H -236.05804 Z"
         id="path2132" />
    </clipPath>
    <pattern
       id="EMFhbasepattern-4"
       patternUnits="userSpaceOnUse"
       width="6"
       height="6"
       x="0"
       y="0" />
    <clipPath
       clipPathUnits="userSpaceOnUse"
       id="clipEmfPath1-7">
      <path
         d="M 0,0 H 686.11858 V 194.98362 H 0 Z"
         id="path2256" />
    </clipPath>
    <pattern
       id="EMFhbasepattern-1"
       patternUnits="userSpaceOnUse"
       width="6"
       height="6"
       x="0"
       y="0" />
    <clipPath
       clipPathUnits="userSpaceOnUse"
       id="clipEmfPath1-00">
      <path
         d="M 0,0 H 686.11858 V 131.53403 H 0 Z"
         id="path2517" />
    </clipPath>
    <pattern
       id="EMFhbasepattern-8"
       patternUnits="userSpaceOnUse"
       width="6"
       height="6"
       x="0"
       y="0" />
    <clipPath
       clipPathUnits="userSpaceOnUse"
       id="clipEmfPath1-9">
      <path
         d="M 0,0 H 686.11858 V 265.94487 H 0 Z"
         id="path3071" />
    </clipPath>
    <clipPath
       clipPathUnits="userSpaceOnUse"
       id="clipEmfPath2-4">
      <path
         d="M 188.75053,44.590516 H 242.1313 V 69.842492 H 188.75053 Z"
         id="path3074" />
    </clipPath>
    <clipPath
       clipPathUnits="userSpaceOnUse"
       id="clipEmfPath3-9">
      <path
         d="m 190.18945,49.865234 v 19.337891 h 25.41211 V 49.865234 Z"
         id="path3077" />
    </clipPath>
    <clipPath
       clipPathUnits="userSpaceOnUse"
       id="clipEmfPath4-8">
      <path
         d="m 216.24023,49.865234 v 19.337891 h 24.61329 V 49.865234 Z"
         id="path3080" />
    </clipPath>
    <clipPath
       clipPathUnits="userSpaceOnUse"
       id="clipEmfPath5-2">
      <path
         d="m 123.06343,110.91691 h 53.70041 v 25.4118 h -53.70041 z"
         id="path3083" />
    </clipPath>
    <clipPath
       clipPathUnits="userSpaceOnUse"
       id="clipEmfPath6">
      <path
         d="m 124.50195,116.19141 v 19.49804 h 24.77149 v -19.49804 z"
         id="path3086" />
    </clipPath>
    <clipPath
       clipPathUnits="userSpaceOnUse"
       id="clipEmfPath7">
      <path
         d="m 149.91406,116.19141 v 19.49804 h 25.57032 v -19.49804 z"
         id="path3089" />
    </clipPath>
    <pattern
       id="EMFhbasepattern-70"
       patternUnits="userSpaceOnUse"
       width="6"
       height="6"
       x="0"
       y="0" />
    <clipPath
       clipPathUnits="userSpaceOnUse"
       id="clipEmfPath1-02">
      <path
         d="M 0,0.79911319 H 686.11858 V 226.30885 H 0 Z"
         id="path3695" />
    </clipPath>
    <pattern
       id="EMFhbasepattern-64"
       patternUnits="userSpaceOnUse"
       width="6"
       height="6"
       x="0"
       y="0" />
    <clipPath
       clipPathUnits="userSpaceOnUse"
       id="clipEmfPath1-69">
      <path
         d="M 0,0 H 686.11858 V 139.84481 H 0 Z"
         id="path4322" />
    </clipPath>
    <clipPath
       clipPathUnits="userSpaceOnUse"
       id="clipEmfPath2-9">
      <path
         d="m 238.45537,108.67939 h 13.26528 v 15.66262 h -13.26528 z"
         id="path4325" />
    </clipPath>
    <pattern
       id="EMFhbasepattern-3"
       patternUnits="userSpaceOnUse"
       width="6"
       height="6"
       x="0"
       y="0" />
    <clipPath
       clipPathUnits="userSpaceOnUse"
       id="clipEmfPath1-78">
      <path
         d="M 0,0 H 686.11858 V 122.10449 H 0 Z"
         id="path4464" />
    </clipPath>
    <pattern
       id="EMFhbasepattern-81"
       patternUnits="userSpaceOnUse"
       width="6"
       height="6"
       x="0"
       y="0" />
    <clipPath
       clipPathUnits="userSpaceOnUse"
       id="clipEmfPath1-3">
      <path
         d="M 0,0 H 686.11858 V 166.21554 H 0 Z"
         id="path4666" />
    </clipPath>
    <pattern
       id="EMFhbasepattern-2"
       patternUnits="userSpaceOnUse"
       width="6"
       height="6"
       x="0"
       y="0" />
    <clipPath
       clipPathUnits="userSpaceOnUse"
       id="clipEmfPath1-786">
      <path
         d="M 0,0 H 686.11858 V 207.28996 H 0 Z"
         id="path4873" />
    </clipPath>
    <pattern
       id="EMFhbasepattern-9"
       patternUnits="userSpaceOnUse"
       width="6"
       height="6"
       x="0"
       y="0" />
    <clipPath
       clipPathUnits="userSpaceOnUse"
       id="clipEmfPath1-8">
      <path
         d="M 0,0 H 686.11858 V 171.96916 H 0 Z"
         id="path5000" />
    </clipPath>
    <pattern
       id="EMFhbasepattern-5"
       patternUnits="userSpaceOnUse"
       width="6"
       height="6"
       x="0"
       y="0" />
    <clipPath
       clipPathUnits="userSpaceOnUse"
       id="clipEmfPath1-2">
      <path
         d="M 0,0 H 686.11858 V 158.22441 H 0 Z"
         id="path5536" />
    </clipPath>
    <pattern
       id="EMFhbasepattern-26"
       patternUnits="userSpaceOnUse"
       width="6"
       height="6"
       x="0"
       y="0" />
    <clipPath
       clipPathUnits="userSpaceOnUse"
       id="clipEmfPath1-26">
      <path
         d="M 0,0 H 686.11858 V 158.22441 H 0 Z"
         id="path5700" />
    </clipPath>
    <pattern
       id="EMFhbasepattern-74"
       patternUnits="userSpaceOnUse"
       width="6"
       height="6"
       x="0"
       y="0" />
    <clipPath
       clipPathUnits="userSpaceOnUse"
       id="clipEmfPath1-30">
      <path
         d="M 0,0 H 686.11858 V 146.23771 H 0 Z"
         id="path5879" />
    </clipPath>
    <pattern
       id="EMFhbasepattern-52"
       patternUnits="userSpaceOnUse"
       width="6"
       height="6"
       x="0"
       y="0" />
    <clipPath
       clipPathUnits="userSpaceOnUse"
       id="clipEmfPath1-40">
      <path
         d="M 0,0 H 686.11858 V 221.83382 H 0 Z"
         id="path6085" />
    </clipPath>
    <clipPath
       clipPathUnits="userSpaceOnUse"
       id="clipEmfPath2-5">
      <path
         d="m 553.94526,92.217662 51.14324,45.549448 -8.79024,9.74918 -50.98342,-45.38962 z"
         id="path6088" />
    </clipPath>
    <clipPath
       clipPathUnits="userSpaceOnUse"
       id="clipEmfPath3-0">
      <path
         d="m 606.36709,60.093312 24.13321,21.25641 -8.63042,9.749181 -24.13322,-21.096588 z"
         id="path6091" />
    </clipPath>
    <clipPath
       clipPathUnits="userSpaceOnUse"
       id="clipEmfPath4-5">
      <path
         d="m 603.49028,67.924621 24.13322,21.256411 -8.63043,9.74918 -24.13321,-21.096588 z"
         id="path6094" />
    </clipPath>
    <clipPath
       clipPathUnits="userSpaceOnUse"
       id="clipEmfPath5-8">
      <path
         d="m 520.22268,80.710432 18.21978,-17.900136 9.10989,9.429536 -18.05995,17.740313 z"
         id="path6097" />
    </clipPath>
    <clipPath
       clipPathUnits="userSpaceOnUse"
       id="clipEmfPath6-6">
      <path
         d="m 517.5057,73.997881 18.21978,-17.900135 9.26971,9.589358 -18.21978,17.740313 z"
         id="path6100" />
    </clipPath>
    <clipPath
       clipPathUnits="userSpaceOnUse"
       id="clipEmfPath7-8">
      <path
         d="m 632.09853,161.26104 16.9412,-20.77694 10.70812,8.63042 -16.9412,20.93677 z"
         id="path6103" />
    </clipPath>
    <clipPath
       clipPathUnits="userSpaceOnUse"
       id="clipEmfPath8">
      <path
         d="m 628.26279,153.58955 16.9412,-20.93676 10.70811,8.63042 -16.9412,20.93677 z"
         id="path6106" />
    </clipPath>
    <pattern
       id="EMFhbasepattern-29"
       patternUnits="userSpaceOnUse"
       width="6"
       height="6"
       x="0"
       y="0" />
  </defs>
  <g
     inkscape:label="Warstwa 1"
     inkscape:groupmode="layer"
     id="layer1"
     transform="translate(-381.09359,-148.03778)">
    <text
       xml:space="preserve"
       style="font-style:normal;font-variant:normal;font-weight:400;font-size:3.88607px;line-height:125%;font-family:Calibri;text-align:start;letter-spacing:0px;word-spacing:0px;text-anchor:start;fill:#000000;fill-opacity:1;stroke:none;stroke-width:0.264583"
       x="246.00964"
       y="146.70575"
       id="text6116"><tspan
         sodipodi:role="line"
         x="246.00964"
         y="146.70575"
         id="tspan6114"
         style="stroke-width:0.264583"><tspan
           dx="0"
           dy="0"
           style="font-style:normal;font-variant:normal;font-weight:400;font-size:3.88607px;font-family:Calibri;fill:#181717;stroke-width:0.264583"
           id="tspan6112"> </tspan></tspan></text>
    <path
       style="fill:none;stroke:#000000;stroke-width:0.211432px;stroke-linecap:round;stroke-linejoin:round;stroke-miterlimit:4;stroke-dasharray:none;stroke-opacity:1"
       d="m 409.40433,179.05485 -27.31701,4.39778 9.30301,-22.32722 17.98758,17.14185"
       id="path6150" />
    <path
       style="fill:none;stroke:#000000;stroke-width:0.211432px;stroke-linecap:butt;stroke-linejoin:miter;stroke-miterlimit:2;stroke-dasharray:none;stroke-opacity:1"
       d="m 412.40667,178.82227 c 0,0.82987 -0.6713,1.50117 -1.50117,1.50117 -0.82458,0 -1.50117,-0.6713 -1.50117,-1.50117 0,-0.82458 0.67659,-1.50116 1.50117,-1.50116 0.82987,0 1.50117,0.67658 1.50117,1.50116"
       id="path6152" />
    <path
       style="fill:none;stroke:#000000;stroke-width:0.211432px;stroke-linecap:round;stroke-linejoin:round;stroke-miterlimit:10;stroke-dasharray:none;stroke-opacity:1"
       d="m 409.48891,179.58871 -28.28961,4.79423 9.73645,-23.59582 -2.99705,-2.91776"
       id="path6154" />
    <path
       style="fill:none;stroke:#000000;stroke-width:0.211432px;stroke-linecap:round;stroke-linejoin:round;stroke-miterlimit:10;stroke-dasharray:none;stroke-opacity:1"
       d="m 409.91177,177.44797 -17.422,-16.79828 26.207,-9.67302 3.81635,4.67265 -11.19533,21.71407"
       id="path6156" />
    <path
       style="fill:none;stroke:#000000;stroke-width:0.211432px;stroke-linecap:round;stroke-linejoin:round;stroke-miterlimit:10;stroke-dasharray:none;stroke-opacity:1"
       d="m 412.13181,177.74397 10.89932,-21.43921 0.39115,0.66601 1.24745,-0.99373 -6.34296,-7.83355 -1.35317,0.83515 0.27486,0.60258 -26.03785,9.77873 -2.32575,-2.33632 -0.87745,0.80344"
       id="path6158" />
    <path
       style="fill:#000000;fill-opacity:1;fill-rule:nonzero;stroke:#000000;stroke-width:0.0052858px;stroke-linecap:butt;stroke-linejoin:round;stroke-miterlimit:10;stroke-dasharray:none;stroke-opacity:1"
       d="m 418.40605,150.18909 -0.30129,0.11629 c -0.0529,0.0211 -0.11628,-0.0106 -0.13743,-0.0634 -0.0211,-0.0529 0.0106,-0.11629 0.0634,-0.13743 l 0.30129,-0.111 c 0.0581,-0.0211 0.11629,0.005 0.13743,0.0581 0.0211,0.0581 -0.005,0.11629 -0.0634,0.13743 z m -0.99901,0.38058 -0.30658,0.111 c -0.0529,0.0211 -0.11629,-0.005 -0.13743,-0.0634 -0.0159,-0.0529 0.0106,-0.111 0.0634,-0.13215 l 0.30658,-0.11628 c 0.0528,-0.0212 0.111,0.005 0.13214,0.0634 0.0211,0.0529 -0.005,0.11628 -0.0581,0.13743 z m -1.00431,0.37529 -0.30657,0.111 c -0.0529,0.0211 -0.111,-0.005 -0.13215,-0.0581 -0.0211,-0.0581 0.005,-0.11629 0.0582,-0.13743 l 0.30657,-0.11629 c 0.0529,-0.0159 0.11629,0.0106 0.13743,0.0634 0.0159,0.0529 -0.0106,0.11629 -0.0634,0.13743 z m -1.0043,0.37529 -0.30129,0.11629 c -0.0581,0.0211 -0.11629,-0.0106 -0.13743,-0.0634 -0.0211,-0.0529 0.005,-0.11629 0.0634,-0.13743 l 0.30129,-0.111 c 0.0529,-0.0212 0.11629,0.005 0.13743,0.0581 0.0212,0.0581 -0.0106,0.11629 -0.0634,0.13743 z m -1.0043,0.37529 -0.30129,0.11629 c -0.0529,0.0211 -0.11629,-0.005 -0.13743,-0.0634 -0.0212,-0.0529 0.005,-0.111 0.0634,-0.13214 L 414.3201,151.5 c 0.0581,-0.0211 0.11629,0.005 0.13743,0.0634 0.0211,0.0529 -0.005,0.11629 -0.0634,0.13214 z m -0.99901,0.38058 -0.30658,0.111 c -0.0529,0.0212 -0.11629,-0.005 -0.13743,-0.0581 -0.0212,-0.0581 0.0106,-0.11629 0.0634,-0.13743 l 0.30129,-0.11629 c 0.0581,-0.0211 0.11628,0.0106 0.13743,0.0634 0.0211,0.0529 -0.005,0.11629 -0.0581,0.13743 z m -1.00431,0.37529 -0.30658,0.11629 c -0.0528,0.0211 -0.11628,-0.0106 -0.13214,-0.0634 -0.0211,-0.0529 0.005,-0.11629 0.0581,-0.13743 l 0.30658,-0.111 c 0.0529,-0.0212 0.11629,0.005 0.13214,0.0581 0.0211,0.0581 -0.005,0.11629 -0.0581,0.13743 z m -1.0043,0.37529 -0.30658,0.11629 c -0.0528,0.0212 -0.111,-0.005 -0.13214,-0.0634 -0.0211,-0.0529 0.005,-0.11629 0.0581,-0.13214 l 0.30658,-0.11629 c 0.0529,-0.0211 0.11629,0.005 0.13743,0.0634 0.0159,0.0529 -0.0106,0.11629 -0.0634,0.13214 z m -1.0043,0.38058 -0.30129,0.111 c -0.0581,0.0211 -0.11629,-0.005 -0.13743,-0.0581 -0.0211,-0.0581 0.005,-0.11629 0.0634,-0.13743 l 0.30129,-0.11629 c 0.0528,-0.0211 0.11629,0.0106 0.13743,0.0634 0.0211,0.0529 -0.0106,0.11629 -0.0634,0.13743 z m -1.0043,0.37529 -0.30129,0.11629 c -0.0529,0.0211 -0.11629,-0.0106 -0.13743,-0.0634 -0.0211,-0.0529 0.005,-0.11629 0.0634,-0.13743 l 0.3013,-0.111 c 0.0581,-0.0211 0.11628,0.005 0.13743,0.0581 0.0211,0.0581 -0.005,0.11629 -0.0634,0.13743 z m -0.99902,0.3753 -0.30658,0.11628 c -0.0529,0.0212 -0.11628,-0.005 -0.13743,-0.0634 -0.0211,-0.0528 0.0106,-0.11628 0.0634,-0.13214 l 0.30129,-0.11629 c 0.0582,-0.0211 0.11629,0.005 0.13743,0.0634 0.0212,0.0529 -0.005,0.11629 -0.0581,0.13215 z m -1.0043,0.38057 -0.30658,0.11101 c -0.0529,0.0211 -0.11629,-0.005 -0.13214,-0.0582 -0.0211,-0.0581 0.005,-0.11629 0.0581,-0.13743 l 0.30658,-0.11629 c 0.0529,-0.0211 0.11628,0.0106 0.13214,0.0634 0.0212,0.0529 -0.005,0.11629 -0.0581,0.13743 z m -1.0043,0.3753 -0.3013,0.11628 c -0.0581,0.0212 -0.11628,-0.0106 -0.13743,-0.0634 -0.0211,-0.0529 0.005,-0.11628 0.0582,-0.13743 l 0.30657,-0.111 c 0.0529,-0.0211 0.11629,0.005 0.13743,0.0581 0.0211,0.0582 -0.0106,0.11629 -0.0634,0.13744 z m -1.00431,0.37529 -0.30129,0.11629 c -0.0581,0.0211 -0.11629,-0.005 -0.13743,-0.0634 -0.0211,-0.0529 0.005,-0.11629 0.0634,-0.13744 l 0.30129,-0.111 c 0.0529,-0.0211 0.11629,0.005 0.13743,0.0634 0.0211,0.0529 -0.0106,0.111 -0.0634,0.13215 z m -1.0043,0.38057 -0.30129,0.11101 c -0.0529,0.0211 -0.11629,-0.005 -0.13743,-0.0582 -0.0211,-0.0581 0.0106,-0.11628 0.0634,-0.13743 l 0.30129,-0.11629 c 0.0581,-0.0211 0.11629,0.0106 0.13743,0.0634 0.0211,0.0529 -0.005,0.11629 -0.0634,0.13743 z m -0.99902,0.3753 -0.30657,0.11628 c -0.0529,0.0159 -0.11629,-0.0106 -0.13743,-0.0634 -0.0211,-0.0529 0.0106,-0.11628 0.0634,-0.13743 l 0.30657,-0.111 c 0.0529,-0.0211 0.11101,0.005 0.13215,0.0582 0.0211,0.0581 -0.005,0.11628 -0.0582,0.13743 z m -1.0043,0.37529 -0.30658,0.11629 c -0.0528,0.0211 -0.11628,-0.005 -0.13214,-0.0634 -0.0211,-0.0529 0.005,-0.11629 0.0581,-0.13743 l 0.30658,-0.11101 c 0.0529,-0.0211 0.11629,0.005 0.13215,0.0634 0.0211,0.0529 -0.005,0.11101 -0.0582,0.13215 z m -1.0043,0.38058 -0.30129,0.111 c -0.0581,0.0211 -0.11629,-0.005 -0.13743,-0.0582 -0.0211,-0.0581 0.005,-0.11628 0.0581,-0.13743 l 0.30658,-0.11628 c 0.0529,-0.0212 0.11629,0.0106 0.13743,0.0634 0.0211,0.0528 -0.0106,0.11628 -0.0634,0.13743 z m -1.0043,0.37529 -0.30129,0.11629 c -0.0582,0.0159 -0.11629,-0.0106 -0.13743,-0.0634 -0.0211,-0.0529 0.005,-0.11629 0.0634,-0.13743 l 0.30129,-0.11101 c 0.0529,-0.0211 0.11628,0.005 0.13743,0.0581 0.0211,0.0581 -0.005,0.11628 -0.0634,0.13743 z m -1.00431,0.37529 -0.30128,0.11629 c -0.0529,0.0211 -0.11629,-0.005 -0.13744,-0.0634 -0.0211,-0.0529 0.0106,-0.11629 0.0634,-0.13743 l 0.30129,-0.111 c 0.0582,-0.0211 0.11629,0.005 0.13744,0.0634 0.0211,0.0529 -0.005,0.111 -0.0634,0.13214 z m -0.99901,0.38058 -0.30658,0.111 c -0.0529,0.0211 -0.11628,-0.005 -0.13743,-0.0634 -0.0159,-0.0529 0.0106,-0.111 0.0634,-0.13215 l 0.30658,-0.11628 c 0.0529,-0.0212 0.111,0.005 0.13214,0.0634 0.0212,0.0528 -0.005,0.11628 -0.0581,0.13743 z m -1.0043,0.37529 -0.30658,0.11629 c -0.0529,0.0159 -0.11629,-0.0106 -0.13214,-0.0634 -0.0212,-0.0581 0.005,-0.11629 0.0581,-0.13743 l 0.30658,-0.11629 c 0.0529,-0.0159 0.11628,0.0106 0.13214,0.0634 0.0211,0.0529 -0.005,0.11629 -0.0581,0.13743 z m -1.0043,0.37529 -0.3013,0.11629 c -0.0581,0.0211 -0.11628,-0.0106 -0.13743,-0.0634 -0.0211,-0.0529 0.005,-0.11629 0.0582,-0.13743 l 0.30657,-0.111 c 0.0529,-0.0212 0.11629,0.005 0.13743,0.0581 0.0211,0.0581 -0.0106,0.11629 -0.0634,0.13743 z m -1.00431,0.38058 -0.30129,0.111 c -0.0581,0.0211 -0.11629,-0.005 -0.13743,-0.0634 -0.0211,-0.0529 0.005,-0.111 0.0634,-0.13214 l 0.30129,-0.11629 c 0.0529,-0.0211 0.11629,0.005 0.13743,0.0634 0.0211,0.0529 -0.005,0.11629 -0.0634,0.13743 z m -1.0043,0.37529 -0.30129,0.111 c -0.0529,0.0212 -0.11629,-0.005 -0.13743,-0.0581 -0.0211,-0.0581 0.0106,-0.11629 0.0634,-0.13743 l 0.30129,-0.11629 c 0.0581,-0.0159 0.11629,0.0106 0.13743,0.0634 0.0211,0.0529 -0.005,0.11629 -0.0634,0.13743 z m -0.99902,0.37529 -0.30657,0.11629 c -0.0529,0.0211 -0.11629,-0.0106 -0.13743,-0.0634 -0.0159,-0.0529 0.0106,-0.11629 0.0634,-0.13743 l 0.30657,-0.111 c 0.0529,-0.0212 0.11101,0.005 0.13215,0.0581 0.0211,0.0582 -0.005,0.11629 -0.0582,0.13743 z m -1.0043,0.38058 -0.30657,0.111 c -0.0529,0.0211 -0.11101,-0.005 -0.13215,-0.0634 -0.0211,-0.0529 0.005,-0.111 0.0581,-0.13214 l 0.30658,-0.11629 c 0.0529,-0.0211 0.11629,0.005 0.13743,0.0634 0.0159,0.0529 -0.0106,0.11629 -0.0634,0.13743 z m -1.0043,0.37529 -0.148,0.0529 c -0.0529,0.0211 -0.111,-0.005 -0.13215,-0.0581 -0.0211,-0.0582 0.005,-0.11629 0.0582,-0.13743 l 0.148,-0.0582 c 0.0529,-0.0159 0.11629,0.0106 0.13743,0.0634 0.0211,0.0529 -0.0106,0.11629 -0.0634,0.13743 z"
       id="path6160" />
    <path
       style="fill:none;stroke:#000000;stroke-width:0.169146px;stroke-linecap:round;stroke-linejoin:round;stroke-miterlimit:10;stroke-dasharray:none;stroke-opacity:1"
       d="m 409.76377,177.89197 8.96472,-9.85273"
       id="path6162" />
    <path
       style="fill:none;stroke:#000000;stroke-width:0.169146px;stroke-linecap:round;stroke-linejoin:round;stroke-miterlimit:10;stroke-dasharray:none;stroke-opacity:1"
       d="m 384.81479,160.72369 12.89735,-12.17848"
       id="path6164" />
    <path
       style="fill:none;stroke:#000000;stroke-width:0.169146px;stroke-linecap:round;stroke-linejoin:round;stroke-miterlimit:10;stroke-dasharray:none;stroke-opacity:1"
       d="m 390.56574,160.51226 -3.00233,2.96005"
       id="path6166" />
    <path
       style="fill:none;stroke:#000000;stroke-width:0.211432px;stroke-linecap:round;stroke-linejoin:round;stroke-miterlimit:10;stroke-dasharray:none;stroke-opacity:1"
       d="m 411.01122,178.80113 -3.34063,3.4252"
       id="path6168" />
    <path
       style="fill:none;stroke:#000000;stroke-width:0.211432px;stroke-linecap:round;stroke-linejoin:round;stroke-miterlimit:10;stroke-dasharray:none;stroke-opacity:1"
       d="m 388.55714,162.77458 19.5786,18.56373"
       id="path6170" />
    <path
       style="fill:#000000;fill-opacity:1;fill-rule:evenodd;stroke:none;stroke-width:0.264583"
       d="m 388.32456,162.58429 1.43774,0.61844 c -0.38586,0.0687 -0.68716,0.38586 -0.74001,0.77701 z"
       id="path6172" />
    <path
       style="fill:#000000;fill-opacity:1;fill-rule:evenodd;stroke:none;stroke-width:0.264583"
       d="m 407.63359,180.13315 0.69244,1.39545 -1.43774,-0.61315 c 0.39115,-0.0687 0.69244,-0.38586 0.7453,-0.7823 z"
       id="path6174" />
    <path
       style="fill:none;stroke:#000000;stroke-width:0.211432px;stroke-linecap:round;stroke-linejoin:round;stroke-miterlimit:10;stroke-dasharray:none;stroke-opacity:1"
       d="m 383.44048,157.53107 2.07203,2.07203"
       id="path6176" />
    <path
       style="fill:#000000;fill-opacity:1;fill-rule:evenodd;stroke:none;stroke-width:0.264583"
       d="m 385.05794,158.39794 0.64487,1.39545 -1.39546,-0.64487 c 0.38587,-0.0581 0.68716,-0.35943 0.75059,-0.75058 z"
       id="path6178" />
    <path
       style="fill:none;stroke:#000000;stroke-width:0.211432px;stroke-linecap:round;stroke-linejoin:round;stroke-miterlimit:10;stroke-dasharray:none;stroke-opacity:1"
       d="m 396.29555,150.08866 20.8472,19.53632"
       id="path6180" />
    <path
       style="fill:#000000;fill-opacity:1;fill-rule:evenodd;stroke:none;stroke-width:0.264583"
       d="m 396.06297,149.85608 1.43774,0.61316 c -0.38586,0.0687 -0.68187,0.39115 -0.73473,0.7823 z"
       id="path6182" />
    <path
       style="fill:#000000;fill-opacity:1;fill-rule:evenodd;stroke:none;stroke-width:0.264583"
       d="m 416.63531,168.37753 0.69773,1.39545 -1.43774,-0.60787 c 0.39115,-0.0687 0.68715,-0.39114 0.74001,-0.78758 z"
       id="path6184" />
    <path
       style="fill:#000000;fill-opacity:1;fill-rule:nonzero;stroke:none"
       clip-path="url(#clipEmfPath2-5)"
       d="m 548.99076,98.550634 2.9767,-3.336298 0.49944,0.439512 -0.43951,0.519424 c 0.33962,-0.119867 0.59933,-0.179801 0.77913,-0.159823 0.1798,0.03996 0.31965,0.09989 0.45949,0.219756 0.1798,0.159823 0.31965,0.399557 0.41954,0.699224 l -0.65927,0.359601 c -0.0799,-0.219756 -0.1798,-0.379578 -0.31964,-0.499445 -0.11987,-0.119867 -0.25972,-0.179801 -0.41954,-0.179801 -0.1798,-0.01998 -0.33962,0.01998 -0.49945,0.119867 -0.23973,0.139845 -0.45949,0.339623 -0.67924,0.579357 l -1.55827,1.738071 z m 3.43619,0.05993 c 0.5394,-0.619313 1.11875,-0.91898 1.73807,-0.91898 0.49944,0.01998 0.95893,0.199778 1.37847,0.559379 0.45949,0.419535 0.69922,0.899003 0.7192,1.458382 0.02,0.559385 -0.19978,1.118765 -0.65927,1.638185 -0.39956,0.43951 -0.75916,0.7192 -1.09878,0.83907 -0.3596,0.13984 -0.7192,0.15982 -1.0788,0.0799 -0.37958,-0.0799 -0.69923,-0.25971 -0.99889,-0.51942 -0.45949,-0.41954 -0.69923,-0.89901 -0.71921,-1.45839 -0.0399,-0.559377 0.21976,-1.118757 0.71921,-1.678136 z m 0.57935,0.519424 c -0.37958,0.419534 -0.57935,0.839069 -0.57935,1.218652 0,0.37958 0.13984,0.67924 0.41953,0.93896 0.27969,0.25971 0.61931,0.3596 0.99889,0.29966 0.3596,-0.04 0.75916,-0.27969 1.13874,-0.7192 0.37958,-0.41953 0.55938,-0.81909 0.55938,-1.198671 0,-0.379579 -0.13985,-0.699224 -0.41954,-0.938958 -0.27969,-0.259712 -0.61931,-0.359601 -0.97891,-0.319645 -0.37958,0.05993 -0.75916,0.299667 -1.13874,0.719202 z m 1.41843,4.255282 0.41953,-0.45949 4.29524,-0.5394 c -0.25972,-0.19978 -0.47947,-0.37958 -0.65927,-0.55938 l -1.35849,-1.19867 0.39955,-0.45949 2.73696,2.41732 -0.33962,0.37957 -3.6959,0.51943 -0.67924,0.0599 c 0.25971,0.21976 0.49944,0.41954 0.73918,0.61931 l 1.53829,1.37847 -0.43951,0.47947 z m 3.39623,3.03663 2.9767,-3.3363 0.51942,0.43951 -0.41953,0.47947 c 0.23973,-0.0799 0.49944,-0.0799 0.75915,-0.04 0.27969,0.0599 0.51943,0.19977 0.73918,0.37957 0.23974,0.23974 0.39956,0.45949 0.45949,0.69923 0.0799,0.25971 0.0599,0.49944 -0.0399,0.73918 0.61931,-0.15982 1.13873,-0.04 1.55827,0.33962 0.31964,0.27969 0.49944,0.59934 0.51942,0.93896 0.02,0.3596 -0.15982,0.7192 -0.49944,1.09878 l -2.03774,2.29745 -0.55938,-0.49945 1.87791,-2.11765 c 0.19978,-0.21975 0.31965,-0.39955 0.37958,-0.5394 0.04,-0.11986 0.0599,-0.25971 0.02,-0.41953 -0.0599,-0.13985 -0.13984,-0.27969 -0.25971,-0.37958 -0.23974,-0.21976 -0.49945,-0.31965 -0.79911,-0.29967 -0.29967,0.02 -0.59934,0.19978 -0.89901,0.5394 l -1.73807,1.95783 -0.55938,-0.51942 1.93785,-2.15761 c 0.21976,-0.25971 0.33962,-0.47947 0.3596,-0.69922 0.02,-0.19978 -0.0799,-0.39956 -0.27969,-0.59934 -0.15982,-0.13984 -0.3596,-0.21975 -0.55938,-0.25971 -0.21975,-0.04 -0.41953,0 -0.61931,0.0999 -0.19978,0.11987 -0.43951,0.31965 -0.7192,0.61931 l -1.53829,1.73807 z m 8.91011,0.81909 0.57936,-0.65927 0.55938,0.51942 -0.57936,0.6393 z m -3.5161,3.95561 2.95672,-3.3363 0.57936,0.49945 -2.9767,3.35627 z m 4.09546,2.91676 c -0.37958,-0.02 -0.67925,-0.0599 -0.93896,-0.15982 -0.25971,-0.0999 -0.51942,-0.25971 -0.73918,-0.45949 -0.3596,-0.31965 -0.55938,-0.65927 -0.59933,-1.01887 -0.04,-0.3596 0.0599,-0.65927 0.31964,-0.93896 0.13985,-0.1798 0.31965,-0.27969 0.49945,-0.3596 0.19978,-0.0599 0.39955,-0.0799 0.59933,-0.0599 0.1798,0.02 0.37958,0.0799 0.55938,0.1798 0.13985,0.0599 0.33962,0.1798 0.57936,0.3596 0.51942,0.3596 0.899,0.57936 1.17869,0.69922 0.0799,-0.0799 0.11987,-0.11986 0.13984,-0.13984 0.19978,-0.23973 0.29967,-0.43951 0.27969,-0.63929 -0.04,-0.25971 -0.19977,-0.49945 -0.47946,-0.75916 -0.25972,-0.23973 -0.49945,-0.3596 -0.71921,-0.37958 -0.19977,-0.02 -0.43951,0.0599 -0.7192,0.23974 L 566.791,110.1178 c 0.25972,-0.19978 0.51943,-0.31965 0.75916,-0.3596 0.23974,-0.04 0.49945,-0.02 0.79912,0.0999 0.27969,0.11986 0.57935,0.29966 0.85904,0.55937 0.27969,0.25972 0.49945,0.49945 0.59934,0.71921 0.11986,0.21975 0.1798,0.43951 0.1798,0.59933 0,0.1798 -0.0599,0.3596 -0.15982,0.55938 -0.0799,0.0999 -0.21976,0.27969 -0.43952,0.5394 l -0.67924,0.75916 c -0.45949,0.51942 -0.75916,0.85905 -0.85905,1.01887 -0.0999,0.15982 -0.15982,0.33962 -0.19978,0.5394 l -0.59933,-0.51942 c 0.04,-0.1798 0.13984,-0.3596 0.25971,-0.51943 z m 1.0788,-1.31853 c -0.27969,-0.0999 -0.65927,-0.29967 -1.11876,-0.59934 -0.25971,-0.1798 -0.45949,-0.27969 -0.59933,-0.31964 -0.13985,-0.0599 -0.25971,-0.0599 -0.37958,-0.02 -0.13985,0.04 -0.23973,0.0999 -0.31965,0.19978 -0.13984,0.13984 -0.19977,0.31964 -0.1798,0.51942 0.04,0.19978 0.15983,0.39956 0.37958,0.59933 0.21976,0.19978 0.45949,0.31965 0.69923,0.37958 0.25971,0.0599 0.49944,0.04 0.73918,-0.0599 0.15982,-0.0799 0.3596,-0.23973 0.57935,-0.47947 z m -0.0599,2.97669 2.97669,-3.35627 0.51943,0.45949 -0.45949,0.49944 c 0.33962,-0.11986 0.59933,-0.15982 0.77913,-0.13984 0.1798,0.02 0.33963,0.0999 0.45949,0.19978 0.19978,0.1798 0.33963,0.41953 0.41954,0.69922 l -0.65927,0.3596 c -0.0599,-0.19978 -0.15982,-0.3596 -0.29967,-0.49944 -0.13984,-0.0999 -0.27969,-0.15983 -0.43951,-0.1798 -0.15982,0 -0.31965,0.04 -0.47947,0.11986 -0.25971,0.15983 -0.47947,0.33963 -0.69922,0.57936 l -1.55827,1.75805 z m 3.93563,3.49612 2.9767,-3.33629 0.51942,0.43951 -0.45949,0.51942 c 0.33962,-0.11987 0.59934,-0.1798 0.77914,-0.15982 0.1798,0.02 0.33962,0.0999 0.45949,0.21975 0.19977,0.15983 0.33962,0.39956 0.41953,0.69923 l -0.65927,0.3596 c -0.0599,-0.21976 -0.15982,-0.37958 -0.29967,-0.49945 -0.11986,-0.11986 -0.27969,-0.1798 -0.43951,-0.1798 -0.15982,-0.02 -0.31964,0.02 -0.47947,0.11987 -0.23973,0.13985 -0.47946,0.33962 -0.67924,0.57936 l -1.55827,1.73807 z m 4.71477,3.45617 c -0.37958,-0.02 -0.67925,-0.0799 -0.93896,-0.1798 -0.25971,-0.0799 -0.49945,-0.23974 -0.73918,-0.43952 -0.3596,-0.31964 -0.55938,-0.65926 -0.59933,-1.01886 -0.04,-0.35961 0.0599,-0.67925 0.31964,-0.95894 0.13985,-0.15982 0.31965,-0.27969 0.49945,-0.33962 0.19977,-0.0799 0.39955,-0.0999 0.59933,-0.0599 0.1798,0.02 0.37958,0.0799 0.55938,0.15983 0.13985,0.0799 0.33962,0.19977 0.57936,0.37957 0.51942,0.33963 0.899,0.57936 1.19867,0.69923 0.0599,-0.0799 0.0999,-0.11987 0.11986,-0.13985 0.21976,-0.23973 0.29967,-0.43951 0.27969,-0.63929 -0.0399,-0.25971 -0.1798,-0.51942 -0.47946,-0.75915 -0.25972,-0.23974 -0.49945,-0.37958 -0.71921,-0.39956 -0.19977,-0.02 -0.43951,0.0799 -0.7192,0.25971 l -0.47947,-0.57936 c 0.25972,-0.1798 0.51943,-0.29966 0.75916,-0.33962 0.23974,-0.0599 0.51943,-0.02 0.79912,0.0999 0.27968,0.11987 0.57935,0.29967 0.85904,0.55938 0.29967,0.25971 0.49945,0.49944 0.61931,0.7192 0.11987,0.21976 0.15983,0.41954 0.15983,0.59934 0,0.1798 -0.0599,0.3596 -0.15983,0.5394 -0.0799,0.11986 -0.21975,0.29966 -0.43951,0.55938 l -0.67924,0.75915 c -0.45949,0.51943 -0.75916,0.85905 -0.85905,1.01887 -0.0999,0.15983 -0.15982,0.33963 -0.19978,0.5394 l -0.59933,-0.5394 c 0.0399,-0.15982 0.13984,-0.33962 0.25971,-0.49944 z m 1.0788,-1.31854 c -0.27969,-0.0999 -0.65927,-0.29967 -1.11876,-0.59933 -0.25971,-0.1798 -0.45949,-0.29967 -0.59933,-0.33963 -0.13985,-0.0399 -0.25971,-0.0399 -0.37958,0 -0.11987,0.02 -0.23974,0.0999 -0.31965,0.19978 -0.13984,0.13985 -0.19977,0.31965 -0.15982,0.51942 0.02,0.19978 0.13985,0.39956 0.3596,0.59934 0.21976,0.19978 0.45949,0.31964 0.7192,0.37958 0.23974,0.0599 0.47947,0.04 0.71921,-0.0599 0.1798,-0.0799 0.3596,-0.23973 0.59933,-0.47946 z m -0.0399,2.9767 2.95671,-3.35628 0.51943,0.45949 -0.41954,0.45949 c 0.23974,-0.0599 0.49945,-0.0799 0.75916,-0.02 0.27969,0.0599 0.51942,0.1798 0.73918,0.37958 0.23973,0.21976 0.39956,0.45949 0.47947,0.69923 0.0599,0.23973 0.0399,0.47947 -0.0599,0.73918 0.61932,-0.15983 1.13874,-0.0599 1.55828,0.31964 0.33962,0.29967 0.49944,0.61931 0.51942,0.95894 0.02,0.33962 -0.13985,0.69922 -0.47947,1.0788 l -2.05772,2.29745 -0.55937,-0.49944 1.87791,-2.09768 c 0.19978,-0.23973 0.31965,-0.41953 0.37958,-0.5394 0.0599,-0.13984 0.0599,-0.27969 0.02,-0.41953 -0.04,-0.13985 -0.13985,-0.27969 -0.25971,-0.39956 -0.23974,-0.19978 -0.49945,-0.29967 -0.79912,-0.27969 -0.29966,0.02 -0.59933,0.19978 -0.899,0.5394 l -1.73807,1.93785 -0.55938,-0.49944 1.93785,-2.17759 c 0.21976,-0.23973 0.33962,-0.47946 0.3596,-0.67924 0.02,-0.21976 -0.0799,-0.41954 -0.27969,-0.59934 -0.15982,-0.13984 -0.33962,-0.21975 -0.55938,-0.25971 -0.21975,-0.04 -0.41953,0 -0.61931,0.0999 -0.19978,0.0999 -0.43951,0.31964 -0.7192,0.61931 l -1.5383,1.73807 z m 4.19534,6.0333 0.39956,-0.57936 c 0.0999,0.13985 0.19977,0.25972 0.27969,0.33963 0.13984,0.0999 0.25971,0.1798 0.3596,0.19978 0.11986,0.02 0.23973,0.02 0.3596,-0.02 0.0799,-0.02 0.25971,-0.0999 0.5394,-0.25971 0.0399,-0.02 0.0999,-0.0599 0.1798,-0.0999 l 1.69811,-4.47504 0.61932,0.53941 -1.01887,2.55716 c -0.13985,0.33962 -0.27969,0.65927 -0.45949,0.99889 0.29967,-0.19978 0.59933,-0.39956 0.91898,-0.55938 l 2.43729,-1.31854 0.57936,0.51943 -4.29523,2.25749 c -0.47947,0.25971 -0.79912,0.39956 -0.99889,0.47947 -0.25972,0.0999 -0.49945,0.13984 -0.71921,0.0999 -0.19977,-0.02 -0.39955,-0.11987 -0.57935,-0.27969 -0.0999,-0.0999 -0.19978,-0.21976 -0.29967,-0.39956 z"
       id="path6186"
       transform="matrix(0.26458333,0,0,0.26458333,246.26338,143.02683)" />
    <path
       style="fill:#000000;fill-opacity:1;fill-rule:nonzero;stroke:none"
       clip-path="url(#clipEmfPath3-0)"
       d="m 602.41148,65.027836 0.65926,0.479467 c -0.21975,0.339624 -0.31964,0.639291 -0.27969,0.938958 0.04,0.27969 0.15983,0.519424 0.39956,0.719202 0.25971,0.239734 0.59934,0.339623 0.95894,0.299668 0.37958,-0.03996 0.7192,-0.219756 1.01887,-0.55938 0.27969,-0.339623 0.41953,-0.659268 0.39955,-1.018869 -0.02,-0.339623 -0.1798,-0.63929 -0.47947,-0.899002 -0.1798,-0.179801 -0.37957,-0.27969 -0.59933,-0.319645 -0.21976,-0.03996 -0.43951,-0.03996 -0.63929,0.01998 l -0.47947,-0.539401 2.55716,-1.997783 2.29745,2.037739 -0.47946,0.539401 -1.83796,-1.618204 -1.3585,1.018869 c 0.45949,0.05993 0.83907,0.219756 1.13874,0.479468 0.39956,0.359601 0.61931,0.799113 0.65927,1.318537 0.02,0.539401 -0.13985,1.018869 -0.5394,1.458381 -0.3596,0.419535 -0.79912,0.679247 -1.31854,0.759158 -0.63929,0.119867 -1.19867,-0.05993 -1.71809,-0.499446 -0.41954,-0.379579 -0.65927,-0.799113 -0.71921,-1.258603 -0.0599,-0.479468 0.0599,-0.91898 0.35961,-1.358492 z m 5.63374,2.637073 c -0.15982,-0.299667 -0.23973,-0.559379 -0.19978,-0.819091 0.02,-0.259712 0.13985,-0.519424 0.33963,-0.73918 0.27969,-0.339623 0.65927,-0.519423 1.09878,-0.519423 0.43951,-0.01998 0.87902,0.139845 1.27858,0.499445 0.39956,0.359601 0.61931,0.759158 0.65927,1.218648 0.0399,0.439512 -0.0799,0.839069 -0.37958,1.178692 -0.1798,0.219756 -0.39956,0.359601 -0.65927,0.419534 -0.25971,0.05993 -0.5394,0.01998 -0.83907,-0.09989 0.19978,0.359601 0.27969,0.699224 0.25971,1.038847 -0.0399,0.319646 -0.1798,0.639291 -0.43951,0.918981 -0.33962,0.399556 -0.77913,0.619312 -1.29856,0.63929 -0.51942,0.01998 -0.99889,-0.159822 -1.45838,-0.559379 -0.45949,-0.419534 -0.69922,-0.879025 -0.75916,-1.398448 -0.0399,-0.499446 0.11987,-0.978914 0.47947,-1.37847 0.25971,-0.299668 0.55938,-0.479468 0.899,-0.55938 0.31965,-0.05993 0.65927,-0.01998 1.01887,0.159823 z m 0.73918,-1.058825 c -0.19978,0.219756 -0.27969,0.45949 -0.25971,0.719202 0,0.259712 0.13985,0.499446 0.3596,0.699224 0.21976,0.1798 0.45949,0.27969 0.7192,0.259712 0.25972,-0.01998 0.47947,-0.119867 0.65927,-0.319646 0.1798,-0.199778 0.25971,-0.439512 0.23974,-0.719201 -0.02,-0.259712 -0.13985,-0.499446 -0.33963,-0.679247 -0.21975,-0.199778 -0.45949,-0.279689 -0.73918,-0.279689 -0.25971,0.01998 -0.47946,0.119867 -0.63929,0.319645 z m -2.07769,1.977805 c -0.13985,0.159823 -0.23974,0.359601 -0.29967,0.579357 -0.0599,0.219756 -0.04,0.439512 0.04,0.659269 0.0799,0.199778 0.19978,0.399556 0.37958,0.539401 0.27969,0.239734 0.57935,0.359601 0.899,0.339623 0.33962,-0.01998 0.61931,-0.159823 0.85904,-0.439512 0.23974,-0.27969 0.33963,-0.579357 0.31965,-0.91898 -0.02,-0.339623 -0.1798,-0.639291 -0.43951,-0.879025 -0.27969,-0.219756 -0.57936,-0.339623 -0.899,-0.319645 -0.33963,0.03996 -0.61932,0.1798 -0.85905,0.439512 z"
       id="path6188"
       transform="matrix(0.26458333,0,0,0.26458333,245.97419,144.039)" />
    <path
       style="fill:#000000;fill-opacity:1;fill-rule:nonzero;stroke:none"
       clip-path="url(#clipEmfPath4-5)"
       d="m 603.63012,76.49511 0.49945,0.559379 c -0.39956,0.339623 -0.81909,0.499446 -1.2586,0.499446 -0.45949,0 -0.85905,-0.159823 -1.21865,-0.479468 -0.45949,-0.399557 -0.69923,-0.879025 -0.7192,-1.438404 -0.02,-0.539401 0.21975,-1.098781 0.7192,-1.65816 0.31964,-0.359601 0.65927,-0.619313 1.01887,-0.799113 0.3596,-0.159823 0.7192,-0.199778 1.0788,-0.119867 0.37958,0.07991 0.69922,0.239734 0.97891,0.499446 0.37958,0.319645 0.59934,0.679246 0.65927,1.058825 0.0799,0.399556 0,0.779135 -0.23973,1.178692 l -0.63929,-0.399557 c 0.15982,-0.259712 0.19978,-0.519423 0.1798,-0.759157 -0.04,-0.219757 -0.15982,-0.419535 -0.33963,-0.599335 -0.27968,-0.239734 -0.61931,-0.339623 -0.97891,-0.299668 -0.3596,0.05993 -0.7192,0.299668 -1.11876,0.73918 -0.39955,0.45949 -0.59933,0.859047 -0.59933,1.218648 -0.02,0.3596 0.11986,0.659268 0.39955,0.899002 0.21976,0.199778 0.47947,0.299667 0.73918,0.279689 0.27969,0 0.55938,-0.119866 0.83907,-0.379578 z m -0.02,2.157605 2.93675,-3.356275 0.51942,0.439512 -0.41953,0.479468 c 0.25971,-0.07991 0.51942,-0.07991 0.77913,-0.03996 0.25971,0.05993 0.49945,0.179801 0.7192,0.379579 0.25971,0.219756 0.41954,0.45949 0.47947,0.699224 0.0799,0.239734 0.0599,0.479468 -0.04,0.719202 0.61932,-0.159823 1.11876,-0.03996 1.55828,0.319645 0.33962,0.299668 0.49944,0.619313 0.51942,0.958936 0.02,0.339623 -0.13985,0.699224 -0.47947,1.098781 l -2.01776,2.29745 -0.57936,-0.499445 1.85794,-2.11765 c 0.19978,-0.219757 0.33962,-0.399557 0.37958,-0.539402 0.0599,-0.119867 0.0599,-0.259712 0.02,-0.419534 -0.04,-0.139845 -0.13985,-0.27969 -0.25971,-0.379579 -0.23974,-0.219756 -0.49945,-0.319645 -0.79912,-0.27969 -0.29966,0.01998 -0.59933,0.199779 -0.899,0.539402 l -1.71809,1.957827 -0.55938,-0.499446 1.91787,-2.197561 c 0.21976,-0.239734 0.33962,-0.479468 0.3596,-0.679246 0.02,-0.219756 -0.0799,-0.419535 -0.29967,-0.599335 -0.15982,-0.139845 -0.33962,-0.219756 -0.55938,-0.259712 -0.19977,-0.03995 -0.39955,0 -0.61931,0.09989 -0.19978,0.119867 -0.43951,0.319646 -0.69922,0.639291 l -1.5383,1.738071 z"
       id="path6190"
       transform="matrix(0.26458333,0,0,0.26458333,248.57691,143.60521)" />
    <path
       style="fill:#000000;fill-opacity:1;fill-rule:nonzero;stroke:none"
       clip-path="url(#clipEmfPath5-8)"
       d="m 525.15721,84.945732 0.47947,-0.55938 c 0.27969,0.199779 0.5394,0.299668 0.75915,0.27969 0.23974,0 0.45949,-0.09989 0.63929,-0.299667 0.1798,-0.159823 0.27969,-0.339624 0.33963,-0.539402 0.04,-0.199778 0.04,-0.399556 0,-0.599335 -0.04,-0.219756 -0.13985,-0.45949 -0.29967,-0.719202 -0.15982,-0.279689 -0.33962,-0.519423 -0.55938,-0.739179 -0.04,-0.01998 -0.0599,-0.05993 -0.11987,-0.09989 0.0599,0.259711 0.0599,0.559379 -0.04,0.839068 -0.0799,0.299668 -0.21976,0.55938 -0.43951,0.759158 -0.35961,0.359601 -0.79912,0.539401 -1.31854,0.519424 -0.51942,-0.01998 -0.97891,-0.239734 -1.39845,-0.679247 -0.43951,-0.439512 -0.65927,-0.938958 -0.67925,-1.478359 0,-0.519424 0.19978,-0.978914 0.59934,-1.37847 0.27969,-0.27969 0.61931,-0.45949 1.01887,-0.539402 0.37958,-0.07991 0.77913,-0.01998 1.17869,0.139845 0.39956,0.159823 0.87903,0.519424 1.39845,1.058825 0.55938,0.559379 0.93896,1.078803 1.13873,1.518315 0.21976,0.45949 0.27969,0.899002 0.19978,1.298559 -0.0599,0.419534 -0.25971,0.779135 -0.57935,1.098781 -0.3596,0.339623 -0.71921,0.519423 -1.13874,0.539401 -0.39956,0.01998 -0.79911,-0.119867 -1.17869,-0.419534 z m 0.29967,-4.115433 c -0.29967,-0.319646 -0.61932,-0.479468 -0.95894,-0.499446 -0.3596,-0.01998 -0.63929,0.07991 -0.87902,0.319645 -0.23974,0.219756 -0.33963,0.539402 -0.33963,0.899003 0.02,0.379578 0.1798,0.719201 0.47947,1.038847 0.27969,0.279689 0.59933,0.419534 0.93896,0.419534 0.33962,0.01998 0.63929,-0.09989 0.87902,-0.339623 0.25971,-0.239734 0.37958,-0.539401 0.3596,-0.879024 0,-0.319646 -0.15982,-0.659269 -0.47946,-0.958936 z"
       id="path6192"
       transform="matrix(0.26458333,0,0,0.26458333,245.97419,141.00248)" />
    <path
       style="fill:#000000;fill-opacity:1;fill-rule:nonzero;stroke:none"
       clip-path="url(#clipEmfPath6-6)"
       d="m 526.13612,74.277571 0.61931,-0.439513 c 0.29967,0.419535 0.41954,0.859047 0.37958,1.298559 -0.02,0.439513 -0.21975,0.839069 -0.57935,1.178692 -0.41954,0.419535 -0.91898,0.619313 -1.45839,0.599335 -0.55937,-0.01998 -1.0788,-0.299667 -1.6182,-0.839069 -0.33962,-0.339623 -0.57936,-0.699224 -0.69922,-1.078803 -0.13985,-0.3596 -0.15983,-0.739179 -0.0599,-1.078802 0.0999,-0.359601 0.29967,-0.679247 0.57936,-0.958936 0.33962,-0.339623 0.7192,-0.519424 1.09878,-0.559379 0.39956,-0.03996 0.77914,0.05993 1.15871,0.319645 l -0.43951,0.599335 c -0.25971,-0.159823 -0.51942,-0.239734 -0.73918,-0.219756 -0.23973,0.01998 -0.43951,0.119867 -0.61931,0.299667 -0.27969,0.259712 -0.39956,0.579357 -0.37958,0.938958 0.02,0.359601 0.23974,0.759158 0.65927,1.178692 0.41953,0.439512 0.79911,0.659268 1.15871,0.699224 0.3596,0.01998 0.65927,-0.07991 0.91898,-0.339623 0.21976,-0.219756 0.33963,-0.45949 0.33963,-0.719202 0.02,-0.279689 -0.0799,-0.559379 -0.31965,-0.879024 z m 2.15761,0.199778 -3.13652,-3.196453 0.47947,-0.479468 0.43951,0.45949 c -0.04,-0.259711 -0.04,-0.519423 0.0399,-0.779135 0.0599,-0.259712 0.21976,-0.479468 0.41954,-0.699224 0.23973,-0.219756 0.47947,-0.359601 0.73918,-0.419534 0.23973,-0.03996 0.47947,-0.01998 0.7192,0.09989 -0.11987,-0.619313 0.04,-1.138737 0.43951,-1.518315 0.31965,-0.319646 0.63929,-0.45949 0.97892,-0.45949 0.3596,0 0.69922,0.199778 1.05882,0.559379 l 2.15761,2.197561 -0.53941,0.519424 -1.9778,-2.017761 c -0.21976,-0.199778 -0.37958,-0.339623 -0.51942,-0.399557 -0.11987,-0.05993 -0.25972,-0.07991 -0.41954,-0.05993 -0.13984,0.03996 -0.27969,0.119867 -0.39955,0.239734 -0.21976,0.219756 -0.33963,0.479468 -0.33963,0.779135 0,0.27969 0.15982,0.599335 0.47947,0.938958 l 1.81798,1.857938 -0.5394,0.519424 -2.03774,-2.077695 c -0.23973,-0.239733 -0.45949,-0.379578 -0.65927,-0.399556 -0.21975,-0.03996 -0.41953,0.03996 -0.61931,0.239734 -0.13984,0.139845 -0.23973,0.319645 -0.29967,0.519423 -0.0599,0.219757 -0.04,0.419535 0.0599,0.639291 0.0999,0.219756 0.27969,0.45949 0.57935,0.759157 l 1.61821,1.65816 z"
       id="path6194"
       transform="matrix(0.26458333,0,0,0.26458333,247.42015,142.15925)" />
    <path
       style="fill:none;stroke:#000000;stroke-width:0.211432px;stroke-linecap:round;stroke-linejoin:round;stroke-miterlimit:10;stroke-dasharray:none;stroke-opacity:1"
       d="m 409.74263,179.77372 3.04462,2.7909"
       id="path6196" />
    <path
       style="fill:none;stroke:#000000;stroke-width:0.211432px;stroke-linecap:round;stroke-linejoin:round;stroke-miterlimit:10;stroke-dasharray:none;stroke-opacity:1"
       d="m 411.73009,177.57482 3.17148,2.91777"
       id="path6198" />
    <path
       style="fill:none;stroke:#000000;stroke-width:0.211432px;stroke-linecap:round;stroke-linejoin:round;stroke-miterlimit:10;stroke-dasharray:none;stroke-opacity:1"
       d="m 410.20778,184.00236 1.77603,-2.07204"
       id="path6200" />
    <path
       style="fill:#000000;fill-opacity:1;fill-rule:evenodd;stroke:none;stroke-width:0.264583"
       d="m 412.13181,181.65546 -0.53915,1.48003 c -0.0899,-0.38587 -0.41758,-0.6713 -0.81402,-0.7083 z"
       id="path6202" />
    <path
       style="fill:none;stroke:#000000;stroke-width:0.211432px;stroke-linecap:round;stroke-linejoin:round;stroke-miterlimit:10;stroke-dasharray:none;stroke-opacity:1"
       d="m 415.78958,177.23653 -1.77603,2.11432"
       id="path6204" />
    <path
       style="fill:#000000;fill-opacity:1;fill-rule:evenodd;stroke:none;stroke-width:0.264583"
       d="m 414.34656,178.06112 c 0.10043,0.38586 0.43343,0.66601 0.82987,0.69772 l -1.35317,0.7823 z"
       id="path6206" />
    <path
       style="fill:#000000;fill-opacity:1;fill-rule:nonzero;stroke:none"
       clip-path="url(#clipEmfPath7-8)"
       d="m 636.93316,163.11898 c -0.31964,0.1798 -0.59933,0.25971 -0.87902,0.23973 -0.27969,-0.02 -0.55938,-0.11986 -0.79911,-0.31964 -0.37958,-0.31965 -0.57936,-0.69923 -0.61932,-1.17869 -0.0399,-0.47947 0.11987,-0.93896 0.47947,-1.37847 0.37958,-0.45949 0.79912,-0.71921 1.27858,-0.77914 0.47947,-0.0599 0.91898,0.0599 1.29856,0.3596 0.23974,0.19978 0.39956,0.43951 0.45949,0.69923 0.0799,0.27968 0.0599,0.57935 -0.0399,0.899 0.3596,-0.21976 0.7192,-0.33963 1.0788,-0.31965 0.3596,0.02 0.69922,0.15982 1.01887,0.41954 0.43951,0.3596 0.67925,0.81909 0.73918,1.37847 0.0399,0.55938 -0.13985,1.0788 -0.55938,1.59822 -0.39956,0.49945 -0.87903,0.79912 -1.4384,0.85905 -0.55938,0.0599 -1.05883,-0.0799 -1.51832,-0.43951 -0.31964,-0.27969 -0.5394,-0.59934 -0.61931,-0.93896 -0.0999,-0.3596 -0.0599,-0.7192 0.11986,-1.09878 z m -1.17869,-0.75916 c 0.23974,0.19978 0.49945,0.29967 0.79912,0.25971 0.27969,-0.04 0.51942,-0.1798 0.7192,-0.41953 0.19978,-0.23974 0.27969,-0.51942 0.25971,-0.79911 -0.04,-0.27969 -0.15982,-0.49945 -0.37958,-0.67925 -0.23973,-0.19978 -0.49944,-0.27969 -0.77913,-0.23973 -0.27969,0.04 -0.51943,0.15982 -0.71921,0.39955 -0.19977,0.25971 -0.27969,0.51943 -0.25971,0.79912 0.02,0.27968 0.13985,0.51942 0.3596,0.67924 z m 2.21754,2.13763 c 0.1798,0.15982 0.37958,0.25971 0.61931,0.29967 0.23974,0.0599 0.47947,0.04 0.71921,-0.0599 0.21975,-0.0999 0.41953,-0.23973 0.57935,-0.43951 0.23974,-0.29967 0.33963,-0.61931 0.29967,-0.97891 -0.02,-0.3596 -0.19978,-0.65927 -0.49944,-0.899 -0.29967,-0.23974 -0.6393,-0.33963 -0.9989,-0.29967 -0.3596,0.04 -0.65926,0.19978 -0.91898,0.51942 -0.23973,0.29967 -0.33962,0.61931 -0.29966,0.97891 0.0399,0.33963 0.19977,0.6393 0.49944,0.87903 z"
       id="path6208"
       transform="matrix(0.26458333,0,0,0.26458333,244.81742,140.7133)" />
    <path
       style="fill:#000000;fill-opacity:1;fill-rule:nonzero;stroke:none"
       clip-path="url(#clipEmfPath8)"
       d="m 637.51252,152.89033 0.57936,-0.55938 c 0.37958,0.41954 0.55938,0.85905 0.57936,1.33852 0.02,0.47946 -0.13985,0.91898 -0.45949,1.31853 -0.41954,0.51943 -0.91898,0.79912 -1.49834,0.83907 -0.59934,0.04 -1.19867,-0.19978 -1.81798,-0.69922 -0.39956,-0.33963 -0.69923,-0.67925 -0.89901,-1.05883 -0.19977,-0.37958 -0.25971,-0.75916 -0.1798,-1.15871 0.0599,-0.39956 0.21976,-0.75916 0.47947,-1.0788 0.33962,-0.39956 0.69923,-0.65927 1.11876,-0.73918 0.41953,-0.0999 0.83907,-0.02 1.27858,0.19977 l -0.39956,0.69923 c -0.29966,-0.13985 -0.57935,-0.19978 -0.81909,-0.15982 -0.25971,0.0599 -0.45949,0.1798 -0.63929,0.39955 -0.23973,0.31965 -0.33962,0.65927 -0.27969,1.05883 0.0599,0.37958 0.33963,0.75915 0.83907,1.17869 0.49945,0.39956 0.93896,0.59933 1.33852,0.59933 0.37958,-0.02 0.69922,-0.1798 0.93895,-0.47946 0.19978,-0.25972 0.29967,-0.51943 0.27969,-0.8191 -0.02,-0.27968 -0.15982,-0.57935 -0.43951,-0.87902 z m 2.29745,-0.0599 -3.71587,-3.01666 0.45949,-0.57935 0.51942,0.43951 c -0.0999,-0.27969 -0.11987,-0.55938 -0.0599,-0.83907 0.04,-0.27969 0.15982,-0.5394 0.3596,-0.79911 0.21975,-0.27969 0.47946,-0.45949 0.7192,-0.5394 0.25971,-0.0799 0.5394,-0.0799 0.79911,0.02 -0.19978,-0.65926 -0.0999,-1.21864 0.27969,-1.67813 0.29967,-0.37958 0.63929,-0.57936 0.99889,-0.61932 0.3596,-0.02 0.75916,0.13985 1.1787,0.47947 l 2.57714,2.0777 -0.51943,0.61931 -2.3374,-1.8979 c -0.25972,-0.19977 -0.45949,-0.33962 -0.59934,-0.37957 -0.15982,-0.0599 -0.29967,-0.0599 -0.45949,0 -0.15982,0.0599 -0.27969,0.15982 -0.39956,0.29966 -0.21975,0.25972 -0.31964,0.55938 -0.27969,0.85905 0.04,0.31965 0.23974,0.63929 0.63929,0.93896 l 2.15761,1.75805 -0.51942,0.63929 -2.41732,-1.95783 c -0.27969,-0.23973 -0.5394,-0.3596 -0.75916,-0.3596 -0.21975,-0.02 -0.41953,0.0999 -0.61931,0.31964 -0.13985,0.17981 -0.23973,0.39956 -0.25971,0.61932 -0.02,0.21975 0.02,0.43951 0.13984,0.65927 0.11987,0.21975 0.3596,0.45949 0.69923,0.73918 l 1.93785,1.55827 z"
       id="path6210"
       transform="matrix(0.26458333,0,0,0.26458333,246.84176,141.58087)" />
  </g>
</svg>
