<?xml version="1.0" encoding="UTF-8" standalone="no"?>

<svg
   viewBox="0 0 39.794149 42.328685"
   version="1.1"
   id="svg5"
   inkscape:version="1.2.2 (732a01da63, 2022-12-09)"
   sodipodi:docname="grudzień 2011 - zad. 18.svg"
   xmlns:inkscape="http://www.inkscape.org/namespaces/inkscape"
   xmlns:sodipodi="http://sodipodi.sourceforge.net/DTD/sodipodi-0.dtd"
   xmlns="http://www.w3.org/2000/svg"
   xmlns:svg="http://www.w3.org/2000/svg">
  <sodipodi:namedview
     id="namedview7"
     pagecolor="#ffffff"
     bordercolor="#000000"
     borderopacity="0.25"
     inkscape:showpageshadow="2"
     inkscape:pageopacity="0.0"
     inkscape:pagecheckerboard="0"
     inkscape:deskcolor="#d1d1d1"
     inkscape:document-units="mm"
     showgrid="false"
     inkscape:zoom="0.914906"
     inkscape:cx="-162.31176"
     inkscape:cy="-189.63697"
     inkscape:window-width="1379"
     inkscape:window-height="1230"
     inkscape:window-x="2607"
     inkscape:window-y="186"
     inkscape:window-maximized="0"
     inkscape:current-layer="layer1" />
  <defs
     id="defs2">
    <clipPath
       clipPathUnits="userSpaceOnUse"
       id="clipEmfPath1">
      <path
         d="M 0,0 H 601.09294 V 161.42086 H 0 Z"
         id="path9" />
    </clipPath>
    <pattern
       id="EMFhbasepattern"
       patternUnits="userSpaceOnUse"
       width="6"
       height="6"
       x="0"
       y="0" />
    <clipPath
       clipPathUnits="userSpaceOnUse"
       id="clipEmfPath1-9">
      <path
         d="M 0,0 H 601.09294 V 148.47523 H 0 Z"
         id="path390" />
    </clipPath>
    <pattern
       id="EMFhbasepattern-3"
       patternUnits="userSpaceOnUse"
       width="6"
       height="6"
       x="0"
       y="0" />
    <clipPath
       clipPathUnits="userSpaceOnUse"
       id="clipEmfPath1-1">
      <path
         d="m 200.09794,0.79911319 h 50.34413 V 100.04897 h -50.34413 z"
         id="path580" />
    </clipPath>
    <clipPath
       clipPathUnits="userSpaceOnUse"
       id="clipEmfPath2">
      <path
         d="M 200.09766,100.04883 V 0.79882812 h 50.34375 -50.34375 z"
         id="path583" />
    </clipPath>
    <clipPath
       clipPathUnits="userSpaceOnUse"
       id="clipEmfPath3">
      <path
         d="M 250.44207,0.79911319 H 354.00714 V 100.04897 H 250.44207 Z"
         id="path586" />
    </clipPath>
    <clipPath
       clipPathUnits="userSpaceOnUse"
       id="clipEmfPath4">
      <path
         d="M 269.78125,67.605469 V 99.25 h 31.00586 V 67.605469 Z"
         id="path589" />
    </clipPath>
    <clipPath
       clipPathUnits="userSpaceOnUse"
       id="clipEmfPath5">
      <path
         d="M 301.58594,67.605469 V 99.25 h 30.8457 V 67.605469 Z"
         id="path592" />
    </clipPath>
    <clipPath
       clipPathUnits="userSpaceOnUse"
       id="clipEmfPath6">
      <path
         d="m 354.00714,0.79911319 h 132.0135 V 100.04897 h -132.0135 z"
         id="path595" />
    </clipPath>
    <clipPath
       clipPathUnits="userSpaceOnUse"
       id="clipEmfPath7">
      <path
         d="M 354.00781,100.04883 V 0.79882812 H 486.02148 354.00781 Z"
         id="path598" />
    </clipPath>
    <clipPath
       clipPathUnits="userSpaceOnUse"
       id="clipEmfPath8">
      <path
         d="M 0,0.79911319 H 601.09294 V 135.20995 H 0 Z"
         id="path601" />
    </clipPath>
    <pattern
       id="EMFhbasepattern-2"
       patternUnits="userSpaceOnUse"
       width="6"
       height="6"
       x="0"
       y="0" />
    <clipPath
       clipPathUnits="userSpaceOnUse"
       id="clipEmfPath1-4">
      <path
         d="M 0,0 H 601.09294 V 105.48294 H 0 Z"
         id="path927" />
    </clipPath>
    <pattern
       id="EMFhbasepattern-28"
       patternUnits="userSpaceOnUse"
       width="6"
       height="6"
       x="0"
       y="0" />
    <clipPath
       clipPathUnits="userSpaceOnUse"
       id="clipEmfPath1-2">
      <path
         d="M 0,0 H 601.09294 V 186.03355 H 0 Z"
         id="path1066" />
    </clipPath>
    <clipPath
       clipPathUnits="userSpaceOnUse"
       id="clipEmfPath2-6">
      <path
         d="m 283.04589,160.46193 h 14.70368 v 17.42067 h -14.70368 z"
         id="path1069" />
    </clipPath>
    <clipPath
       clipPathUnits="userSpaceOnUse"
       id="clipEmfPath3-3">
      <path
         d="m 357.52324,77.513979 h 12.14652 v 17.420667 h -12.14652 z"
         id="path1072" />
    </clipPath>
    <pattern
       id="EMFhbasepattern-24"
       patternUnits="userSpaceOnUse"
       width="6"
       height="6"
       x="0"
       y="0" />
    <clipPath
       clipPathUnits="userSpaceOnUse"
       id="clipEmfPath1-41">
      <path
         d="M -278.8905,0.79911319 H 322.20244 V 147.51629 H -278.8905 Z"
         id="path1190" />
    </clipPath>
    <clipPath
       clipPathUnits="userSpaceOnUse"
       id="clipEmfPath2-1">
      <path
         d="M 0.47946791,13.904569 H 15.183151 V 31.325237 H 0.47946791 Z"
         id="path1193" />
    </clipPath>
    <clipPath
       clipPathUnits="userSpaceOnUse"
       id="clipEmfPath3-0">
      <path
         d="M 58.974553,69.043379 H 70.961251 V 86.304224 H 58.974553 Z"
         id="path1196" />
    </clipPath>
    <pattern
       id="EMFhbasepattern-34"
       patternUnits="userSpaceOnUse"
       width="6"
       height="6"
       x="0"
       y="0" />
    <clipPath
       clipPathUnits="userSpaceOnUse"
       id="clipEmfPath1-0">
      <path
         d="M 0,0 H 601.09294 V 196.2622 H 0 Z"
         id="path1293" />
    </clipPath>
    <clipPath
       clipPathUnits="userSpaceOnUse"
       id="clipEmfPath2-5">
      <path
         d="m 271.05919,24.612686 h 31.48506 v 80.710434 h -31.48506 z"
         id="path1296" />
    </clipPath>
    <clipPath
       clipPathUnits="userSpaceOnUse"
       id="clipEmfPath3-38">
      <path
         d="m 303.34337,24.612686 h 79.27202 v 80.710434 h -79.27202 z"
         id="path1299" />
    </clipPath>
    <clipPath
       clipPathUnits="userSpaceOnUse"
       id="clipEmfPath4-3">
      <path
         d="m 383.41451,24.612686 h 31.48506 v 80.710434 h -31.48506 z"
         id="path1302" />
    </clipPath>
    <clipPath
       clipPathUnits="userSpaceOnUse"
       id="clipEmfPath5-6">
      <path
         d="m 271.05919,110.1178 h 31.48506 v 53.86023 h -31.48506 z"
         id="path1305" />
    </clipPath>
    <clipPath
       clipPathUnits="userSpaceOnUse"
       id="clipEmfPath6-3">
      <path
         d="m 303.34337,110.1178 h 79.27202 v 53.86023 h -79.27202 z"
         id="path1308" />
    </clipPath>
    <clipPath
       clipPathUnits="userSpaceOnUse"
       id="clipEmfPath7-4">
      <path
         d="m 383.41451,110.1178 h 31.48506 v 53.86023 h -31.48506 z"
         id="path1311" />
    </clipPath>
    <pattern
       id="EMFhbasepattern-9"
       patternUnits="userSpaceOnUse"
       width="6"
       height="6"
       x="0"
       y="0" />
    <clipPath
       clipPathUnits="userSpaceOnUse"
       id="clipEmfPath1-6">
      <path
         d="M -194.82379,0 H 406.26914 V 120.50627 H -194.82379 Z"
         id="path1651" />
    </clipPath>
    <pattern
       id="EMFhbasepattern-0"
       patternUnits="userSpaceOnUse"
       width="6"
       height="6"
       x="0"
       y="0" />
    <clipPath
       clipPathUnits="userSpaceOnUse"
       id="clipEmfPath1-26">
      <path
         d="M -267.38327,0.79911319 H 333.70967 V 185.23444 h -601.09294 z"
         id="path1810" />
    </clipPath>
    <pattern
       id="EMFhbasepattern-5"
       patternUnits="userSpaceOnUse"
       width="6"
       height="6"
       x="0"
       y="0" />
  </defs>
  <g
     inkscape:label="Warstwa 1"
     inkscape:groupmode="layer"
     id="layer1"
     transform="translate(-212.07511,-199.9833)">
    <text
       xml:space="preserve"
       style="font-style:normal;font-variant:normal;font-weight:400;font-size:3.88607px;line-height:125%;font-family:Calibri;text-align:start;letter-spacing:0px;word-spacing:0px;text-anchor:start;fill:#000000;fill-opacity:1;stroke:none;stroke-width:0.264583"
       x="251.71861"
       y="242.20628"
       id="text1820"><tspan
         sodipodi:role="line"
         x="251.71861"
         y="242.20628"
         id="tspan1818"
         style="stroke-width:0.264583"><tspan
           dx="0"
           dy="0"
           style="font-style:normal;font-variant:normal;font-weight:400;font-size:3.88607px;font-family:Calibri;fill:#181717;stroke-width:0.264583"
           id="tspan1816"> </tspan></tspan></text>
    <path
       style="fill:#000000;fill-opacity:1;fill-rule:nonzero;stroke:#000000;stroke-width:0.0052858px;stroke-linecap:butt;stroke-linejoin:round;stroke-miterlimit:4;stroke-dasharray:none;stroke-opacity:1"
       d="m 251.76091,226.53917 h -0.4863 c -0.0581,0 -0.10571,-0.0423 -0.10571,-0.10572 0,-0.0581 0.0476,-0.10571 0.10571,-0.10571 h 0.4863 c 0.0634,0 0.10571,0.0476 0.10571,0.10571 0,0.0634 -0.0423,0.10572 -0.10571,0.10572 z m -1.39545,0 h -0.4863 c -0.0581,0 -0.10571,-0.0423 -0.10571,-0.10572 0,-0.0581 0.0476,-0.10571 0.10571,-0.10571 h 0.4863 c 0.0634,0 0.10571,0.0476 0.10571,0.10571 0,0.0634 -0.0423,0.10572 -0.10571,0.10572 z m -1.39545,0 h -0.4863 c -0.0581,0 -0.10571,-0.0423 -0.10571,-0.10572 0,-0.0581 0.0476,-0.10571 0.10571,-0.10571 h 0.4863 c 0.0634,0 0.10571,0.0476 0.10571,0.10571 0,0.0634 -0.0423,0.10572 -0.10571,0.10572 z m -1.39546,0 h -0.48629 c -0.0581,0 -0.10572,-0.0423 -0.10572,-0.10572 0,-0.0581 0.0476,-0.10571 0.10572,-0.10571 h 0.48629 c 0.0634,0 0.10572,0.0476 0.10572,0.10571 0,0.0634 -0.0423,0.10572 -0.10572,0.10572 z m -1.39545,0 h -0.48629 c -0.0581,0 -0.10572,-0.0423 -0.10572,-0.10572 0,-0.0581 0.0476,-0.10571 0.10572,-0.10571 h 0.48629 c 0.0634,0 0.10572,0.0476 0.10572,0.10571 0,0.0634 -0.0423,0.10572 -0.10572,0.10572 z m -1.39545,0 h -0.48629 c -0.0581,0 -0.10572,-0.0423 -0.10572,-0.10572 0,-0.0581 0.0476,-0.10571 0.10572,-0.10571 h 0.48629 c 0.0634,0 0.10572,0.0476 0.10572,0.10571 0,0.0634 -0.0423,0.10572 -0.10572,0.10572 z m -1.39545,0 h -0.48629 c -0.0582,0 -0.10572,-0.0423 -0.10572,-0.10572 0,-0.0581 0.0476,-0.10571 0.10572,-0.10571 h 0.48629 c 0.0634,0 0.10572,0.0476 0.10572,0.10571 0,0.0634 -0.0423,0.10572 -0.10572,0.10572 z m -1.39545,0 h -0.4863 c -0.0581,0 -0.10571,-0.0423 -0.10571,-0.10572 0,-0.0581 0.0476,-0.10571 0.10571,-0.10571 h 0.4863 c 0.0634,0 0.10571,0.0476 0.10571,0.10571 0,0.0634 -0.0423,0.10572 -0.10571,0.10572 z m -1.39545,0 h -0.4863 c -0.0581,0 -0.10571,-0.0423 -0.10571,-0.10572 0,-0.0581 0.0476,-0.10571 0.10571,-0.10571 h 0.4863 c 0.0634,0 0.10571,0.0476 0.10571,0.10571 0,0.0634 -0.0423,0.10572 -0.10571,0.10572 z m -1.39545,0 h -0.4863 c -0.0581,0 -0.10571,-0.0423 -0.10571,-0.10572 0,-0.0581 0.0476,-0.10571 0.10571,-0.10571 h 0.4863 c 0.0634,0 0.10571,0.0476 0.10571,0.10571 0,0.0634 -0.0423,0.10572 -0.10571,0.10572 z m -1.39546,0 h -0.48629 c -0.0581,0 -0.10572,-0.0423 -0.10572,-0.10572 0,-0.0581 0.0476,-0.10571 0.10572,-0.10571 h 0.48629 c 0.0634,0 0.10572,0.0476 0.10572,0.10571 0,0.0634 -0.0423,0.10572 -0.10572,0.10572 z m -1.39545,0 h -0.48629 c -0.0581,0 -0.10572,-0.0423 -0.10572,-0.10572 0,-0.0581 0.0476,-0.10571 0.10572,-0.10571 h 0.48629 c 0.0634,0 0.10572,0.0476 0.10572,0.10571 0,0.0634 -0.0423,0.10572 -0.10572,0.10572 z m -1.39545,0 h -0.48629 c -0.0581,0 -0.10572,-0.0423 -0.10572,-0.10572 0,-0.0581 0.0476,-0.10571 0.10572,-0.10571 h 0.48629 c 0.0634,0 0.10572,0.0476 0.10572,0.10571 0,0.0634 -0.0423,0.10572 -0.10572,0.10572 z m -1.39545,0 h -0.48629 c -0.0582,0 -0.10572,-0.0423 -0.10572,-0.10572 0,-0.0581 0.0476,-0.10571 0.10572,-0.10571 h 0.48629 c 0.0634,0 0.10572,0.0476 0.10572,0.10571 0,0.0634 -0.0423,0.10572 -0.10572,0.10572 z m -1.39545,0 h -0.4863 c -0.0581,0 -0.10571,-0.0423 -0.10571,-0.10572 0,-0.0581 0.0476,-0.10571 0.10571,-0.10571 h 0.4863 c 0.0634,0 0.10571,0.0476 0.10571,0.10571 0,0.0634 -0.0423,0.10572 -0.10571,0.10572 z m -1.39545,0 h -0.4863 c -0.0581,0 -0.10571,-0.0423 -0.10571,-0.10572 0,-0.0581 0.0476,-0.10571 0.10571,-0.10571 h 0.4863 c 0.0634,0 0.10571,0.0476 0.10571,0.10571 0,0.0634 -0.0423,0.10572 -0.10571,0.10572 z m -1.39545,0 h -0.4863 c -0.0581,0 -0.10571,-0.0423 -0.10571,-0.10572 0,-0.0581 0.0476,-0.10571 0.10571,-0.10571 h 0.4863 c 0.0634,0 0.10571,0.0476 0.10571,0.10571 0,0.0634 -0.0423,0.10572 -0.10571,0.10572 z m -1.39546,0 h -0.48629 c -0.0581,0 -0.10572,-0.0423 -0.10572,-0.10572 0,-0.0581 0.0476,-0.10571 0.10572,-0.10571 h 0.48629 c 0.0634,0 0.10572,0.0476 0.10572,0.10571 0,0.0634 -0.0423,0.10572 -0.10572,0.10572 z m -1.39545,0 h -0.48629 c -0.0581,0 -0.10572,-0.0423 -0.10572,-0.10572 0,-0.0581 0.0476,-0.10571 0.10572,-0.10571 h 0.48629 c 0.0634,0 0.10572,0.0476 0.10572,0.10571 0,0.0634 -0.0423,0.10572 -0.10572,0.10572 z"
       id="path1822" />
    <path
       style="fill:#000000;fill-opacity:1;fill-rule:nonzero;stroke:#000000;stroke-width:0.0052858px;stroke-linecap:butt;stroke-linejoin:round;stroke-miterlimit:4;stroke-dasharray:none;stroke-opacity:1"
       d="m 238.46183,239.62681 v -0.48629 c 0,-0.0581 0.0476,-0.10572 0.10572,-0.10572 0.0634,0 0.10572,0.0476 0.10572,0.10572 v 0.48629 c 0,0.0634 -0.0423,0.10572 -0.10572,0.10572 -0.0582,0 -0.10572,-0.0423 -0.10572,-0.10572 z m 0,-1.39545 v -0.48629 c 0,-0.0582 0.0476,-0.10572 0.10572,-0.10572 0.0634,0 0.10572,0.0476 0.10572,0.10572 v 0.48629 c 0,0.0634 -0.0423,0.10572 -0.10572,0.10572 -0.0582,0 -0.10572,-0.0423 -0.10572,-0.10572 z m 0,-1.39545 v -0.4863 c 0,-0.0581 0.0476,-0.10571 0.10572,-0.10571 0.0634,0 0.10572,0.0476 0.10572,0.10571 v 0.4863 c 0,0.0634 -0.0423,0.10571 -0.10572,0.10571 -0.0582,0 -0.10572,-0.0423 -0.10572,-0.10571 z m 0,-1.39545 v -0.4863 c 0,-0.0581 0.0476,-0.10571 0.10572,-0.10571 0.0634,0 0.10572,0.0476 0.10572,0.10571 v 0.4863 c 0,0.0634 -0.0423,0.10571 -0.10572,0.10571 -0.0582,0 -0.10572,-0.0423 -0.10572,-0.10571 z m 0,-1.39545 v -0.4863 c 0,-0.0581 0.0476,-0.10571 0.10572,-0.10571 0.0634,0 0.10572,0.0476 0.10572,0.10571 v 0.4863 c 0,0.0634 -0.0423,0.10571 -0.10572,0.10571 -0.0582,0 -0.10572,-0.0423 -0.10572,-0.10571 z m 0,-1.39546 v -0.48629 c 0,-0.0581 0.0476,-0.10571 0.10572,-0.10571 0.0634,0 0.10572,0.0476 0.10572,0.10571 v 0.48629 c 0,0.0634 -0.0423,0.10572 -0.10572,0.10572 -0.0582,0 -0.10572,-0.0423 -0.10572,-0.10572 z m 0,-1.39545 v -0.48629 c 0,-0.0581 0.0476,-0.10572 0.10572,-0.10572 0.0634,0 0.10572,0.0476 0.10572,0.10572 v 0.48629 c 0,0.0634 -0.0423,0.10572 -0.10572,0.10572 -0.0582,0 -0.10572,-0.0423 -0.10572,-0.10572 z m 0,-1.39545 v -0.48629 c 0,-0.0581 0.0476,-0.10572 0.10572,-0.10572 0.0634,0 0.10572,0.0476 0.10572,0.10572 v 0.48629 c 0,0.0634 -0.0423,0.10572 -0.10572,0.10572 -0.0582,0 -0.10572,-0.0423 -0.10572,-0.10572 z m 0,-1.39545 v -0.48629 c 0,-0.0582 0.0476,-0.10572 0.10572,-0.10572 0.0634,0 0.10572,0.0476 0.10572,0.10572 v 0.48629 c 0,0.0634 -0.0423,0.10572 -0.10572,0.10572 -0.0582,0 -0.10572,-0.0423 -0.10572,-0.10572 z m 0,-1.39545 v -0.48629 c 0,-0.0582 0.0476,-0.10572 0.10572,-0.10572 0.0634,0 0.10572,0.0476 0.10572,0.10572 v 0.48629 c 0,0.0634 -0.0423,0.10571 -0.10572,0.10571 -0.0582,0 -0.10572,-0.0423 -0.10572,-0.10571 z m 0,-1.39545 v -0.4863 c 0,-0.0581 0.0476,-0.10571 0.10572,-0.10571 0.0634,0 0.10572,0.0476 0.10572,0.10571 v 0.4863 c 0,0.0634 -0.0423,0.10571 -0.10572,0.10571 -0.0582,0 -0.10572,-0.0423 -0.10572,-0.10571 z m 0,-1.39545 v -0.4863 c 0,-0.0581 0.0476,-0.10571 0.10572,-0.10571 0.0634,0 0.10572,0.0476 0.10572,0.10571 v 0.4863 c 0,0.0634 -0.0423,0.10571 -0.10572,0.10571 -0.0582,0 -0.10572,-0.0423 -0.10572,-0.10571 z m 0,-1.39545 v -0.4863 c 0,-0.0581 0.0476,-0.10571 0.10572,-0.10571 0.0634,0 0.10572,0.0476 0.10572,0.10571 v 0.4863 c 0,0.0634 -0.0423,0.10571 -0.10572,0.10571 -0.0582,0 -0.10572,-0.0423 -0.10572,-0.10571 z m 0,-1.39546 v -0.48629 c 0,-0.0581 0.0476,-0.10572 0.10572,-0.10572 0.0634,0 0.10572,0.0476 0.10572,0.10572 v 0.48629 c 0,0.0634 -0.0423,0.10572 -0.10572,0.10572 -0.0582,0 -0.10572,-0.0423 -0.10572,-0.10572 z m 0,-1.39545 v -0.48629 c 0,-0.0582 0.0476,-0.10572 0.10572,-0.10572 0.0634,0 0.10572,0.0476 0.10572,0.10572 v 0.48629 c 0,0.0634 -0.0423,0.10572 -0.10572,0.10572 -0.0582,0 -0.10572,-0.0423 -0.10572,-0.10572 z m 0,-1.39545 v -0.48629 c 0,-0.0581 0.0476,-0.10572 0.10572,-0.10572 0.0634,0 0.10572,0.0476 0.10572,0.10572 v 0.48629 c 0,0.0634 -0.0423,0.10572 -0.10572,0.10572 -0.0582,0 -0.10572,-0.0423 -0.10572,-0.10572 z m 0,-1.39545 v -0.48629 c 0,-0.0582 0.0476,-0.10572 0.10572,-0.10572 0.0634,0 0.10572,0.0476 0.10572,0.10572 v 0.48629 c 0,0.0634 -0.0423,0.10572 -0.10572,0.10572 -0.0582,0 -0.10572,-0.0423 -0.10572,-0.10572 z m 0,-1.39545 v -0.4863 c 0,-0.0581 0.0476,-0.10571 0.10572,-0.10571 0.0634,0 0.10572,0.0476 0.10572,0.10571 v 0.4863 c 0,0.0634 -0.0423,0.10571 -0.10572,0.10571 -0.0582,0 -0.10572,-0.0423 -0.10572,-0.10571 z m 0,-1.39545 v -0.4863 c 0,-0.0581 0.0476,-0.10571 0.10572,-0.10571 0.0634,0 0.10572,0.0476 0.10572,0.10571 v 0.4863 c 0,0.0634 -0.0423,0.10571 -0.10572,0.10571 -0.0582,0 -0.10572,-0.0423 -0.10572,-0.10571 z"
       id="path1824" />
    <path
       style="fill:none;stroke:#000000;stroke-width:0.211432px;stroke-linecap:round;stroke-linejoin:round;stroke-miterlimit:4;stroke-dasharray:none;stroke-opacity:1"
       d="m 238.56755,239.62681 h 13.19336 v -13.1775 c 0,-7.27855 -5.90424,-13.1775 -13.19336,-13.1775 v -13.18279 c -14.57295,0 -26.38672,11.8032 -26.38672,26.36029 h 13.19336 c 0,7.27855 5.90953,13.1775 13.19336,13.1775"
       id="path1826" />
    <path
       style="fill:none;stroke:#000000;stroke-width:0.211432px;stroke-linecap:round;stroke-linejoin:round;stroke-miterlimit:4;stroke-dasharray:none;stroke-opacity:1"
       d="m 243.85335,226.43345 c 0,1.40603 -0.55501,2.74862 -1.54345,3.74235 -0.99373,0.98844 -2.33633,1.54345 -3.74235,1.54345"
       id="path1828" />
    <path
       style="fill:#000000;fill-opacity:1;fill-rule:evenodd;stroke:none;stroke-width:0.264583"
       d="m 240.51272,227.76548 c 0.36472,0 0.65544,0.296 0.65544,0.65543 0,0.36472 -0.29072,0.65544 -0.65544,0.65544 -0.35943,0 -0.65543,-0.29072 -0.65543,-0.65544 0,-0.35943 0.296,-0.65543 0.65543,-0.65543 z"
       id="path1830" />
    <path
       style="fill:none;stroke:#000000;stroke-width:0.211432px;stroke-linecap:round;stroke-linejoin:round;stroke-miterlimit:4;stroke-dasharray:none;stroke-opacity:1"
       d="m 238.56755,221.18994 c -1.40074,0 -2.74333,0.55501 -3.73706,1.53817 -0.98845,0.98316 -1.54874,2.31518 -1.54874,3.70534"
       id="path1832" />
    <path
       style="fill:#000000;fill-opacity:1;fill-rule:evenodd;stroke:none;stroke-width:0.264583"
       d="m 236.58009,223.79055 c 0.36472,0 0.65544,0.29601 0.65544,0.65544 0,0.36472 -0.29072,0.65544 -0.65544,0.65544 -0.35944,0 -0.65544,-0.29072 -0.65544,-0.65544 0,-0.35943 0.296,-0.65544 0.65544,-0.65544 z"
       id="path1834" />
    <path
       style="fill:#000000;fill-opacity:1;fill-rule:nonzero;stroke:none;stroke-width:0.264583"
       d="m 246.18286,238.276 c 0,0.0211 0,0.0423 -0.005,0.0581 -0.005,0.0211 -0.005,0.037 -0.0106,0.0476 -0.0106,0.0106 -0.0159,0.0212 -0.0264,0.0264 -0.005,0.005 -0.0159,0.005 -0.0264,0.005 h -1.33202 c -0.0211,0 -0.0317,0 -0.0476,-0.005 -0.0106,-0.005 -0.0264,-0.0106 -0.0317,-0.0211 -0.0106,-0.0106 -0.0159,-0.0264 -0.0212,-0.0423 -0.005,-0.0211 -0.005,-0.0423 -0.005,-0.0687 0,-0.0264 0,-0.0476 0,-0.0687 0.005,-0.0211 0.005,-0.037 0.0159,-0.0529 0.005,-0.0106 0.0106,-0.0264 0.0212,-0.0423 0.0106,-0.0159 0.0211,-0.0317 0.037,-0.0476 l 0.481,-0.50215 c 0.11101,-0.11628 0.20087,-0.222 0.26958,-0.31715 0.0687,-0.0898 0.11629,-0.17443 0.15329,-0.24843 0.037,-0.0793 0.0634,-0.148 0.074,-0.21143 0.0106,-0.0581 0.0159,-0.11629 0.0159,-0.17443 0,-0.0529 -0.0106,-0.10572 -0.0264,-0.15329 -0.0159,-0.0476 -0.0423,-0.0899 -0.0793,-0.12686 -0.0317,-0.037 -0.074,-0.0687 -0.12686,-0.0899 -0.0529,-0.0211 -0.111,-0.0317 -0.17443,-0.0317 -0.0793,0 -0.148,0.0106 -0.21143,0.0317 -0.0634,0.0212 -0.11629,0.0476 -0.16386,0.074 -0.0476,0.0211 -0.0846,0.0476 -0.11629,0.0687 -0.0317,0.0211 -0.0529,0.0317 -0.0687,0.0317 -0.0106,0 -0.0211,0 -0.0264,-0.005 -0.005,-0.005 -0.0106,-0.0159 -0.0159,-0.0264 -0.005,-0.0106 -0.0106,-0.0264 -0.0106,-0.0476 -0.005,-0.0159 -0.005,-0.0423 -0.005,-0.0687 0,-0.0159 0,-0.0317 0,-0.0476 0.005,-0.0159 0.005,-0.0264 0.0106,-0.037 0,-0.0106 0.005,-0.0211 0.0106,-0.0264 0.005,-0.0106 0.0159,-0.0211 0.0317,-0.0317 0.0106,-0.0159 0.037,-0.0317 0.074,-0.0581 0.037,-0.0211 0.0846,-0.0423 0.13743,-0.0634 0.0582,-0.0264 0.11629,-0.0423 0.18501,-0.0581 0.0634,-0.0159 0.13743,-0.0211 0.20614,-0.0211 0.11629,0 0.222,0.0159 0.30658,0.0476 0.0899,0.0317 0.16386,0.0793 0.222,0.13743 0.0529,0.0581 0.10043,0.12686 0.12686,0.20615 0.0264,0.074 0.0423,0.15857 0.0423,0.24314 0,0.0793 -0.005,0.15857 -0.0212,0.23786 -0.0106,0.074 -0.0423,0.15858 -0.0846,0.25372 -0.0423,0.0899 -0.111,0.19029 -0.19029,0.30129 -0.0846,0.111 -0.19557,0.23786 -0.333,0.38058 l -0.38058,0.40701 h 1.04659 c 0.0106,0 0.0211,0.005 0.0317,0.0106 0.005,0.005 0.0159,0.0106 0.0212,0.0211 0.005,0.0159 0.0106,0.0264 0.0159,0.0476 0.005,0.0159 0.005,0.037 0.005,0.0582 z"
       id="path1836" />
    <path
       style="fill:none;stroke:#000000;stroke-width:0.211432px;stroke-linecap:round;stroke-linejoin:round;stroke-miterlimit:4;stroke-dasharray:none;stroke-opacity:1"
       d="m 212.18083,241.61427 h 26.38672"
       id="path1838" />
    <path
       style="fill:#000000;fill-opacity:1;fill-rule:evenodd;stroke:none;stroke-width:0.264583"
       d="m 237.12981,241.02226 1.43774,0.59201 -1.43774,0.59201 z"
       id="path1840" />
    <path
       style="fill:none;stroke:#000000;stroke-width:0.211432px;stroke-linecap:round;stroke-linejoin:round;stroke-miterlimit:4;stroke-dasharray:none;stroke-opacity:1"
       d="m 237.12981,241.02226 1.43774,0.59201 -1.43774,0.59201 z"
       id="path1842" />
    <path
       style="fill:#000000;fill-opacity:1;fill-rule:evenodd;stroke:none;stroke-width:0.264583"
       d="m 213.61857,241.02226 v 1.18402 l -1.43774,-0.59201 z"
       id="path1844" />
    <path
       style="fill:none;stroke:#000000;stroke-width:0.211432px;stroke-linecap:round;stroke-linejoin:round;stroke-miterlimit:4;stroke-dasharray:none;stroke-opacity:1"
       d="m 213.61857,241.02226 v 1.18402 l -1.43774,-0.59201 z"
       id="path1846" />
    <path
       style="fill:#000000;fill-opacity:1;fill-rule:nonzero;stroke:none;stroke-width:0.264583"
       d="m 224.80039,240.28154 c 0,0.0423 -0.005,0.074 -0.0185,0.0978 -0.0132,0.0238 -0.0291,0.037 -0.0529,0.037 h -0.27222 v 0.51801 c 0,0.008 -0.003,0.0185 -0.005,0.0238 -0.005,0.008 -0.0159,0.0132 -0.0291,0.0185 -0.0106,0.005 -0.0291,0.008 -0.0476,0.0106 -0.0211,0.003 -0.0476,0.005 -0.0793,0.005 -0.0317,0 -0.0555,-0.003 -0.0766,-0.005 -0.0211,-0.003 -0.037,-0.005 -0.0502,-0.0106 -0.0106,-0.005 -0.0185,-0.0106 -0.0238,-0.0185 -0.005,-0.005 -0.008,-0.0159 -0.008,-0.0238 v -0.51801 h -0.9858 c -0.0132,0 -0.0264,-0.003 -0.037,-0.005 -0.008,-0.005 -0.0185,-0.0106 -0.0264,-0.0211 -0.008,-0.0106 -0.0132,-0.0238 -0.0159,-0.0449 -0.003,-0.0185 -0.005,-0.0423 -0.005,-0.074 0,-0.0238 0.003,-0.0449 0.003,-0.0634 0,-0.0185 0.003,-0.037 0.008,-0.0529 0.003,-0.0159 0.008,-0.0317 0.0132,-0.0449 0.008,-0.0159 0.0132,-0.0291 0.0238,-0.0476 l 0.85894,-1.49324 c 0.005,-0.008 0.0132,-0.0185 0.0264,-0.0264 0.0132,-0.008 0.0264,-0.0132 0.0476,-0.0185 0.0185,-0.005 0.0423,-0.008 0.0687,-0.0106 0.0291,-0.003 0.0608,-0.003 0.10043,-0.003 0.0396,0 0.0766,0.003 0.10836,0.005 0.0317,0.003 0.0555,0.008 0.074,0.0132 0.0185,0.003 0.0343,0.0106 0.0449,0.0185 0.0106,0.008 0.0132,0.0185 0.0132,0.0291 v 1.56988 h 0.27222 c 0.0211,0 0.0396,0.0106 0.0529,0.0344 0.0132,0.0212 0.0185,0.0555 0.0185,0.10043 z m -0.66337,-1.48267 h -0.003 l -0.77437,1.34788 h 0.77701 z"
       id="path1848" />
  </g>
</svg>
