<?xml version="1.0" encoding="UTF-8" standalone="no"?>
<svg
   viewBox="0 0 46.758907 32.30439"
   version="1.1"
   id="svg5"
   inkscape:version="1.2.2 (732a01da63, 2022-12-09)"
   sodipodi:docname="grudzień 2017 - zad. 11.svg"
   xmlns:inkscape="http://www.inkscape.org/namespaces/inkscape"
   xmlns:sodipodi="http://sodipodi.sourceforge.net/DTD/sodipodi-0.dtd"
   xmlns="http://www.w3.org/2000/svg"
   xmlns:svg="http://www.w3.org/2000/svg">
  <sodipodi:namedview
     id="namedview7"
     pagecolor="#ffffff"
     bordercolor="#000000"
     borderopacity="0.25"
     inkscape:showpageshadow="2"
     inkscape:pageopacity="0.0"
     inkscape:pagecheckerboard="0"
     inkscape:deskcolor="#d1d1d1"
     inkscape:document-units="mm"
     showgrid="false"
     inkscape:zoom="14.638496"
     inkscape:cx="23.397212"
     inkscape:cy="28.862255"
     inkscape:window-width="1379"
     inkscape:window-height="1230"
     inkscape:window-x="2607"
     inkscape:window-y="186"
     inkscape:window-maximized="0"
     inkscape:current-layer="layer1" />
  <defs
     id="defs2">
    <clipPath
       clipPathUnits="userSpaceOnUse"
       id="clipEmfPath1">
      <path
         d="M 0,0 H 601.09294 V 161.42086 H 0 Z"
         id="path9" />
    </clipPath>
    <pattern
       id="EMFhbasepattern"
       patternUnits="userSpaceOnUse"
       width="6"
       height="6"
       x="0"
       y="0" />
    <clipPath
       clipPathUnits="userSpaceOnUse"
       id="clipEmfPath1-9">
      <path
         d="M 0,0 H 601.09294 V 148.47523 H 0 Z"
         id="path390" />
    </clipPath>
    <pattern
       id="EMFhbasepattern-3"
       patternUnits="userSpaceOnUse"
       width="6"
       height="6"
       x="0"
       y="0" />
  </defs>
  <g
     inkscape:label="Warstwa 1"
     inkscape:groupmode="layer"
     id="layer1"
     transform="translate(-207.82709,-79.00418)">
    <text
       xml:space="preserve"
       style="font-style:italic;font-variant:normal;font-weight:400;font-size:3.88607px;line-height:125%;font-family:Calibri;text-align:start;letter-spacing:0px;word-spacing:0px;text-anchor:start;fill:#000000;fill-opacity:1;stroke:none;stroke-width:0.264583"
       x="251.82393"
       y="81.489899"
       id="text402"><tspan
         sodipodi:role="line"
         x="251.82393"
         y="81.489899"
         id="tspan400"
         style="stroke-width:0.264583"><tspan
           dx="0"
           dy="0"
           style="font-style:italic;font-variant:normal;font-weight:400;font-size:3.88607px;font-family:Calibri;fill:#000000;stroke-width:0.264583"
           id="tspan396">C</tspan><tspan
           dx="0"
           dy="0"
           style="font-style:normal;font-variant:normal;font-weight:400;font-size:3.88607px;font-family:Calibri;fill:#181717;stroke-width:0.264583"
           id="tspan398"> </tspan></tspan></text>
    <text
       xml:space="preserve"
       style="font-style:normal;font-variant:normal;font-weight:400;font-size:3.88607px;line-height:125%;font-family:Calibri;text-align:start;letter-spacing:0px;word-spacing:0px;text-anchor:start;fill:#000000;fill-opacity:1;stroke:none;stroke-width:0.264583"
       x="253.10791"
       y="107.02402"
       id="text408"><tspan
         sodipodi:role="line"
         x="253.10791"
         y="107.02402"
         id="tspan406"
         style="stroke-width:0.264583"><tspan
           dx="0"
           dy="0"
           style="font-style:normal;font-variant:normal;font-weight:400;font-size:3.88607px;font-family:Calibri;fill:#181717;stroke-width:0.264583"
           id="tspan404"> </tspan></tspan></text>
    <text
       xml:space="preserve"
       style="font-style:italic;font-variant:normal;font-weight:400;font-size:3.88607px;line-height:125%;font-family:Calibri;text-align:start;letter-spacing:0px;word-spacing:0px;text-anchor:start;fill:#000000;fill-opacity:1;stroke:none;stroke-width:0.264583"
       x="207.92557"
       y="110.73019"
       id="text422"><tspan
         sodipodi:role="line"
         x="207.92557"
         y="110.73019"
         id="tspan420"
         style="stroke-width:0.264583"><tspan
           dx="0"
           dy="0"
           style="font-style:italic;font-variant:normal;font-weight:400;font-size:3.88607px;font-family:Calibri;fill:#000000;stroke-width:0.264583"
           id="tspan416">A</tspan><tspan
           dx="0"
           dy="0"
           style="font-style:italic;font-variant:normal;font-weight:400;font-size:3.88607px;font-family:Calibri;fill:#000000;stroke-width:0.264583"
           id="tspan418"> </tspan></tspan></text>
    <text
       xml:space="preserve"
       style="font-style:italic;font-variant:normal;font-weight:400;font-size:3.88607px;line-height:125%;font-family:Calibri;text-align:start;letter-spacing:0px;word-spacing:0px;text-anchor:start;fill:#000000;fill-opacity:1;stroke:none;stroke-width:0.264583"
       x="241.22543"
       y="111.01939"
       id="text430"><tspan
         sodipodi:role="line"
         x="241.22543"
         y="111.01939"
         id="tspan428"
         style="stroke-width:0.264583"><tspan
           dx="0"
           dy="0"
           style="font-style:italic;font-variant:normal;font-weight:400;font-size:3.88607px;font-family:Calibri;fill:#000000;stroke-width:0.264583"
           id="tspan424">D</tspan><tspan
           dx="0"
           dy="0"
           style="font-style:italic;font-variant:normal;font-weight:400;font-size:3.88607px;font-family:Calibri;fill:#000000;stroke-width:0.264583"
           id="tspan426"> </tspan></tspan></text>
    <text
       xml:space="preserve"
       style="font-style:italic;font-variant:normal;font-weight:400;font-size:3.88607px;line-height:125%;font-family:Calibri;text-align:start;letter-spacing:0px;word-spacing:0px;text-anchor:start;fill:#000000;fill-opacity:1;stroke:none;stroke-width:0.264583"
       x="240.49797"
       y="86.789909"
       id="text430-7"><tspan
         sodipodi:role="line"
         x="240.49797"
         y="86.789909"
         id="tspan428-0"
         style="stroke-width:0.264583"><tspan
           style="font-style:italic;font-variant:normal;font-weight:400;font-size:3.88607px;font-family:Calibri;fill:#000000;stroke-width:0.264583"
           id="tspan426-8">E</tspan></tspan></text>
    <text
       xml:space="preserve"
       style="font-style:italic;font-variant:normal;font-weight:400;font-size:3.88607px;line-height:125%;font-family:Calibri;text-align:start;letter-spacing:0px;word-spacing:0px;text-anchor:start;fill:#000000;fill-opacity:1;stroke:none;stroke-width:0.264583"
       x="252.47218"
       y="111.30857"
       id="text438"><tspan
         sodipodi:role="line"
         x="252.47218"
         y="111.30857"
         id="tspan436"
         style="stroke-width:0.264583"><tspan
           dx="0"
           dy="0"
           style="font-style:italic;font-variant:normal;font-weight:400;font-size:3.88607px;font-family:Calibri;fill:#000000;stroke-width:0.264583"
           id="tspan432">B</tspan><tspan
           dx="0"
           dy="0"
           style="font-style:italic;font-variant:normal;font-weight:400;font-size:3.88607px;font-family:Calibri;fill:#000000;stroke-width:0.264583"
           id="tspan434"> </tspan></tspan></text>
    <path
       style="fill:none;stroke:#000000;stroke-width:0.211432px;stroke-linecap:round;stroke-linejoin:round;stroke-miterlimit:4;stroke-dasharray:none;stroke-opacity:1"
       d="m 249.30212,107.02403 c 0,-1.02016 0.40701,-1.99804 1.13116,-2.71691 0.71887,-0.72415 1.69674,-1.13116 2.7169,-1.13116"
       id="path440" />
    <path
       style="fill:#000000;fill-opacity:1;fill-rule:evenodd;stroke:none;stroke-width:0.264583"
       d="m 251.62787,105.05771 c 0.26958,0 0.4863,0.222 0.4863,0.48629 0,0.26958 -0.21672,0.4863 -0.4863,0.4863 -0.26429,0 -0.48629,-0.21672 -0.48629,-0.4863 0,-0.26429 0.222,-0.48629 0.48629,-0.48629 z"
       id="path442" />
    <path
       style="fill:none;stroke:#000000;stroke-width:0.211432px;stroke-linecap:round;stroke-linejoin:round;stroke-miterlimit:4;stroke-dasharray:none;stroke-opacity:1"
       d="m 224.60686,107.02403 c 0,-1.24745 -0.16122,-2.49226 -0.48365,-3.69742 -0.31979,-1.20781 -0.79816,-2.3654 -1.41924,-3.448993"
       id="path444" />
    <path
       style="fill:#000000;fill-opacity:1;fill-rule:nonzero;stroke:none;stroke-width:0.264583"
       d="m 218.93899,105.32379 c 0,0.10043 -0.0159,0.19293 -0.0502,0.27486 -0.037,0.0819 -0.0846,0.15064 -0.15064,0.20879 -0.0661,0.0581 -0.14536,0.10307 -0.24051,0.13478 -0.0951,0.0317 -0.2035,0.0476 -0.32243,0.0476 -0.0714,0 -0.14007,-0.005 -0.2035,-0.0185 -0.0634,-0.0132 -0.11893,-0.0264 -0.16915,-0.0423 -0.0502,-0.0159 -0.0899,-0.0344 -0.12157,-0.0529 -0.0344,-0.0159 -0.0529,-0.0291 -0.0634,-0.037 -0.008,-0.008 -0.0132,-0.0159 -0.0185,-0.0238 -0.005,-0.008 -0.008,-0.0185 -0.0106,-0.0291 -0.005,-0.0132 -0.005,-0.0264 -0.008,-0.0423 -0.003,-0.0185 -0.003,-0.037 -0.003,-0.0608 0,-0.0423 0.003,-0.0714 0.0106,-0.0872 0.0106,-0.0159 0.0212,-0.0238 0.037,-0.0238 0.008,0 0.0291,0.0106 0.0608,0.0291 0.0291,0.0185 0.0687,0.037 0.11629,0.0581 0.0476,0.0212 0.10307,0.0396 0.1665,0.0581 0.0634,0.0185 0.13479,0.0291 0.21408,0.0291 0.074,0 0.14271,-0.0106 0.19822,-0.0291 0.0581,-0.0211 0.10571,-0.0476 0.14536,-0.0819 0.0396,-0.037 0.0687,-0.0793 0.0872,-0.12686 0.0211,-0.0476 0.0291,-0.10043 0.0291,-0.15858 0,-0.0634 -0.0106,-0.11893 -0.037,-0.16914 -0.0238,-0.0502 -0.0608,-0.0951 -0.10836,-0.13215 -0.0476,-0.0343 -0.10571,-0.0634 -0.17707,-0.0819 -0.0687,-0.0211 -0.15064,-0.0291 -0.23786,-0.0291 h -0.21408 c -0.008,0 -0.0185,-0.003 -0.0264,-0.008 -0.008,-0.003 -0.0159,-0.0106 -0.0238,-0.0185 -0.005,-0.0106 -0.0106,-0.0211 -0.0159,-0.037 -0.003,-0.0132 -0.005,-0.0344 -0.005,-0.0581 0,-0.0211 0.003,-0.0396 0.005,-0.0529 0.003,-0.0159 0.008,-0.0264 0.0132,-0.0344 0.008,-0.008 0.0132,-0.0159 0.0211,-0.0185 0.008,-0.005 0.0185,-0.008 0.0291,-0.008 h 0.18765 c 0.074,0 0.14007,-0.008 0.20086,-0.0291 0.0581,-0.0185 0.10836,-0.0476 0.148,-0.0819 0.0423,-0.037 0.074,-0.0819 0.0951,-0.13214 0.0212,-0.0502 0.0317,-0.10836 0.0317,-0.16915 0,-0.0476 -0.008,-0.0899 -0.0211,-0.13214 -0.0159,-0.0423 -0.037,-0.0793 -0.0661,-0.10836 -0.0291,-0.0317 -0.0661,-0.0555 -0.111,-0.074 -0.0449,-0.0185 -0.0978,-0.0264 -0.15593,-0.0264 -0.0661,0 -0.12686,0.0106 -0.17972,0.0291 -0.0555,0.0211 -0.10307,0.0423 -0.14536,0.0661 -0.0423,0.0212 -0.0793,0.0449 -0.10571,0.0634 -0.0291,0.0211 -0.0476,0.0291 -0.0581,0.0291 -0.008,0 -0.0159,0 -0.0211,-0.003 -0.008,-0.003 -0.0132,-0.008 -0.0159,-0.0185 -0.005,-0.008 -0.008,-0.0185 -0.008,-0.0344 -0.003,-0.0159 -0.003,-0.037 -0.003,-0.0608 0,-0.0185 0,-0.0317 0,-0.0449 0.003,-0.0132 0.005,-0.0264 0.008,-0.0344 0.003,-0.0106 0.008,-0.0185 0.0106,-0.0264 0.005,-0.008 0.0132,-0.0185 0.0238,-0.0291 0.0106,-0.0106 0.0317,-0.0264 0.0634,-0.0476 0.0344,-0.0212 0.074,-0.0396 0.12157,-0.0608 0.0476,-0.0212 0.10307,-0.037 0.16386,-0.0502 0.0634,-0.0132 0.1295,-0.0211 0.20086,-0.0211 0.10043,0 0.19029,0.0132 0.26693,0.0396 0.074,0.0264 0.13743,0.0634 0.19029,0.11101 0.0502,0.0476 0.0872,0.10571 0.11365,0.17178 0.0238,0.0687 0.037,0.14272 0.037,0.22201 0,0.0714 -0.008,0.13478 -0.0264,0.19557 -0.0185,0.0608 -0.0449,0.11365 -0.0793,0.15858 -0.0344,0.0476 -0.0766,0.0872 -0.12686,0.11893 -0.0502,0.0317 -0.10836,0.0555 -0.17443,0.0687 v 0.003 c 0.074,0.008 0.14272,0.0264 0.20615,0.0581 0.0608,0.0291 0.11364,0.0661 0.15857,0.11364 0.0449,0.0449 0.0793,0.0978 0.10572,0.15858 0.0264,0.0608 0.037,0.12686 0.037,0.19822 z m 1.8236,-0.48101 c 0,0.16914 -0.0132,0.32507 -0.0396,0.46515 -0.0264,0.14272 -0.0687,0.26165 -0.13215,0.36472 -0.0608,0.10043 -0.14007,0.17707 -0.23786,0.23257 -0.0978,0.0555 -0.21936,0.0846 -0.36472,0.0846 -0.13743,0 -0.25108,-0.0264 -0.34622,-0.074 -0.0925,-0.0502 -0.1665,-0.12422 -0.22465,-0.21936 -0.0581,-0.0978 -0.0978,-0.21673 -0.12157,-0.3568 -0.0238,-0.14271 -0.037,-0.30393 -0.037,-0.48629 0,-0.16915 0.0132,-0.32508 0.0396,-0.46515 0.0291,-0.14272 0.0714,-0.26165 0.13215,-0.36472 0.0608,-0.10043 0.14007,-0.17972 0.23786,-0.23258 0.10043,-0.0555 0.21936,-0.0846 0.36472,-0.0846 0.13743,0 0.25107,0.0238 0.34622,0.074 0.0925,0.0502 0.16914,0.12422 0.22465,0.21936 0.0581,0.0978 0.0978,0.21672 0.12157,0.35679 0.0238,0.14272 0.037,0.30394 0.037,0.4863 z m -0.29601,0.0211 c 0,-0.111 -0.003,-0.21143 -0.0106,-0.29865 -0.008,-0.0872 -0.0211,-0.1665 -0.0344,-0.23257 -0.0159,-0.0687 -0.0344,-0.12686 -0.0608,-0.17443 -0.0238,-0.0476 -0.0529,-0.0899 -0.0846,-0.11893 -0.0344,-0.0317 -0.074,-0.0555 -0.11629,-0.0687 -0.0423,-0.0159 -0.0899,-0.0211 -0.14536,-0.0211 -0.0951,0 -0.17179,0.0211 -0.23258,0.0661 -0.0581,0.0476 -0.10571,0.111 -0.14007,0.19029 -0.0317,0.0793 -0.0555,0.17179 -0.0687,0.28014 -0.0132,0.10836 -0.0185,0.22201 -0.0185,0.34623 0,0.1665 0.008,0.30657 0.0264,0.42286 0.0159,0.11629 0.0423,0.21143 0.0793,0.28279 0.037,0.074 0.0819,0.12686 0.14007,0.16122 0.0555,0.0317 0.12422,0.0476 0.20351,0.0476 0.0634,0 0.11893,-0.0106 0.1665,-0.0291 0.0476,-0.0211 0.0872,-0.0502 0.12157,-0.0899 0.0344,-0.037 0.0634,-0.0846 0.0846,-0.13743 0.0238,-0.0529 0.0423,-0.11365 0.0555,-0.17708 0.0132,-0.0661 0.0211,-0.13743 0.0264,-0.21143 0.005,-0.0766 0.008,-0.15593 0.008,-0.23786 z"
       id="path446" />
    <path
       style="fill:#000000;fill-opacity:1;fill-rule:nonzero;stroke:none;stroke-width:0.264583"
       d="m 221.83337,103.61526 c 0,0.0846 -0.0396,0.15594 -0.12158,0.21408 -0.0819,0.0581 -0.18235,0.0872 -0.29864,0.0872 -0.11629,0 -0.21408,-0.0291 -0.29865,-0.0872 -0.0819,-0.0581 -0.12157,-0.1295 -0.12157,-0.21408 0,-0.0819 0.0396,-0.15064 0.12157,-0.20878 0.0819,-0.0608 0.17972,-0.0899 0.29865,-0.0899 0.11364,0 0.21407,0.0291 0.296,0.0899 0.0819,0.0581 0.12422,0.12686 0.12422,0.20878 z m -0.71358,0 c 0,0.0608 0.0291,0.10836 0.0846,0.15065 0.0581,0.0396 0.1295,0.0608 0.20879,0.0608 0.0846,0 0.15329,-0.0212 0.20879,-0.0608 0.0555,-0.0423 0.0846,-0.0899 0.0846,-0.15065 0,-0.0581 -0.0291,-0.10571 -0.0872,-0.148 -0.0555,-0.0396 -0.12686,-0.0608 -0.20878,-0.0608 -0.0793,0 -0.14801,0.0211 -0.20615,0.0634 -0.0555,0.0396 -0.0846,0.0899 -0.0846,0.14536 z"
       id="path448" />
    <path
       style="fill:none;stroke:#000000;stroke-width:0.211432px;stroke-linecap:round;stroke-linejoin:round;stroke-miterlimit:4;stroke-dasharray:none;stroke-opacity:1"
       d="m 210.31405,107.02403 h 42.83613 V 82.328767 l -42.83613,24.695263"
       id="path450" />
    <path
       style="fill:none;stroke:#000000;stroke-width:0.211432px;stroke-linecap:round;stroke-linejoin:round;stroke-miterlimit:4;stroke-dasharray:none;stroke-opacity:1"
       d="M 242.45172,107.02403 V 88.502577"
       id="path452" />
  </g>
</svg>
