<?xml version="1.0" encoding="UTF-8" standalone="no"?>

<svg
   viewBox="0 0 65.861286 25.635882"
   version="1.1"
   id="svg5"
   inkscape:version="1.2.2 (732a01da63, 2022-12-09)"
   sodipodi:docname="kwiecień2019z12.svg"
   xmlns:inkscape="http://www.inkscape.org/namespaces/inkscape"
   xmlns:sodipodi="http://sodipodi.sourceforge.net/DTD/sodipodi-0.dtd"
   xmlns="http://www.w3.org/2000/svg"
   xmlns:svg="http://www.w3.org/2000/svg">
  <sodipodi:namedview
     id="namedview7"
     pagecolor="#ffffff"
     bordercolor="#000000"
     borderopacity="0.25"
     inkscape:showpageshadow="2"
     inkscape:pageopacity="0.0"
     inkscape:pagecheckerboard="0"
     inkscape:deskcolor="#d1d1d1"
     inkscape:document-units="mm"
     showgrid="false"
     inkscape:zoom="1.829812"
     inkscape:cx="-9.563824"
     inkscape:cy="-65.307255"
     inkscape:window-width="1958"
     inkscape:window-height="1368"
     inkscape:window-x="2553"
     inkscape:window-y="127"
     inkscape:window-maximized="0"
     inkscape:current-layer="layer1" />
  <defs
     id="defs2">
    <clipPath
       clipPathUnits="userSpaceOnUse"
       id="clipEmfPath1">
      <path
         d="M 0,0 H 601.09294 V 344.25796 H 0 Z"
         id="path278" />
    </clipPath>
    <pattern
       id="EMFhbasepattern"
       patternUnits="userSpaceOnUse"
       width="6"
       height="6"
       x="0"
       y="0" />
    <clipPath
       clipPathUnits="userSpaceOnUse"
       id="clipEmfPath1-0">
      <path
         d="M 0,0 H 601.09294 V 281.60749 H 0 Z"
         id="path697" />
    </clipPath>
    <clipPath
       clipPathUnits="userSpaceOnUse"
       id="clipEmfPath2">
      <path
         d="m 316.92829,14.54386 h 52.58165 v 62.330828 h -52.58165 z"
         id="path700" />
    </clipPath>
    <clipPath
       clipPathUnits="userSpaceOnUse"
       id="clipEmfPath3">
      <path
         d="m 318.52734,15.34375 v 60.732422 h 24.45118 V 15.34375 Z"
         id="path703" />
    </clipPath>
    <clipPath
       clipPathUnits="userSpaceOnUse"
       id="clipEmfPath4">
      <path
         d="m 343.29883,15.34375 v 29.886719 h 24.61328 V 15.34375 Z"
         id="path706" />
    </clipPath>
    <clipPath
       clipPathUnits="userSpaceOnUse"
       id="clipEmfPath5">
      <path
         d="m 342.97852,46.029297 v 30.046875 h 24.45312 V 46.029297 Z"
         id="path709" />
    </clipPath>
    <pattern
       id="EMFhbasepattern-6"
       patternUnits="userSpaceOnUse"
       width="6"
       height="6"
       x="0"
       y="0" />
    <clipPath
       clipPathUnits="userSpaceOnUse"
       id="clipEmfPath1-4">
      <path
         d="M 0,0 H 601.09294 V 221.51418 H 0 Z"
         id="path1547" />
    </clipPath>
    <pattern
       id="EMFhbasepattern-7"
       patternUnits="userSpaceOnUse"
       width="6"
       height="6"
       x="0"
       y="0" />
    <clipPath
       clipPathUnits="userSpaceOnUse"
       id="clipEmfPath1-6">
      <path
         d="M 0,0 H 686.11858 V 297.42993 H 0 Z"
         id="path1856" />
    </clipPath>
    <pattern
       id="EMFhbasepattern-0"
       patternUnits="userSpaceOnUse"
       width="6"
       height="6"
       x="0"
       y="0" />
    <clipPath
       clipPathUnits="userSpaceOnUse"
       id="clipEmfPath1-5">
      <path
         d="M -236.05804,0 H 450.06055 V 160.46193 H -236.05804 Z"
         id="path2132" />
    </clipPath>
    <pattern
       id="EMFhbasepattern-4"
       patternUnits="userSpaceOnUse"
       width="6"
       height="6"
       x="0"
       y="0" />
    <clipPath
       clipPathUnits="userSpaceOnUse"
       id="clipEmfPath1-7">
      <path
         d="M 0,0 H 686.11858 V 194.98362 H 0 Z"
         id="path2256" />
    </clipPath>
    <pattern
       id="EMFhbasepattern-1"
       patternUnits="userSpaceOnUse"
       width="6"
       height="6"
       x="0"
       y="0" />
    <clipPath
       clipPathUnits="userSpaceOnUse"
       id="clipEmfPath1-00">
      <path
         d="M 0,0 H 686.11858 V 131.53403 H 0 Z"
         id="path2517" />
    </clipPath>
    <pattern
       id="EMFhbasepattern-8"
       patternUnits="userSpaceOnUse"
       width="6"
       height="6"
       x="0"
       y="0" />
    <clipPath
       clipPathUnits="userSpaceOnUse"
       id="clipEmfPath1-9">
      <path
         d="M 0,0 H 686.11858 V 265.94487 H 0 Z"
         id="path3071" />
    </clipPath>
    <clipPath
       clipPathUnits="userSpaceOnUse"
       id="clipEmfPath2-4">
      <path
         d="M 188.75053,44.590516 H 242.1313 V 69.842492 H 188.75053 Z"
         id="path3074" />
    </clipPath>
    <clipPath
       clipPathUnits="userSpaceOnUse"
       id="clipEmfPath3-9">
      <path
         d="m 190.18945,49.865234 v 19.337891 h 25.41211 V 49.865234 Z"
         id="path3077" />
    </clipPath>
    <clipPath
       clipPathUnits="userSpaceOnUse"
       id="clipEmfPath4-8">
      <path
         d="m 216.24023,49.865234 v 19.337891 h 24.61329 V 49.865234 Z"
         id="path3080" />
    </clipPath>
    <clipPath
       clipPathUnits="userSpaceOnUse"
       id="clipEmfPath5-2">
      <path
         d="m 123.06343,110.91691 h 53.70041 v 25.4118 h -53.70041 z"
         id="path3083" />
    </clipPath>
    <clipPath
       clipPathUnits="userSpaceOnUse"
       id="clipEmfPath6">
      <path
         d="m 124.50195,116.19141 v 19.49804 h 24.77149 v -19.49804 z"
         id="path3086" />
    </clipPath>
    <clipPath
       clipPathUnits="userSpaceOnUse"
       id="clipEmfPath7">
      <path
         d="m 149.91406,116.19141 v 19.49804 h 25.57032 v -19.49804 z"
         id="path3089" />
    </clipPath>
    <pattern
       id="EMFhbasepattern-70"
       patternUnits="userSpaceOnUse"
       width="6"
       height="6"
       x="0"
       y="0" />
    <clipPath
       clipPathUnits="userSpaceOnUse"
       id="clipEmfPath1-02">
      <path
         d="M 0,0.79911319 H 686.11858 V 226.30885 H 0 Z"
         id="path3695" />
    </clipPath>
    <pattern
       id="EMFhbasepattern-64"
       patternUnits="userSpaceOnUse"
       width="6"
       height="6"
       x="0"
       y="0" />
    <clipPath
       clipPathUnits="userSpaceOnUse"
       id="clipEmfPath1-69">
      <path
         d="M 0,0 H 686.11858 V 139.84481 H 0 Z"
         id="path4322" />
    </clipPath>
    <clipPath
       clipPathUnits="userSpaceOnUse"
       id="clipEmfPath2-9">
      <path
         d="m 238.45537,108.67939 h 13.26528 v 15.66262 h -13.26528 z"
         id="path4325" />
    </clipPath>
    <pattern
       id="EMFhbasepattern-3"
       patternUnits="userSpaceOnUse"
       width="6"
       height="6"
       x="0"
       y="0" />
  </defs>
  <g
     inkscape:label="Warstwa 1"
     inkscape:groupmode="layer"
     id="layer1"
     transform="translate(-210.85816,-190.17612)">
    <text
       xml:space="preserve"
       style="font-style:normal;font-variant:normal;font-weight:400;font-size:3.88607px;line-height:125%;font-family:Calibri;text-align:start;letter-spacing:0px;word-spacing:0px;text-anchor:start;fill:#000000;fill-opacity:1;stroke:none;stroke-width:0.264583"
       x="152.778"
       y="187.36383"
       id="text4335"><tspan
         sodipodi:role="line"
         x="152.778"
         y="187.36383"
         id="tspan4333"
         style="stroke-width:0.264583"><tspan
           dx="0"
           dy="0"
           style="font-style:normal;font-variant:normal;font-weight:400;font-size:3.88607px;font-family:Calibri;fill:#181717;stroke-width:0.264583"
           id="tspan4331"> </tspan></tspan></text>
    <text
       xml:space="preserve"
       style="font-style:normal;font-variant:normal;font-weight:400;font-size:3.88607px;line-height:125%;font-family:Calibri;text-align:start;letter-spacing:0px;word-spacing:0px;text-anchor:start;fill:#000000;fill-opacity:1;stroke:none;stroke-width:0.264583"
       x="276.71945"
       y="215.61115"
       id="text4341"><tspan
         sodipodi:role="line"
         x="276.71945"
         y="215.61115"
         id="tspan4339"
         style="stroke-width:0.264583"><tspan
           dx="0"
           dy="0"
           style="font-style:normal;font-variant:normal;font-weight:400;font-size:3.88607px;font-family:Calibri;fill:#181717;stroke-width:0.264583"
           id="tspan4337"> </tspan></tspan></text>
    <path
       style="fill:none;stroke:#000000;stroke-width:0.211432px;stroke-linecap:round;stroke-linejoin:round;stroke-miterlimit:4;stroke-dasharray:none;stroke-opacity:1"
       d="m 219.2998,211.29793 h 54.37504 l -5.32809,-18.56373 h -54.38032 l 5.33337,18.56373"
       id="path4343" />
    <path
       style="fill:none;stroke:#000000;stroke-width:0.211432px;stroke-linecap:round;stroke-linejoin:round;stroke-miterlimit:4;stroke-dasharray:none;stroke-opacity:1"
       d="M 219.29452,211.29793 250.20588,192.7342"
       id="path4345" />
    <path
       style="fill:none;stroke:#000000;stroke-width:0.211432px;stroke-linecap:round;stroke-linejoin:round;stroke-miterlimit:4;stroke-dasharray:none;stroke-opacity:1"
       d="m 259.25517,192.7342 c 0,2.83848 1.34259,5.51309 3.62078,7.2204 2.27818,1.70732 5.22765,2.25176 7.9657,1.46946"
       id="path4347" />
    <path
       style="fill:#000000;fill-opacity:1;fill-rule:nonzero;stroke:none;stroke-width:0.264583"
       d="m 263.79567,199.15116 c 0,0.0264 0,0.0423 -0.005,0.0582 -0.005,0.0159 -0.005,0.0264 -0.0106,0.037 -0.0106,0.005 -0.0159,0.0159 -0.0211,0.0159 -0.0106,0.005 -0.0159,0.005 -0.0212,0.005 h -1.13645 c -0.0106,0 -0.0159,0 -0.0211,-0.005 -0.0106,0 -0.0159,-0.0106 -0.0211,-0.0159 -0.005,-0.0106 -0.0106,-0.0211 -0.0159,-0.037 0,-0.0159 -0.005,-0.0317 -0.005,-0.0582 0,-0.0159 0.005,-0.037 0.005,-0.0529 0.005,-0.0106 0.0106,-0.0264 0.0159,-0.037 0.005,-0.005 0.0106,-0.0159 0.0159,-0.0211 0.0106,-0.005 0.0159,-0.005 0.0264,-0.005 h 0.45458 v -1.68617 l -0.42286,0.25371 c -0.0211,0.0106 -0.037,0.0159 -0.0529,0.0212 -0.0106,0 -0.0211,0 -0.0264,-0.0106 -0.0106,-0.005 -0.0159,-0.0159 -0.0159,-0.037 -0.005,-0.0159 -0.005,-0.037 -0.005,-0.0634 0,-0.0211 0,-0.037 0,-0.0476 0.005,-0.0159 0.005,-0.0264 0.0106,-0.037 0,-0.005 0.005,-0.0159 0.0106,-0.0211 0.0106,-0.0106 0.0159,-0.0159 0.0264,-0.0211 l 0.50215,-0.32772 c 0.005,-0.005 0.0106,-0.005 0.0159,-0.0106 0.005,0 0.0159,-0.005 0.0264,-0.005 0.0106,0 0.0211,-0.005 0.0317,-0.005 0.0159,0 0.0317,0 0.0529,0 0.0264,0 0.0476,0 0.0687,0.005 0.0159,0 0.0317,0.005 0.037,0.005 0.0106,0.005 0.0211,0.0106 0.0211,0.0159 0.005,0.0106 0.005,0.0159 0.005,0.0211 v 1.95047 h 0.39643 c 0.005,0 0.0159,0 0.0212,0.005 0.0106,0.005 0.0159,0.0159 0.0211,0.0211 0.005,0.0106 0.0106,0.0264 0.0106,0.037 0.005,0.0159 0.005,0.037 0.005,0.0529 z m 1.80246,-0.99373 c 0,0.16915 -0.0159,0.32244 -0.0423,0.46515 -0.0264,0.14272 -0.0687,0.25901 -0.13215,0.35944 -0.0581,0.10571 -0.13743,0.17971 -0.23786,0.23786 -0.0951,0.0529 -0.21672,0.0846 -0.36472,0.0846 -0.13743,0 -0.24843,-0.0264 -0.34358,-0.074 -0.0951,-0.0529 -0.16914,-0.12686 -0.22729,-0.222 -0.0581,-0.0952 -0.0951,-0.21672 -0.12157,-0.35415 -0.0211,-0.14272 -0.037,-0.30658 -0.037,-0.4863 0,-0.16914 0.0159,-0.32772 0.0423,-0.46515 0.0264,-0.14271 0.0687,-0.26429 0.13214,-0.36472 0.0581,-0.10043 0.13743,-0.17971 0.23786,-0.23786 0.10043,-0.0529 0.21672,-0.0793 0.36472,-0.0793 0.13743,0 0.24844,0.0211 0.34358,0.074 0.0951,0.0476 0.16915,0.12157 0.22729,0.21671 0.0581,0.10043 0.0951,0.21672 0.12157,0.35944 0.0212,0.14272 0.037,0.30129 0.037,0.48629 z m -0.296,0.0212 c 0,-0.11101 -0.005,-0.21144 -0.0106,-0.30129 -0.0106,-0.0846 -0.0211,-0.16386 -0.037,-0.23258 -0.0159,-0.0687 -0.037,-0.12686 -0.0582,-0.17443 -0.0264,-0.0476 -0.0529,-0.0899 -0.0846,-0.11629 -0.037,-0.0317 -0.074,-0.0581 -0.11629,-0.0687 -0.0423,-0.0159 -0.0951,-0.0264 -0.148,-0.0264 -0.0951,0 -0.16915,0.0264 -0.23258,0.0687 -0.0581,0.0476 -0.10571,0.111 -0.13743,0.19029 -0.037,0.0793 -0.0581,0.17443 -0.0687,0.28015 -0.0159,0.111 -0.0211,0.222 -0.0211,0.34886 0,0.16386 0.0106,0.30658 0.0264,0.42286 0.0159,0.11629 0.0423,0.21144 0.0793,0.28015 0.037,0.074 0.0846,0.12686 0.13743,0.16386 0.0581,0.0317 0.12686,0.0476 0.20615,0.0476 0.0634,0 0.12157,-0.0106 0.16914,-0.0317 0.0476,-0.0211 0.0846,-0.0476 0.12158,-0.0899 0.0317,-0.037 0.0634,-0.0846 0.0846,-0.13743 0.0211,-0.0529 0.0423,-0.111 0.0529,-0.17443 0.0159,-0.0687 0.0211,-0.13743 0.0264,-0.21143 0.005,-0.0793 0.0106,-0.15858 0.0106,-0.23786 z m 2.01389,0.37529 c 0,0.0951 -0.0159,0.19029 -0.0476,0.28015 -0.0264,0.0898 -0.074,0.16914 -0.13214,0.23786 -0.0634,0.0687 -0.13743,0.12686 -0.23258,0.16914 -0.0899,0.0423 -0.20085,0.0634 -0.32771,0.0634 -0.0899,0 -0.16915,-0.0159 -0.23786,-0.037 -0.074,-0.0211 -0.13215,-0.0529 -0.18501,-0.0951 -0.0476,-0.0423 -0.0951,-0.0952 -0.12686,-0.15858 -0.0317,-0.0634 -0.0634,-0.13214 -0.0846,-0.21143 -0.0159,-0.0793 -0.0317,-0.16386 -0.0423,-0.259 -0.0106,-0.0899 -0.0159,-0.19029 -0.0159,-0.30129 0,-0.0951 0.005,-0.19029 0.0159,-0.28544 0.0106,-0.10043 0.0317,-0.19029 0.0529,-0.28015 0.0264,-0.0899 0.0634,-0.17971 0.10572,-0.259 0.0476,-0.0793 0.10043,-0.148 0.16914,-0.20615 0.0634,-0.0581 0.14801,-0.10571 0.23786,-0.13743 0.0952,-0.037 0.20086,-0.0528 0.32244,-0.0528 0.0423,0 0.0846,0.005 0.12686,0.0106 0.0423,0.005 0.0846,0.0106 0.11628,0.0159 0.037,0.0106 0.0687,0.0211 0.0951,0.0317 0.0211,0.0106 0.037,0.0159 0.0476,0.0211 0.005,0.0106 0.0106,0.0159 0.0159,0.0212 0.005,0.0106 0.0106,0.0159 0.0106,0.0264 0,0.0106 0.005,0.0159 0.005,0.0264 0,0.0106 0,0.0264 0,0.0423 0,0.0211 0,0.037 0,0.0529 0,0.0159 0,0.0264 -0.005,0.037 -0.005,0.0106 -0.0106,0.0159 -0.0159,0.0211 -0.005,0.005 -0.0159,0.005 -0.0264,0.005 -0.0106,0 -0.0264,-0.005 -0.0476,-0.0106 -0.0211,-0.0106 -0.0476,-0.0159 -0.0793,-0.0264 -0.0317,-0.0106 -0.0634,-0.0212 -0.111,-0.0264 -0.0423,-0.0106 -0.0899,-0.0106 -0.148,-0.0106 -0.10572,0 -0.19557,0.0211 -0.26957,0.0634 -0.074,0.0423 -0.13743,0.10043 -0.18501,0.17443 -0.0476,0.074 -0.0793,0.15857 -0.10571,0.25372 -0.0212,0.0951 -0.037,0.19557 -0.037,0.30129 0.0264,-0.0159 0.0634,-0.0317 0.0952,-0.0476 0.037,-0.0211 0.0793,-0.037 0.12157,-0.0476 0.0423,-0.0159 0.0899,-0.0264 0.13743,-0.037 0.0476,-0.005 0.10043,-0.0106 0.15329,-0.0106 0.11629,0 0.21672,0.0159 0.29601,0.0476 0.0846,0.0317 0.148,0.0793 0.19557,0.13743 0.0529,0.0582 0.0846,0.12686 0.111,0.20086 0.0211,0.0793 0.0317,0.16386 0.0317,0.25901 z m -0.29601,0.0264 c 0,-0.0687 -0.005,-0.12686 -0.0159,-0.17972 -0.0159,-0.0581 -0.037,-0.10043 -0.0687,-0.13743 -0.0264,-0.0423 -0.0687,-0.0687 -0.12157,-0.0899 -0.0476,-0.0211 -0.111,-0.0317 -0.18501,-0.0317 -0.0423,0 -0.0793,0.005 -0.12157,0.0106 -0.0423,0.0106 -0.0846,0.0211 -0.12157,0.0317 -0.037,0.0159 -0.074,0.0264 -0.11101,0.0476 -0.037,0.0159 -0.0687,0.037 -0.0951,0.0581 0,0.148 0.005,0.26957 0.0264,0.37 0.0159,0.10043 0.0476,0.17972 0.0793,0.23786 0.037,0.0581 0.0793,0.10043 0.13214,0.12686 0.0529,0.0264 0.11629,0.0423 0.18501,0.0423 0.074,0 0.13214,-0.0159 0.185,-0.0423 0.0529,-0.0264 0.10043,-0.0634 0.13214,-0.111 0.037,-0.0476 0.0634,-0.10043 0.0793,-0.15857 0.0159,-0.0581 0.0211,-0.11629 0.0211,-0.17443 z"
       id="path4349" />
    <path
       style="fill:#000000;fill-opacity:1;fill-rule:nonzero;stroke:none;stroke-width:0.264583"
       d="m 268.51061,196.72498 c 0,0.0846 -0.037,0.15329 -0.12158,0.21143 -0.0793,0.0582 -0.17971,0.0899 -0.296,0.0899 -0.11629,0 -0.21672,-0.0317 -0.30129,-0.0899 -0.0793,-0.0581 -0.12157,-0.12686 -0.12157,-0.21143 0,-0.0846 0.0423,-0.15329 0.12157,-0.21143 0.0846,-0.0582 0.17972,-0.0899 0.30129,-0.0899 0.111,0 0.21143,0.0317 0.296,0.0899 0.0793,0.0581 0.12158,0.12686 0.12158,0.21143 z m -0.71358,0 c 0,0.0581 0.0317,0.10572 0.0846,0.148 0.0581,0.0423 0.12686,0.0634 0.21143,0.0634 0.0846,0 0.15329,-0.0211 0.20615,-0.0634 0.0581,-0.0423 0.0846,-0.0899 0.0846,-0.148 0,-0.0581 -0.0264,-0.10572 -0.0846,-0.148 -0.0582,-0.0423 -0.12686,-0.0634 -0.21143,-0.0634 -0.0793,0 -0.14801,0.0211 -0.20615,0.0634 -0.0581,0.0423 -0.0846,0.0899 -0.0846,0.148 z"
       id="path4351" />
    <path
       style="fill:none;stroke:#000000;stroke-width:0.211432px;stroke-linecap:round;stroke-linejoin:round;stroke-miterlimit:4;stroke-dasharray:none;stroke-opacity:1"
       d="m 244.49722,196.15411 c 1.54345,2.55305 4.59864,3.76878 7.4794,2.97591 2.87548,-0.79816 4.86823,-3.41463 4.86823,-6.39582"
       id="path4353" />
    <path
       style="fill:#000000;fill-opacity:1;fill-rule:nonzero;stroke:none"
       clip-path="url(#clipEmfPath2-9)"
       d="m 247.67514,120.99573 c 0.01,0.0899 0.02,0.16981 0.01,0.22974 -0.01,0.0599 -0.0399,0.0999 -0.0999,0.12986 -0.0499,0.03 -0.12985,0.0499 -0.24972,0.0599 -0.10988,0.01 -0.2697,0.01 -0.46948,0.01 -0.11987,0 -0.22974,0 -0.31964,-0.01 -0.0999,0 -0.16982,-0.01 -0.20977,-0.03 -0.05,-0.01 -0.0899,-0.03 -0.10988,-0.0599 -0.03,-0.03 -0.04,-0.0599 -0.0499,-0.0999 l -0.40955,-2.03774 h -4.64485 l -1.45838,2.01776 c -0.02,0.0499 -0.0599,0.0799 -0.0899,0.10988 -0.04,0.03 -0.0899,0.0499 -0.15982,0.0699 -0.0699,0.02 -0.14983,0.03 -0.25971,0.03 -0.10988,0.01 -0.23974,0.01 -0.38957,0.01 -0.16981,0 -0.30966,0 -0.41953,-0.01 -0.0999,-0.01 -0.16981,-0.03 -0.20977,-0.0599 -0.04,-0.03 -0.0499,-0.0799 -0.04,-0.13985 0.02,-0.0599 0.0599,-0.12985 0.12986,-0.22974 l 5.80356,-7.78137 c 0.04,-0.0499 0.0799,-0.0899 0.12986,-0.11987 0.04,-0.03 0.0999,-0.0499 0.1798,-0.0699 0.0699,-0.02 0.16981,-0.03 0.27969,-0.0399 0.11986,0 0.25971,0 0.42952,0 0.18979,0 0.33962,0 0.45949,0 0.11987,0.01 0.20977,0.02 0.27969,0.0399 0.0699,0.02 0.11987,0.04 0.14983,0.0699 0.03,0.04 0.0499,0.0799 0.0599,0.11987 z m -2.90677,-6.87238 h -0.01 l -3.01665,4.17537 h 3.86571 z"
       id="path4355"
       transform="matrix(0.26458333,0,0,0.26458333,153.03172,183.68491)" />
    <path
       style="fill:#000000;fill-opacity:1;fill-rule:nonzero;stroke:none;stroke-width:0.264583"
       d="m 276.57674,214.02012 c 0,0.0687 -0.0159,0.13215 -0.0423,0.19557 -0.0264,0.0634 -0.0634,0.12158 -0.111,0.17444 -0.0476,0.0529 -0.111,0.0951 -0.17971,0.13743 -0.0687,0.037 -0.14801,0.074 -0.23786,0.10043 0.0687,0.005 0.13214,0.0264 0.19028,0.0476 0.0582,0.0264 0.111,0.0529 0.15329,0.0899 0.037,0.037 0.074,0.0793 0.0952,0.12686 0.0211,0.0529 0.037,0.10571 0.037,0.16386 0,0.0634 -0.0106,0.12157 -0.037,0.185 -0.0212,0.0581 -0.0529,0.11629 -0.10043,0.17443 -0.0476,0.0529 -0.10572,0.10572 -0.17444,0.15329 -0.0687,0.0476 -0.148,0.0899 -0.23786,0.12157 -0.0899,0.037 -0.19557,0.0634 -0.30657,0.0846 -0.11629,0.0211 -0.24843,0.0264 -0.39644,0.0264 h -0.82987 c -0.0529,0 -0.0951,-0.005 -0.12157,-0.0264 -0.0264,-0.0159 -0.0317,-0.0476 -0.0159,-0.0899 l 0.55501,-1.97689 c 0.0106,-0.0476 0.037,-0.0793 0.0793,-0.0951 0.037,-0.0159 0.0793,-0.0264 0.12686,-0.0264 h 0.67129 c 0.15858,0 0.29072,0.0106 0.40172,0.0264 0.10572,0.0212 0.19558,0.0476 0.26429,0.0846 0.074,0.037 0.12686,0.0793 0.16386,0.13743 0.037,0.0529 0.0529,0.111 0.0529,0.185 z m -0.44401,0.0529 c 0,-0.037 -0.005,-0.074 -0.0264,-0.10043 -0.0159,-0.0317 -0.0476,-0.0581 -0.0846,-0.0793 -0.037,-0.0211 -0.0899,-0.037 -0.148,-0.0476 -0.0634,-0.0159 -0.14272,-0.0211 -0.23786,-0.0211 h -0.44401 l -0.20086,0.71887 h 0.47572 c 0.12686,0 0.23258,-0.0159 0.31187,-0.0423 0.0846,-0.0317 0.148,-0.0687 0.20086,-0.11629 0.0528,-0.0476 0.0898,-0.0951 0.11628,-0.15329 0.0264,-0.0529 0.037,-0.111 0.037,-0.15857 z m -0.0951,1.0043 c 0,-0.0951 -0.0476,-0.16914 -0.14272,-0.222 -0.0951,-0.0476 -0.23786,-0.074 -0.43872,-0.074 h -0.53386 l -0.21672,0.77701 h 0.58144 c 0.13214,0 0.24314,-0.0106 0.33829,-0.037 0.0899,-0.0264 0.16386,-0.0634 0.22729,-0.10572 0.0581,-0.0476 0.10571,-0.0951 0.13743,-0.15329 0.0317,-0.0581 0.0476,-0.12157 0.0476,-0.185 z"
       id="path4357" />
    <path
       style="fill:#000000;fill-opacity:1;fill-rule:nonzero;stroke:none;stroke-width:0.264583"
       d="m 213.49335,191.00046 c 0,0.074 -0.005,0.15064 -0.0211,0.22993 -0.0132,0.0819 -0.0344,0.16122 -0.0661,0.24315 -0.0291,0.0793 -0.0687,0.15857 -0.11629,0.23786 -0.0502,0.0766 -0.10836,0.15064 -0.17708,0.222 -0.0687,0.0687 -0.148,0.13479 -0.2405,0.19293 -0.0899,0.0608 -0.19293,0.11101 -0.31186,0.15593 -0.11629,0.0423 -0.24579,0.0767 -0.38851,0.10044 -0.14271,0.0238 -0.3145,0.0344 -0.51536,0.0344 h -0.66866 c -0.0185,0 -0.0396,0 -0.0555,-0.005 -0.0185,-0.003 -0.0344,-0.0106 -0.0476,-0.0185 -0.0106,-0.0106 -0.0211,-0.0212 -0.0238,-0.037 -0.005,-0.0159 -0.003,-0.0344 0.003,-0.0581 l 0.5365,-1.97689 c 0.0106,-0.0449 0.0344,-0.0766 0.0714,-0.0951 0.037,-0.0159 0.0793,-0.0264 0.12422,-0.0264 h 0.63694 c 0.23257,0 0.42286,0.0185 0.57615,0.0555 0.15329,0.0344 0.28015,0.0872 0.38058,0.15593 0.10307,0.0687 0.17707,0.15329 0.22993,0.25108 0.0502,0.10043 0.074,0.21143 0.074,0.33829 z m -0.42286,0.0238 c 0,-0.0846 -0.0159,-0.16121 -0.0476,-0.23257 -0.0317,-0.0714 -0.0819,-0.13215 -0.15065,-0.18236 -0.0687,-0.0502 -0.15593,-0.0899 -0.26165,-0.11893 -0.10836,-0.0291 -0.24843,-0.0449 -0.42286,-0.0449 h -0.42022 l -0.46779,1.72581 h 0.41229 c 0.19029,0 0.34886,-0.0159 0.47572,-0.0502 0.1295,-0.0344 0.2405,-0.0793 0.33829,-0.13743 0.0978,-0.0582 0.18236,-0.12422 0.25108,-0.20086 0.0661,-0.0767 0.12421,-0.15858 0.1665,-0.24315 0.0449,-0.0846 0.0766,-0.16915 0.0951,-0.259 0.0211,-0.0872 0.0317,-0.17444 0.0317,-0.25637 z"
       id="path4359" />
    <path
       style="fill:#000000;fill-opacity:1;fill-rule:nonzero;stroke:none;stroke-width:0.264583"
       d="m 253.29807,190.26045 c 0,0.005 0,0.0106 -0.005,0.0264 0,0.0106 0,0.0211 -0.005,0.037 -0.005,0.0159 -0.0106,0.0264 -0.0159,0.0423 -0.005,0.0159 -0.0159,0.0264 -0.0264,0.0423 -0.0106,0.0106 -0.0212,0.0211 -0.037,0.0264 -0.0159,0.0106 -0.0317,0.0106 -0.0476,0.0106 h -1.30559 l -0.21143,0.69772 h 1.12588 c 0.0211,0 0.037,0.005 0.0476,0.0159 0.0106,0.005 0.0159,0.0212 0.0159,0.037 0,0.005 -0.005,0.0159 -0.005,0.0264 -0.005,0.0159 -0.005,0.0264 -0.0106,0.0423 -0.005,0.0106 -0.0106,0.0264 -0.0159,0.0423 -0.005,0.0106 -0.0159,0.0264 -0.0264,0.037 -0.005,0.0106 -0.0211,0.0159 -0.0317,0.0264 -0.0159,0.005 -0.0317,0.0106 -0.0476,0.0106 h -1.12059 l -0.24314,0.79287 h 1.33202 c 0.0159,0 0.0317,0.005 0.0423,0.0159 0.0106,0.005 0.0159,0.0212 0.0159,0.0423 0,0.005 0,0.0159 -0.005,0.0264 0,0.0159 0,0.0264 -0.005,0.0423 -0.005,0.0106 -0.0106,0.0264 -0.0159,0.0423 -0.005,0.0106 -0.0159,0.0264 -0.0264,0.037 -0.0106,0.0106 -0.0211,0.0212 -0.037,0.0317 -0.0159,0.005 -0.0317,0.005 -0.0476,0.005 h -1.61217 c -0.0159,0 -0.037,0 -0.0529,-0.005 -0.0159,0 -0.0317,-0.0106 -0.0476,-0.0211 -0.0106,-0.005 -0.0211,-0.0211 -0.0264,-0.037 -0.005,-0.0159 -0.005,-0.0317 0.005,-0.0529 l 0.59729,-1.97689 c 0.0106,-0.0476 0.037,-0.0793 0.0793,-0.0951 0.0423,-0.0159 0.0846,-0.0264 0.12158,-0.0264 h 1.58574 c 0.0423,0 0.0634,0.0159 0.0634,0.0581 z"
       id="path4361" />
    <path
       style="fill:#000000;fill-opacity:1;fill-rule:nonzero;stroke:none;stroke-width:0.264583"
       d="m 271.35965,190.42959 c 0,0.0211 -0.005,0.0529 -0.0159,0.0899 -0.0106,0.0317 -0.0211,0.0634 -0.0423,0.0793 -0.0159,0.0211 -0.037,0.0317 -0.0529,0.0317 -0.0211,0 -0.0476,-0.0106 -0.0793,-0.0317 -0.0264,-0.0211 -0.0634,-0.0423 -0.11629,-0.0687 -0.0476,-0.0211 -0.111,-0.0476 -0.185,-0.0687 -0.0793,-0.0212 -0.17443,-0.0317 -0.29072,-0.0317 -0.12686,0 -0.24315,0.0211 -0.34887,0.0582 -0.10571,0.0317 -0.19557,0.0846 -0.28014,0.14271 -0.0846,0.0634 -0.15858,0.13215 -0.22201,0.21143 -0.0634,0.0793 -0.11628,0.16386 -0.15857,0.25372 -0.0423,0.0846 -0.074,0.17443 -0.0951,0.26429 -0.0212,0.0899 -0.0317,0.17443 -0.0317,0.25372 0,0.0899 0.0159,0.16915 0.0423,0.24315 0.0317,0.0687 0.074,0.13214 0.13214,0.17972 0.0582,0.0476 0.13215,0.0846 0.21143,0.111 0.0846,0.0264 0.17972,0.037 0.28544,0.037 0.12157,0 0.222,-0.0106 0.30657,-0.0264 0.0899,-0.0211 0.16386,-0.0423 0.22201,-0.0687 0.0634,-0.0264 0.11628,-0.0476 0.15329,-0.0687 0.0423,-0.0159 0.074,-0.0264 0.10043,-0.0264 0.0159,0 0.0317,0.005 0.037,0.0106 0.0106,0.0106 0.0106,0.0264 0.0106,0.0423 0,0.005 0,0.0159 0,0.0264 -0.005,0.0106 -0.005,0.0211 -0.0106,0.0317 0,0.0159 -0.005,0.0264 -0.0106,0.0423 -0.005,0.0159 -0.005,0.0317 -0.0159,0.0423 -0.005,0.0159 -0.0106,0.0264 -0.0159,0.037 -0.0106,0.0106 -0.0211,0.0211 -0.037,0.0317 -0.0159,0.0106 -0.0476,0.0317 -0.10043,0.0529 -0.0476,0.0211 -0.111,0.0423 -0.185,0.0634 -0.074,0.0211 -0.15858,0.037 -0.24844,0.0528 -0.0899,0.0106 -0.19029,0.0212 -0.29072,0.0212 -0.15857,0 -0.296,-0.0212 -0.42286,-0.0529 -0.12157,-0.037 -0.22729,-0.0899 -0.31715,-0.15329 -0.0899,-0.0687 -0.15329,-0.15329 -0.20086,-0.25372 -0.0476,-0.10571 -0.074,-0.222 -0.074,-0.34886 0,-0.111 0.0159,-0.222 0.0476,-0.33829 0.0264,-0.111 0.074,-0.22729 0.13215,-0.33301 0.0581,-0.111 0.13214,-0.21143 0.222,-0.30657 0.0899,-0.0951 0.19558,-0.17972 0.31186,-0.25372 0.11629,-0.074 0.24844,-0.13215 0.39644,-0.16915 0.148,-0.0423 0.31186,-0.0634 0.48629,-0.0634 0.111,0 0.21672,0.0106 0.31186,0.0264 0.0952,0.0212 0.17972,0.0423 0.24844,0.074 0.0634,0.0264 0.11628,0.0529 0.148,0.074 0.0264,0.0212 0.0423,0.0476 0.0423,0.0793 z"
       id="path4363" />
  </g>
</svg>
