<?xml version="1.0" encoding="UTF-8" standalone="no"?>

<svg
   viewBox="0 0 42.384995 36.422722"
   version="1.1"
   id="svg5"
   inkscape:version="1.2.2 (732a01da63, 2022-12-09)"
   sodipodi:docname="kwiecień 2019 - zad. 13.svg"
   xmlns:inkscape="http://www.inkscape.org/namespaces/inkscape"
   xmlns:sodipodi="http://sodipodi.sourceforge.net/DTD/sodipodi-0.dtd"
   xmlns="http://www.w3.org/2000/svg"
   xmlns:svg="http://www.w3.org/2000/svg">
  <sodipodi:namedview
     id="namedview7"
     pagecolor="#ffffff"
     bordercolor="#000000"
     borderopacity="0.25"
     inkscape:showpageshadow="2"
     inkscape:pageopacity="0.0"
     inkscape:pagecheckerboard="0"
     inkscape:deskcolor="#d1d1d1"
     inkscape:document-units="mm"
     showgrid="false"
     inkscape:zoom="0.914906"
     inkscape:cx="-216.96218"
     inkscape:cy="104.38231"
     inkscape:window-width="1379"
     inkscape:window-height="1230"
     inkscape:window-x="2607"
     inkscape:window-y="186"
     inkscape:window-maximized="0"
     inkscape:current-layer="layer1" />
  <defs
     id="defs2">
    <clipPath
       clipPathUnits="userSpaceOnUse"
       id="clipEmfPath1">
      <path
         d="M 0,0 H 601.09294 V 161.42086 H 0 Z"
         id="path9" />
    </clipPath>
    <pattern
       id="EMFhbasepattern"
       patternUnits="userSpaceOnUse"
       width="6"
       height="6"
       x="0"
       y="0" />
  </defs>
  <g
     inkscape:label="Warstwa 1"
     inkscape:groupmode="layer"
     id="layer1"
     transform="translate(-162.24686,-120.8899)">
    <text
       xml:space="preserve"
       style="font-style:italic;font-variant:normal;font-weight:400;font-size:3.88607px;line-height:125%;font-family:Calibri;text-align:start;letter-spacing:0px;word-spacing:0px;text-anchor:start;fill:#000000;fill-opacity:1;stroke:none;stroke-width:0.264583"
       x="162.17619"
       y="123.34526"
       id="text21"><tspan
         sodipodi:role="line"
         x="162.17619"
         y="123.34526"
         id="tspan19"
         style="stroke-width:0.264583"><tspan
           dx="0"
           dy="0"
           style="font-style:italic;font-variant:normal;font-weight:400;font-size:3.88607px;font-family:Calibri;fill:#000000;stroke-width:0.264583"
           id="tspan15">D</tspan><tspan
           dx="0"
           dy="0"
           style="font-style:normal;font-variant:normal;font-weight:400;font-size:3.88607px;font-family:Calibri;fill:#181717;stroke-width:0.264583"
           id="tspan17"> </tspan></tspan></text>
    <text
       xml:space="preserve"
       style="font-style:normal;font-variant:normal;font-weight:400;font-size:3.88607px;line-height:125%;font-family:Calibri;text-align:start;letter-spacing:0px;word-spacing:0px;text-anchor:start;fill:#000000;fill-opacity:1;stroke:none;stroke-width:0.264583"
       x="204.54716"
       y="152.64973"
       id="text27"><tspan
         sodipodi:role="line"
         x="204.54716"
         y="152.64973"
         id="tspan25"
         style="stroke-width:0.264583"><tspan
           dx="0"
           dy="0"
           style="font-style:normal;font-variant:normal;font-weight:400;font-size:3.88607px;font-family:Calibri;fill:#181717;stroke-width:0.264583"
           id="tspan23"> </tspan></tspan></text>
    <text
       xml:space="preserve"
       style="font-style:normal;font-variant:normal;font-weight:400;font-size:3.88607px;line-height:125%;font-family:Calibri;text-align:start;letter-spacing:0px;word-spacing:0px;text-anchor:start;fill:#000000;fill-opacity:1;stroke:none;stroke-width:0.264583"
       x="92.657341"
       y="157.30124"
       id="text33"><tspan
         sodipodi:role="line"
         x="92.657341"
         y="157.30124"
         id="tspan31"
         style="stroke-width:0.264583"><tspan
           dx="0"
           dy="0"
           style="font-style:normal;font-variant:normal;font-weight:400;font-size:3.88607px;font-family:Calibri;fill:#000000;stroke-width:0.264583"
           id="tspan29"> </tspan></tspan></text>
    <text
       xml:space="preserve"
       style="font-style:italic;font-variant:normal;font-weight:400;font-size:3.88607px;line-height:125%;font-family:Calibri;text-align:start;letter-spacing:0px;word-spacing:0px;text-anchor:start;fill:#000000;fill-opacity:1;stroke:none;stroke-width:0.264583"
       x="162.34534"
       y="157.30124"
       id="text41"><tspan
         sodipodi:role="line"
         x="162.34534"
         y="157.30124"
         id="tspan39"
         style="stroke-width:0.264583"><tspan
           dx="0"
           dy="0"
           style="font-style:italic;font-variant:normal;font-weight:400;font-size:3.88607px;font-family:Calibri;fill:#000000;stroke-width:0.264583"
           id="tspan35">A</tspan><tspan
           dx="0"
           dy="0"
           style="font-style:italic;font-variant:normal;font-weight:400;font-size:3.88607px;font-family:Calibri;fill:#000000;stroke-width:0.264583"
           id="tspan37"> </tspan></tspan></text>
    <text
       xml:space="preserve"
       style="font-style:italic;font-variant:normal;font-weight:400;font-size:3.88607px;line-height:125%;font-family:Calibri;text-align:start;letter-spacing:0px;word-spacing:0px;text-anchor:start;fill:#000000;fill-opacity:1;stroke:none;stroke-width:0.264583"
       x="185.60286"
       y="157.30124"
       id="text49"><tspan
         sodipodi:role="line"
         x="185.60286"
         y="157.30124"
         id="tspan47"
         style="stroke-width:0.264583"><tspan
           dx="0"
           dy="0"
           style="font-style:italic;font-variant:normal;font-weight:400;font-size:3.88607px;font-family:Calibri;fill:#000000;stroke-width:0.264583"
           id="tspan43">B</tspan><tspan
           dx="0"
           dy="0"
           style="font-style:italic;font-variant:normal;font-weight:400;font-size:3.88607px;font-family:Calibri;fill:#000000;stroke-width:0.264583"
           id="tspan45"> </tspan></tspan></text>
    <path
       style="fill:none;stroke:#000000;stroke-width:0.211432px;stroke-linecap:round;stroke-linejoin:round;stroke-miterlimit:4;stroke-dasharray:none;stroke-opacity:1"
       d="M 165.43224,152.64974 H 185.18 L 165.43224,124.783 v 27.86674"
       id="path51" />
    <path
       style="fill:none;stroke:#000000;stroke-width:0.211432px;stroke-linecap:round;stroke-linejoin:round;stroke-miterlimit:4;stroke-dasharray:none;stroke-opacity:1"
       d="M 185.20643,152.64974 201.3334,141.21655 165.43224,124.783"
       id="path53" />
    <path
       style="fill:none;stroke:#000000;stroke-width:0.211432px;stroke-linecap:round;stroke-linejoin:round;stroke-miterlimit:4;stroke-dasharray:none;stroke-opacity:1"
       d="m 169.36488,152.64974 c 0,-1.05187 -0.41229,-2.06411 -1.14966,-2.8094 -0.73737,-0.7453 -1.73903,-1.16552 -2.78298,-1.16552"
       id="path55" />
    <path
       style="fill:#000000;fill-opacity:1;fill-rule:evenodd;stroke:none;stroke-width:0.264583"
       d="m 166.89113,150.76799 c 0.21143,0 0.38057,0.17179 0.38057,0.38058 0,0.21143 -0.16914,0.38058 -0.38057,0.38058 -0.20879,0 -0.38058,-0.16915 -0.38058,-0.38058 0,-0.20879 0.17179,-0.38058 0.38058,-0.38058 z"
       id="path57" />
    <path
       style="fill:none;stroke:#000000;stroke-width:0.211432px;stroke-linecap:round;stroke-linejoin:round;stroke-miterlimit:4;stroke-dasharray:none;stroke-opacity:1"
       d="m 188.43605,150.36627 c -0.60787,-0.84573 -1.53288,-1.42188 -2.57419,-1.59631 -1.03601,-0.17972 -2.10375,0.0634 -2.96533,0.66601"
       id="path59" />
    <path
       style="fill:#000000;fill-opacity:1;fill-rule:evenodd;stroke:none;stroke-width:0.264583"
       d="m 185.624,150.04912 c 0.21144,0 0.38058,0.17972 0.38058,0.40173 0,0.222 -0.16914,0.40172 -0.38058,0.40172 -0.20614,0 -0.38058,-0.17972 -0.38058,-0.40172 0,-0.22201 0.17444,-0.40173 0.38058,-0.40173 z"
       id="path61" />
    <path
       style="fill:#000000;fill-opacity:1;fill-rule:nonzero;stroke:none;stroke-width:0.264583"
       d="m 204.63174,143.23573 c 0,0.0264 -0.005,0.0581 -0.0211,0.10043 -0.0106,0.037 -0.0264,0.0687 -0.0423,0.0899 -0.0211,0.0211 -0.0423,0.037 -0.0634,0.037 -0.0264,0 -0.0529,-0.0159 -0.0846,-0.037 -0.0317,-0.0211 -0.074,-0.0476 -0.12686,-0.074 -0.0581,-0.0317 -0.12686,-0.0529 -0.21143,-0.0793 -0.0846,-0.0211 -0.19029,-0.0317 -0.31715,-0.0317 -0.14271,0 -0.26957,0.0159 -0.38586,0.0581 -0.11629,0.037 -0.222,0.0951 -0.31715,0.15857 -0.0951,0.0687 -0.17443,0.14801 -0.24315,0.23786 -0.074,0.0899 -0.13214,0.17972 -0.17971,0.27487 -0.0423,0.10043 -0.0793,0.19557 -0.10043,0.296 -0.0264,0.10043 -0.037,0.19029 -0.037,0.28015 0,0.10043 0.0159,0.19029 0.0476,0.26957 0.037,0.0793 0.0846,0.14801 0.148,0.20086 0.0634,0.0581 0.14272,0.0951 0.23786,0.12686 0.0899,0.0264 0.19558,0.0423 0.31186,0.0423 0.13215,0 0.24844,-0.0159 0.34358,-0.037 0.0951,-0.0211 0.17443,-0.0476 0.24315,-0.074 0.0687,-0.0264 0.12686,-0.0529 0.16914,-0.074 0.0476,-0.0211 0.0846,-0.0317 0.11101,-0.0317 0.0211,0 0.0317,0.005 0.0423,0.0159 0.005,0.0106 0.0106,0.0264 0.0106,0.0423 0,0.0106 0,0.0159 0,0.0317 -0.005,0.0106 -0.005,0.0211 -0.0106,0.037 -0.005,0.0159 -0.005,0.0317 -0.0106,0.0476 -0.005,0.0159 -0.0106,0.0317 -0.0159,0.0423 -0.0106,0.0159 -0.0159,0.0317 -0.0211,0.0423 -0.0106,0.0106 -0.0211,0.0264 -0.0423,0.037 -0.0159,0.0106 -0.0529,0.0317 -0.111,0.0581 -0.0529,0.0211 -0.12157,0.0476 -0.20614,0.0687 -0.0793,0.0211 -0.17444,0.0423 -0.27487,0.0581 -0.10043,0.0159 -0.21143,0.0211 -0.32243,0.0211 -0.17443,0 -0.32772,-0.0159 -0.46515,-0.0581 -0.13743,-0.037 -0.25901,-0.0951 -0.35415,-0.16914 -0.0951,-0.074 -0.16914,-0.16915 -0.22729,-0.28015 -0.0529,-0.111 -0.0793,-0.24315 -0.0793,-0.38586 0,-0.12158 0.0212,-0.24844 0.0529,-0.37529 0.0317,-0.12686 0.0846,-0.24844 0.148,-0.37001 0.0687,-0.12157 0.14801,-0.23258 0.24844,-0.33829 0.0951,-0.10572 0.21143,-0.20086 0.34357,-0.28015 0.12686,-0.0793 0.27486,-0.14272 0.43873,-0.19029 0.16385,-0.0476 0.34357,-0.0687 0.53915,-0.0687 0.12157,0 0.23786,0.0106 0.34358,0.0317 0.10571,0.0211 0.20085,0.0476 0.27485,0.0793 0.074,0.0317 0.13215,0.0581 0.16386,0.0846 0.037,0.0211 0.0529,0.0529 0.0529,0.0846 z"
       id="path63" />
  </g>
</svg>
