<?xml version="1.0" encoding="UTF-8" standalone="no"?>

<svg
   viewBox="0 0 63.330414 42.406216"
   version="1.1"
   id="svg5"
   inkscape:version="1.2.2 (732a01da63, 2022-12-09)"
   sodipodi:docname="rysunek.svg"
   xmlns:inkscape="http://www.inkscape.org/namespaces/inkscape"
   xmlns:sodipodi="http://sodipodi.sourceforge.net/DTD/sodipodi-0.dtd"
   xmlns="http://www.w3.org/2000/svg"
   xmlns:svg="http://www.w3.org/2000/svg">
  <sodipodi:namedview
     id="namedview7"
     pagecolor="#ffffff"
     bordercolor="#000000"
     borderopacity="0.25"
     inkscape:showpageshadow="2"
     inkscape:pageopacity="0.0"
     inkscape:pagecheckerboard="0"
     inkscape:deskcolor="#d1d1d1"
     inkscape:document-units="mm"
     showgrid="false"
     inkscape:zoom="1.829812"
     inkscape:cx="-64.487499"
     inkscape:cy="112.57987"
     inkscape:window-width="3440"
     inkscape:window-height="1377"
     inkscape:window-x="2552"
     inkscape:window-y="119"
     inkscape:window-maximized="1"
     inkscape:current-layer="g576" />
  <defs
     id="defs2">
    <clipPath
       clipPathUnits="userSpaceOnUse"
       id="clipEmfPath1">
      <path
         d="M 0,0.79911319 H 601.09294 V 175.16561 H 0 Z"
         id="path242" />
    </clipPath>
    <pattern
       id="EMFhbasepattern"
       patternUnits="userSpaceOnUse"
       width="6"
       height="6"
       x="0"
       y="0" />
  </defs>
  <g
     inkscape:label="Warstwa 1"
     inkscape:groupmode="layer"
     id="layer1"
     transform="translate(-12.334794,-9.7968919)">
    <text
       xml:space="preserve"
       style="font-style:normal;font-variant:normal;font-weight:400;font-size:3.88607px;line-height:125%;font-family:Calibri;text-align:start;letter-spacing:0px;word-spacing:0px;text-anchor:start;fill:#000000;fill-opacity:1;stroke:none;stroke-width:0.264583"
       x="18.611357"
       y="147.17844"
       id="text258"><tspan
         sodipodi:role="line"
         x="18.611357"
         y="147.17844"
         id="tspan256"
         style="stroke-width:0.264583"><tspan
           dx="0"
           dy="0"
           style="font-style:normal;font-variant:normal;font-weight:400;font-size:3.88607px;font-family:Calibri;fill:#000000;stroke-width:0.264583"
           id="tspan254"> </tspan></tspan></text>
    <g
       id="g576"
       transform="translate(2.8919433,-0.81109313)">
      <g
         id="g633">
        <text
           xml:space="preserve"
           style="font-style:normal;font-variant:normal;font-weight:400;font-size:3.88607px;line-height:125%;font-family:Calibri;text-align:start;letter-spacing:0px;word-spacing:0px;text-anchor:start;fill:#000000;fill-opacity:1;stroke:none;stroke-width:0.264583"
           x="72.625252"
           y="43.654812"
           id="text252"><tspan
             sodipodi:role="line"
             x="72.625252"
             y="43.654812"
             id="tspan250"
             style="stroke-width:0.264583"><tspan
               dx="0"
               dy="0"
               style="font-style:normal;font-variant:normal;font-weight:400;font-size:3.88607px;font-family:Calibri;fill:#181717;stroke-width:0.264583"
               id="tspan248"> </tspan></tspan></text>
        <text
           xml:space="preserve"
           style="font-style:normal;font-variant:normal;font-weight:400;font-size:3.88607px;line-height:125%;font-family:Calibri;text-align:start;letter-spacing:0px;word-spacing:0px;text-anchor:start;fill:#000000;fill-opacity:1;stroke:none;stroke-width:0.264583"
           x="19.022045"
           y="52.034328"
           id="text266"><tspan
             sodipodi:role="line"
             x="19.022045"
             y="52.034328"
             id="tspan264"
             style="stroke-width:0.264583"><tspan
               dx="0"
               dy="0"
               style="font-style:normal;font-variant:normal;font-weight:400;font-size:3.88607px;font-family:Calibri;fill:#181717;stroke-width:0.264583"
               id="tspan260">Rysunek I</tspan><tspan
               dx="0"
               dy="0"
               style="font-style:normal;font-variant:normal;font-weight:400;font-size:3.88607px;font-family:Calibri;fill:#181717;stroke-width:0.264583"
               id="tspan262"> </tspan></tspan></text>
        <text
           xml:space="preserve"
           style="font-style:normal;font-variant:normal;font-weight:400;font-size:3.88607px;line-height:125%;font-family:Calibri;text-align:start;letter-spacing:0px;word-spacing:0px;text-anchor:start;fill:#000000;fill-opacity:1;stroke:none;stroke-width:0.264583"
           x="53.850086"
           y="52.323513"
           id="text274"><tspan
             sodipodi:role="line"
             x="53.850086"
             y="52.323513"
             id="tspan272"
             style="stroke-width:0.264583"><tspan
               dx="0"
               dy="0"
               style="font-style:normal;font-variant:normal;font-weight:400;font-size:3.88607px;font-family:Calibri;fill:#181717;stroke-width:0.264583"
               id="tspan268">Rysunek II</tspan><tspan
               dx="0"
               dy="0"
               style="font-style:normal;font-variant:normal;font-weight:400;font-size:3.88607px;font-family:Calibri;fill:#181717;stroke-width:0.264583"
               id="tspan270"> </tspan></tspan></text>
        <path
           style="fill:#cccccc;fill-opacity:1;fill-rule:evenodd;stroke:none;stroke-width:0.264583"
           d="m 15.913991,21.228691 v 21.94664 h 21.946645 v -21.94664 z"
           id="path276" />
        <path
           style="fill:none;stroke:#000000;stroke-width:0.211432px;stroke-linecap:round;stroke-linejoin:round;stroke-miterlimit:4;stroke-dasharray:none;stroke-opacity:1"
           d="M 15.935136,43.196481 H 37.881779 V 21.249831 H 15.935136 Z"
           id="path278" />
        <path
           style="fill:#000000;fill-opacity:1;fill-rule:nonzero;stroke:#000000;stroke-width:0.0026429px;stroke-linecap:butt;stroke-linejoin:round;stroke-miterlimit:4;stroke-dasharray:none;stroke-opacity:1"
           d="m 9.5498878,32.138581 h 0.4862942 c 0.06079,0 0.105714,0.0476 0.105714,0.10572 0,0.0608 -0.04493,0.10571 -0.105714,0.10571 H 9.5498878 c -0.05814,0 -0.105716,-0.0449 -0.105716,-0.10571 0,-0.0581 0.04757,-0.10572 0.105716,-0.10572 z m 1.3954502,0 h 0.486294 c 0.06079,0 0.105716,0.0476 0.105716,0.10572 0,0.0608 -0.04493,0.10571 -0.105716,0.10571 h -0.486294 c -0.05814,0 -0.105714,-0.0449 -0.105714,-0.10571 0,-0.0581 0.04757,-0.10572 0.105714,-0.10572 z m 1.395452,0 h 0.486294 c 0.06079,0 0.105717,0.0476 0.105717,0.10572 0,0.0608 -0.04493,0.10571 -0.105717,0.10571 H 12.34079 c -0.05814,0 -0.105717,-0.0449 -0.105717,-0.10571 0,-0.0581 0.04757,-0.10572 0.105717,-0.10572 z m 1.395452,0 h 0.486294 c 0.06079,0 0.105714,0.0476 0.105714,0.10572 0,0.0608 -0.04493,0.10571 -0.105714,0.10571 h -0.486294 c -0.05814,0 -0.105717,-0.0449 -0.105717,-0.10571 0,-0.0581 0.04757,-0.10572 0.105717,-0.10572 z m 1.395453,0 h 0.486293 c 0.06079,0 0.105714,0.0476 0.105714,0.10572 0,0.0608 -0.04493,0.10571 -0.105714,0.10571 h -0.486293 c -0.05815,0 -0.105717,-0.0449 -0.105717,-0.10571 0,-0.0581 0.04757,-0.10572 0.105717,-0.10572 z m 1.395449,0 h 0.486294 c 0.06079,0 0.105717,0.0476 0.105717,0.10572 0,0.0608 -0.04493,0.10571 -0.105717,0.10571 h -0.486294 c -0.05814,0 -0.105714,-0.0449 -0.105714,-0.10571 0,-0.0581 0.04757,-0.10572 0.105714,-0.10572 z m 1.395452,0 h 0.486294 c 0.06079,0 0.105717,0.0476 0.105717,0.10572 0,0.0608 -0.04493,0.10571 -0.105717,0.10571 h -0.486294 c -0.05814,0 -0.105717,-0.0449 -0.105717,-0.10571 0,-0.0581 0.04757,-0.10572 0.105717,-0.10572 z m 1.395452,0 h 0.486294 c 0.06079,0 0.105714,0.0476 0.105714,0.10572 0,0.0608 -0.04493,0.10571 -0.105714,0.10571 h -0.486294 c -0.05814,0 -0.105716,-0.0449 -0.105716,-0.10571 0,-0.0581 0.04757,-0.10572 0.105716,-0.10572 z m 1.39545,0 h 0.486294 c 0.06079,0 0.105717,0.0476 0.105717,0.10572 0,0.0608 -0.04493,0.10571 -0.105717,0.10571 h -0.486294 c -0.05814,0 -0.105714,-0.0449 -0.105714,-0.10571 0,-0.0581 0.04757,-0.10572 0.105714,-0.10572 z m 1.395452,0 h 0.486294 c 0.06079,0 0.105717,0.0476 0.105717,0.10572 0,0.0608 -0.04493,0.10571 -0.105717,0.10571 H 22.10895 c -0.05815,0 -0.105717,-0.0449 -0.105717,-0.10571 0,-0.0581 0.04757,-0.10572 0.105717,-0.10572 z m 1.395452,0 h 0.486294 c 0.06079,0 0.105714,0.0476 0.105714,0.10572 0,0.0608 -0.04493,0.10571 -0.105714,0.10571 h -0.486294 c -0.05814,0 -0.105717,-0.0449 -0.105717,-0.10571 0,-0.0581 0.04757,-0.10572 0.105717,-0.10572 z m 1.39545,0 h 0.486294 c 0.06079,0 0.105716,0.0476 0.105716,0.10572 0,0.0608 -0.04493,0.10571 -0.105716,0.10571 h -0.486294 c -0.05814,0 -0.105714,-0.0449 -0.105714,-0.10571 0,-0.0581 0.04757,-0.10572 0.105714,-0.10572 z m 1.395452,0 h 0.486294 c 0.06079,0 0.105717,0.0476 0.105717,0.10572 0,0.0608 -0.04493,0.10571 -0.105717,0.10571 h -0.486294 c -0.05814,0 -0.105717,-0.0449 -0.105717,-0.10571 0,-0.0581 0.04757,-0.10572 0.105717,-0.10572 z m 1.395452,0 h 0.486294 c 0.06078,0 0.105717,0.0476 0.105717,0.10572 0,0.0608 -0.04493,0.10571 -0.105717,0.10571 h -0.486294 c -0.05815,0 -0.105717,-0.0449 -0.105717,-0.10571 0,-0.0581 0.04757,-0.10572 0.105717,-0.10572 z m 1.395452,0 h 0.486294 c 0.06079,0 0.105714,0.0476 0.105714,0.10572 0,0.0608 -0.04493,0.10571 -0.105714,0.10571 h -0.486294 c -0.05814,0 -0.105716,-0.0449 -0.105716,-0.10571 0,-0.0581 0.04757,-0.10572 0.105716,-0.10572 z m 1.39545,0 h 0.486294 c 0.06079,0 0.105717,0.0476 0.105717,0.10572 0,0.0608 -0.04493,0.10571 -0.105717,0.10571 h -0.486294 c -0.05814,0 -0.105714,-0.0449 -0.105714,-0.10571 0,-0.0581 0.04757,-0.10572 0.105714,-0.10572 z m 1.395452,0 h 0.486294 c 0.06078,0 0.105717,0.0476 0.105717,0.10572 0,0.0608 -0.04493,0.10571 -0.105717,0.10571 H 31.87711 c -0.05815,0 -0.105717,-0.0449 -0.105717,-0.10571 0,-0.0581 0.04757,-0.10572 0.105717,-0.10572 z m 1.395452,0 h 0.486294 c 0.06078,0 0.105714,0.0476 0.105714,0.10572 0,0.0608 -0.04493,0.10571 -0.105714,0.10571 h -0.486294 c -0.05814,0 -0.105717,-0.0449 -0.105717,-0.10571 0,-0.0581 0.04757,-0.10572 0.105717,-0.10572 z m 1.39545,0 h 0.486294 c 0.06079,0 0.105716,0.0476 0.105716,0.10572 0,0.0608 -0.04493,0.10571 -0.105716,0.10571 h -0.486294 c -0.05814,0 -0.105714,-0.0449 -0.105714,-0.10571 0,-0.0581 0.04757,-0.10572 0.105714,-0.10572 z m 1.395452,0 h 0.486294 c 0.06079,0 0.105717,0.0476 0.105717,0.10572 0,0.0608 -0.04493,0.10571 -0.105717,0.10571 h -0.486294 c -0.05815,0 -0.105717,-0.0449 -0.105717,-0.10571 0,-0.0581 0.04757,-0.10572 0.105717,-0.10572 z m 1.395452,0 h 0.486294 c 0.06079,0 0.105714,0.0476 0.105714,0.10572 0,0.0608 -0.04493,0.10571 -0.105714,0.10571 h -0.486294 c -0.05814,0 -0.105717,-0.0449 -0.105717,-0.10571 0,-0.0581 0.04757,-0.10572 0.105717,-0.10572 z m 1.39545,0 h 0.486293 c 0.06079,0 0.105717,0.0476 0.105717,0.10572 0,0.0608 -0.04493,0.10571 -0.105717,0.10571 h -0.486293 c -0.05814,0 -0.105714,-0.0449 -0.105714,-0.10571 0,-0.0581 0.04757,-0.10572 0.105714,-0.10572 z m 1.395452,0 h 0.486294 c 0.06079,0 0.105717,0.0476 0.105717,0.10572 0,0.0608 -0.04493,0.10571 -0.105717,0.10571 h -0.486294 c -0.05814,0 -0.105717,-0.0449 -0.105717,-0.10571 0,-0.0581 0.04757,-0.10572 0.105717,-0.10572 z m 1.395452,0 h 0.486294 c 0.06078,0 0.105717,0.0476 0.105717,0.10572 0,0.0608 -0.04493,0.10571 -0.105717,0.10571 H 41.64527 c -0.05815,0 -0.105717,-0.0449 -0.105717,-0.10571 0,-0.0581 0.04757,-0.10572 0.105717,-0.10572 z m 1.395452,0 h 0.486294 c 0.06079,0 0.105714,0.0476 0.105714,0.10572 0,0.0608 -0.04493,0.10571 -0.105714,0.10571 h -0.486294 c -0.05814,0 -0.105716,-0.0449 -0.105716,-0.10571 0,-0.0581 0.04757,-0.10572 0.105716,-0.10572 z"
           id="path280" />
        <path
           style="fill:#cccccc;fill-opacity:1;fill-rule:evenodd;stroke:none;stroke-width:0.264583"
           d="m 53.955817,10.692561 h 10.99446 v 21.9625 h 7.69613 v 10.97861 h -21.98893 v -10.97861 h 3.29834 z"
           id="path282" />
        <path
           style="fill:none;stroke:#000000;stroke-width:0.211432px;stroke-linecap:round;stroke-linejoin:round;stroke-miterlimit:4;stroke-dasharray:none;stroke-opacity:1"
           d="m 50.678617,43.654811 h 21.98893 v -10.97861 h -7.69612 v -21.9625 h -10.99447 v 21.9625 h -3.29834 z"
           id="path284" />
        <path
           style="fill:none;stroke:#000000;stroke-width:0.211432px;stroke-linecap:round;stroke-linejoin:round;stroke-miterlimit:4;stroke-dasharray:none;stroke-opacity:1"
           d="m 53.976957,32.660351 h 10.99447"
           id="path286" />
      </g>
    </g>
  </g>
</svg>
