<?xml version="1.0" encoding="UTF-8" standalone="no"?>

<svg
   viewBox="0 0 47.107051 19.620891"
   version="1.1"
   id="svg5"
   inkscape:version="1.2.2 (732a01da63, 2022-12-09)"
   sodipodi:docname="kwiecień 2013 - zad. 18.svg"
   xmlns:inkscape="http://www.inkscape.org/namespaces/inkscape"
   xmlns:sodipodi="http://sodipodi.sourceforge.net/DTD/sodipodi-0.dtd"
   xmlns="http://www.w3.org/2000/svg"
   xmlns:svg="http://www.w3.org/2000/svg">
  <sodipodi:namedview
     id="namedview7"
     pagecolor="#ffffff"
     bordercolor="#000000"
     borderopacity="0.25"
     inkscape:showpageshadow="2"
     inkscape:pageopacity="0.0"
     inkscape:pagecheckerboard="0"
     inkscape:deskcolor="#d1d1d1"
     inkscape:document-units="mm"
     showgrid="false"
     inkscape:zoom="0.914906"
     inkscape:cx="-244.28739"
     inkscape:cy="-82.522138"
     inkscape:window-width="2050"
     inkscape:window-height="1230"
     inkscape:window-x="2607"
     inkscape:window-y="186"
     inkscape:window-maximized="0"
     inkscape:current-layer="layer1" />
  <defs
     id="defs2">
    <rect
       x="60.115463"
       y="-215.32268"
       width="240.46185"
       height="127.88199"
       id="rect4357" />
    <clipPath
       clipPathUnits="userSpaceOnUse"
       id="clipEmfPath1">
      <path
         d="M 0,0 H 601.09294 V 161.42086 H 0 Z"
         id="path9" />
    </clipPath>
    <pattern
       id="EMFhbasepattern"
       patternUnits="userSpaceOnUse"
       width="6"
       height="6"
       x="0"
       y="0" />
    <clipPath
       clipPathUnits="userSpaceOnUse"
       id="clipEmfPath1-9">
      <path
         d="M 0,0 H 601.09294 V 148.47523 H 0 Z"
         id="path390" />
    </clipPath>
    <pattern
       id="EMFhbasepattern-3"
       patternUnits="userSpaceOnUse"
       width="6"
       height="6"
       x="0"
       y="0" />
    <clipPath
       clipPathUnits="userSpaceOnUse"
       id="clipEmfPath1-1">
      <path
         d="m 200.09794,0.79911319 h 50.34413 V 100.04897 h -50.34413 z"
         id="path580" />
    </clipPath>
    <clipPath
       clipPathUnits="userSpaceOnUse"
       id="clipEmfPath2">
      <path
         d="M 200.09766,100.04883 V 0.79882812 h 50.34375 -50.34375 z"
         id="path583" />
    </clipPath>
    <clipPath
       clipPathUnits="userSpaceOnUse"
       id="clipEmfPath3">
      <path
         d="M 250.44207,0.79911319 H 354.00714 V 100.04897 H 250.44207 Z"
         id="path586" />
    </clipPath>
    <clipPath
       clipPathUnits="userSpaceOnUse"
       id="clipEmfPath4">
      <path
         d="M 269.78125,67.605469 V 99.25 h 31.00586 V 67.605469 Z"
         id="path589" />
    </clipPath>
    <clipPath
       clipPathUnits="userSpaceOnUse"
       id="clipEmfPath5">
      <path
         d="M 301.58594,67.605469 V 99.25 h 30.8457 V 67.605469 Z"
         id="path592" />
    </clipPath>
    <clipPath
       clipPathUnits="userSpaceOnUse"
       id="clipEmfPath6">
      <path
         d="m 354.00714,0.79911319 h 132.0135 V 100.04897 h -132.0135 z"
         id="path595" />
    </clipPath>
    <clipPath
       clipPathUnits="userSpaceOnUse"
       id="clipEmfPath7">
      <path
         d="M 354.00781,100.04883 V 0.79882812 H 486.02148 354.00781 Z"
         id="path598" />
    </clipPath>
    <clipPath
       clipPathUnits="userSpaceOnUse"
       id="clipEmfPath8">
      <path
         d="M 0,0.79911319 H 601.09294 V 135.20995 H 0 Z"
         id="path601" />
    </clipPath>
    <pattern
       id="EMFhbasepattern-2"
       patternUnits="userSpaceOnUse"
       width="6"
       height="6"
       x="0"
       y="0" />
    <clipPath
       clipPathUnits="userSpaceOnUse"
       id="clipEmfPath1-4">
      <path
         d="M 0,0 H 601.09294 V 105.48294 H 0 Z"
         id="path927" />
    </clipPath>
    <pattern
       id="EMFhbasepattern-28"
       patternUnits="userSpaceOnUse"
       width="6"
       height="6"
       x="0"
       y="0" />
    <clipPath
       clipPathUnits="userSpaceOnUse"
       id="clipEmfPath1-2">
      <path
         d="M 0,0 H 601.09294 V 186.03355 H 0 Z"
         id="path1066" />
    </clipPath>
    <clipPath
       clipPathUnits="userSpaceOnUse"
       id="clipEmfPath2-6">
      <path
         d="m 283.04589,160.46193 h 14.70368 v 17.42067 h -14.70368 z"
         id="path1069" />
    </clipPath>
    <clipPath
       clipPathUnits="userSpaceOnUse"
       id="clipEmfPath3-3">
      <path
         d="m 357.52324,77.513979 h 12.14652 v 17.420667 h -12.14652 z"
         id="path1072" />
    </clipPath>
    <pattern
       id="EMFhbasepattern-24"
       patternUnits="userSpaceOnUse"
       width="6"
       height="6"
       x="0"
       y="0" />
    <clipPath
       clipPathUnits="userSpaceOnUse"
       id="clipEmfPath1-41">
      <path
         d="M -278.8905,0.79911319 H 322.20244 V 147.51629 H -278.8905 Z"
         id="path1190" />
    </clipPath>
    <clipPath
       clipPathUnits="userSpaceOnUse"
       id="clipEmfPath2-1">
      <path
         d="M 0.47946791,13.904569 H 15.183151 V 31.325237 H 0.47946791 Z"
         id="path1193" />
    </clipPath>
    <clipPath
       clipPathUnits="userSpaceOnUse"
       id="clipEmfPath3-0">
      <path
         d="M 58.974553,69.043379 H 70.961251 V 86.304224 H 58.974553 Z"
         id="path1196" />
    </clipPath>
    <pattern
       id="EMFhbasepattern-34"
       patternUnits="userSpaceOnUse"
       width="6"
       height="6"
       x="0"
       y="0" />
    <clipPath
       clipPathUnits="userSpaceOnUse"
       id="clipEmfPath1-0">
      <path
         d="M 0,0 H 601.09294 V 196.2622 H 0 Z"
         id="path1293" />
    </clipPath>
    <clipPath
       clipPathUnits="userSpaceOnUse"
       id="clipEmfPath2-5">
      <path
         d="m 271.05919,24.612686 h 31.48506 v 80.710434 h -31.48506 z"
         id="path1296" />
    </clipPath>
    <clipPath
       clipPathUnits="userSpaceOnUse"
       id="clipEmfPath3-38">
      <path
         d="m 303.34337,24.612686 h 79.27202 v 80.710434 h -79.27202 z"
         id="path1299" />
    </clipPath>
    <clipPath
       clipPathUnits="userSpaceOnUse"
       id="clipEmfPath4-3">
      <path
         d="m 383.41451,24.612686 h 31.48506 v 80.710434 h -31.48506 z"
         id="path1302" />
    </clipPath>
    <clipPath
       clipPathUnits="userSpaceOnUse"
       id="clipEmfPath5-6">
      <path
         d="m 271.05919,110.1178 h 31.48506 v 53.86023 h -31.48506 z"
         id="path1305" />
    </clipPath>
    <clipPath
       clipPathUnits="userSpaceOnUse"
       id="clipEmfPath6-3">
      <path
         d="m 303.34337,110.1178 h 79.27202 v 53.86023 h -79.27202 z"
         id="path1308" />
    </clipPath>
    <clipPath
       clipPathUnits="userSpaceOnUse"
       id="clipEmfPath7-4">
      <path
         d="m 383.41451,110.1178 h 31.48506 v 53.86023 h -31.48506 z"
         id="path1311" />
    </clipPath>
    <pattern
       id="EMFhbasepattern-9"
       patternUnits="userSpaceOnUse"
       width="6"
       height="6"
       x="0"
       y="0" />
    <clipPath
       clipPathUnits="userSpaceOnUse"
       id="clipEmfPath1-6">
      <path
         d="M -194.82379,0 H 406.26914 V 120.50627 H -194.82379 Z"
         id="path1651" />
    </clipPath>
    <pattern
       id="EMFhbasepattern-0"
       patternUnits="userSpaceOnUse"
       width="6"
       height="6"
       x="0"
       y="0" />
    <clipPath
       clipPathUnits="userSpaceOnUse"
       id="clipEmfPath1-26">
      <path
         d="M -267.38327,0.79911319 H 333.70967 V 185.23444 h -601.09294 z"
         id="path1810" />
    </clipPath>
    <pattern
       id="EMFhbasepattern-5"
       patternUnits="userSpaceOnUse"
       width="6"
       height="6"
       x="0"
       y="0" />
    <clipPath
       clipPathUnits="userSpaceOnUse"
       id="clipEmfPath1-95">
      <path
         d="M 0,0 H 601.09294 V 146.39754 H 0 Z"
         id="path1956" />
    </clipPath>
    <clipPath
       clipPathUnits="userSpaceOnUse"
       id="clipEmfPath2-9">
      <path
         d="m 317.24793,56.737036 16.78138,-9.589358 8.4706,14.703683 -16.62155,9.74918 z"
         id="path1959" />
    </clipPath>
    <clipPath
       clipPathUnits="userSpaceOnUse"
       id="clipEmfPath3-5">
      <path
         d="m 331.47215,48.586082 21.57606,-12.466166 8.4706,14.863505 -21.41624,12.306343 z"
         id="path1962" />
    </clipPath>
    <pattern
       id="EMFhbasepattern-8"
       patternUnits="userSpaceOnUse"
       width="6"
       height="6"
       x="0"
       y="0" />
    <clipPath
       clipPathUnits="userSpaceOnUse"
       id="clipEmfPath1-65">
      <path
         d="M 0,0 H 601.09294 V 217.19896 H 0 Z"
         id="path2395" />
    </clipPath>
    <clipPath
       clipPathUnits="userSpaceOnUse"
       id="clipEmfPath2-0">
      <path
         d="m 262.90824,20.61712 h 64.40852 v 162.69944 h -64.40852 z"
         id="path2398" />
    </clipPath>
    <clipPath
       clipPathUnits="userSpaceOnUse"
       id="clipEmfPath3-380">
      <path
         d="m 327.31676,20.61712 h 40.11548 v 56.577214 h -40.11548 z"
         id="path2401" />
    </clipPath>
    <clipPath
       clipPathUnits="userSpaceOnUse"
       id="clipEmfPath4-5">
      <path
         d="m 368.23136,20.61712 h 55.93792 v 56.577214 h -55.93792 z"
         id="path2404" />
    </clipPath>
    <clipPath
       clipPathUnits="userSpaceOnUse"
       id="clipEmfPath5-3">
      <path
         d="m 327.79623,77.993447 h 96.37305 V 183.31656 h -96.37305 z"
         id="path2407" />
    </clipPath>
    <pattern
       id="EMFhbasepattern-6"
       patternUnits="userSpaceOnUse"
       width="6"
       height="6"
       x="0"
       y="0" />
    <clipPath
       clipPathUnits="userSpaceOnUse"
       id="clipEmfPath1-5">
      <path
         d="M 0,0 H 601.09294 V 254.75728 H 0 Z"
         id="path2790" />
    </clipPath>
    <clipPath
       clipPathUnits="userSpaceOnUse"
       id="clipEmfPath2-90">
      <path
         d="m 149.75381,152.4708 h 14.70368 v 17.42066 h -14.70368 z"
         id="path2793" />
    </clipPath>
    <pattern
       id="EMFhbasepattern-69"
       patternUnits="userSpaceOnUse"
       width="6"
       height="6"
       x="0"
       y="0" />
    <clipPath
       clipPathUnits="userSpaceOnUse"
       id="clipEmfPath1-3">
      <path
         d="M 0,0 H 686.11858 V 173.40756 H 0 Z"
         id="path3106" />
    </clipPath>
    <pattern
       id="EMFhbasepattern-26"
       patternUnits="userSpaceOnUse"
       width="6"
       height="6"
       x="0"
       y="0" />
    <clipPath
       clipPathUnits="userSpaceOnUse"
       id="clipEmfPath1-21">
      <path
         d="M 0,0 H 686.11858 V 159.66281 H 0 Z"
         id="path3364" />
    </clipPath>
    <pattern
       id="EMFhbasepattern-88"
       patternUnits="userSpaceOnUse"
       width="6"
       height="6"
       x="0"
       y="0" />
    <clipPath
       clipPathUnits="userSpaceOnUse"
       id="clipEmfPath1-50">
      <path
         d="M 0,0 H 686.11858 V 159.66281 H 0 Z"
         id="path3431" />
    </clipPath>
    <pattern
       id="EMFhbasepattern-31"
       patternUnits="userSpaceOnUse"
       width="6"
       height="6"
       x="0"
       y="0" />
    <clipPath
       clipPathUnits="userSpaceOnUse"
       id="clipEmfPath1-96">
      <path
         d="M 0,0 H 686.11858 V 154.54849 H 0 Z"
         id="path3622" />
    </clipPath>
    <clipPath
       clipPathUnits="userSpaceOnUse"
       id="clipEmfPath2-03">
      <path
         d="M 259.23232,14.224215 H 427.36573 V 120.82591 H 259.23232 Z"
         id="path3625" />
    </clipPath>
    <clipPath
       clipPathUnits="userSpaceOnUse"
       id="clipEmfPath3-1">
      <path
         d="M 260.66992,15.023438 V 46.189453 H 425.92773 V 15.023438 Z"
         id="path3628" />
    </clipPath>
    <clipPath
       clipPathUnits="userSpaceOnUse"
       id="clipEmfPath4-51">
      <path
         d="M 260.66992,47.306641 V 120.02734 H 425.92773 V 47.306641 Z"
         id="path3631" />
    </clipPath>
    <pattern
       id="EMFhbasepattern-242"
       patternUnits="userSpaceOnUse"
       width="6"
       height="6"
       x="0"
       y="0" />
    <clipPath
       clipPathUnits="userSpaceOnUse"
       id="clipEmfPath1-36">
      <path
         d="M -78.472915,4.9545018 H 607.64567 V 187.95142 H -78.472915 Z"
         id="path4094" />
    </clipPath>
    <clipPath
       clipPathUnits="userSpaceOnUse"
       id="clipEmfPath2-3">
      <path
         d="m 97.971277,4.9545018 h 5.593793 V 22.215347 h -5.593793 z"
         id="path4097" />
    </clipPath>
    <clipPath
       clipPathUnits="userSpaceOnUse"
       id="clipEmfPath3-33">
      <path
         d="m 436.47562,85.984579 h 20.61712 v 15.982261 h -20.61712 z"
         id="path4100" />
    </clipPath>
    <clipPath
       clipPathUnits="userSpaceOnUse"
       id="clipEmfPath4-7">
      <path
         d="m 451.49895,85.984579 h 18.05996 v 15.982261 h -18.05996 z"
         id="path4103" />
    </clipPath>
    <pattern
       id="EMFhbasepattern-4"
       patternUnits="userSpaceOnUse"
       width="6"
       height="6"
       x="0"
       y="0" />
    <clipPath
       clipPathUnits="userSpaceOnUse"
       id="clipEmfPath1-22">
      <path
         d="M 0,0 H 686.11858 V 37.078852 H 0 Z"
         id="path4361" />
    </clipPath>
    <pattern
       id="EMFhbasepattern-698"
       patternUnits="userSpaceOnUse"
       width="6"
       height="6"
       x="0"
       y="0" />
    <clipPath
       clipPathUnits="userSpaceOnUse"
       id="clipEmfPath1-42">
      <path
         d="M 0,0 H 686.11858 V 185.55408 H 0 Z"
         id="path4610" />
    </clipPath>
    <pattern
       id="EMFhbasepattern-67"
       patternUnits="userSpaceOnUse"
       width="6"
       height="6"
       x="0"
       y="0" />
    <clipPath
       clipPathUnits="userSpaceOnUse"
       id="clipEmfPath1-48">
      <path
         d="M 0,0 H 686.11858 V 133.61172 H 0 Z"
         id="path4869" />
    </clipPath>
    <pattern
       id="EMFhbasepattern-49"
       patternUnits="userSpaceOnUse"
       width="6"
       height="6"
       x="0"
       y="0" />
    <clipPath
       clipPathUnits="userSpaceOnUse"
       id="clipEmfPath1-31">
      <path
         d="M -253.4787,0.79911319 H 432.63988 V 96.37305 H -253.4787 Z"
         id="path5198" />
    </clipPath>
    <pattern
       id="EMFhbasepattern-678"
       patternUnits="userSpaceOnUse"
       width="6"
       height="6"
       x="0"
       y="0" />
  </defs>
  <g
     inkscape:label="Warstwa 1"
     inkscape:groupmode="layer"
     id="layer1"
     transform="translate(-553.2056,-258.22353)">
    <text
       xml:space="preserve"
       style="font-style:normal;font-variant:normal;font-weight:400;font-size:3.88607px;line-height:125%;font-family:Calibri;text-align:start;letter-spacing:0px;word-spacing:0px;text-anchor:start;fill:#000000;fill-opacity:1;stroke:none;stroke-width:0.264583"
       x="600.20697"
       y="277.73871"
       id="text5208"><tspan
         sodipodi:role="line"
         x="600.20697"
         y="277.73871"
         id="tspan5206"
         style="stroke-width:0.264583"><tspan
           dx="0"
           dy="0"
           style="font-style:normal;font-variant:normal;font-weight:400;font-size:3.88607px;font-family:Calibri;fill:#181717;stroke-width:0.264583"
           id="tspan5204"> </tspan></tspan></text>
    <path
       style="fill:none;stroke:#000000;stroke-width:0.211432px;stroke-linecap:round;stroke-linejoin:round;stroke-miterlimit:4;stroke-dasharray:none;stroke-opacity:1"
       d="m 564.30579,277.73871 c 0,-1.44302 -0.28279,-2.87547 -0.83516,-4.21014 -0.54972,-1.33466 -1.35845,-2.54775 -2.37861,-3.57056"
       id="path5210" />
    <path
       style="fill:#000000;fill-opacity:1;fill-rule:nonzero;stroke:none;stroke-width:0.264583"
       d="m 559.29221,276.49655 c 0,0.037 -0.008,0.0661 -0.0185,0.0899 -0.0106,0.0211 -0.0264,0.0317 -0.0476,0.0317 h -0.24314 v 0.46515 c 0,0.0106 -0.003,0.0185 -0.008,0.0238 -0.005,0.005 -0.0132,0.0106 -0.0238,0.0159 -0.0106,0.005 -0.0264,0.008 -0.0449,0.0106 -0.0185,0.003 -0.0423,0.003 -0.0714,0.003 -0.0264,0 -0.0502,0 -0.0687,-0.003 -0.0185,-0.003 -0.0344,-0.005 -0.0449,-0.0106 -0.0106,-0.005 -0.0185,-0.0106 -0.0211,-0.0159 -0.005,-0.005 -0.008,-0.0132 -0.008,-0.0238 v -0.46515 h -0.88802 c -0.0132,0 -0.0238,-0.003 -0.0344,-0.005 -0.008,-0.003 -0.0159,-0.0106 -0.0238,-0.0185 -0.008,-0.0106 -0.0106,-0.0238 -0.0132,-0.0397 -0.005,-0.0185 -0.005,-0.0396 -0.005,-0.0661 0,-0.0238 0,-0.0423 0.003,-0.0581 0,-0.0185 0.003,-0.0344 0.005,-0.0476 0.003,-0.0159 0.008,-0.0291 0.0132,-0.0423 0.005,-0.0132 0.0132,-0.0264 0.0211,-0.0423 l 0.77437,-1.34523 c 0.005,-0.0106 0.0132,-0.0185 0.0238,-0.0238 0.0106,-0.008 0.0264,-0.0132 0.0423,-0.0185 0.0185,-0.005 0.0396,-0.008 0.0634,-0.0106 0.0264,0 0.0555,0 0.0899,0 0.037,0 0.0687,0 0.0978,0.003 0.0291,0.003 0.0502,0.008 0.0687,0.0106 0.0159,0.005 0.0291,0.0106 0.037,0.0185 0.0106,0.008 0.0159,0.0159 0.0159,0.0264 v 1.4166 h 0.24314 c 0.0212,0 0.0344,0.0106 0.0476,0.0291 0.0106,0.0211 0.0185,0.0502 0.0185,0.0925 z m -0.59994,-1.33995 h -0.003 l -0.69772,1.21838 h 0.70037 z m 2.23061,1.25802 c 0,0.11893 -0.0212,0.22465 -0.0581,0.31715 -0.0396,0.0925 -0.0951,0.16914 -0.1665,0.23257 -0.0714,0.0634 -0.15858,0.111 -0.25636,0.14536 -0.10043,0.0344 -0.20879,0.0502 -0.33037,0.0502 -0.0687,0 -0.13214,-0.005 -0.19293,-0.0159 -0.0581,-0.008 -0.11364,-0.0211 -0.16121,-0.0344 -0.0449,-0.0159 -0.0846,-0.0291 -0.11365,-0.0423 -0.0317,-0.0132 -0.0502,-0.0264 -0.0581,-0.0344 -0.008,-0.008 -0.0159,-0.0132 -0.0185,-0.0212 -0.003,-0.008 -0.005,-0.0159 -0.008,-0.0238 -0.005,-0.0106 -0.005,-0.0238 -0.008,-0.037 0,-0.0159 0,-0.0344 0,-0.0529 0,-0.0211 0,-0.037 0.003,-0.0529 0,-0.0159 0.003,-0.0291 0.008,-0.037 0.005,-0.0106 0.0106,-0.0185 0.0159,-0.0238 0.005,-0.003 0.0132,-0.005 0.0211,-0.005 0.0106,0 0.0291,0.008 0.0529,0.0211 0.0238,0.0132 0.0555,0.0291 0.0951,0.0449 0.0397,0.0185 0.0872,0.0344 0.14801,0.0476 0.0581,0.0159 0.12686,0.0238 0.20879,0.0238 0.074,0 0.14271,-0.0106 0.20614,-0.0291 0.0634,-0.0185 0.11629,-0.0449 0.16122,-0.0846 0.0449,-0.0396 0.0819,-0.0872 0.10836,-0.14801 0.0238,-0.0581 0.037,-0.1295 0.037,-0.21407 0,-0.0714 -0.0106,-0.13215 -0.0317,-0.18765 -0.0211,-0.0529 -0.0555,-0.10043 -0.10043,-0.13479 -0.0476,-0.037 -0.10307,-0.0634 -0.17178,-0.0819 -0.0714,-0.0159 -0.15329,-0.0264 -0.25108,-0.0264 -0.0661,0 -0.12686,0.005 -0.17443,0.0106 -0.0502,0.008 -0.0951,0.0106 -0.13743,0.0106 -0.0317,0 -0.0555,-0.008 -0.0687,-0.0211 -0.0132,-0.0159 -0.0185,-0.0449 -0.0185,-0.0872 v -0.90123 c 0,-0.0396 0.008,-0.0661 0.0238,-0.0846 0.0185,-0.0185 0.0423,-0.0291 0.0766,-0.0291 h 0.96202 c 0.008,0 0.0185,0.003 0.0264,0.008 0.008,0.005 0.0159,0.0132 0.0211,0.0238 0.005,0.0106 0.008,0.0238 0.0106,0.0396 0.003,0.0159 0.005,0.0344 0.005,0.0555 0,0.0423 -0.005,0.074 -0.0159,0.0978 -0.0106,0.0212 -0.0264,0.0344 -0.0449,0.0344 h -0.77701 v 0.62108 c 0.037,-0.005 0.0766,-0.008 0.11629,-0.0106 0.0396,0 0.0846,0 0.13478,0 0.12158,0 0.22465,0.0132 0.31451,0.0449 0.0899,0.0291 0.16386,0.0714 0.22465,0.12686 0.0608,0.0555 0.10571,0.12422 0.13478,0.2035 0.0317,0.0767 0.0476,0.16386 0.0476,0.26165 z"
       id="path5212" />
    <path
       style="fill:#000000;fill-opacity:1;fill-rule:nonzero;stroke:none;stroke-width:0.264583"
       d="m 562.1439,274.58045 c 0,0.0846 -0.0396,0.15593 -0.12158,0.21407 -0.0819,0.0581 -0.18236,0.0872 -0.29865,0.0872 -0.11628,0 -0.21407,-0.0291 -0.29864,-0.0872 -0.0819,-0.0581 -0.12158,-0.1295 -0.12158,-0.21407 0,-0.0819 0.0396,-0.15065 0.12158,-0.20879 0.0819,-0.0608 0.17971,-0.0899 0.29864,-0.0899 0.11365,0 0.21408,0.0291 0.29601,0.0899 0.0819,0.0581 0.12422,0.12686 0.12422,0.20879 z m -0.71359,0 c 0,0.0608 0.0291,0.10836 0.0846,0.15064 0.0581,0.0396 0.12951,0.0608 0.20879,0.0608 0.0846,0 0.15329,-0.0211 0.20879,-0.0608 0.0555,-0.0423 0.0846,-0.0899 0.0846,-0.15064 0,-0.0582 -0.0291,-0.10572 -0.0872,-0.14801 -0.0555,-0.0396 -0.12686,-0.0608 -0.20879,-0.0608 -0.0793,0 -0.148,0.0211 -0.20615,0.0634 -0.0555,0.0396 -0.0846,0.0899 -0.0846,0.14536 z"
       id="path5214" />
    <path
       style="fill:#000000;fill-opacity:1;fill-rule:nonzero;stroke:none;stroke-width:0.264583"
       d="m 575.5064,270.35445 c 0,0.0106 -0.005,0.0211 -0.0106,0.0264 -0.0106,0.0106 -0.0212,0.0159 -0.0317,0.0211 -0.0159,0.005 -0.037,0.005 -0.0581,0.0106 -0.0211,0 -0.0529,0.005 -0.0846,0.005 -0.0317,0 -0.0634,-0.005 -0.0846,-0.005 -0.0211,-0.005 -0.037,-0.005 -0.0476,-0.0106 -0.0106,-0.005 -0.0211,-0.0106 -0.0264,-0.0211 0,-0.005 0,-0.0159 0,-0.0264 l 0.23258,-1.05188 c 0.005,-0.037 0.0106,-0.074 0.0159,-0.111 0.005,-0.0423 0.005,-0.0793 0.005,-0.111 0,-0.037 0,-0.0687 -0.0106,-0.10043 -0.0106,-0.0264 -0.0211,-0.0529 -0.0423,-0.0793 -0.0159,-0.0211 -0.0423,-0.037 -0.0687,-0.0476 -0.0317,-0.0159 -0.0687,-0.0211 -0.111,-0.0211 -0.074,0 -0.14801,0.0211 -0.22729,0.0581 -0.0793,0.037 -0.14801,0.0952 -0.21672,0.16386 -0.0634,0.0687 -0.12686,0.148 -0.17443,0.24315 -0.0529,0.0951 -0.0951,0.19557 -0.11629,0.30129 l -0.16915,0.75587 c 0,0.0106 -0.005,0.0211 -0.0106,0.0264 -0.0106,0.0106 -0.0211,0.0159 -0.0317,0.0211 -0.0159,0.005 -0.0317,0.005 -0.0582,0.0106 -0.0211,0 -0.0476,0.005 -0.0846,0.005 -0.0317,0 -0.0634,-0.005 -0.0846,-0.005 -0.0211,-0.005 -0.037,-0.005 -0.0476,-0.0106 -0.0159,-0.005 -0.0212,-0.0106 -0.0264,-0.0211 0,-0.005 0,-0.0159 0,-0.0264 l 0.55501,-2.53719 c 0.005,-0.0106 0.0106,-0.0159 0.0159,-0.0264 0.005,-0.005 0.0159,-0.0106 0.0317,-0.0159 0.0159,-0.005 0.0317,-0.0106 0.0529,-0.0106 0.0264,-0.005 0.0529,-0.005 0.0898,-0.005 0.0317,0 0.0582,0 0.0846,0.005 0.0211,0 0.037,0.005 0.0476,0.0106 0.0106,0.005 0.0211,0.0106 0.0211,0.0159 0.005,0.0106 0.005,0.0159 0.005,0.0264 l -0.16915,0.77702 c -0.005,0.0317 -0.0159,0.0634 -0.0264,0.10043 -0.0106,0.0317 -0.0211,0.0687 -0.0317,0.10043 -0.0106,0.0317 -0.0211,0.0634 -0.0264,0.0951 -0.0106,0.0317 -0.0211,0.0582 -0.0317,0.0793 0.0211,-0.0423 0.0581,-0.0899 0.10571,-0.13743 0.0476,-0.0476 0.10043,-0.0899 0.16915,-0.13215 0.0634,-0.037 0.13214,-0.074 0.21143,-0.10043 0.074,-0.0264 0.15329,-0.037 0.23786,-0.037 0.0899,0 0.16386,0.0106 0.22729,0.037 0.0634,0.0212 0.11629,0.0529 0.15329,0.0952 0.0423,0.0423 0.0687,0.0899 0.0899,0.148 0.0159,0.0529 0.0264,0.11629 0.0264,0.185 0,0.0423 -0.005,0.0899 -0.0106,0.13215 -0.005,0.0423 -0.0106,0.0846 -0.0211,0.13214 z"
       id="path5216" />
    <path
       style="fill:none;stroke:#000000;stroke-width:0.211432px;stroke-linecap:round;stroke-linejoin:round;stroke-miterlimit:4;stroke-dasharray:none;stroke-opacity:1"
       d="m 553.31132,277.73871 h 27.47559 l 19.42004,-19.40946 h -27.47031 l -19.42532,19.40946"
       id="path5218" />
    <path
       style="fill:none;stroke:#000000;stroke-width:0.211432px;stroke-linecap:round;stroke-linejoin:round;stroke-miterlimit:4;stroke-dasharray:none;stroke-opacity:1"
       d="m 572.76307,258.32925 v 19.40946"
       id="path5220" />
  </g>
</svg>
