<?xml version="1.0" encoding="UTF-8" standalone="no"?>
<svg
   viewBox="0 0 95.446997 51.536999"
   version="1.1"
   id="svg5"
   inkscape:version="1.2.2 (732a01da63, 2022-12-09)"
   sodipodi:docname="kwiecień 2015 - zad. 8.svg"
   xml:space="preserve"
   xmlns:inkscape="http://www.inkscape.org/namespaces/inkscape"
   xmlns:sodipodi="http://sodipodi.sourceforge.net/DTD/sodipodi-0.dtd"
   xmlns="http://www.w3.org/2000/svg"
   xmlns:svg="http://www.w3.org/2000/svg"><sodipodi:namedview
     id="namedview7"
     pagecolor="#ffffff"
     bordercolor="#000000"
     borderopacity="0.25"
     inkscape:showpageshadow="2"
     inkscape:pageopacity="0.0"
     inkscape:pagecheckerboard="0"
     inkscape:deskcolor="#d1d1d1"
     inkscape:document-units="mm"
     showgrid="false"
     inkscape:zoom="7.319248"
     inkscape:cx="72.958315"
     inkscape:cy="68.927846"
     inkscape:window-width="1964"
     inkscape:window-height="1230"
     inkscape:window-x="3032"
     inkscape:window-y="188"
     inkscape:window-maximized="0"
     inkscape:current-layer="layer1" /><defs
     id="defs2" /><g
     inkscape:label="Warstwa 1"
     inkscape:groupmode="layer"
     id="layer1"
     transform="translate(-1533.5777,-621.64877)"><path
       style="fill:#000000;fill-opacity:1;stroke:none;stroke-width:0.144596"
       d=""
       id="path57409" /><text
       xml:space="preserve"
       style="font-style:normal;font-variant:normal;font-weight:400;font-size:3.88607px;line-height:125%;font-family:Calibri;text-align:start;letter-spacing:0px;word-spacing:0px;text-anchor:start;fill:#000000;fill-opacity:1;stroke:none;stroke-width:0.264583"
       x="1500.2186"
       y="641.0603"
       id="text58533"><tspan
         sodipodi:role="line"
         x="1500.2186"
         y="641.0603"
         id="tspan58531"
         style="stroke-width:0.264583"><tspan
           dx="0"
           dy="0"
           style="font-style:normal;font-variant:normal;font-weight:400;font-size:3.88607px;font-family:Calibri;fill:#181717;stroke-width:0.264583"
           id="tspan58529"> </tspan></tspan></text><text
       xml:space="preserve"
       style="font-style:normal;font-variant:normal;font-weight:400;font-size:3.88607px;line-height:125%;font-family:Calibri;text-align:start;letter-spacing:0px;word-spacing:0px;text-anchor:start;fill:#000000;fill-opacity:1;stroke:none;stroke-width:0.264583"
       x="1628.2913"
       y="669.28119"
       id="text59407"><tspan
         sodipodi:role="line"
         x="1628.2913"
         y="669.28119"
         id="tspan59405"
         style="stroke-width:0.264583"><tspan
           dx="0"
           dy="0"
           style="font-style:normal;font-variant:normal;font-weight:400;font-size:3.88607px;font-family:Calibri;fill:#181717;stroke-width:0.264583"
           id="tspan59403"> </tspan></tspan></text><text
       xml:space="preserve"
       style="font-style:normal;font-variant:normal;font-weight:400;font-size:3.88607px;line-height:125%;font-family:Calibri;text-align:start;letter-spacing:0px;word-spacing:0px;text-anchor:start;fill:#000000;fill-opacity:1;stroke:none;stroke-width:0.264583"
       x="1610.4845"
       y="672.03931"
       id="text59413"><tspan
         sodipodi:role="line"
         x="1610.4845"
         y="672.03931"
         id="tspan59411"
         style="stroke-width:0.264583"><tspan
           dx="0"
           dy="0"
           style="font-style:normal;font-variant:normal;font-weight:400;font-size:3.88607px;font-family:Calibri;fill:#000000;stroke-width:0.264583"
           id="tspan59409">liczba gałek</tspan></tspan></text><path
       style="fill:none;stroke:#000000;stroke-width:0.211432px;stroke-linecap:round;stroke-linejoin:round;stroke-miterlimit:4;stroke-dasharray:none;stroke-opacity:1"
       d="m 1548.2007,659.38616 h 79.1179"
       id="path59459" /><path
       style="fill:none;stroke:#000000;stroke-width:0.211432px;stroke-linecap:round;stroke-linejoin:round;stroke-miterlimit:4;stroke-dasharray:none;stroke-opacity:1"
       d="m 1548.2007,654.43866 h 79.1179"
       id="path59461" /><path
       style="fill:none;stroke:#000000;stroke-width:0.211432px;stroke-linecap:round;stroke-linejoin:round;stroke-miterlimit:4;stroke-dasharray:none;stroke-opacity:1"
       d="m 1548.2007,649.49115 h 79.1179"
       id="path59463" /><path
       style="fill:none;stroke:#000000;stroke-width:0.211432px;stroke-linecap:round;stroke-linejoin:round;stroke-miterlimit:4;stroke-dasharray:none;stroke-opacity:1"
       d="m 1548.2007,644.54364 h 79.1179"
       id="path59465" /><path
       style="fill:none;stroke:#000000;stroke-width:0.211432px;stroke-linecap:round;stroke-linejoin:round;stroke-miterlimit:4;stroke-dasharray:none;stroke-opacity:1"
       d="m 1548.2007,639.59613 h 79.1179"
       id="path59467" /><path
       style="fill:none;stroke:#000000;stroke-width:0.211432px;stroke-linecap:round;stroke-linejoin:round;stroke-miterlimit:4;stroke-dasharray:none;stroke-opacity:1"
       d="m 1548.2007,634.64862 h 79.1179"
       id="path59469" /><path
       style="fill:none;stroke:#000000;stroke-width:0.211432px;stroke-linecap:round;stroke-linejoin:round;stroke-miterlimit:4;stroke-dasharray:none;stroke-opacity:1"
       d="m 1548.2007,629.70111 h 79.1179"
       id="path59471" /><path
       style="fill:none;stroke:#000000;stroke-width:0.211432px;stroke-linecap:round;stroke-linejoin:round;stroke-miterlimit:4;stroke-dasharray:none;stroke-opacity:1"
       d="M 1568.9634,665.30626 V 626.27591"
       id="path59473" /><path
       style="fill:none;stroke:#000000;stroke-width:0.211432px;stroke-linecap:round;stroke-linejoin:round;stroke-miterlimit:4;stroke-dasharray:none;stroke-opacity:1"
       d="M 1588.7534,665.30626 V 626.27591"
       id="path59475" /><path
       style="fill:none;stroke:#000000;stroke-width:0.211432px;stroke-linecap:round;stroke-linejoin:round;stroke-miterlimit:4;stroke-dasharray:none;stroke-opacity:1"
       d="M 1608.5011,665.30626 V 626.27591"
       id="path59477" /><path
       style="fill:none;stroke:#000000;stroke-width:0.211432px;stroke-linecap:round;stroke-linejoin:round;stroke-miterlimit:4;stroke-dasharray:none;stroke-opacity:1"
       d="m 1548.2007,664.33367 h 80.0905"
       id="path59479" /><path
       style="fill:#000000;fill-opacity:1;fill-rule:evenodd;stroke:none;stroke-width:0.264583"
       d="m 1626.8534,663.74167 1.4378,0.592 -1.4378,0.59201 z"
       id="path59481" /><path
       style="fill:none;stroke:#000000;stroke-width:0.211432px;stroke-linecap:round;stroke-linejoin:round;stroke-miterlimit:4;stroke-dasharray:none;stroke-opacity:1"
       d="m 1626.8534,663.74167 1.4378,0.592 -1.4378,0.59201 z"
       id="path59483" /><path
       style="fill:none;stroke:#000000;stroke-width:0.211432px;stroke-linecap:round;stroke-linejoin:round;stroke-miterlimit:4;stroke-dasharray:none;stroke-opacity:1"
       d="M 1549.1733,665.30626 V 622.30099"
       id="path59485" /><path
       style="fill:#000000;fill-opacity:1;fill-rule:evenodd;stroke:none;stroke-width:0.264583"
       d="m 1549.1733,622.30099 0.592,1.43773 h -1.184 z"
       id="path59487" /><path
       style="fill:none;stroke:#000000;stroke-width:0.211432px;stroke-linecap:round;stroke-linejoin:round;stroke-miterlimit:4;stroke-dasharray:none;stroke-opacity:1"
       d="m 1549.1733,622.30099 0.592,1.43773 h -1.184 z"
       id="path59489" /><path
       style="fill:#000000;fill-opacity:1;fill-rule:nonzero;stroke:none;stroke-width:0.264583"
       d="m 1549.982,668.23724 c 0,0.19029 -0.016,0.36208 -0.045,0.51801 -0.029,0.15593 -0.077,0.28807 -0.1453,0.40172 -0.066,0.111 -0.156,0.19821 -0.2643,0.259 -0.111,0.0634 -0.2458,0.0925 -0.4044,0.0925 -0.1506,0 -0.2801,-0.0264 -0.3832,-0.0819 -0.1031,-0.0555 -0.1877,-0.13743 -0.2511,-0.24314 -0.063,-0.10836 -0.1084,-0.23786 -0.1348,-0.39644 -0.026,-0.15593 -0.04,-0.33565 -0.04,-0.53651 0,-0.18764 0.016,-0.35943 0.045,-0.518 0.029,-0.15594 0.079,-0.29072 0.1454,-0.40173 0.066,-0.111 0.1559,-0.19821 0.2643,-0.259 0.1083,-0.0634 0.2431,-0.0925 0.4017,-0.0925 0.1533,0 0.2801,0.0264 0.3858,0.0819 0.1031,0.0555 0.185,0.13743 0.2485,0.24314 0.063,0.10836 0.1083,0.23787 0.1348,0.39644 0.029,0.15593 0.042,0.33565 0.042,0.53651 z m -0.3277,0.0238 c 0,-0.12421 -0.01,-0.23257 -0.013,-0.33036 -0.011,-0.0978 -0.021,-0.185 -0.04,-0.259 -0.016,-0.074 -0.037,-0.13743 -0.063,-0.19293 -0.026,-0.0529 -0.061,-0.0978 -0.098,-0.13215 -0.037,-0.0344 -0.079,-0.0608 -0.1268,-0.0766 -0.048,-0.0159 -0.1004,-0.0238 -0.1612,-0.0238 -0.1057,0 -0.1903,0.0264 -0.2564,0.0766 -0.066,0.0502 -0.1189,0.11893 -0.1559,0.20878 -0.037,0.0872 -0.063,0.19294 -0.077,0.31187 -0.013,0.11893 -0.021,0.24579 -0.021,0.38322 0,0.18236 0.011,0.34093 0.029,0.46779 0.018,0.1295 0.047,0.23258 0.087,0.3145 0.04,0.0819 0.092,0.14008 0.1559,0.17708 0.061,0.037 0.1374,0.0555 0.2273,0.0555 0.069,0 0.1295,-0.0132 0.1824,-0.0344 0.053,-0.0238 0.098,-0.0555 0.1374,-0.0978 0.037,-0.0423 0.069,-0.0951 0.092,-0.15328 0.026,-0.0608 0.045,-0.12422 0.061,-0.19822 0.013,-0.0714 0.024,-0.15065 0.029,-0.23522 0.01,-0.0819 0.01,-0.17179 0.01,-0.26165 z"
       id="path59491" /><path
       style="fill:#000000;fill-opacity:1;fill-rule:nonzero;stroke:none;stroke-width:0.264583"
       d="m 1569.6954,669.34461 c 0,0.0238 0,0.0423 -0.01,0.0608 0,0.0159 -0.01,0.0291 -0.013,0.0396 -0.01,0.0106 -0.013,0.0159 -0.021,0.0212 -0.01,0.005 -0.019,0.005 -0.026,0.005 h -1.2581 c -0.01,0 -0.016,0 -0.024,-0.005 -0.01,-0.005 -0.016,-0.0106 -0.021,-0.0212 -0.01,-0.0106 -0.013,-0.0238 -0.016,-0.0396 -0.01,-0.0185 -0.01,-0.037 -0.01,-0.0608 0,-0.0238 0,-0.0423 0.01,-0.0608 0,-0.0159 0.01,-0.0291 0.013,-0.0397 0.01,-0.0106 0.013,-0.0185 0.021,-0.0238 0.01,-0.008 0.016,-0.0106 0.026,-0.0106 h 0.5022 v -1.86853 l -0.4652,0.28278 c -0.024,0.0132 -0.042,0.0212 -0.056,0.0238 -0.016,0.003 -0.026,0 -0.037,-0.008 -0.01,-0.0106 -0.013,-0.0238 -0.016,-0.0423 0,-0.0185 -0.01,-0.0423 -0.01,-0.0714 0,-0.0211 0,-0.0396 0,-0.0555 0,-0.0159 0.01,-0.0291 0.01,-0.037 0.01,-0.0106 0.01,-0.0211 0.016,-0.0291 0.01,-0.005 0.016,-0.0132 0.027,-0.0211 l 0.555,-0.36208 c 0.01,-0.005 0.013,-0.008 0.019,-0.0106 0.01,-0.003 0.018,-0.005 0.029,-0.008 0.011,-0.003 0.024,-0.003 0.04,-0.005 0.013,0 0.032,0 0.056,0 0.029,0 0.055,0 0.074,0.003 0.021,0.003 0.034,0.008 0.048,0.0106 0.011,0.005 0.018,0.0106 0.021,0.0185 0.01,0.005 0.01,0.0132 0.01,0.0212 v 2.15925 h 0.4361 c 0.01,0 0.018,0.003 0.029,0.0106 0.01,0.005 0.016,0.0132 0.021,0.0238 0.01,0.0106 0.01,0.0238 0.013,0.0397 0,0.0185 0,0.037 0,0.0608 z"
       id="path59493" /><path
       style="fill:#000000;fill-opacity:1;fill-rule:nonzero;stroke:none;stroke-width:0.264583"
       d="m 1589.4828,669.33404 c 0,0.0211 0,0.0423 -0.01,0.0581 -0.01,0.0211 -0.01,0.037 -0.011,0.0476 -0.011,0.0106 -0.016,0.0211 -0.026,0.0264 -0.01,0.005 -0.016,0.005 -0.026,0.005 h -1.332 c -0.021,0 -0.032,0 -0.048,-0.005 -0.011,-0.005 -0.026,-0.0106 -0.032,-0.0212 -0.011,-0.0106 -0.016,-0.0264 -0.021,-0.0423 -0.01,-0.0212 -0.01,-0.0423 -0.01,-0.0687 0,-0.0264 0,-0.0476 0,-0.0687 0.01,-0.0212 0.01,-0.037 0.016,-0.0529 0.01,-0.0106 0.011,-0.0264 0.021,-0.0423 0.01,-0.0159 0.021,-0.0317 0.037,-0.0476 l 0.481,-0.50215 c 0.111,-0.11629 0.2008,-0.22201 0.2696,-0.31715 0.069,-0.0899 0.1163,-0.17443 0.1533,-0.24843 0.037,-0.0793 0.063,-0.148 0.074,-0.21143 0.011,-0.0582 0.016,-0.11629 0.016,-0.17444 0,-0.0529 -0.011,-0.10571 -0.026,-0.15328 -0.016,-0.0476 -0.042,-0.0899 -0.079,-0.12686 -0.032,-0.037 -0.074,-0.0687 -0.1269,-0.0899 -0.053,-0.0212 -0.111,-0.0317 -0.1744,-0.0317 -0.079,0 -0.148,0.0106 -0.2114,0.0317 -0.063,0.0211 -0.1163,0.0476 -0.1639,0.074 -0.048,0.0211 -0.085,0.0476 -0.1163,0.0687 -0.032,0.0211 -0.053,0.0317 -0.069,0.0317 -0.011,0 -0.021,0 -0.026,-0.005 -0.01,-0.005 -0.011,-0.0159 -0.016,-0.0264 -0.01,-0.0106 -0.011,-0.0264 -0.011,-0.0476 -0.01,-0.0159 -0.01,-0.0423 -0.01,-0.0687 0,-0.0159 0,-0.0317 0,-0.0476 0.01,-0.0159 0.01,-0.0264 0.011,-0.037 0,-0.0106 0.01,-0.0212 0.011,-0.0264 0.01,-0.0106 0.016,-0.0212 0.032,-0.0317 0.011,-0.0159 0.037,-0.0317 0.074,-0.0581 0.037,-0.0211 0.085,-0.0423 0.1375,-0.0634 0.058,-0.0264 0.1162,-0.0423 0.185,-0.0581 0.063,-0.0159 0.1374,-0.0211 0.2061,-0.0211 0.1163,0 0.222,0.0159 0.3066,0.0476 0.09,0.0317 0.1638,0.0793 0.222,0.13743 0.053,0.0581 0.1004,0.12686 0.1268,0.20615 0.026,0.074 0.042,0.15857 0.042,0.24315 0,0.0793 -0.01,0.15857 -0.021,0.23786 -0.011,0.074 -0.042,0.15857 -0.085,0.25372 -0.042,0.0899 -0.111,0.19029 -0.1903,0.30129 -0.084,0.111 -0.1955,0.23786 -0.333,0.38057 l -0.3806,0.40701 h 1.0466 c 0.011,0 0.021,0.005 0.032,0.0106 0.01,0.005 0.016,0.0106 0.021,0.0212 0.01,0.0159 0.011,0.0264 0.016,0.0476 0.01,0.0159 0.01,0.037 0.01,0.0581 z"
       id="path59495" /><path
       style="fill:#000000;fill-opacity:1;fill-rule:nonzero;stroke:none;stroke-width:0.264583"
       d="m 1609.2517,668.77375 c 0,0.111 -0.016,0.21143 -0.058,0.30129 -0.037,0.0899 -0.09,0.16914 -0.1639,0.23257 -0.074,0.0634 -0.1586,0.11629 -0.2643,0.14801 -0.1057,0.037 -0.2273,0.0529 -0.3594,0.0529 -0.079,0 -0.1533,-0.005 -0.2273,-0.0159 -0.069,-0.0159 -0.1321,-0.0317 -0.185,-0.0476 -0.053,-0.0211 -0.1004,-0.0423 -0.1374,-0.0581 -0.037,-0.0211 -0.058,-0.037 -0.069,-0.0423 -0.01,-0.0106 -0.016,-0.0211 -0.021,-0.0264 -0.01,-0.0106 -0.01,-0.0212 -0.011,-0.0317 -0.01,-0.0159 -0.01,-0.0317 -0.01,-0.0476 0,-0.0211 0,-0.0423 0,-0.0687 0,-0.0476 0.01,-0.0793 0.01,-0.0951 0.011,-0.0159 0.021,-0.0264 0.042,-0.0264 0.011,0 0.032,0.0106 0.063,0.0317 0.037,0.0212 0.079,0.0423 0.1321,0.0634 0.053,0.0264 0.1163,0.0476 0.185,0.0687 0.069,0.0159 0.148,0.0264 0.2379,0.0264 0.079,0 0.1533,-0.0106 0.2167,-0.0317 0.069,-0.0211 0.1216,-0.0529 0.1638,-0.0899 0.042,-0.0423 0.074,-0.0846 0.095,-0.14271 0.021,-0.0529 0.032,-0.11101 0.032,-0.17443 0,-0.0687 -0.011,-0.13215 -0.037,-0.18501 -0.032,-0.0581 -0.069,-0.10571 -0.1216,-0.148 -0.053,-0.037 -0.1215,-0.0687 -0.1955,-0.0899 -0.079,-0.0211 -0.1692,-0.0317 -0.2643,-0.0317 h -0.2379 c -0.011,0 -0.021,-0.005 -0.032,-0.0106 -0.011,0 -0.016,-0.0106 -0.026,-0.0212 -0.01,-0.0106 -0.011,-0.0211 -0.016,-0.037 -0.01,-0.0159 -0.01,-0.037 -0.01,-0.0687 0,-0.0211 0,-0.0423 0.01,-0.0581 0.01,-0.0159 0.011,-0.0264 0.016,-0.037 0.01,-0.0106 0.016,-0.0159 0.021,-0.0211 0.011,-0.005 0.021,-0.005 0.032,-0.005 h 0.2115 c 0.079,0 0.1532,-0.0106 0.2167,-0.0317 0.069,-0.0212 0.1215,-0.0529 0.1691,-0.0951 0.042,-0.0423 0.079,-0.0899 0.1057,-0.14271 0.021,-0.0582 0.032,-0.12158 0.032,-0.19029 0,-0.0529 -0.01,-0.10043 -0.021,-0.148 -0.016,-0.0423 -0.042,-0.0846 -0.074,-0.12158 -0.032,-0.0317 -0.074,-0.0581 -0.1216,-0.0793 -0.053,-0.0211 -0.111,-0.0264 -0.1744,-0.0264 -0.074,0 -0.1374,0.0106 -0.2009,0.0317 -0.058,0.0211 -0.111,0.0476 -0.1585,0.0687 -0.048,0.0264 -0.09,0.0528 -0.1163,0.074 -0.032,0.0211 -0.053,0.0317 -0.069,0.0317 -0.01,0 -0.016,0 -0.021,-0.005 -0.01,0 -0.011,-0.0106 -0.016,-0.0159 -0.01,-0.0106 -0.011,-0.0264 -0.011,-0.0423 0,-0.0159 -0.01,-0.037 -0.01,-0.0687 0,-0.0159 0.01,-0.0317 0.01,-0.0476 0,-0.0159 0,-0.0264 0.01,-0.037 0.01,-0.0106 0.011,-0.0212 0.016,-0.0317 0.01,-0.0106 0.011,-0.0211 0.021,-0.0317 0.016,-0.0106 0.037,-0.0264 0.074,-0.0529 0.037,-0.0211 0.079,-0.0423 0.1321,-0.0634 0.053,-0.0264 0.1163,-0.0423 0.185,-0.0581 0.069,-0.0159 0.1427,-0.0211 0.222,-0.0211 0.111,0 0.2062,0.0106 0.2907,0.0423 0.085,0.0264 0.1586,0.0687 0.2115,0.12157 0.058,0.0529 0.1004,0.11629 0.1268,0.19029 0.032,0.074 0.042,0.15857 0.042,0.24843 0,0.0793 -0.01,0.14801 -0.026,0.21672 -0.021,0.0634 -0.053,0.12157 -0.09,0.17443 -0.037,0.0529 -0.085,0.0951 -0.1427,0.13215 -0.053,0.037 -0.1163,0.0581 -0.1903,0.074 v 0.005 c 0.079,0.005 0.1586,0.0317 0.2273,0.0634 0.069,0.0317 0.1269,0.074 0.1745,0.12686 0.053,0.0476 0.09,0.111 0.1162,0.17443 0.032,0.0687 0.042,0.14272 0.042,0.22201 z"
       id="path59497" /><path
       style="fill:#000000;fill-opacity:1;fill-rule:nonzero;stroke:none;stroke-width:0.264583"
       d="m 1545.5076,660.56948 c 0,0.0238 0,0.0423 -0.01,0.0608 0,0.0159 -0.01,0.0291 -0.013,0.0397 -0.01,0.0106 -0.013,0.0159 -0.021,0.0211 -0.01,0.005 -0.018,0.005 -0.026,0.005 h -1.258 c -0.01,0 -0.016,0 -0.024,-0.005 -0.01,-0.005 -0.016,-0.0106 -0.021,-0.0211 -0.01,-0.0106 -0.013,-0.0238 -0.016,-0.0397 -0.01,-0.0185 -0.01,-0.037 -0.01,-0.0608 0,-0.0238 0,-0.0423 0.01,-0.0608 0,-0.0159 0.01,-0.0291 0.013,-0.0397 0.01,-0.0106 0.013,-0.0185 0.021,-0.0238 0.01,-0.008 0.016,-0.0106 0.026,-0.0106 h 0.5022 v -1.86853 l -0.4652,0.28279 c -0.024,0.0132 -0.042,0.0211 -0.055,0.0238 -0.016,0.003 -0.026,0 -0.037,-0.008 -0.01,-0.0106 -0.013,-0.0238 -0.016,-0.0423 0,-0.0185 -0.01,-0.0423 -0.01,-0.0714 0,-0.0211 0,-0.0396 0,-0.0555 0,-0.0159 0.01,-0.0291 0.01,-0.037 0.01,-0.0106 0.011,-0.0211 0.016,-0.0291 0.01,-0.005 0.016,-0.0132 0.026,-0.0212 l 0.555,-0.36207 c 0.01,-0.005 0.013,-0.008 0.018,-0.0106 0.01,-0.003 0.019,-0.005 0.029,-0.008 0.011,-0.003 0.024,-0.003 0.04,-0.005 0.013,0 0.032,0 0.055,0 0.029,0 0.056,0 0.074,0.003 0.021,0.003 0.034,0.008 0.048,0.0106 0.011,0.005 0.018,0.0106 0.021,0.0185 0.01,0.005 0.01,0.0132 0.01,0.0212 v 2.15925 h 0.436 c 0.011,0 0.019,0.003 0.029,0.0106 0.01,0.005 0.016,0.0132 0.021,0.0238 0.01,0.0106 0.01,0.0238 0.013,0.0397 0,0.0185 0,0.037 0,0.0608 z m 2.0218,-1.10738 c 0,0.19029 -0.016,0.36208 -0.045,0.51801 -0.029,0.15593 -0.077,0.28808 -0.1454,0.40172 -0.066,0.111 -0.1559,0.19822 -0.2642,0.259 -0.1111,0.0634 -0.2458,0.0925 -0.4044,0.0925 -0.1507,0 -0.2802,-0.0264 -0.3832,-0.0819 -0.1031,-0.0555 -0.1877,-0.13743 -0.2511,-0.24315 -0.063,-0.10836 -0.1084,-0.23786 -0.1348,-0.39644 -0.026,-0.15593 -0.04,-0.33564 -0.04,-0.53651 0,-0.18764 0.016,-0.35943 0.045,-0.518 0.029,-0.15593 0.079,-0.29072 0.1454,-0.40172 0.066,-0.11101 0.1559,-0.19822 0.2642,-0.25901 0.1084,-0.0634 0.2432,-0.0925 0.4018,-0.0925 0.1532,0 0.2801,0.0264 0.3858,0.0819 0.1031,0.0555 0.185,0.13743 0.2485,0.24315 0.063,0.10836 0.1083,0.23786 0.1347,0.39643 0.029,0.15593 0.042,0.33565 0.042,0.53651 z m -0.3277,0.0238 c 0,-0.12422 -0.01,-0.23258 -0.013,-0.33037 -0.011,-0.0978 -0.021,-0.185 -0.04,-0.259 -0.016,-0.074 -0.037,-0.13743 -0.063,-0.19293 -0.026,-0.0529 -0.061,-0.0978 -0.098,-0.13215 -0.037,-0.0344 -0.079,-0.0608 -0.1268,-0.0766 -0.048,-0.0159 -0.1005,-0.0238 -0.1612,-0.0238 -0.1058,0 -0.1903,0.0264 -0.2564,0.0766 -0.066,0.0502 -0.1189,0.11893 -0.1559,0.20879 -0.037,0.0872 -0.063,0.19293 -0.077,0.31186 -0.013,0.11893 -0.021,0.24579 -0.021,0.38322 0,0.18236 0.011,0.34093 0.029,0.46779 0.019,0.12951 0.048,0.23258 0.087,0.31451 0.04,0.0819 0.092,0.14007 0.1559,0.17707 0.061,0.037 0.1374,0.0555 0.2273,0.0555 0.069,0 0.1295,-0.0132 0.1823,-0.0343 0.053,-0.0238 0.098,-0.0555 0.1375,-0.0978 0.037,-0.0423 0.069,-0.0951 0.093,-0.15329 0.026,-0.0608 0.045,-0.12422 0.061,-0.19822 0.013,-0.0714 0.024,-0.15064 0.029,-0.23522 0.01,-0.0819 0.011,-0.17178 0.011,-0.26164 z"
       id="path59499" /><path
       style="fill:#000000;fill-opacity:1;fill-rule:nonzero;stroke:none;stroke-width:0.264583"
       d="m 1545.3392,649.85404 c 0,0.11101 -0.019,0.21408 -0.058,0.30394 -0.037,0.0899 -0.092,0.16914 -0.1639,0.23257 -0.071,0.0634 -0.1612,0.11365 -0.2669,0.148 -0.1057,0.037 -0.2247,0.0529 -0.3568,0.0529 -0.082,0 -0.1559,-0.005 -0.2273,-0.0185 -0.069,-0.0132 -0.1321,-0.0291 -0.1876,-0.0476 -0.053,-0.0185 -0.098,-0.0396 -0.1348,-0.0581 -0.037,-0.0185 -0.058,-0.0344 -0.069,-0.0423 -0.01,-0.008 -0.016,-0.0185 -0.021,-0.0264 -0.01,-0.0106 -0.01,-0.0211 -0.013,-0.0317 0,-0.0132 -0.01,-0.0291 -0.01,-0.0476 0,-0.0185 0,-0.0396 0,-0.0687 0,-0.0449 0.01,-0.0767 0.013,-0.0925 0.01,-0.0185 0.021,-0.0291 0.04,-0.0291 0.011,0 0.032,0.0106 0.066,0.0317 0.034,0.0211 0.077,0.0423 0.1295,0.0661 0.053,0.0238 0.1163,0.0449 0.185,0.0661 0.071,0.0185 0.1506,0.0291 0.2378,0.0291 0.082,0 0.156,-0.0106 0.2194,-0.0317 0.066,-0.0211 0.1189,-0.0529 0.1612,-0.0925 0.045,-0.0396 0.077,-0.0846 0.098,-0.13743 0.021,-0.0555 0.032,-0.11364 0.032,-0.17707 0,-0.0687 -0.013,-0.13215 -0.04,-0.18765 -0.029,-0.0555 -0.069,-0.10307 -0.1216,-0.14536 -0.053,-0.0396 -0.1189,-0.0714 -0.1956,-0.0925 -0.079,-0.0212 -0.1665,-0.0317 -0.2643,-0.0317 h -0.2378 c -0.011,0 -0.021,-0.003 -0.029,-0.008 -0.011,-0.003 -0.019,-0.0106 -0.026,-0.0211 -0.01,-0.0106 -0.011,-0.0238 -0.016,-0.0396 -0.01,-0.0159 -0.01,-0.037 -0.01,-0.0634 0,-0.0264 0,-0.0449 0.01,-0.0608 0.01,-0.0159 0.011,-0.0291 0.016,-0.0396 0.01,-0.008 0.016,-0.0159 0.024,-0.0185 0.01,-0.005 0.018,-0.008 0.029,-0.008 h 0.2114 c 0.082,0 0.1559,-0.0106 0.222,-0.0317 0.063,-0.0212 0.1189,-0.0529 0.1639,-0.0925 0.045,-0.0423 0.082,-0.0899 0.1057,-0.14536 0.024,-0.0581 0.034,-0.12157 0.034,-0.19029 0,-0.0502 -0.01,-0.0978 -0.024,-0.14536 -0.016,-0.0449 -0.04,-0.0872 -0.071,-0.11893 -0.032,-0.0344 -0.074,-0.0634 -0.1242,-0.0819 -0.05,-0.0185 -0.1084,-0.0291 -0.1744,-0.0291 -0.071,0 -0.1375,0.0106 -0.1983,0.0317 -0.061,0.0238 -0.1136,0.0476 -0.1612,0.0714 -0.048,0.0264 -0.087,0.0502 -0.1163,0.0714 -0.032,0.0238 -0.053,0.0344 -0.066,0.0344 -0.01,0 -0.016,-0.003 -0.024,-0.005 -0.01,-0.003 -0.011,-0.0106 -0.016,-0.0185 -0.01,-0.0106 -0.01,-0.0238 -0.011,-0.0397 0,-0.0185 0,-0.0396 0,-0.0687 0,-0.0185 0,-0.0344 0,-0.0502 0,-0.0132 0,-0.0264 0.01,-0.037 0,-0.0106 0.01,-0.0211 0.013,-0.0291 0.01,-0.0106 0.013,-0.0211 0.024,-0.0317 0.013,-0.0132 0.037,-0.0291 0.071,-0.0529 0.037,-0.0238 0.082,-0.0449 0.1348,-0.0661 0.053,-0.0238 0.1137,-0.0423 0.1824,-0.0581 0.069,-0.0132 0.1427,-0.0211 0.222,-0.0211 0.111,0 0.2088,0.0132 0.2933,0.0423 0.085,0.0291 0.156,0.0714 0.2115,0.12422 0.058,0.0529 0.1004,0.11629 0.1268,0.19029 0.029,0.074 0.042,0.15593 0.042,0.24579 0,0.0793 -0.01,0.15064 -0.029,0.21672 -0.021,0.0661 -0.05,0.12421 -0.087,0.17707 -0.04,0.0502 -0.087,0.0951 -0.1427,0.1295 -0.055,0.037 -0.1189,0.0608 -0.1929,0.0766 v 0.003 c 0.082,0.0106 0.1586,0.0317 0.2273,0.0634 0.069,0.0344 0.1295,0.0766 0.1771,0.12686 0.05,0.0502 0.09,0.111 0.1162,0.17707 0.029,0.0687 0.042,0.14008 0.042,0.21936 z m 2.0456,-0.53386 c 0,0.19029 -0.016,0.36207 -0.045,0.51801 -0.029,0.15593 -0.077,0.28807 -0.1454,0.40172 -0.066,0.111 -0.1559,0.19821 -0.2642,0.259 -0.1111,0.0634 -0.2458,0.0925 -0.4044,0.0925 -0.1507,0 -0.2802,-0.0264 -0.3832,-0.0819 -0.1031,-0.0555 -0.1877,-0.13743 -0.2511,-0.24314 -0.063,-0.10836 -0.1084,-0.23787 -0.1348,-0.39644 -0.026,-0.15593 -0.04,-0.33565 -0.04,-0.53651 0,-0.18764 0.016,-0.35943 0.045,-0.51801 0.029,-0.15593 0.079,-0.29071 0.1454,-0.40172 0.066,-0.111 0.1559,-0.19821 0.2642,-0.259 0.1084,-0.0634 0.2432,-0.0925 0.4018,-0.0925 0.1532,0 0.2801,0.0264 0.3858,0.0819 0.1031,0.0555 0.185,0.13743 0.2485,0.24315 0.063,0.10835 0.1083,0.23786 0.1347,0.39643 0.029,0.15593 0.042,0.33565 0.042,0.53651 z m -0.3277,0.0238 c 0,-0.12421 -0.01,-0.23257 -0.013,-0.33036 -0.011,-0.0978 -0.021,-0.185 -0.04,-0.259 -0.016,-0.074 -0.037,-0.13743 -0.063,-0.19294 -0.026,-0.0528 -0.061,-0.0978 -0.098,-0.13214 -0.037,-0.0344 -0.079,-0.0608 -0.1268,-0.0766 -0.048,-0.0159 -0.1005,-0.0238 -0.1612,-0.0238 -0.1058,0 -0.1903,0.0264 -0.2564,0.0766 -0.066,0.0502 -0.1189,0.11894 -0.1559,0.20879 -0.037,0.0872 -0.063,0.19293 -0.077,0.31186 -0.013,0.11894 -0.021,0.24579 -0.021,0.38323 0,0.18236 0.011,0.34093 0.029,0.46779 0.019,0.1295 0.048,0.23258 0.087,0.31451 0.04,0.0819 0.092,0.14007 0.1559,0.17707 0.061,0.037 0.1374,0.0555 0.2273,0.0555 0.069,0 0.1295,-0.0132 0.1823,-0.0344 0.053,-0.0238 0.098,-0.0555 0.1375,-0.0978 0.037,-0.0423 0.069,-0.0951 0.093,-0.15328 0.026,-0.0608 0.045,-0.12422 0.061,-0.19822 0.013,-0.0714 0.024,-0.15065 0.029,-0.23522 0.01,-0.0819 0.011,-0.17179 0.011,-0.26165 z"
       id="path59501" /><path
       style="fill:#000000;fill-opacity:1;fill-rule:nonzero;stroke:none;stroke-width:0.264583"
       d="m 1545.4918,639.86917 c 0,0.13214 -0.021,0.25107 -0.066,0.3515 -0.042,0.10308 -0.1031,0.19029 -0.1824,0.26165 -0.079,0.0687 -0.1744,0.12157 -0.2854,0.15857 -0.1084,0.037 -0.2299,0.0555 -0.3647,0.0555 -0.074,0 -0.1454,-0.005 -0.2115,-0.0159 -0.069,-0.0106 -0.1268,-0.0238 -0.1797,-0.0396 -0.053,-0.0159 -0.095,-0.0317 -0.1295,-0.0476 -0.032,-0.0132 -0.053,-0.0264 -0.063,-0.0344 -0.01,-0.0106 -0.016,-0.0185 -0.019,-0.0264 -0.01,-0.008 -0.01,-0.0159 -0.011,-0.0264 0,-0.0106 -0.01,-0.0238 -0.01,-0.0423 0,-0.0159 0,-0.0344 0,-0.0581 0,-0.0211 0,-0.0396 0,-0.0581 0,-0.0159 0.01,-0.0317 0.011,-0.0423 0,-0.0106 0.011,-0.0185 0.016,-0.0238 0.01,-0.003 0.016,-0.005 0.024,-0.005 0.013,0 0.032,0.008 0.058,0.0238 0.026,0.0159 0.061,0.0317 0.1057,0.0502 0.042,0.0185 0.098,0.0344 0.1639,0.0529 0.063,0.0159 0.1427,0.0238 0.2299,0.0238 0.085,0 0.1612,-0.0106 0.2299,-0.0291 0.069,-0.0212 0.1295,-0.0529 0.1797,-0.0951 0.05,-0.0449 0.09,-0.0978 0.119,-0.16386 0.026,-0.0661 0.042,-0.14536 0.042,-0.23786 0,-0.0793 -0.013,-0.148 -0.037,-0.20879 -0.024,-0.0581 -0.061,-0.10836 -0.111,-0.15064 -0.05,-0.0396 -0.1137,-0.0687 -0.1903,-0.0872 -0.077,-0.0211 -0.1692,-0.0291 -0.2775,-0.0291 -0.074,0 -0.1401,0.003 -0.1956,0.0106 -0.053,0.008 -0.1031,0.0106 -0.1507,0.0106 -0.034,0 -0.061,-0.008 -0.074,-0.0238 -0.016,-0.0159 -0.024,-0.0476 -0.024,-0.0951 v -1.00166 c 0,-0.0423 0.011,-0.0714 0.029,-0.0925 0.019,-0.0211 0.048,-0.0317 0.082,-0.0317 h 1.0677 c 0.011,0 0.019,0.003 0.029,0.0106 0.01,0.005 0.016,0.0132 0.024,0.0238 0.01,0.0132 0.01,0.0264 0.013,0.0449 0,0.0185 0.01,0.037 0.01,0.0634 0,0.0449 -0.01,0.0793 -0.018,0.10572 -0.013,0.0238 -0.029,0.037 -0.05,0.037 h -0.8615 v 0.6898 c 0.042,-0.005 0.085,-0.0106 0.1295,-0.0106 0.042,-0.003 0.092,-0.003 0.1506,-0.003 0.1321,0 0.2484,0.0159 0.3489,0.0502 0.098,0.0344 0.1823,0.0819 0.2484,0.14271 0.066,0.0608 0.1163,0.13479 0.1506,0.22465 0.034,0.0872 0.05,0.18236 0.05,0.28808 z m 2.0376,-0.44401 c 0,0.19029 -0.016,0.36208 -0.045,0.51801 -0.029,0.15593 -0.077,0.28807 -0.1454,0.40172 -0.066,0.111 -0.1559,0.19822 -0.2642,0.259 -0.1111,0.0634 -0.2458,0.0925 -0.4044,0.0925 -0.1507,0 -0.2802,-0.0264 -0.3832,-0.0819 -0.1031,-0.0555 -0.1877,-0.13743 -0.2511,-0.24314 -0.063,-0.10836 -0.1084,-0.23786 -0.1348,-0.39644 -0.026,-0.15593 -0.04,-0.33565 -0.04,-0.53651 0,-0.18764 0.016,-0.35943 0.045,-0.51801 0.029,-0.15593 0.079,-0.29071 0.1454,-0.40172 0.066,-0.111 0.1559,-0.19821 0.2642,-0.259 0.1084,-0.0634 0.2432,-0.0925 0.4018,-0.0925 0.1532,0 0.2801,0.0264 0.3858,0.0819 0.1031,0.0555 0.185,0.13743 0.2485,0.24315 0.063,0.10835 0.1083,0.23786 0.1347,0.39643 0.029,0.15593 0.042,0.33565 0.042,0.53651 z m -0.3277,0.0238 c 0,-0.12421 -0.01,-0.23257 -0.013,-0.33036 -0.011,-0.0978 -0.021,-0.185 -0.04,-0.259 -0.016,-0.074 -0.037,-0.13743 -0.063,-0.19293 -0.026,-0.0529 -0.061,-0.0978 -0.098,-0.13215 -0.037,-0.0344 -0.079,-0.0608 -0.1268,-0.0766 -0.048,-0.0159 -0.1005,-0.0238 -0.1612,-0.0238 -0.1058,0 -0.1903,0.0264 -0.2564,0.0766 -0.066,0.0502 -0.1189,0.11893 -0.1559,0.20878 -0.037,0.0872 -0.063,0.19294 -0.077,0.31187 -0.013,0.11893 -0.021,0.24579 -0.021,0.38322 0,0.18236 0.011,0.34093 0.029,0.46779 0.019,0.1295 0.048,0.23258 0.087,0.31451 0.04,0.0819 0.092,0.14007 0.1559,0.17707 0.061,0.037 0.1374,0.0555 0.2273,0.0555 0.069,0 0.1295,-0.0132 0.1823,-0.0344 0.053,-0.0238 0.098,-0.0555 0.1375,-0.0978 0.037,-0.0423 0.069,-0.0951 0.093,-0.15329 0.026,-0.0608 0.045,-0.12422 0.061,-0.19822 0.013,-0.0714 0.024,-0.15065 0.029,-0.23522 0.01,-0.0819 0.011,-0.17179 0.011,-0.26165 z"
       id="path59503" /><path
       style="fill:#000000;fill-opacity:1;fill-rule:nonzero;stroke:none;stroke-width:0.264583"
       d="m 1545.6839,628.59379 c 0,0.0211 0,0.0423 0,0.0608 0,0.0185 -0.01,0.037 -0.01,0.0529 0,0.0185 -0.01,0.0344 -0.013,0.0502 -0.01,0.0159 -0.013,0.0317 -0.021,0.0502 l -0.8669,2.04032 c -0.01,0.0159 -0.013,0.0264 -0.024,0.037 -0.01,0.008 -0.021,0.0159 -0.034,0.0211 -0.013,0.008 -0.032,0.0106 -0.055,0.0132 -0.021,0 -0.048,0.003 -0.082,0.003 -0.042,0 -0.074,-0.003 -0.098,-0.005 -0.024,-0.005 -0.04,-0.0106 -0.05,-0.0185 -0.01,-0.008 -0.016,-0.0185 -0.016,-0.0317 0,-0.0106 0.01,-0.0264 0.013,-0.0423 l 0.9118,-2.08525 h -1.1549 c -0.024,0 -0.042,-0.0132 -0.053,-0.037 -0.013,-0.0264 -0.019,-0.0608 -0.019,-0.10836 0,-0.0238 0,-0.0449 0.01,-0.0608 0,-0.0185 0.01,-0.0344 0.013,-0.0449 0.01,-0.0132 0.013,-0.0212 0.024,-0.0264 0.01,-0.008 0.018,-0.0106 0.029,-0.0106 h 1.4033 c 0.019,0 0.032,0.003 0.045,0.008 0.013,0.003 0.024,0.0106 0.032,0.0211 0.01,0.0132 0.011,0.0264 0.016,0.0449 0,0.0159 0.01,0.0396 0.01,0.0687 z m 1.9901,1.08095 c 0,0.19029 -0.016,0.36208 -0.045,0.51801 -0.029,0.15593 -0.077,0.28807 -0.1454,0.40172 -0.066,0.111 -0.1559,0.19822 -0.2642,0.259 -0.1111,0.0634 -0.2458,0.0925 -0.4044,0.0925 -0.1507,0 -0.2802,-0.0264 -0.3832,-0.0819 -0.1031,-0.0555 -0.1877,-0.13743 -0.2511,-0.24314 -0.063,-0.10836 -0.1084,-0.23786 -0.1348,-0.39644 -0.026,-0.15593 -0.04,-0.33565 -0.04,-0.53651 0,-0.18764 0.016,-0.35943 0.045,-0.518 0.029,-0.15594 0.079,-0.29072 0.1454,-0.40172 0.066,-0.11101 0.1559,-0.19822 0.2642,-0.25901 0.1084,-0.0634 0.2432,-0.0925 0.4018,-0.0925 0.1532,0 0.2801,0.0264 0.3858,0.0819 0.1031,0.0555 0.185,0.13743 0.2485,0.24315 0.063,0.10835 0.1083,0.23786 0.1347,0.39643 0.029,0.15593 0.042,0.33565 0.042,0.53651 z m -0.3277,0.0238 c 0,-0.12422 -0.01,-0.23258 -0.013,-0.33037 -0.011,-0.0978 -0.021,-0.185 -0.04,-0.259 -0.016,-0.074 -0.037,-0.13743 -0.063,-0.19293 -0.026,-0.0529 -0.061,-0.0978 -0.098,-0.13215 -0.037,-0.0344 -0.079,-0.0608 -0.1268,-0.0766 -0.048,-0.0159 -0.1005,-0.0238 -0.1612,-0.0238 -0.1058,0 -0.1903,0.0264 -0.2564,0.0766 -0.066,0.0502 -0.1189,0.11893 -0.1559,0.20879 -0.037,0.0872 -0.063,0.19293 -0.077,0.31186 -0.013,0.11893 -0.021,0.24579 -0.021,0.38322 0,0.18236 0.011,0.34093 0.029,0.46779 0.019,0.1295 0.048,0.23258 0.087,0.31451 0.04,0.0819 0.092,0.14007 0.1559,0.17707 0.061,0.037 0.1374,0.0555 0.2273,0.0555 0.069,0 0.1295,-0.0132 0.1823,-0.0344 0.053,-0.0238 0.098,-0.0555 0.1375,-0.0978 0.037,-0.0423 0.069,-0.0951 0.093,-0.15329 0.026,-0.0608 0.045,-0.12422 0.061,-0.19822 0.013,-0.0714 0.024,-0.15064 0.029,-0.23522 0.01,-0.0819 0.011,-0.17179 0.011,-0.26164 z"
       id="path59505" /><path
       style="fill:#000000;fill-opacity:1;fill-rule:nonzero;stroke:none;stroke-width:0.264583"
       d="m 1536.4641,658.7108 c 0.01,0 0.018,0 0.024,0.01 0.01,0.01 0.013,0.013 0.018,0.024 0.01,0.013 0.01,0.029 0.011,0.05 0,0.021 0.01,0.048 0.01,0.079 0,0.034 0,0.061 -0.01,0.082 0,0.021 0,0.04 -0.011,0.053 0,0.01 -0.011,0.021 -0.018,0.026 -0.01,0.01 -0.016,0.01 -0.024,0.01 h -1.0413 c -0.071,0 -0.1374,0.01 -0.1956,0.018 -0.061,0.013 -0.111,0.034 -0.1559,0.066 -0.042,0.029 -0.074,0.066 -0.098,0.111 -0.024,0.045 -0.034,0.098 -0.034,0.1586 0,0.077 0.029,0.1533 0.085,0.2299 0.056,0.077 0.1374,0.1586 0.2431,0.2511 h 1.1973 c 0.01,0 0.018,0 0.024,0.01 0.01,0.01 0.013,0.013 0.018,0.026 0.01,0.013 0.01,0.029 0.011,0.053 0,0.021 0.01,0.048 0.01,0.079 0,0.029 0,0.056 -0.01,0.077 0,0.024 0,0.04 -0.011,0.053 0,0.013 -0.011,0.021 -0.018,0.026 -0.01,0.01 -0.016,0.01 -0.024,0.01 h -1.0413 c -0.071,0 -0.1375,0.01 -0.1956,0.021 -0.061,0.013 -0.111,0.037 -0.1559,0.066 -0.042,0.029 -0.074,0.066 -0.098,0.111 -0.024,0.045 -0.034,0.098 -0.034,0.1585 0,0.074 0.029,0.1507 0.085,0.2273 0.056,0.079 0.1374,0.1612 0.2431,0.2537 h 1.1972 c 0.01,0 0.018,0 0.024,0.01 0.01,0.01 0.013,0.013 0.018,0.024 0.01,0.013 0.01,0.029 0.011,0.05 0,0.021 0,0.05 0,0.082 0,0.032 0,0.058 0,0.079 0,0.021 -0.01,0.04 -0.011,0.053 0,0.011 -0.011,0.021 -0.018,0.024 -0.01,0.01 -0.016,0.01 -0.024,0.01 h -1.7099 c -0.011,0 -0.019,0 -0.026,-0.01 -0.01,-0.01 -0.013,-0.013 -0.019,-0.024 0,-0.013 -0.011,-0.029 -0.013,-0.048 0,-0.018 0,-0.042 0,-0.074 0,-0.029 0,-0.053 0,-0.071 0,-0.018 0.01,-0.034 0.013,-0.045 0.01,-0.01 0.011,-0.018 0.019,-0.024 0.01,-0.01 0.016,-0.01 0.026,-0.01 h 0.2246 c -0.1083,-0.1031 -0.185,-0.2009 -0.2352,-0.296 -0.05,-0.095 -0.077,-0.1903 -0.077,-0.2881 0,-0.074 0.01,-0.1401 0.026,-0.2009 0.016,-0.058 0.04,-0.111 0.069,-0.1559 0.029,-0.045 0.066,-0.085 0.1057,-0.1163 0.042,-0.032 0.087,-0.058 0.1375,-0.079 -0.061,-0.058 -0.1137,-0.1163 -0.156,-0.1691 -0.045,-0.055 -0.079,-0.1057 -0.1057,-0.156 -0.026,-0.05 -0.045,-0.098 -0.058,-0.1453 -0.011,-0.048 -0.018,-0.095 -0.018,-0.1427 0,-0.1163 0.021,-0.2141 0.058,-0.2908 0.04,-0.079 0.09,-0.1427 0.1559,-0.1929 0.063,-0.048 0.1401,-0.082 0.2273,-0.1031 0.085,-0.021 0.1771,-0.029 0.2749,-0.029 z m 0,-1.9479 c 0.016,0 0.026,0.01 0.034,0.016 0.01,0.011 0.013,0.026 0.018,0.045 0,0.018 0.01,0.045 0.01,0.082 0,0.034 0,0.061 -0.01,0.082 0,0.021 -0.011,0.037 -0.018,0.045 -0.01,0.011 -0.019,0.016 -0.034,0.016 h -0.1692 c 0.079,0.077 0.1401,0.1638 0.1851,0.2616 0.045,0.095 0.066,0.1982 0.066,0.3066 0,0.092 -0.011,0.1797 -0.034,0.2564 -0.024,0.077 -0.058,0.14 -0.1031,0.1955 -0.042,0.053 -0.098,0.095 -0.1612,0.1243 -0.066,0.029 -0.1401,0.045 -0.222,0.045 -0.095,0 -0.1798,-0.021 -0.2511,-0.061 -0.071,-0.042 -0.1295,-0.1004 -0.1771,-0.1771 -0.045,-0.079 -0.082,-0.1718 -0.1031,-0.2854 -0.024,-0.111 -0.037,-0.2352 -0.037,-0.3753 v -0.2484 h -0.1321 c -0.066,0 -0.1242,0.01 -0.1744,0.021 -0.05,0.016 -0.093,0.04 -0.1269,0.071 -0.034,0.034 -0.058,0.077 -0.077,0.1268 -0.016,0.053 -0.024,0.1163 -0.024,0.193 0,0.079 0.01,0.1532 0.026,0.2167 0.018,0.066 0.04,0.1216 0.061,0.1691 0.021,0.05 0.042,0.09 0.061,0.1216 0.018,0.034 0.026,0.058 0.026,0.074 0,0.011 0,0.021 0,0.029 -0.01,0.01 -0.013,0.013 -0.024,0.019 -0.011,0.01 -0.024,0.01 -0.04,0.013 -0.016,0 -0.032,0.01 -0.053,0.01 -0.032,0 -0.055,0 -0.074,-0.01 -0.019,-0.01 -0.034,-0.016 -0.053,-0.034 -0.016,-0.016 -0.034,-0.048 -0.058,-0.093 -0.021,-0.042 -0.042,-0.092 -0.061,-0.15069 -0.019,-0.058 -0.032,-0.1189 -0.045,-0.1876 -0.011,-0.069 -0.018,-0.13741 -0.018,-0.20621 0,-0.1295 0.016,-0.2378 0.042,-0.3277 0.029,-0.09 0.069,-0.1638 0.1216,-0.2193 0.055,-0.055 0.1216,-0.098 0.2008,-0.1216 0.079,-0.026 0.1745,-0.04 0.2802,-0.04 z m -0.7797,0.3278 v 0.2828 c 0,0.09 0.01,0.1665 0.021,0.2352 0.016,0.066 0.037,0.1216 0.066,0.1638 0.026,0.045 0.061,0.077 0.1005,0.098 0.04,0.021 0.087,0.032 0.1374,0.032 0.09,0 0.1612,-0.032 0.2141,-0.09 0.05,-0.058 0.077,-0.1427 0.077,-0.2485 0,-0.087 -0.019,-0.1665 -0.061,-0.2405 -0.042,-0.074 -0.1057,-0.1506 -0.193,-0.2325 z m 0.3119,-2.0456 c 0.087,0 0.1665,0.016 0.2352,0.05 0.069,0.034 0.1242,0.082 0.1718,0.1453 0.048,0.061 0.082,0.1348 0.1057,0.222 0.026,0.087 0.037,0.1824 0.037,0.2855 0,0.063 0,0.1242 -0.013,0.1823 -0.011,0.058 -0.021,0.111 -0.037,0.156 -0.013,0.045 -0.029,0.084 -0.045,0.1163 -0.016,0.032 -0.032,0.055 -0.042,0.071 -0.013,0.013 -0.032,0.024 -0.053,0.032 -0.024,0.01 -0.055,0.01 -0.095,0.01 -0.024,0 -0.042,0 -0.061,0 -0.016,0 -0.029,-0.01 -0.04,-0.011 -0.011,0 -0.016,-0.011 -0.021,-0.016 -0.01,-0.01 -0.01,-0.016 -0.01,-0.026 0,-0.013 0.011,-0.034 0.026,-0.063 0.019,-0.029 0.037,-0.063 0.055,-0.1057 0.021,-0.042 0.04,-0.092 0.058,-0.148 0.016,-0.058 0.024,-0.1242 0.024,-0.1982 0,-0.055 -0.01,-0.1057 -0.016,-0.1533 -0.013,-0.045 -0.029,-0.082 -0.05,-0.1163 -0.024,-0.034 -0.05,-0.058 -0.085,-0.077 -0.034,-0.018 -0.077,-0.026 -0.1215,-0.026 -0.048,0 -0.09,0.013 -0.1216,0.037 -0.034,0.026 -0.063,0.061 -0.087,0.1031 -0.026,0.042 -0.048,0.09 -0.069,0.1454 -0.019,0.053 -0.04,0.1057 -0.061,0.1638 -0.021,0.055 -0.048,0.111 -0.074,0.1665 -0.026,0.053 -0.061,0.1005 -0.1005,0.1428 -0.037,0.042 -0.085,0.077 -0.14,0.103 -0.053,0.026 -0.119,0.04 -0.1956,0.04 -0.066,0 -0.1321,-0.013 -0.1929,-0.042 -0.061,-0.026 -0.1137,-0.066 -0.1612,-0.1216 -0.045,-0.055 -0.082,-0.1216 -0.1111,-0.2035 -0.026,-0.082 -0.042,-0.1771 -0.042,-0.2881 0,-0.047 0.01,-0.095 0.013,-0.1427 0,-0.048 0.016,-0.093 0.026,-0.1295 0.013,-0.04 0.024,-0.071 0.037,-0.098 0.013,-0.029 0.026,-0.05 0.037,-0.063 0.011,-0.013 0.018,-0.024 0.026,-0.026 0.01,-0.01 0.016,-0.01 0.024,-0.011 0.011,0 0.021,-0.01 0.037,-0.01 0.013,0 0.029,-0.01 0.05,-0.01 0.021,0 0.04,0 0.056,0.01 0.016,0 0.029,0.01 0.04,0.01 0.011,0.01 0.018,0.011 0.021,0.018 0,0.01 0.01,0.013 0.01,0.021 0,0.013 -0.01,0.029 -0.021,0.053 -0.013,0.021 -0.029,0.05 -0.045,0.087 -0.016,0.034 -0.032,0.077 -0.045,0.1268 -0.013,0.048 -0.021,0.1031 -0.021,0.1665 0,0.055 0.01,0.1057 0.018,0.148 0.013,0.042 0.029,0.077 0.053,0.1031 0.021,0.029 0.048,0.048 0.077,0.063 0.032,0.013 0.063,0.021 0.1005,0.021 0.048,0 0.09,-0.013 0.1242,-0.042 0.032,-0.026 0.063,-0.061 0.087,-0.1031 0.026,-0.042 0.048,-0.09 0.069,-0.1454 0.021,-0.056 0.042,-0.111 0.063,-0.1665 0.021,-0.056 0.045,-0.111 0.071,-0.1665 0.026,-0.055 0.058,-0.1057 0.098,-0.148 0.037,-0.042 0.082,-0.077 0.1374,-0.103 0.053,-0.024 0.1163,-0.037 0.1877,-0.037 z m 0.4678,-1.8342 c 0.016,0 0.026,0.01 0.034,0.016 0.01,0.011 0.013,0.027 0.018,0.045 0,0.019 0.01,0.045 0.01,0.082 0,0.034 0,0.061 -0.01,0.082 0,0.021 -0.011,0.037 -0.018,0.045 -0.01,0.01 -0.019,0.016 -0.034,0.016 h -0.1692 c 0.079,0.077 0.1401,0.1639 0.1851,0.2617 0.045,0.095 0.066,0.1982 0.066,0.3065 0,0.092 -0.011,0.1798 -0.034,0.2564 -0.024,0.077 -0.058,0.1401 -0.1031,0.1956 -0.042,0.053 -0.098,0.095 -0.1612,0.1242 -0.066,0.029 -0.1401,0.045 -0.222,0.045 -0.095,0 -0.1798,-0.021 -0.2511,-0.061 -0.071,-0.042 -0.1295,-0.1004 -0.1771,-0.177 -0.045,-0.079 -0.082,-0.1718 -0.1031,-0.2855 -0.024,-0.111 -0.037,-0.2352 -0.037,-0.3753 v -0.2484 h -0.1321 c -0.066,0 -0.1242,0.01 -0.1744,0.021 -0.05,0.016 -0.093,0.04 -0.1269,0.071 -0.034,0.034 -0.058,0.077 -0.077,0.1269 -0.016,0.053 -0.024,0.1163 -0.024,0.1929 0,0.079 0.01,0.1533 0.026,0.2167 0.018,0.066 0.04,0.1216 0.061,0.1692 0.021,0.05 0.042,0.09 0.061,0.1215 0.018,0.034 0.026,0.058 0.026,0.074 0,0.011 0,0.021 0,0.029 -0.01,0.01 -0.013,0.013 -0.024,0.018 -0.011,0.01 -0.024,0.011 -0.04,0.013 -0.016,0 -0.032,0.01 -0.053,0.01 -0.032,0 -0.055,0 -0.074,-0.01 -0.019,-0.01 -0.034,-0.016 -0.053,-0.034 -0.016,-0.016 -0.034,-0.047 -0.058,-0.092 -0.021,-0.042 -0.042,-0.092 -0.061,-0.1506 -0.019,-0.058 -0.032,-0.119 -0.045,-0.1877 -0.011,-0.069 -0.018,-0.1374 -0.018,-0.2061 0,-0.1295 0.016,-0.2379 0.042,-0.3277 0.029,-0.09 0.069,-0.1639 0.1216,-0.2194 0.055,-0.055 0.1216,-0.098 0.2008,-0.1216 0.079,-0.026 0.1745,-0.04 0.2802,-0.04 z m -0.7797,0.3277 v 0.2828 c 0,0.09 0.01,0.1665 0.021,0.2352 0.016,0.066 0.037,0.1216 0.066,0.1639 0.026,0.045 0.061,0.077 0.1005,0.098 0.04,0.021 0.087,0.032 0.1374,0.032 0.09,0 0.1612,-0.032 0.2141,-0.09 0.05,-0.058 0.077,-0.1427 0.077,-0.2484 0,-0.087 -0.019,-0.1665 -0.061,-0.2405 -0.042,-0.074 -0.1057,-0.1507 -0.193,-0.2326 z"
       id="path59507" /><path
       style="fill:#000000;fill-opacity:1;fill-rule:nonzero;stroke:none;stroke-width:0.264583"
       d="m 1535.579,649.59313 c 0.1507,0 0.2828,0.018 0.4018,0.05 0.1189,0.034 0.222,0.085 0.3039,0.1507 0.082,0.066 0.148,0.148 0.1929,0.2431 0.045,0.098 0.066,0.2088 0.066,0.3357 0,0.053 0,0.1004 -0.016,0.1453 -0.01,0.045 -0.024,0.09 -0.048,0.1348 -0.021,0.042 -0.048,0.085 -0.079,0.1269 -0.034,0.042 -0.074,0.087 -0.1163,0.1374 h 0.8537 c 0.011,0 0.018,0 0.026,0.01 0.01,0.01 0.013,0.013 0.018,0.024 0.01,0.013 0.011,0.029 0.013,0.05 0,0.021 0,0.05 0,0.082 0,0.032 0,0.058 0,0.079 0,0.021 -0.01,0.04 -0.013,0.053 0,0.011 -0.011,0.021 -0.018,0.024 -0.01,0.01 -0.016,0.01 -0.026,0.01 h -2.3865 c -0.013,0 -0.021,0 -0.029,-0.01 -0.01,-0.01 -0.013,-0.013 -0.019,-0.024 0,-0.013 -0.01,-0.029 -0.011,-0.047 0,-0.019 0,-0.04 0,-0.066 0,-0.029 0,-0.053 0,-0.069 0,-0.018 0,-0.034 0.011,-0.045 0.01,-0.013 0.013,-0.021 0.019,-0.027 0.01,0 0.016,-0.01 0.029,-0.01 h 0.2299 c -0.056,-0.055 -0.1004,-0.1083 -0.1401,-0.1585 -0.04,-0.05 -0.071,-0.1005 -0.098,-0.1533 -0.026,-0.05 -0.045,-0.1031 -0.058,-0.156 -0.013,-0.055 -0.021,-0.111 -0.021,-0.1717 0,-0.1295 0.024,-0.2405 0.074,-0.333 0.048,-0.092 0.1137,-0.1666 0.1956,-0.2247 0.085,-0.058 0.1823,-0.1004 0.2934,-0.1269 0.111,-0.026 0.2272,-0.04 0.3515,-0.04 z m 0.037,0.3409 c -0.087,0 -0.1718,0.01 -0.2537,0.021 -0.082,0.016 -0.1559,0.04 -0.2193,0.074 -0.063,0.032 -0.1137,0.079 -0.1507,0.1374 -0.037,0.055 -0.058,0.1269 -0.058,0.2141 0,0.042 0.01,0.085 0.019,0.1268 0.013,0.04 0.032,0.082 0.058,0.1243 0.026,0.045 0.058,0.09 0.1031,0.1348 0.042,0.048 0.092,0.098 0.1559,0.1506 h 0.6792 c 0.1058,-0.092 0.185,-0.1797 0.2405,-0.259 0.058,-0.082 0.085,-0.1692 0.085,-0.259 0,-0.082 -0.019,-0.1533 -0.056,-0.2114 -0.04,-0.061 -0.09,-0.1084 -0.1532,-0.1454 -0.063,-0.037 -0.1348,-0.063 -0.2115,-0.082 -0.079,-0.016 -0.1585,-0.027 -0.2378,-0.027 z m -0.029,-2.4737 c 0.1401,0 0.267,0.021 0.3833,0.058 0.1189,0.04 0.2193,0.098 0.3039,0.1745 0.085,0.074 0.1506,0.1717 0.1982,0.2854 0.048,0.1163 0.071,0.2484 0.071,0.4017 0,0.1454 -0.021,0.2749 -0.063,0.3859 -0.04,0.1083 -0.1004,0.2008 -0.1824,0.2722 -0.079,0.074 -0.1744,0.1295 -0.2907,0.1639 -0.1136,0.037 -0.2431,0.055 -0.3858,0.055 -0.1401,0 -0.267,-0.021 -0.3859,-0.058 -0.1163,-0.037 -0.2167,-0.095 -0.3013,-0.1718 -0.085,-0.077 -0.1506,-0.1718 -0.1982,-0.2854 -0.048,-0.1137 -0.071,-0.2484 -0.071,-0.4017 0,-0.148 0.021,-0.2749 0.063,-0.3859 0.042,-0.1084 0.1031,-0.2009 0.1824,-0.2749 0.079,-0.071 0.177,-0.1268 0.2907,-0.1638 0.1136,-0.037 0.2431,-0.056 0.3858,-0.056 z m 0.021,0.3409 c -0.092,0 -0.1797,0.011 -0.2616,0.029 -0.085,0.018 -0.1559,0.048 -0.2167,0.09 -0.063,0.04 -0.111,0.098 -0.148,0.1692 -0.037,0.069 -0.056,0.1586 -0.056,0.2643 0,0.098 0.019,0.1823 0.05,0.2537 0.034,0.069 0.079,0.1269 0.14,0.1744 0.061,0.045 0.1322,0.079 0.2141,0.1005 0.082,0.021 0.1718,0.034 0.2696,0.034 0.093,0 0.1824,-0.011 0.2643,-0.029 0.082,-0.019 0.1533,-0.048 0.2141,-0.09 0.063,-0.042 0.111,-0.098 0.148,-0.1692 0.034,-0.071 0.053,-0.1612 0.053,-0.2669 0,-0.095 -0.016,-0.1797 -0.048,-0.2511 -0.034,-0.071 -0.079,-0.1295 -0.1401,-0.1744 -0.058,-0.048 -0.1295,-0.079 -0.2114,-0.1004 -0.085,-0.021 -0.1745,-0.034 -0.2723,-0.034 z m -0.7453,-1.8764 c 0.029,0 0.05,0 0.071,0 0.019,0 0.032,0 0.045,0.01 0.011,0 0.018,0.01 0.024,0.016 0,0.01 0.01,0.013 0.01,0.024 0,0.01 0,0.024 -0.01,0.04 -0.01,0.013 -0.011,0.032 -0.018,0.05 -0.01,0.021 -0.011,0.042 -0.016,0.066 -0.01,0.024 -0.01,0.05 -0.01,0.077 0,0.034 0.01,0.066 0.021,0.098 0.011,0.032 0.032,0.066 0.061,0.1005 0.029,0.037 0.069,0.074 0.1163,0.111 0.048,0.04 0.1084,0.082 0.1771,0.1295 h 1.1259 c 0.01,0 0.018,0 0.024,0.01 0.01,0.01 0.013,0.013 0.018,0.024 0.01,0.013 0.01,0.029 0.011,0.05 0,0.021 0,0.05 0,0.082 0,0.032 0,0.058 0,0.079 0,0.021 -0.01,0.04 -0.011,0.053 0,0.011 -0.011,0.021 -0.018,0.024 -0.01,0.01 -0.016,0.01 -0.024,0.01 h -1.71 c -0.011,0 -0.019,0 -0.026,-0.01 -0.01,-0.01 -0.013,-0.013 -0.019,-0.024 0,-0.013 -0.011,-0.029 -0.013,-0.048 0,-0.019 0,-0.042 0,-0.074 0,-0.029 0,-0.053 0,-0.071 0,-0.018 0.01,-0.034 0.013,-0.045 0.01,-0.011 0.011,-0.019 0.019,-0.024 0.01,-0.01 0.016,-0.01 0.026,-0.01 h 0.2485 c -0.069,-0.05 -0.1243,-0.095 -0.1665,-0.1401 -0.045,-0.042 -0.079,-0.085 -0.1031,-0.1216 -0.024,-0.04 -0.042,-0.077 -0.05,-0.1163 -0.011,-0.037 -0.016,-0.074 -0.016,-0.1136 0,-0.019 0,-0.037 0,-0.058 0,-0.024 0,-0.045 0.011,-0.069 0.01,-0.024 0.011,-0.048 0.019,-0.066 0,-0.018 0.013,-0.032 0.018,-0.04 0.01,-0.01 0.013,-0.013 0.019,-0.016 0,0 0.013,-0.01 0.021,-0.01 0.01,0 0.021,0 0.04,-0.01 0.016,0 0.04,0 0.069,0 z m 1.3373,-1.636 c 0.021,0 0.04,0 0.055,0 0.016,0 0.029,0 0.04,0.01 0.011,0 0.021,0.01 0.029,0.013 0.01,0 0.021,0.013 0.037,0.032 0.016,0.016 0.034,0.045 0.058,0.085 0.024,0.04 0.045,0.085 0.063,0.1348 0.018,0.05 0.032,0.1031 0.045,0.1612 0.011,0.058 0.016,0.119 0.016,0.1824 0,0.1295 -0.021,0.2431 -0.061,0.3436 -0.04,0.1004 -0.1004,0.1823 -0.177,0.2484 -0.079,0.069 -0.1745,0.1189 -0.2881,0.1559 -0.111,0.034 -0.2431,0.053 -0.3912,0.053 -0.1691,0 -0.3145,-0.024 -0.4334,-0.066 -0.1216,-0.042 -0.222,-0.103 -0.2986,-0.1771 -0.077,-0.077 -0.1348,-0.1638 -0.1718,-0.2642 -0.037,-0.1031 -0.055,-0.2141 -0.055,-0.3304 0,-0.058 0,-0.1136 0.016,-0.1665 0.011,-0.055 0.024,-0.1031 0.04,-0.1507 0.016,-0.045 0.034,-0.085 0.055,-0.1189 0.024,-0.037 0.042,-0.061 0.055,-0.077 0.016,-0.016 0.029,-0.029 0.037,-0.034 0.01,-0.01 0.019,-0.011 0.032,-0.013 0.011,-0.01 0.024,-0.01 0.04,-0.01 0.016,0 0.034,0 0.058,0 0.048,0 0.085,0.01 0.103,0.018 0.018,0.011 0.029,0.026 0.029,0.042 0,0.021 -0.011,0.042 -0.032,0.069 -0.021,0.026 -0.042,0.058 -0.069,0.1005 -0.026,0.04 -0.048,0.087 -0.069,0.1427 -0.021,0.058 -0.032,0.1242 -0.032,0.2008 0,0.1586 0.058,0.2802 0.1745,0.3648 0.1163,0.084 0.2828,0.1268 0.5048,0.1268 0.1083,0 0.2061,-0.011 0.288,-0.034 0.082,-0.021 0.1533,-0.053 0.2088,-0.095 0.055,-0.042 0.098,-0.095 0.1243,-0.1559 0.026,-0.063 0.04,-0.1348 0.04,-0.2141 0,-0.077 -0.011,-0.1427 -0.034,-0.1982 -0.021,-0.058 -0.048,-0.1084 -0.074,-0.1507 -0.026,-0.04 -0.053,-0.077 -0.074,-0.1057 -0.021,-0.026 -0.034,-0.05 -0.034,-0.066 0,-0.01 0,-0.016 0.01,-0.024 0.01,-0.01 0.013,-0.013 0.026,-0.016 0.013,-0.01 0.026,-0.01 0.045,-0.011 0.018,0 0.04,0 0.066,0 z m 0.3357,-0.8114 c 0.1269,0 0.2299,0.011 0.3066,0.032 0.079,0.019 0.1453,0.05 0.1982,0.092 0.053,0.042 0.092,0.098 0.1189,0.1639 0.029,0.066 0.042,0.1454 0.042,0.2405 0,0.042 0,0.079 -0.01,0.1084 -0.01,0.032 -0.011,0.053 -0.019,0.069 0,0.016 -0.013,0.029 -0.021,0.034 -0.01,0.01 -0.018,0.011 -0.029,0.013 -0.011,0 -0.021,0 -0.032,0.01 -0.011,0 -0.026,0 -0.042,0 -0.024,0 -0.042,0 -0.058,0 -0.016,0 -0.032,-0.01 -0.04,-0.011 -0.011,-0.01 -0.018,-0.011 -0.024,-0.016 0,-0.01 0,-0.013 0,-0.024 0,-0.01 0,-0.024 0,-0.045 0,-0.024 0,-0.05 0,-0.082 0,-0.045 0,-0.082 -0.018,-0.1136 -0.013,-0.029 -0.032,-0.056 -0.061,-0.077 -0.029,-0.018 -0.066,-0.034 -0.111,-0.042 -0.045,-0.011 -0.1136,-0.016 -0.2061,-0.016 h -1.784 c -0.011,0 -0.018,0 -0.026,-0.01 -0.01,-0.01 -0.013,-0.013 -0.018,-0.026 -0.01,-0.013 -0.01,-0.029 -0.011,-0.05 0,-0.021 -0.01,-0.048 -0.01,-0.079 0,-0.032 0,-0.058 0.01,-0.079 0,-0.021 0.01,-0.04 0.011,-0.053 0,-0.011 0.011,-0.021 0.018,-0.026 0.01,-0.01 0.016,-0.01 0.026,-0.01 z m -2.3628,-0.037 c 0.074,0 0.1243,0.013 0.1507,0.042 0.026,0.032 0.04,0.085 0.04,0.1639 0,0.077 -0.013,0.1295 -0.04,0.1559 -0.026,0.029 -0.074,0.042 -0.1454,0.042 -0.074,0 -0.1242,-0.013 -0.1506,-0.042 -0.026,-0.029 -0.04,-0.082 -0.04,-0.1612 0,-0.079 0.013,-0.1322 0.037,-0.1586 0.026,-0.029 0.077,-0.042 0.148,-0.042 z m 2.2888,-0.8959 c 0.01,0 0.018,0 0.024,0.01 0.01,0.01 0.013,0.013 0.018,0.024 0.01,0.013 0.01,0.029 0.011,0.05 0,0.021 0.01,0.05 0.01,0.082 0,0.032 0,0.058 -0.01,0.079 0,0.021 0,0.04 -0.011,0.053 0,0.011 -0.011,0.021 -0.018,0.024 -0.01,0.01 -0.016,0.01 -0.024,0.01 h -1.71 c -0.011,0 -0.019,0 -0.026,-0.01 -0.01,0 -0.013,-0.013 -0.019,-0.024 0,-0.013 -0.01,-0.032 -0.011,-0.053 0,-0.021 -0.01,-0.048 -0.01,-0.079 0,-0.032 0,-0.061 0.01,-0.082 0,-0.021 0,-0.037 0.011,-0.05 0.01,-0.011 0.011,-0.018 0.019,-0.024 0.01,-0.01 0.016,-0.01 0.026,-0.01 z m -2.2888,-0.04 c 0.074,0 0.1243,0.016 0.1507,0.045 0.026,0.029 0.04,0.082 0.04,0.1612 0,0.077 -0.013,0.1295 -0.04,0.1586 -0.026,0.029 -0.074,0.042 -0.1454,0.042 -0.074,0 -0.1242,-0.013 -0.1506,-0.042 -0.026,-0.032 -0.04,-0.085 -0.04,-0.1639 0,-0.077 0.013,-0.1295 0.037,-0.1586 0.026,-0.026 0.077,-0.042 0.148,-0.042 z"
       id="path59509" /><path
       style="fill:#000000;fill-opacity:1;fill-rule:nonzero;stroke:none;stroke-width:0.264583"
       d="m 1536.8073,640.67305 c 0.01,0 0.018,0 0.024,0.01 0.01,0.01 0.013,0.013 0.018,0.024 0.01,0.013 0.01,0.029 0.011,0.05 0,0.021 0.01,0.05 0.01,0.082 0,0.032 0,0.058 -0.01,0.079 0,0.021 0,0.04 -0.011,0.053 0,0.011 -0.011,0.021 -0.018,0.024 -0.01,0.01 -0.016,0.01 -0.024,0.01 h -2.5398 c -0.011,0 -0.019,0 -0.026,-0.01 -0.01,0 -0.013,-0.013 -0.019,-0.024 0,-0.013 -0.01,-0.032 -0.011,-0.053 0,-0.021 0,-0.048 0,-0.079 0,-0.032 0,-0.061 0,-0.082 0,-0.021 0.01,-0.037 0.011,-0.05 0.01,-0.01 0.011,-0.018 0.019,-0.024 0.01,-0.01 0.016,-0.01 0.026,-0.01 z m -0.8748,-2.2729 c 0.1401,0 0.267,0.021 0.3833,0.058 0.1189,0.04 0.2193,0.098 0.3039,0.1744 0.085,0.074 0.1506,0.17181 0.1982,0.2854 0.048,0.1163 0.071,0.2485 0.071,0.40181 0,0.14529 -0.021,0.27479 -0.063,0.3858 -0.04,0.1084 -0.1004,0.2009 -0.1824,0.2722 -0.079,0.074 -0.1744,0.1295 -0.2907,0.1639 -0.1136,0.037 -0.2431,0.055 -0.3858,0.055 -0.1401,0 -0.267,-0.021 -0.3859,-0.058 -0.1163,-0.037 -0.2167,-0.095 -0.3013,-0.1718 -0.085,-0.077 -0.1506,-0.1718 -0.1982,-0.2855 -0.048,-0.1136 -0.071,-0.2484 -0.071,-0.4017 0,-0.148 0.021,-0.2748 0.063,-0.3859 0.042,-0.1083 0.1031,-0.2008 0.1824,-0.2748 0.079,-0.071 0.177,-0.1269 0.2907,-0.1639 0.1136,-0.037 0.2431,-0.055 0.3858,-0.055 z m 0.021,0.341 c -0.092,0 -0.1797,0.011 -0.2616,0.029 -0.085,0.019 -0.1559,0.048 -0.2167,0.09 -0.063,0.04 -0.111,0.098 -0.148,0.1691 -0.037,0.069 -0.056,0.1586 -0.056,0.2643 0,0.098 0.019,0.1824 0.05,0.2537 0.034,0.069 0.079,0.1269 0.14,0.1745 0.061,0.045 0.1322,0.079 0.2141,0.1004 0.082,0.021 0.1718,0.034 0.2696,0.034 0.093,0 0.1824,-0.011 0.2643,-0.029 0.082,-0.019 0.1533,-0.048 0.2141,-0.09 0.063,-0.042 0.111,-0.098 0.148,-0.16911 0.034,-0.071 0.053,-0.1612 0.053,-0.2669 0,-0.095 -0.016,-0.17979 -0.048,-0.2511 -0.034,-0.071 -0.079,-0.1295 -0.1401,-0.1745 -0.058,-0.047 -0.1295,-0.079 -0.2114,-0.1004 -0.085,-0.021 -0.1745,-0.034 -0.2723,-0.034 z m 0.8537,-2.3654 c 0.01,0 0.018,0 0.026,0.01 0,0.01 0.013,0.013 0.016,0.024 0.01,0.011 0.01,0.026 0.011,0.045 0,0.018 0.01,0.04 0.01,0.069 0,0.027 0,0.05 -0.01,0.069 0,0.019 0,0.034 -0.011,0.045 0,0.013 -0.011,0.021 -0.016,0.026 -0.01,0.01 -0.019,0.01 -0.026,0.01 h -0.2273 c 0.098,0.095 0.1744,0.193 0.2273,0.2934 0.055,0.1031 0.082,0.2141 0.082,0.3356 0,0.1322 -0.024,0.2432 -0.074,0.33571 -0.048,0.095 -0.1137,0.1691 -0.1956,0.2273 -0.085,0.058 -0.1823,0.1004 -0.2933,0.1268 -0.111,0.026 -0.23,0.04 -0.3542,0.04 -0.148,0 -0.2801,-0.016 -0.3991,-0.05 -0.1163,-0.032 -0.2193,-0.082 -0.3013,-0.148 -0.085,-0.063 -0.148,-0.1454 -0.1929,-0.2405 -0.045,-0.098 -0.069,-0.20881 -0.069,-0.33571 0,-0.1031 0.024,-0.2009 0.066,-0.2881 0.045,-0.087 0.1084,-0.1718 0.1929,-0.259 h -0.9937 c -0.01,0 -0.016,0 -0.026,-0.01 -0.01,-0.01 -0.013,-0.013 -0.018,-0.026 0,-0.013 -0.01,-0.032 -0.011,-0.053 0,-0.018 0,-0.045 0,-0.077 0,-0.034 0,-0.061 0,-0.082 0,-0.021 0.01,-0.04 0.011,-0.05 0,-0.013 0.011,-0.021 0.018,-0.026 0.011,-0.01 0.019,-0.011 0.026,-0.011 z m -1.2025,0.3303 c -0.1057,0.09 -0.1877,0.17711 -0.2405,0.259 -0.056,0.085 -0.085,0.1692 -0.085,0.2617 0,0.082 0.021,0.1533 0.058,0.2114 0.037,0.061 0.087,0.1084 0.1506,0.1427 0.061,0.037 0.1322,0.064 0.2088,0.082 0.079,0.016 0.1586,0.024 0.2405,0.024 0.087,0 0.1692,-0.01 0.2537,-0.021 0.082,-0.013 0.1533,-0.037 0.2194,-0.071 0.063,-0.037 0.1136,-0.082 0.1533,-0.14001 0.037,-0.055 0.058,-0.1269 0.058,-0.21409 0,-0.045 0,-0.087 -0.018,-0.1269 -0.011,-0.04 -0.029,-0.082 -0.055,-0.1242 -0.026,-0.042 -0.061,-0.087 -0.1031,-0.1348 -0.042,-0.045 -0.095,-0.095 -0.1586,-0.148 z m 0.3277,-2.5768 c 0.1401,0 0.2669,0.021 0.3832,0.058 0.1189,0.04 0.2194,0.098 0.3039,0.1745 0.085,0.074 0.1507,0.1718 0.1983,0.2854 0.048,0.1163 0.071,0.2484 0.071,0.4017 0,0.1454 -0.021,0.2749 -0.063,0.3859 -0.04,0.1084 -0.1005,0.2009 -0.1824,0.2722 -0.079,0.074 -0.1744,0.1295 -0.2907,0.1639 -0.1137,0.037 -0.2432,0.055 -0.3859,0.055 -0.1401,0 -0.2669,-0.021 -0.3858,-0.058 -0.1163,-0.037 -0.2168,-0.095 -0.3013,-0.1718 -0.085,-0.077 -0.1507,-0.1717 -0.1982,-0.2854 -0.048,-0.11359 -0.071,-0.2484 -0.071,-0.40169 0,-0.148 0.021,-0.2749 0.063,-0.3859 0.042,-0.10831 0.103,-0.20081 0.1823,-0.2748 0.079,-0.071 0.1771,-0.1269 0.2907,-0.1639 0.1137,-0.037 0.2432,-0.055 0.3859,-0.055 z m 0.021,0.3409 c -0.092,0 -0.1797,0.011 -0.2616,0.029 -0.085,0.019 -0.156,0.048 -0.2168,0.09 -0.063,0.04 -0.111,0.098 -0.148,0.1691 -0.037,0.069 -0.056,0.1586 -0.056,0.2643 0,0.098 0.019,0.1824 0.05,0.2537 0.034,0.069 0.079,0.1269 0.1401,0.1745 0.061,0.045 0.1322,0.079 0.2141,0.1004 0.082,0.021 0.1718,0.034 0.2696,0.034 0.093,0 0.1823,-0.011 0.2643,-0.029 0.082,-0.019 0.1532,-0.048 0.214,-0.09 0.063,-0.042 0.111,-0.098 0.148,-0.1691 0.034,-0.071 0.053,-0.1613 0.053,-0.26701 0,-0.095 -0.016,-0.17969 -0.048,-0.251 -0.034,-0.071 -0.079,-0.1295 -0.1401,-0.1745 -0.058,-0.047 -0.1295,-0.079 -0.2114,-0.1004 -0.085,-0.021 -0.1744,-0.034 -0.2722,-0.034 z m -1.6941,0.3938 c -0.013,-0.01 -0.024,-0.016 -0.034,-0.026 -0.01,-0.011 -0.016,-0.024 -0.019,-0.04 0,-0.016 -0.011,-0.034 -0.013,-0.058 0,-0.021 0,-0.05 0,-0.082 0,-0.037 0,-0.066 0,-0.09 0.01,-0.024 0.011,-0.04 0.019,-0.048 0.011,-0.011 0.018,-0.013 0.029,-0.013 0.011,0 0.024,0.01 0.034,0.019 l 0.4414,0.3595 c 0.013,0.011 0.024,0.021 0.032,0.029 0.01,0.011 0.013,0.019 0.018,0.032 0,0.01 0.01,0.024 0.01,0.042 0,0.019 0,0.042 0,0.069 0,0.029 0,0.05 -0.01,0.069 0,0.018 -0.01,0.029 -0.016,0.037 0,0.01 -0.013,0.01 -0.024,0.01 -0.011,0 -0.021,-0.01 -0.037,-0.016 z m 0.8325,-3.7317 c 0.011,0 0.021,0 0.032,0 0.013,0 0.029,0.01 0.048,0.016 l 1.6254,0.5285 c 0.013,0 0.024,0.011 0.034,0.019 0.01,0.01 0.016,0.021 0.021,0.034 0.01,0.016 0.01,0.037 0.011,0.063 0,0.026 0,0.061 0,0.1004 0,0.042 0,0.077 0,0.10311 0,0.029 -0.01,0.05 -0.011,0.066 0,0.019 -0.013,0.029 -0.021,0.037 -0.01,0.01 -0.019,0.016 -0.032,0.018 l -1.2395,0.3779 h -0.018 l 0.018,0.01 1.2395,0.3488 c 0.013,0 0.024,0.011 0.034,0.018 0.01,0.01 0.016,0.021 0.021,0.04 0,0.016 0.01,0.04 0.011,0.066 0,0.026 0,0.061 0,0.1005 0,0.042 0,0.077 -0.01,0.1004 0,0.026 0,0.048 -0.011,0.066 -0.01,0.016 -0.013,0.026 -0.021,0.034 -0.01,0.01 -0.018,0.016 -0.032,0.019 l -1.6254,0.526 c -0.019,0.01 -0.034,0.011 -0.048,0.013 -0.011,0 -0.021,0.01 -0.032,0.01 -0.011,0 -0.021,0 -0.026,-0.01 -0.01,-0.01 -0.013,-0.016 -0.018,-0.029 0,-0.011 -0.01,-0.029 -0.01,-0.05 0,-0.021 0,-0.048 0,-0.077 0,-0.037 0,-0.069 0,-0.09 0,-0.024 0,-0.04 0.011,-0.053 0,-0.011 0.011,-0.021 0.018,-0.026 0.01,-0.01 0.018,-0.011 0.029,-0.013 l 1.4113,-0.4334 h 0.016 l -0.016,-0.01 -1.4113,-0.3965 c -0.011,0 -0.021,-0.01 -0.029,-0.013 -0.01,-0.01 -0.013,-0.016 -0.018,-0.026 -0.01,-0.013 -0.01,-0.029 -0.011,-0.05 0,-0.018 0,-0.048 0,-0.079 0,-0.032 0,-0.058 0,-0.079 0,-0.021 0,-0.037 0.011,-0.048 0,-0.013 0.011,-0.021 0.018,-0.026 0.01,-0.01 0.016,-0.011 0.026,-0.013 l 1.414,-0.4282 0.016,-0.01 h -0.016 l -1.4113,-0.4282 c -0.011,0 -0.021,-0.01 -0.029,-0.013 -0.01,-0.01 -0.013,-0.016 -0.018,-0.026 -0.01,-0.013 -0.01,-0.032 -0.011,-0.053 0,-0.021 0,-0.05 0,-0.085 0,-0.032 0,-0.058 0,-0.077 0,-0.019 0,-0.034 0.011,-0.045 0,-0.013 0.011,-0.021 0.016,-0.024 0.01,-0.01 0.016,-0.01 0.026,-0.01 z"
       id="path59511" /><path
       style="fill:#000000;fill-opacity:1;fill-rule:nonzero;stroke:none;stroke-width:0.264583"
       d="m 1540.8098,660.11763 c 0.024,0 0.045,0 0.063,0.01 0.016,0 0.029,0.01 0.04,0.013 0.011,0.01 0.019,0.013 0.024,0.024 0.01,0.01 0.01,0.018 0.01,0.029 v 1.1258 c 0,0.029 -0.01,0.053 -0.026,0.071 -0.016,0.019 -0.048,0.026 -0.087,0.026 h -0.066 c -0.019,0 -0.034,0 -0.048,0 -0.013,0 -0.026,-0.01 -0.042,-0.013 -0.013,-0.01 -0.026,-0.013 -0.042,-0.024 -0.016,-0.01 -0.034,-0.019 -0.056,-0.034 l -1.1734,-0.8061 v 0.7823 c 0,0.021 -0.011,0.04 -0.032,0.053 -0.021,0.013 -0.055,0.018 -0.1004,0.018 -0.024,0 -0.045,0 -0.061,0 -0.018,0 -0.032,-0.01 -0.042,-0.013 -0.011,-0.01 -0.018,-0.016 -0.024,-0.024 0,-0.01 -0.01,-0.019 -0.01,-0.032 v -1.0492 c 0,-0.013 0,-0.026 0.01,-0.04 0.01,-0.011 0.011,-0.021 0.018,-0.029 0.011,-0.01 0.021,-0.013 0.034,-0.018 0.013,-0.01 0.032,-0.01 0.053,-0.01 h 0.061 c 0.018,0 0.034,0 0.05,0.01 0.016,0 0.029,0.01 0.045,0.011 0.013,0.01 0.029,0.013 0.048,0.024 0.016,0.01 0.034,0.021 0.053,0.034 l 1.1761,0.8034 v -0.8589 c 0,-0.011 0,-0.021 0.01,-0.029 0,-0.01 0.013,-0.016 0.021,-0.024 0.011,-0.01 0.024,-0.011 0.042,-0.013 0.016,-0.01 0.037,-0.01 0.061,-0.01 z"
       id="path59513" /><path
       style="fill:#000000;fill-opacity:1;fill-rule:nonzero;stroke:none;stroke-width:0.264583"
       d="m 1539.3782,655.82791 c 0.011,0 0.021,0 0.032,0 0.013,0 0.029,0.01 0.048,0.016 l 1.6254,0.5365 c 0.013,0.01 0.024,0.011 0.034,0.021 0.01,0.01 0.016,0.021 0.021,0.034 0.01,0.016 0.01,0.037 0.011,0.066 0,0.026 0,0.061 0,0.1004 0,0.042 0,0.077 0,0.1057 0,0.029 -0.01,0.053 -0.011,0.069 0,0.016 -0.013,0.029 -0.021,0.037 -0.01,0.01 -0.019,0.016 -0.032,0.018 l -1.2395,0.3832 -0.018,0.01 h 0.018 l 1.2395,0.3568 c 0.013,0.01 0.024,0.011 0.034,0.019 0.01,0.01 0.016,0.024 0.021,0.04 0,0.019 0.01,0.042 0.011,0.069 0,0.029 0,0.063 0,0.1031 0,0.042 0,0.077 -0.01,0.1031 0,0.026 0,0.047 -0.011,0.063 -0.01,0.018 -0.013,0.032 -0.021,0.04 -0.01,0.01 -0.018,0.013 -0.032,0.019 l -1.6254,0.5339 c -0.018,0.01 -0.034,0.011 -0.048,0.013 -0.011,0 -0.021,0.01 -0.032,0.01 -0.011,0 -0.021,0 -0.026,-0.01 -0.01,-0.01 -0.013,-0.016 -0.018,-0.029 0,-0.013 -0.01,-0.029 -0.01,-0.05 0,-0.024 0,-0.048 0,-0.079 0,-0.04 0,-0.069 0,-0.092 0,-0.024 0,-0.04 0.011,-0.053 0,-0.013 0.011,-0.021 0.018,-0.026 0.01,-0.01 0.019,-0.011 0.029,-0.013 l 1.4113,-0.4414 0.016,-0.01 h -0.016 l -1.4113,-0.4044 c -0.011,0 -0.021,-0.01 -0.029,-0.013 -0.01,-0.01 -0.013,-0.016 -0.018,-0.029 -0.01,-0.011 -0.01,-0.029 -0.011,-0.05 0,-0.018 0,-0.047 0,-0.082 0,-0.032 0,-0.058 0,-0.079 0,-0.021 0,-0.037 0.011,-0.05 0,-0.011 0.011,-0.021 0.018,-0.026 0.01,-0.01 0.016,-0.01 0.026,-0.011 l 1.414,-0.4387 h 0.016 -0.016 l -1.4113,-0.4361 c -0.011,0 -0.021,-0.01 -0.029,-0.013 -0.01,-0.01 -0.013,-0.016 -0.018,-0.026 -0.01,-0.013 -0.01,-0.032 -0.011,-0.053 0,-0.024 0,-0.053 0,-0.087 0,-0.032 0,-0.058 0,-0.079 0,-0.018 0,-0.034 0.011,-0.045 0,-0.013 0.011,-0.021 0.016,-0.026 0.01,0 0.016,-0.01 0.026,-0.01 z m 1.7153,-1.7813 c 0.016,0 0.026,0.01 0.034,0.019 0.01,0.01 0.013,0.024 0.018,0.045 0,0.019 0.01,0.045 0.01,0.082 0,0.034 0,0.063 -0.01,0.085 0,0.021 -0.011,0.037 -0.018,0.045 -0.01,0.011 -0.019,0.016 -0.034,0.016 h -0.1692 c 0.079,0.079 0.1401,0.1691 0.185,0.2669 0.045,0.098 0.066,0.2009 0.066,0.3119 0,0.095 -0.011,0.1823 -0.034,0.2616 -0.024,0.077 -0.058,0.1427 -0.1031,0.1982 -0.042,0.055 -0.098,0.098 -0.1612,0.1269 -0.066,0.032 -0.14,0.048 -0.222,0.048 -0.095,0 -0.1797,-0.021 -0.251,-0.063 -0.072,-0.042 -0.1295,-0.103 -0.1771,-0.1823 -0.045,-0.077 -0.082,-0.1745 -0.1031,-0.2881 -0.024,-0.1136 -0.037,-0.2405 -0.037,-0.3832 v -0.2511 h -0.1321 c -0.066,0 -0.1243,0.01 -0.1745,0.021 -0.05,0.016 -0.093,0.04 -0.1268,0.071 -0.034,0.034 -0.058,0.077 -0.077,0.1295 -0.016,0.053 -0.024,0.1189 -0.024,0.1956 0,0.082 0.01,0.1559 0.026,0.222 0.018,0.066 0.04,0.1242 0.061,0.1744 0.021,0.048 0.042,0.09 0.061,0.1216 0.018,0.034 0.026,0.058 0.026,0.077 0,0.011 0,0.019 0,0.026 -0.01,0.01 -0.013,0.016 -0.024,0.021 -0.011,0.01 -0.024,0.011 -0.04,0.013 -0.016,0 -0.032,0.01 -0.053,0.01 -0.032,0 -0.055,0 -0.074,-0.01 -0.018,-0.01 -0.034,-0.016 -0.053,-0.034 -0.016,-0.018 -0.034,-0.05 -0.058,-0.095 -0.021,-0.045 -0.042,-0.095 -0.061,-0.1533 -0.019,-0.058 -0.032,-0.1216 -0.045,-0.1903 -0.011,-0.069 -0.018,-0.1401 -0.018,-0.2114 0,-0.1295 0.016,-0.2432 0.042,-0.333 0.029,-0.092 0.069,-0.1692 0.1216,-0.2247 0.055,-0.058 0.1215,-0.098 0.2008,-0.1242 0.079,-0.026 0.1744,-0.04 0.2802,-0.04 z m -0.7797,0.3356 v 0.2854 c 0,0.092 0.01,0.1718 0.021,0.2405 0.016,0.066 0.037,0.1243 0.066,0.1692 0.026,0.045 0.061,0.077 0.1004,0.098 0.04,0.021 0.087,0.032 0.1375,0.032 0.09,0 0.1612,-0.032 0.214,-0.09 0.05,-0.061 0.077,-0.1453 0.077,-0.2537 0,-0.087 -0.019,-0.1691 -0.061,-0.2458 -0.042,-0.074 -0.1057,-0.1533 -0.1929,-0.2352 z m -1.6333,-1.9452 c 0.024,0 0.042,0 0.058,0 0.013,0 0.026,0.01 0.034,0.011 0.01,0 0.016,0.01 0.018,0.013 0,0.01 0.01,0.011 0.01,0.019 0,0.01 -0.01,0.021 -0.011,0.037 0,0.013 -0.011,0.032 -0.018,0.05 -0.01,0.021 -0.013,0.045 -0.019,0.074 0,0.026 -0.01,0.058 -0.01,0.095 0,0.05 0.01,0.092 0.021,0.1295 0.016,0.034 0.04,0.063 0.071,0.085 0.032,0.021 0.074,0.037 0.1268,0.048 0.05,0.01 0.1137,0.013 0.1877,0.013 h 0.185 v -0.407 c 0,-0.013 0,-0.021 0.01,-0.029 0,-0.01 0.013,-0.013 0.024,-0.021 0.011,-0.01 0.024,-0.011 0.042,-0.013 0.016,0 0.034,-0.01 0.061,-0.01 0.045,0 0.077,0.01 0.098,0.019 0.021,0.013 0.029,0.029 0.029,0.05 v 0.407 h 1.5012 c 0.01,0 0.019,0 0.024,0.01 0.01,0.01 0.013,0.016 0.019,0.029 0,0.011 0.01,0.029 0.011,0.05 0,0.021 0,0.05 0,0.082 0,0.032 0,0.061 0,0.082 0,0.021 -0.01,0.037 -0.011,0.05 -0.01,0.013 -0.011,0.024 -0.019,0.029 0,0.01 -0.016,0.01 -0.024,0.01 h -1.5012 v 0.2563 c 0,0.024 -0.01,0.04 -0.029,0.05 -0.021,0.011 -0.053,0.016 -0.098,0.016 -0.026,0 -0.045,0 -0.061,0 -0.019,0 -0.032,-0.01 -0.042,-0.013 -0.011,-0.01 -0.018,-0.013 -0.024,-0.021 0,-0.01 -0.01,-0.016 -0.01,-0.029 v -0.2563 h -0.1771 c -0.1189,0 -0.222,-0.013 -0.3066,-0.037 -0.085,-0.024 -0.1559,-0.058 -0.2087,-0.1084 -0.056,-0.048 -0.095,-0.1083 -0.1216,-0.1823 -0.026,-0.074 -0.04,-0.1613 -0.04,-0.2617 0,-0.048 0,-0.095 0.013,-0.1401 0.01,-0.042 0.016,-0.079 0.026,-0.103 0.011,-0.024 0.019,-0.04 0.026,-0.048 0.01,-0.01 0.016,-0.016 0.029,-0.021 0.011,-0.01 0.026,-0.01 0.042,-0.011 0.019,0 0.04,0 0.063,0 z m 1.4827,-1.8289 c 0.05,0 0.085,0.013 0.1057,0.04 0.021,0.026 0.032,0.058 0.032,0.092 v 1.2025 c 0.095,0 0.1797,-0.01 0.2563,-0.029 0.077,-0.021 0.1401,-0.055 0.1956,-0.103 0.053,-0.048 0.095,-0.1084 0.1242,-0.185 0.029,-0.077 0.045,-0.1692 0.045,-0.2802 0,-0.087 -0.01,-0.1639 -0.021,-0.2326 -0.013,-0.069 -0.026,-0.1268 -0.045,-0.177 -0.016,-0.05 -0.029,-0.09 -0.045,-0.1216 -0.013,-0.032 -0.019,-0.058 -0.019,-0.074 0,-0.01 0,-0.018 0.01,-0.024 0,-0.01 0.013,-0.013 0.021,-0.019 0.01,0 0.021,-0.01 0.037,-0.01 0.016,0 0.034,-0.01 0.058,-0.01 0.016,0 0.032,0 0.042,0 0.013,0 0.024,0 0.032,0.01 0.011,0 0.018,0.01 0.026,0.011 0.01,0.01 0.016,0.011 0.021,0.019 0.01,0.01 0.019,0.029 0.034,0.066 0.016,0.037 0.032,0.084 0.048,0.1427 0.016,0.058 0.029,0.1242 0.04,0.2008 0.013,0.077 0.019,0.1586 0.019,0.2458 0,0.1507 -0.019,0.2828 -0.058,0.3965 -0.04,0.111 -0.098,0.2061 -0.1744,0.2854 -0.079,0.077 -0.1745,0.1348 -0.2907,0.1744 -0.1163,0.04 -0.2538,0.058 -0.407,0.058 -0.148,0 -0.2802,-0.021 -0.3965,-0.061 -0.1163,-0.04 -0.2167,-0.1004 -0.2986,-0.1771 -0.082,-0.077 -0.1427,-0.1691 -0.1877,-0.2775 -0.042,-0.1084 -0.066,-0.2273 -0.066,-0.3621 0,-0.1453 0.021,-0.2669 0.066,-0.3673 0.042,-0.1005 0.1005,-0.185 0.1718,-0.2485 0.074,-0.066 0.1586,-0.1136 0.259,-0.1427 0.098,-0.032 0.2009,-0.048 0.3119,-0.048 z m -0.092,0.3383 c -0.1639,-0.01 -0.2934,0.034 -0.3886,0.1163 -0.093,0.085 -0.14,0.2062 -0.14,0.3674 0,0.085 0.016,0.1559 0.045,0.2193 0.029,0.063 0.066,0.1163 0.1136,0.1586 0.05,0.042 0.1057,0.074 0.1692,0.098 0.063,0.024 0.1295,0.034 0.2008,0.037 z m 1.0228,-1.184 c 0.01,0 0.018,0 0.024,0.01 0.01,0.01 0.013,0.013 0.018,0.026 0.01,0.013 0.01,0.029 0.011,0.05 0,0.021 0.01,0.05 0.01,0.085 0,0.032 0,0.058 -0.01,0.082 0,0.021 0,0.037 -0.011,0.05 0,0.013 -0.011,0.021 -0.018,0.026 0,0.01 -0.016,0.01 -0.024,0.01 h -2.5399 c -0.011,0 -0.019,0 -0.026,-0.01 -0.01,-0.01 -0.013,-0.013 -0.019,-0.026 0,-0.013 -0.01,-0.029 -0.011,-0.05 0,-0.024 0,-0.05 0,-0.082 0,-0.034 0,-0.063 0,-0.085 0,-0.021 0.01,-0.037 0.011,-0.05 0.01,-0.013 0.011,-0.021 0.019,-0.026 0.01,-0.01 0.016,-0.01 0.026,-0.01 z m 0,-2.0958 c 0.011,0 0.019,0 0.026,0.01 0.01,0.01 0.013,0.013 0.018,0.026 0.01,0.013 0.01,0.032 0.011,0.053 0,0.024 0,0.053 0,0.087 0,0.037 0,0.069 0,0.092 0,0.024 -0.01,0.042 -0.011,0.058 0,0.016 -0.011,0.029 -0.018,0.04 -0.01,0.011 -0.019,0.021 -0.029,0.029 l -0.9462,0.7717 h 0.9488 c 0.01,0 0.018,0 0.024,0.01 0.01,0.01 0.013,0.013 0.018,0.026 0.01,0.013 0.01,0.029 0.011,0.05 0,0.021 0,0.05 0,0.085 0,0.032 0,0.058 0,0.082 0,0.021 -0.01,0.037 -0.011,0.05 0,0.013 -0.011,0.021 -0.018,0.026 -0.01,0.01 -0.016,0.01 -0.024,0.01 h -2.5398 c -0.011,0 -0.019,0 -0.026,-0.01 -0.01,-0.01 -0.013,-0.013 -0.018,-0.026 0,-0.013 -0.01,-0.029 -0.011,-0.05 0,-0.024 0,-0.05 0,-0.082 0,-0.034 0,-0.063 0,-0.085 0,-0.021 0.01,-0.037 0.011,-0.05 0.01,-0.013 0.011,-0.021 0.018,-0.026 0.01,-0.01 0.016,-0.01 0.026,-0.01 h 1.5461 l -0.7083,-0.6924 c -0.013,-0.011 -0.024,-0.021 -0.032,-0.034 -0.01,-0.011 -0.016,-0.026 -0.021,-0.042 0,-0.018 -0.011,-0.037 -0.013,-0.061 0,-0.024 0,-0.05 0,-0.082 0,-0.034 0,-0.063 0,-0.087 0,-0.021 0,-0.04 0.011,-0.055 0.01,-0.013 0.011,-0.024 0.016,-0.029 0.01,-0.01 0.018,-0.011 0.029,-0.011 0.016,0 0.029,0.01 0.045,0.013 0.016,0.011 0.034,0.024 0.053,0.045 l 0.621,0.6607 0.9013,-0.7426 c 0.021,-0.018 0.04,-0.029 0.053,-0.037 0.013,-0.01 0.024,-0.011 0.037,-0.011 z m 0,-0.6951 c 0.01,0 0.018,0 0.024,0.01 0.01,0.01 0.013,0.013 0.018,0.026 0.01,0.013 0.01,0.029 0.011,0.05 0,0.021 0.01,0.05 0.01,0.085 0,0.032 0,0.058 -0.01,0.082 0,0.021 0,0.037 -0.011,0.05 0,0.013 -0.011,0.021 -0.018,0.026 0,0.01 -0.016,0.01 -0.024,0.01 h -1.71 c -0.011,0 -0.019,0 -0.026,-0.01 -0.01,-0.01 -0.013,-0.013 -0.019,-0.026 0,-0.013 -0.01,-0.029 -0.011,-0.05 0,-0.024 -0.01,-0.05 -0.01,-0.082 0,-0.034 0,-0.063 0.01,-0.085 0,-0.021 0,-0.037 0.011,-0.05 0.01,-0.013 0.011,-0.021 0.019,-0.026 0.01,-0.01 0.016,-0.01 0.026,-0.01 z m -2.2888,-0.04 c 0.074,0 0.1242,0.016 0.1506,0.045 0.026,0.032 0.04,0.085 0.04,0.1665 0,0.077 -0.013,0.1321 -0.04,0.1612 -0.026,0.029 -0.074,0.042 -0.1453,0.042 -0.074,0 -0.1242,-0.013 -0.1507,-0.045 -0.026,-0.029 -0.04,-0.085 -0.04,-0.1639 0,-0.079 0.013,-0.1321 0.037,-0.1612 0.026,-0.029 0.077,-0.045 0.148,-0.045 z m 1.3585,-2.117 c 0.05,0 0.085,0.013 0.1057,0.04 0.021,0.026 0.032,0.058 0.032,0.092 v 1.2026 c 0.095,0 0.1797,-0.01 0.2563,-0.029 0.077,-0.021 0.1401,-0.056 0.1956,-0.1031 0.053,-0.048 0.095,-0.1083 0.1242,-0.185 0.029,-0.077 0.045,-0.1691 0.045,-0.2801 0,-0.087 -0.01,-0.1639 -0.021,-0.2326 -0.013,-0.069 -0.026,-0.1269 -0.045,-0.1771 -0.016,-0.05 -0.029,-0.09 -0.045,-0.1216 -0.013,-0.032 -0.019,-0.058 -0.019,-0.074 0,-0.01 0,-0.018 0.01,-0.024 0,-0.01 0.013,-0.013 0.021,-0.018 0.01,0 0.021,-0.01 0.037,-0.01 0.016,0 0.034,-0.01 0.058,-0.01 0.016,0 0.032,0 0.042,0 0.013,0 0.024,0 0.032,0.01 0.011,0 0.018,0.01 0.026,0.01 0.01,0.01 0.016,0.011 0.021,0.019 0.01,0.01 0.019,0.029 0.034,0.066 0.016,0.037 0.032,0.085 0.048,0.1427 0.016,0.058 0.029,0.1243 0.04,0.2009 0.013,0.077 0.019,0.1586 0.019,0.2458 0,0.1506 -0.019,0.2828 -0.058,0.3964 -0.04,0.111 -0.098,0.2062 -0.1744,0.2855 -0.079,0.077 -0.1745,0.1347 -0.2907,0.1744 -0.1163,0.04 -0.2538,0.058 -0.407,0.058 -0.148,0 -0.2802,-0.021 -0.3965,-0.061 -0.1163,-0.04 -0.2167,-0.1004 -0.2986,-0.177 -0.082,-0.077 -0.1427,-0.1692 -0.1877,-0.2775 -0.042,-0.1084 -0.066,-0.2273 -0.066,-0.3621 0,-0.1454 0.021,-0.2669 0.066,-0.3674 0.042,-0.1004 0.1005,-0.185 0.1718,-0.2484 0.074,-0.066 0.1586,-0.1137 0.259,-0.1427 0.098,-0.032 0.2009,-0.048 0.3119,-0.048 z m -0.092,0.3383 c -0.1639,-0.01 -0.2934,0.034 -0.3886,0.1163 -0.093,0.085 -0.14,0.2061 -0.14,0.3673 0,0.085 0.016,0.156 0.045,0.2194 0.029,0.063 0.066,0.1163 0.1136,0.1586 0.05,0.042 0.1057,0.074 0.1692,0.098 0.063,0.024 0.1295,0.034 0.2008,0.037 z m 1.0228,-3.5626 c 0.01,0 0.018,0 0.024,0.01 0.01,0.01 0.013,0.016 0.018,0.026 0.01,0.013 0.01,0.029 0.011,0.05 0,0.024 0.01,0.05 0.01,0.082 0,0.034 0,0.063 -0.01,0.084 0,0.021 0,0.04 -0.011,0.05 0,0.013 -0.011,0.024 -0.018,0.029 0,0.01 -0.016,0.01 -0.024,0.01 h -1.0413 c -0.071,0 -0.1375,0.01 -0.1956,0.021 -0.061,0.013 -0.111,0.034 -0.156,0.063 -0.042,0.029 -0.074,0.069 -0.098,0.1137 -0.024,0.047 -0.034,0.1004 -0.034,0.1638 0,0.077 0.029,0.1533 0.085,0.2326 0.055,0.077 0.1375,0.1639 0.2432,0.2564 h 1.1972 c 0.01,0 0.018,0 0.024,0.01 0.01,0.01 0.013,0.016 0.018,0.029 0.01,0.01 0.01,0.029 0.011,0.05 0,0.021 0.01,0.05 0.01,0.082 0,0.032 0,0.058 -0.01,0.079 0,0.024 0,0.04 -0.011,0.053 0,0.013 -0.011,0.021 -0.018,0.026 0,0.01 -0.016,0.01 -0.024,0.01 h -1.0413 c -0.071,0 -0.1374,0.01 -0.1956,0.021 -0.061,0.016 -0.111,0.04 -0.1559,0.069 -0.042,0.029 -0.074,0.066 -0.098,0.111 -0.024,0.047 -0.034,0.1004 -0.034,0.1638 0,0.077 0.029,0.1533 0.085,0.2326 0.055,0.079 0.1374,0.1639 0.2432,0.2564 h 1.1972 c 0.01,0 0.018,0 0.024,0.01 0.01,0.01 0.013,0.013 0.019,0.026 0,0.013 0.01,0.029 0.011,0.05 0,0.021 0.01,0.05 0.01,0.085 0,0.032 0,0.058 -0.01,0.082 0,0.021 0,0.037 -0.011,0.05 -0.01,0.013 -0.011,0.021 -0.019,0.026 0,0.01 -0.016,0.01 -0.024,0.01 h -1.71 c -0.011,0 -0.018,0 -0.026,-0.01 -0.01,-0.01 -0.013,-0.013 -0.019,-0.026 0,-0.011 -0.011,-0.026 -0.013,-0.045 0,-0.021 0,-0.045 0,-0.077 0,-0.029 0,-0.053 0,-0.074 0,-0.018 0.01,-0.034 0.013,-0.045 0.01,-0.011 0.011,-0.019 0.019,-0.024 0.01,-0.01 0.016,-0.01 0.026,-0.01 h 0.2247 c -0.1084,-0.1031 -0.185,-0.2035 -0.2352,-0.2987 -0.05,-0.098 -0.077,-0.1955 -0.077,-0.2933 0,-0.077 0.01,-0.1454 0.026,-0.2062 0.016,-0.058 0.04,-0.1136 0.069,-0.1585 0.029,-0.045 0.066,-0.085 0.1057,-0.119 0.042,-0.032 0.087,-0.058 0.1374,-0.079 -0.061,-0.061 -0.1136,-0.1189 -0.1559,-0.1744 -0.045,-0.055 -0.079,-0.1083 -0.1057,-0.1586 -0.026,-0.05 -0.045,-0.1004 -0.058,-0.148 -0.011,-0.048 -0.018,-0.098 -0.018,-0.1453 0,-0.119 0.021,-0.2167 0.058,-0.296 0.04,-0.082 0.09,-0.1454 0.1559,-0.1956 0.063,-0.05 0.1401,-0.085 0.2273,-0.1057 0.085,-0.021 0.1771,-0.032 0.2748,-0.032 z"
       id="path59515" /><path
       style="fill:#000000;fill-opacity:1;fill-rule:nonzero;stroke:none;stroke-width:0.264583"
       d="m 1539.2975,639.7793 c 0.2537,0.1295 0.5153,0.2247 0.7849,0.2881 0.2669,0.063 0.5365,0.092 0.8061,0.092 0.2722,0 0.5418,-0.032 0.8114,-0.095 0.2669,-0.063 0.5285,-0.1586 0.7849,-0.28279 0.016,-0.01 0.029,-0.011 0.04,-0.011 0.011,0 0.018,0.01 0.026,0.013 0.01,0.011 0.011,0.024 0.016,0.045 0,0.019 0,0.045 0,0.079 0,0.024 0,0.045 0,0.063 0,0.018 -0.01,0.032 -0.01,0.045 0,0.013 -0.01,0.024 -0.013,0.032 -0.01,0.01 -0.011,0.016 -0.019,0.019 -0.1295,0.074 -0.259,0.1374 -0.3911,0.1929 -0.1322,0.055 -0.267,0.1031 -0.4044,0.1401 -0.1374,0.04 -0.2749,0.066 -0.4149,0.085 -0.1401,0.021 -0.2802,0.029 -0.4229,0.029 -0.1454,0 -0.2854,-0.011 -0.4255,-0.032 -0.1374,-0.021 -0.2775,-0.05 -0.4149,-0.09 -0.1375,-0.037 -0.2723,-0.085 -0.4044,-0.1401 -0.1348,-0.055 -0.2643,-0.1189 -0.3964,-0.1876 0,0 -0.01,-0.01 -0.013,-0.011 0,-0.01 -0.01,-0.013 -0.011,-0.026 -0.01,-0.011 -0.01,-0.024 -0.01,-0.042 0,-0.021 0,-0.045 0,-0.074 0,-0.032 0,-0.056 0,-0.077 0,-0.019 0.01,-0.032 0.013,-0.045 0.01,-0.011 0.016,-0.016 0.026,-0.016 0.011,0 0.021,0 0.032,0.01 z m 0.9382,-2.1011 c 0.045,0 0.077,0.01 0.095,0.018 0.021,0.013 0.032,0.029 0.032,0.05 v 0.2617 c 0.045,-0.048 0.095,-0.082 0.1506,-0.1004 0.056,-0.019 0.111,-0.029 0.1718,-0.029 0.098,0 0.185,0.018 0.2617,0.053 0.077,0.032 0.14,0.082 0.1929,0.14541 0.053,0.061 0.092,0.1374 0.1216,0.2247 0.026,0.084 0.04,0.18229 0.04,0.288 0,0.074 -0.01,0.1454 -0.026,0.21149 -0.019,0.069 -0.042,0.1189 -0.069,0.1559 0.021,0.024 0.048,0.045 0.077,0.061 0.029,0.016 0.063,0.024 0.1004,0.024 0.045,0 0.082,-0.024 0.111,-0.066 0.029,-0.045 0.045,-0.1031 0.048,-0.1771 l 0.018,-0.4783 c 0,-0.09 0.013,-0.1745 0.034,-0.2485 0.021,-0.077 0.053,-0.1427 0.09,-0.1982 0.04,-0.055 0.087,-0.098 0.1427,-0.1295 0.055,-0.032 0.1216,-0.048 0.1956,-0.048 0.079,0 0.1533,0.019 0.2246,0.053 0.071,0.037 0.1348,0.09 0.1877,0.1612 0.053,0.074 0.095,0.1665 0.1268,0.2775 0.032,0.1137 0.048,0.2458 0.048,0.3991 0,0.148 -0.013,0.2748 -0.034,0.3779 -0.024,0.1031 -0.055,0.1877 -0.098,0.2537 -0.04,0.066 -0.087,0.1163 -0.1453,0.1454 -0.055,0.029 -0.1163,0.045 -0.1824,0.045 -0.042,0 -0.082,-0.01 -0.1216,-0.016 -0.04,-0.011 -0.077,-0.029 -0.1136,-0.05 -0.034,-0.024 -0.069,-0.05 -0.1004,-0.085 -0.032,-0.032 -0.063,-0.071 -0.095,-0.1137 -0.032,0.066 -0.071,0.1163 -0.1216,0.148 -0.048,0.032 -0.098,0.048 -0.1533,0.048 -0.079,0 -0.148,-0.018 -0.2088,-0.053 -0.061,-0.032 -0.1136,-0.074 -0.1638,-0.1243 -0.045,0.042 -0.098,0.074 -0.1586,0.098 -0.058,0.026 -0.1295,0.037 -0.2141,0.037 -0.095,0 -0.1823,-0.016 -0.2616,-0.053 -0.077,-0.034 -0.1427,-0.085 -0.1956,-0.1454 -0.053,-0.063 -0.092,-0.1374 -0.1216,-0.2246 -0.029,-0.087 -0.042,-0.1824 -0.042,-0.2855 0,-0.056 0,-0.1083 0.01,-0.1559 0.01,-0.048 0.013,-0.092 0.024,-0.1348 v -0.5524 c 0,-0.024 0.011,-0.042 0.032,-0.053 0.021,-0.011 0.053,-0.016 0.095,-0.016 z m 0.4493,0.5233 c -0.1163,0 -0.2062,0.034 -0.2722,0.1031 -0.063,0.069 -0.098,0.1639 -0.098,0.2907 0,0.066 0.011,0.1216 0.032,0.1692 0.018,0.05 0.048,0.09 0.082,0.1215 0.037,0.032 0.077,0.056 0.1242,0.071 0.045,0.016 0.095,0.021 0.1453,0.021 0.111,0 0.2009,-0.032 0.2643,-0.1004 0.066,-0.069 0.098,-0.1665 0.098,-0.2881 0,-0.066 -0.011,-0.1242 -0.029,-0.1744 -0.021,-0.048 -0.048,-0.087 -0.082,-0.1189 -0.034,-0.032 -0.074,-0.055 -0.1215,-0.071 -0.045,-0.016 -0.092,-0.024 -0.1428,-0.024 z m 1.3558,-0.1691 c -0.074,0 -0.1295,0.032 -0.1692,0.098 -0.042,0.063 -0.063,0.1506 -0.063,0.259 l -0.016,0.4757 c 0.032,0.042 0.061,0.079 0.09,0.1057 0.029,0.029 0.055,0.05 0.082,0.066 0.026,0.016 0.05,0.026 0.077,0.034 0.024,0.01 0.05,0.01 0.077,0.01 0.085,0 0.1454,-0.045 0.1877,-0.1348 0.042,-0.087 0.063,-0.2141 0.063,-0.37269 0,-0.10301 -0.01,-0.1876 -0.026,-0.2563 -0.018,-0.066 -0.042,-0.1216 -0.074,-0.16391 -0.029,-0.042 -0.066,-0.074 -0.1031,-0.092 -0.04,-0.016 -0.082,-0.026 -0.1242,-0.026 z m -1.1444,-1.451 c 0.1427,0 0.2828,0.011 0.4229,0.029 0.1401,0.019 0.2775,0.048 0.4149,0.085 0.1374,0.037 0.2722,0.084 0.4044,0.14 0.1321,0.055 0.2616,0.119 0.3911,0.1903 0.01,0.01 0.013,0.011 0.018,0.019 0.01,0.01 0.01,0.018 0.013,0.032 0,0.013 0,0.029 0.01,0.048 0,0.016 0,0.037 0,0.061 0,0.037 0,0.063 0,0.085 0,0.018 -0.01,0.032 -0.016,0.042 -0.01,0.01 -0.016,0.013 -0.026,0.011 -0.011,0 -0.024,0 -0.04,-0.011 -0.2563,-0.1243 -0.518,-0.2194 -0.7849,-0.2828 -0.267,-0.063 -0.5392,-0.095 -0.8114,-0.095 -0.2696,0 -0.5391,0.032 -0.8061,0.095 -0.2696,0.063 -0.5312,0.1585 -0.7849,0.2881 -0.011,0.01 -0.021,0.01 -0.032,0.01 -0.011,0 -0.018,-0.01 -0.026,-0.018 -0.01,-0.011 -0.011,-0.026 -0.013,-0.045 0,-0.018 0,-0.045 0,-0.074 0,-0.029 0,-0.053 0,-0.071 0,-0.019 0,-0.034 0.01,-0.048 0,-0.011 0.01,-0.018 0.011,-0.024 0,-0.01 0.01,-0.011 0.013,-0.013 0.259,-0.1401 0.5259,-0.2485 0.8008,-0.3277 0.2748,-0.079 0.555,-0.119 0.8404,-0.119 z"
       id="path59517" /><path
       style="fill:#000000;fill-opacity:1;fill-rule:evenodd;stroke:none;stroke-width:0.264583"
       d="m 1568.9422,648.70885 c 0.4229,0 0.7612,0.333 0.7612,0.74001 0,0.40965 -0.3383,0.74001 -0.7612,0.74001 -0.4202,0 -0.7611,-0.33036 -0.7611,-0.74001 0,-0.40701 0.3409,-0.74001 0.7611,-0.74001 z"
       id="path59519" /><path
       style="fill:#000000;fill-opacity:1;fill-rule:evenodd;stroke:none;stroke-width:0.264583"
       d="m 1588.7111,638.85611 c 0.4123,0 0.74,0.33301 0.74,0.74002 0,0.41229 -0.3277,0.74001 -0.74,0.74001 -0.407,0 -0.74,-0.32772 -0.74,-0.74001 0,-0.40701 0.333,-0.74002 0.74,-0.74002 z"
       id="path59521" /><path
       style="fill:#000000;fill-opacity:1;fill-rule:evenodd;stroke:none;stroke-width:0.264583"
       d="m 1608.5011,628.9611 c 0.4123,0 0.7401,0.333 0.7401,0.74001 0,0.41229 -0.3278,0.74001 -0.7401,0.74001 -0.407,0 -0.74,-0.32772 -0.74,-0.74001 0,-0.40701 0.333,-0.74001 0.74,-0.74001 z"
       id="path59523" /></g></svg>
