<?xml version="1.0" encoding="UTF-8" standalone="no"?>

<svg
   viewBox="0 0 90.27655 76.202042"
   version="1.1"
   id="svg5"
   inkscape:version="1.2.2 (732a01da63, 2022-12-09)"
   sodipodi:docname="kwiecień 2013 - zad. 17.svg"
   xmlns:inkscape="http://www.inkscape.org/namespaces/inkscape"
   xmlns:sodipodi="http://sodipodi.sourceforge.net/DTD/sodipodi-0.dtd"
   xmlns="http://www.w3.org/2000/svg"
   xmlns:svg="http://www.w3.org/2000/svg">
  <sodipodi:namedview
     id="namedview7"
     pagecolor="#ffffff"
     bordercolor="#000000"
     borderopacity="0.25"
     inkscape:showpageshadow="2"
     inkscape:pageopacity="0.0"
     inkscape:pagecheckerboard="0"
     inkscape:deskcolor="#d1d1d1"
     inkscape:document-units="mm"
     showgrid="false"
     inkscape:zoom="1.829812"
     inkscape:cx="60.935221"
     inkscape:cy="161.492"
     inkscape:window-width="1958"
     inkscape:window-height="1368"
     inkscape:window-x="2553"
     inkscape:window-y="127"
     inkscape:window-maximized="0"
     inkscape:current-layer="layer1" />
  <defs
     id="defs2">
    <clipPath
       clipPathUnits="userSpaceOnUse"
       id="clipEmfPath1">
      <path
         d="M 0,0 H 601.09294 V 344.25796 H 0 Z"
         id="path278" />
    </clipPath>
    <pattern
       id="EMFhbasepattern"
       patternUnits="userSpaceOnUse"
       width="6"
       height="6"
       x="0"
       y="0" />
    <clipPath
       clipPathUnits="userSpaceOnUse"
       id="clipEmfPath1-0">
      <path
         d="M 0,0 H 601.09294 V 281.60749 H 0 Z"
         id="path697" />
    </clipPath>
    <clipPath
       clipPathUnits="userSpaceOnUse"
       id="clipEmfPath2">
      <path
         d="m 316.92829,14.54386 h 52.58165 v 62.330828 h -52.58165 z"
         id="path700" />
    </clipPath>
    <clipPath
       clipPathUnits="userSpaceOnUse"
       id="clipEmfPath3">
      <path
         d="m 318.52734,15.34375 v 60.732422 h 24.45118 V 15.34375 Z"
         id="path703" />
    </clipPath>
    <clipPath
       clipPathUnits="userSpaceOnUse"
       id="clipEmfPath4">
      <path
         d="m 343.29883,15.34375 v 29.886719 h 24.61328 V 15.34375 Z"
         id="path706" />
    </clipPath>
    <clipPath
       clipPathUnits="userSpaceOnUse"
       id="clipEmfPath5">
      <path
         d="m 342.97852,46.029297 v 30.046875 h 24.45312 V 46.029297 Z"
         id="path709" />
    </clipPath>
    <pattern
       id="EMFhbasepattern-6"
       patternUnits="userSpaceOnUse"
       width="6"
       height="6"
       x="0"
       y="0" />
    <clipPath
       clipPathUnits="userSpaceOnUse"
       id="clipEmfPath1-4">
      <path
         d="M 0,0 H 601.09294 V 221.51418 H 0 Z"
         id="path1547" />
    </clipPath>
    <pattern
       id="EMFhbasepattern-7"
       patternUnits="userSpaceOnUse"
       width="6"
       height="6"
       x="0"
       y="0" />
    <clipPath
       clipPathUnits="userSpaceOnUse"
       id="clipEmfPath1-6">
      <path
         d="M 0,0 H 686.11858 V 297.42993 H 0 Z"
         id="path1856" />
    </clipPath>
    <pattern
       id="EMFhbasepattern-0"
       patternUnits="userSpaceOnUse"
       width="6"
       height="6"
       x="0"
       y="0" />
    <clipPath
       clipPathUnits="userSpaceOnUse"
       id="clipEmfPath1-5">
      <path
         d="M -236.05804,0 H 450.06055 V 160.46193 H -236.05804 Z"
         id="path2132" />
    </clipPath>
    <pattern
       id="EMFhbasepattern-4"
       patternUnits="userSpaceOnUse"
       width="6"
       height="6"
       x="0"
       y="0" />
    <clipPath
       clipPathUnits="userSpaceOnUse"
       id="clipEmfPath1-7">
      <path
         d="M 0,0 H 686.11858 V 194.98362 H 0 Z"
         id="path2256" />
    </clipPath>
    <pattern
       id="EMFhbasepattern-1"
       patternUnits="userSpaceOnUse"
       width="6"
       height="6"
       x="0"
       y="0" />
    <clipPath
       clipPathUnits="userSpaceOnUse"
       id="clipEmfPath1-00">
      <path
         d="M 0,0 H 686.11858 V 131.53403 H 0 Z"
         id="path2517" />
    </clipPath>
    <pattern
       id="EMFhbasepattern-8"
       patternUnits="userSpaceOnUse"
       width="6"
       height="6"
       x="0"
       y="0" />
    <clipPath
       clipPathUnits="userSpaceOnUse"
       id="clipEmfPath1-9">
      <path
         d="M 0,0 H 686.11858 V 265.94487 H 0 Z"
         id="path3071" />
    </clipPath>
    <clipPath
       clipPathUnits="userSpaceOnUse"
       id="clipEmfPath2-4">
      <path
         d="M 188.75053,44.590516 H 242.1313 V 69.842492 H 188.75053 Z"
         id="path3074" />
    </clipPath>
    <clipPath
       clipPathUnits="userSpaceOnUse"
       id="clipEmfPath3-9">
      <path
         d="m 190.18945,49.865234 v 19.337891 h 25.41211 V 49.865234 Z"
         id="path3077" />
    </clipPath>
    <clipPath
       clipPathUnits="userSpaceOnUse"
       id="clipEmfPath4-8">
      <path
         d="m 216.24023,49.865234 v 19.337891 h 24.61329 V 49.865234 Z"
         id="path3080" />
    </clipPath>
    <clipPath
       clipPathUnits="userSpaceOnUse"
       id="clipEmfPath5-2">
      <path
         d="m 123.06343,110.91691 h 53.70041 v 25.4118 h -53.70041 z"
         id="path3083" />
    </clipPath>
    <clipPath
       clipPathUnits="userSpaceOnUse"
       id="clipEmfPath6">
      <path
         d="m 124.50195,116.19141 v 19.49804 h 24.77149 v -19.49804 z"
         id="path3086" />
    </clipPath>
    <clipPath
       clipPathUnits="userSpaceOnUse"
       id="clipEmfPath7">
      <path
         d="m 149.91406,116.19141 v 19.49804 h 25.57032 v -19.49804 z"
         id="path3089" />
    </clipPath>
    <pattern
       id="EMFhbasepattern-70"
       patternUnits="userSpaceOnUse"
       width="6"
       height="6"
       x="0"
       y="0" />
    <clipPath
       clipPathUnits="userSpaceOnUse"
       id="clipEmfPath1-02">
      <path
         d="M 0,0.79911319 H 686.11858 V 226.30885 H 0 Z"
         id="path3695" />
    </clipPath>
    <pattern
       id="EMFhbasepattern-64"
       patternUnits="userSpaceOnUse"
       width="6"
       height="6"
       x="0"
       y="0" />
    <clipPath
       clipPathUnits="userSpaceOnUse"
       id="clipEmfPath1-69">
      <path
         d="M 0,0 H 686.11858 V 139.84481 H 0 Z"
         id="path4322" />
    </clipPath>
    <clipPath
       clipPathUnits="userSpaceOnUse"
       id="clipEmfPath2-9">
      <path
         d="m 238.45537,108.67939 h 13.26528 v 15.66262 h -13.26528 z"
         id="path4325" />
    </clipPath>
    <pattern
       id="EMFhbasepattern-3"
       patternUnits="userSpaceOnUse"
       width="6"
       height="6"
       x="0"
       y="0" />
    <clipPath
       clipPathUnits="userSpaceOnUse"
       id="clipEmfPath1-78">
      <path
         d="M 0,0 H 686.11858 V 122.10449 H 0 Z"
         id="path4464" />
    </clipPath>
    <pattern
       id="EMFhbasepattern-81"
       patternUnits="userSpaceOnUse"
       width="6"
       height="6"
       x="0"
       y="0" />
    <clipPath
       clipPathUnits="userSpaceOnUse"
       id="clipEmfPath1-3">
      <path
         d="M 0,0 H 686.11858 V 166.21554 H 0 Z"
         id="path4666" />
    </clipPath>
    <pattern
       id="EMFhbasepattern-2"
       patternUnits="userSpaceOnUse"
       width="6"
       height="6"
       x="0"
       y="0" />
    <clipPath
       clipPathUnits="userSpaceOnUse"
       id="clipEmfPath1-786">
      <path
         d="M 0,0 H 686.11858 V 207.28996 H 0 Z"
         id="path4873" />
    </clipPath>
    <pattern
       id="EMFhbasepattern-9"
       patternUnits="userSpaceOnUse"
       width="6"
       height="6"
       x="0"
       y="0" />
    <clipPath
       clipPathUnits="userSpaceOnUse"
       id="clipEmfPath1-8">
      <path
         d="M 0,0 H 686.11858 V 171.96916 H 0 Z"
         id="path5000" />
    </clipPath>
    <pattern
       id="EMFhbasepattern-5"
       patternUnits="userSpaceOnUse"
       width="6"
       height="6"
       x="0"
       y="0" />
  </defs>
  <g
     inkscape:label="Warstwa 1"
     inkscape:groupmode="layer"
     id="layer1"
     transform="translate(-275.55585,-133.41846)">
    <text
       xml:space="preserve"
       style="font-style:normal;font-variant:normal;font-weight:400;font-size:3.88607px;line-height:125%;font-family:Calibri;text-align:start;letter-spacing:0px;word-spacing:0px;text-anchor:start;fill:#000000;fill-opacity:1;stroke:none;stroke-width:0.264583"
       x="276.28012"
       y="136.80325"
       id="text4885"><tspan
         sodipodi:role="line"
         x="276.28012"
         y="136.80325"
         id="tspan4883"
         style="stroke-width:0.264583"><tspan
           dx="0"
           dy="0"
           style="font-style:normal;font-variant:normal;font-weight:400;font-size:3.88607px;font-family:Calibri;fill:#181717;stroke-width:0.264583"
           id="tspan4879">I</tspan><tspan
           dx="0"
           dy="0"
           style="font-style:normal;font-variant:normal;font-weight:400;font-size:3.88607px;font-family:Calibri;fill:#181717;stroke-width:0.264583"
           id="tspan4881"> </tspan></tspan></text>
    <text
       xml:space="preserve"
       style="font-style:normal;font-variant:normal;font-weight:400;font-size:3.88607px;line-height:125%;font-family:Calibri;text-align:start;letter-spacing:0px;word-spacing:0px;text-anchor:start;fill:#000000;fill-opacity:1;stroke:none;stroke-width:0.264583"
       x="319.97855"
       y="136.51407"
       id="text4893"><tspan
         sodipodi:role="line"
         x="319.97855"
         y="136.51407"
         id="tspan4891"
         style="stroke-width:0.264583"><tspan
           dx="0"
           dy="0"
           style="font-style:normal;font-variant:normal;font-weight:400;font-size:3.88607px;font-family:Calibri;fill:#181717;stroke-width:0.264583"
           id="tspan4887">II</tspan><tspan
           dx="0"
           dy="0"
           style="font-style:normal;font-variant:normal;font-weight:400;font-size:3.88607px;font-family:Calibri;fill:#181717;stroke-width:0.264583"
           id="tspan4889"> </tspan></tspan></text>
    <text
       xml:space="preserve"
       style="font-style:normal;font-variant:normal;font-weight:400;font-size:3.88607px;line-height:125%;font-family:Calibri;text-align:start;letter-spacing:0px;word-spacing:0px;text-anchor:start;fill:#000000;fill-opacity:1;stroke:none;stroke-width:0.264583"
       x="397.827"
       y="176.39413"
       id="text4899"><tspan
         sodipodi:role="line"
         x="397.827"
         y="176.39413"
         id="tspan4897"
         style="stroke-width:0.264583"><tspan
           dx="0"
           dy="0"
           style="font-style:normal;font-variant:normal;font-weight:400;font-size:3.88607px;font-family:Calibri;fill:#181717;stroke-width:0.264583"
           id="tspan4895"> </tspan></tspan></text>
    <path
       style="fill:none;stroke:#000000;stroke-width:0.211432px;stroke-linecap:round;stroke-linejoin:round;stroke-miterlimit:4;stroke-dasharray:none;stroke-opacity:1"
       d="m 277.86047,153.55537 h 32.94111 l -9.27923,-19.9169 -23.66188,19.9169"
       id="path4901" />
    <path
       style="fill:none;stroke:#000000;stroke-width:0.211432px;stroke-linecap:round;stroke-linejoin:round;stroke-miterlimit:4;stroke-dasharray:none;stroke-opacity:1"
       d="m 289.91209,153.55537 c 0,-1.41131 -0.24579,-2.81205 -0.72944,-4.13878 -0.48365,-1.32674 -1.19459,-2.56097 -2.10375,-3.64192"
       id="path4903" />
    <path
       style="fill:#000000;fill-opacity:1;fill-rule:nonzero;stroke:none;stroke-width:0.264583"
       d="m 284.4915,152.60657 c 0,0.10043 -0.0159,0.19293 -0.0502,0.27486 -0.037,0.0819 -0.0846,0.15064 -0.15065,0.20879 -0.0661,0.0581 -0.14536,0.10307 -0.2405,0.13479 -0.0951,0.0317 -0.2035,0.0476 -0.32243,0.0476 -0.0714,0 -0.14008,-0.005 -0.20351,-0.0185 -0.0634,-0.0132 -0.11893,-0.0264 -0.16914,-0.0423 -0.0502,-0.0159 -0.0899,-0.0344 -0.12158,-0.0529 -0.0344,-0.0159 -0.0529,-0.0291 -0.0634,-0.037 -0.008,-0.008 -0.0132,-0.0159 -0.0185,-0.0238 -0.005,-0.008 -0.008,-0.0185 -0.0106,-0.0291 -0.005,-0.0132 -0.005,-0.0264 -0.008,-0.0423 -0.003,-0.0185 -0.003,-0.037 -0.003,-0.0608 0,-0.0423 0.003,-0.0714 0.0106,-0.0872 0.0106,-0.0159 0.0211,-0.0238 0.037,-0.0238 0.008,0 0.0291,0.0106 0.0608,0.0291 0.0291,0.0185 0.0687,0.037 0.11629,0.0582 0.0476,0.0211 0.10307,0.0396 0.1665,0.0581 0.0634,0.0185 0.13479,0.0291 0.21407,0.0291 0.074,0 0.14272,-0.0106 0.19822,-0.0291 0.0582,-0.0211 0.10572,-0.0476 0.14536,-0.0819 0.0396,-0.037 0.0687,-0.0793 0.0872,-0.12686 0.0211,-0.0476 0.0291,-0.10043 0.0291,-0.15857 0,-0.0634 -0.0106,-0.11893 -0.037,-0.16915 -0.0238,-0.0502 -0.0608,-0.0951 -0.10836,-0.13214 -0.0476,-0.0344 -0.10572,-0.0634 -0.17708,-0.0819 -0.0687,-0.0212 -0.15064,-0.0291 -0.23786,-0.0291 h -0.21407 c -0.008,0 -0.0185,-0.003 -0.0264,-0.008 -0.008,-0.003 -0.0159,-0.0106 -0.0238,-0.0185 -0.005,-0.0106 -0.0106,-0.0211 -0.0159,-0.037 -0.003,-0.0132 -0.005,-0.0343 -0.005,-0.0581 0,-0.0211 0.003,-0.0396 0.005,-0.0529 0.003,-0.0159 0.008,-0.0264 0.0132,-0.0344 0.008,-0.008 0.0132,-0.0159 0.0211,-0.0185 0.008,-0.005 0.0185,-0.008 0.0291,-0.008 h 0.18765 c 0.074,0 0.14008,-0.008 0.20086,-0.0291 0.0581,-0.0185 0.10836,-0.0476 0.148,-0.0819 0.0423,-0.037 0.074,-0.0819 0.0951,-0.13214 0.0211,-0.0502 0.0317,-0.10836 0.0317,-0.16915 0,-0.0476 -0.008,-0.0899 -0.0211,-0.13214 -0.0159,-0.0423 -0.037,-0.0793 -0.0661,-0.10836 -0.0291,-0.0317 -0.0661,-0.0555 -0.111,-0.074 -0.0449,-0.0185 -0.0978,-0.0264 -0.15593,-0.0264 -0.0661,0 -0.12686,0.0106 -0.17972,0.0291 -0.0555,0.0211 -0.10308,0.0423 -0.14536,0.0661 -0.0423,0.0212 -0.0793,0.0449 -0.10572,0.0634 -0.0291,0.0212 -0.0476,0.0291 -0.0581,0.0291 -0.008,0 -0.0159,0 -0.0211,-0.003 -0.008,-0.003 -0.0132,-0.008 -0.0159,-0.0185 -0.005,-0.008 -0.008,-0.0185 -0.008,-0.0344 -0.003,-0.0159 -0.003,-0.037 -0.003,-0.0608 0,-0.0185 0,-0.0317 0,-0.0449 0.003,-0.0132 0.005,-0.0264 0.008,-0.0344 0.003,-0.0106 0.008,-0.0185 0.0106,-0.0264 0.005,-0.008 0.0132,-0.0185 0.0238,-0.0291 0.0106,-0.0106 0.0317,-0.0264 0.0634,-0.0476 0.0344,-0.0211 0.074,-0.0396 0.12157,-0.0608 0.0476,-0.0211 0.10308,-0.037 0.16387,-0.0502 0.0634,-0.0132 0.1295,-0.0212 0.20085,-0.0212 0.10044,0 0.1903,0.0132 0.26694,0.0396 0.074,0.0264 0.13743,0.0634 0.19029,0.111 0.0502,0.0476 0.0872,0.10571 0.11364,0.17179 0.0238,0.0687 0.037,0.14271 0.037,0.222 0,0.0714 -0.008,0.13479 -0.0264,0.19557 -0.0185,0.0608 -0.0449,0.11365 -0.0793,0.15858 -0.0344,0.0476 -0.0767,0.0872 -0.12686,0.11893 -0.0502,0.0317 -0.10836,0.0555 -0.17443,0.0687 v 0.003 c 0.074,0.008 0.14271,0.0264 0.20614,0.0581 0.0608,0.0291 0.11365,0.0661 0.15858,0.11365 0.0449,0.0449 0.0793,0.0978 0.10571,0.15857 0.0264,0.0608 0.037,0.12686 0.037,0.19822 z m 1.78396,-1.45888 c 0,0.0211 -0.003,0.0396 -0.003,0.0555 -0.003,0.0185 -0.005,0.0344 -0.008,0.0502 -0.003,0.0132 -0.005,0.0291 -0.0106,0.0423 -0.005,0.0159 -0.0106,0.0317 -0.0185,0.0476 l -0.7823,1.83946 c -0.005,0.0132 -0.0132,0.0238 -0.0211,0.0344 -0.008,0.008 -0.0185,0.0159 -0.0317,0.0185 -0.0132,0.005 -0.0291,0.0106 -0.0502,0.0106 -0.0185,0.003 -0.0449,0.003 -0.074,0.003 -0.037,0 -0.0661,0 -0.0872,-0.005 -0.0211,-0.003 -0.037,-0.008 -0.0476,-0.0159 -0.0106,-0.008 -0.0132,-0.0159 -0.0132,-0.0264 0.003,-0.0106 0.005,-0.0238 0.0132,-0.0396 l 0.82194,-1.88175 h -1.0413 c -0.0238,0 -0.0396,-0.0106 -0.0502,-0.0344 -0.0106,-0.0211 -0.0159,-0.0529 -0.0159,-0.0951 0,-0.0211 0.003,-0.0396 0.005,-0.0555 0.003,-0.0159 0.008,-0.0317 0.0132,-0.0423 0.005,-0.0106 0.0106,-0.0185 0.0185,-0.0238 0.008,-0.005 0.0185,-0.008 0.0291,-0.008 h 1.26595 c 0.0159,0 0.0291,0.003 0.0396,0.005 0.0132,0.005 0.0211,0.0106 0.0264,0.0212 0.008,0.0106 0.0132,0.0238 0.0159,0.0396 0.003,0.0159 0.005,0.037 0.005,0.0608 z"
       id="path4905" />
    <path
       style="fill:#000000;fill-opacity:1;fill-rule:nonzero;stroke:none;stroke-width:0.264583"
       d="m 287.4542,150.73539 c 0,0.0846 -0.0396,0.15593 -0.12158,0.21408 -0.0819,0.0581 -0.18236,0.0872 -0.29865,0.0872 -0.11628,0 -0.21407,-0.0291 -0.29865,-0.0872 -0.0819,-0.0582 -0.12157,-0.1295 -0.12157,-0.21408 0,-0.0819 0.0396,-0.15064 0.12157,-0.20879 0.0819,-0.0608 0.17972,-0.0899 0.29865,-0.0899 0.11365,0 0.21408,0.0291 0.29601,0.0899 0.0819,0.0581 0.12422,0.12686 0.12422,0.20879 z m -0.71359,0 c 0,0.0608 0.0291,0.10836 0.0846,0.15065 0.0582,0.0396 0.12951,0.0608 0.20879,0.0608 0.0846,0 0.15329,-0.0211 0.20879,-0.0608 0.0555,-0.0423 0.0846,-0.0899 0.0846,-0.15065 0,-0.0581 -0.0291,-0.10571 -0.0872,-0.148 -0.0555,-0.0396 -0.12686,-0.0608 -0.20879,-0.0608 -0.0793,0 -0.148,0.0211 -0.20615,0.0634 -0.0555,0.0396 -0.0846,0.0899 -0.0846,0.14536 z"
       id="path4907" />
    <path
       style="fill:none;stroke:#000000;stroke-width:0.211432px;stroke-linecap:round;stroke-linejoin:round;stroke-miterlimit:4;stroke-dasharray:none;stroke-opacity:1"
       d="m 301.45628,153.55537 c 0.003,-1.78396 0.51008,-3.53092 1.46945,-5.03737 0.95938,-1.50645 2.3284,-2.70633 3.94321,-3.4622"
       id="path4909" />
    <path
       style="fill:#000000;fill-opacity:1;fill-rule:nonzero;stroke:none;stroke-width:0.264583"
       d="m 304.90527,152.52199 c 0,0.0978 -0.0159,0.19029 -0.0449,0.28015 -0.0291,0.0925 -0.074,0.17179 -0.13479,0.24051 -0.0608,0.0687 -0.13743,0.12421 -0.22993,0.1665 -0.0925,0.0423 -0.20087,0.0634 -0.32772,0.0634 -0.0925,0 -0.17179,-0.0132 -0.24051,-0.0344 -0.0687,-0.0238 -0.1295,-0.0555 -0.18236,-0.0978 -0.0502,-0.0423 -0.0951,-0.0951 -0.12686,-0.15593 -0.0344,-0.0608 -0.0634,-0.13214 -0.0846,-0.21143 -0.0185,-0.0793 -0.0344,-0.16386 -0.0423,-0.259 -0.0106,-0.0925 -0.0159,-0.19294 -0.0159,-0.3013 0,-0.0951 0.005,-0.19028 0.0159,-0.28807 0.0106,-0.0978 0.0291,-0.19029 0.0555,-0.28015 0.0238,-0.0899 0.0608,-0.17443 0.10308,-0.25636 0.0449,-0.0793 0.10043,-0.148 0.1665,-0.20615 0.0661,-0.0581 0.148,-0.10571 0.2405,-0.14007 0.0925,-0.0344 0.20087,-0.0502 0.32244,-0.0502 0.0423,0 0.0846,0.003 0.12686,0.008 0.0423,0.005 0.0819,0.0106 0.11629,0.0185 0.037,0.0106 0.0661,0.0185 0.0925,0.0291 0.0238,0.0106 0.0396,0.0185 0.0476,0.0264 0.008,0.005 0.0132,0.0106 0.0185,0.0185 0.003,0.008 0.008,0.0159 0.008,0.0238 0.003,0.0106 0.005,0.0185 0.005,0.0291 0.003,0.0132 0.003,0.0264 0.003,0.0423 0,0.0185 0,0.037 0,0.0529 -0.003,0.0132 -0.003,0.0264 -0.008,0.0344 -0.003,0.0106 -0.008,0.0159 -0.0159,0.0211 -0.005,0.005 -0.0132,0.008 -0.0238,0.008 -0.0132,0 -0.0291,-0.005 -0.0502,-0.0132 -0.0211,-0.008 -0.0476,-0.0159 -0.0766,-0.0264 -0.0317,-0.0106 -0.0661,-0.0185 -0.11101,-0.0264 -0.0423,-0.008 -0.0925,-0.0106 -0.15064,-0.0106 -0.10307,0 -0.19293,0.0212 -0.26694,0.0634 -0.0766,0.0449 -0.13743,0.10308 -0.185,0.17443 -0.0476,0.074 -0.0819,0.15858 -0.10572,0.25637 -0.0238,0.0951 -0.037,0.19557 -0.0396,0.30129 0.0291,-0.0159 0.0634,-0.0344 0.0978,-0.0502 0.037,-0.0185 0.0766,-0.0344 0.11893,-0.0476 0.0449,-0.0132 0.0899,-0.0238 0.13743,-0.0344 0.0476,-0.008 0.10043,-0.0106 0.15593,-0.0106 0.11629,0 0.21672,0.0159 0.29601,0.0476 0.0819,0.0317 0.14536,0.0767 0.19557,0.13479 0.0502,0.0581 0.0846,0.12686 0.10836,0.2035 0.0211,0.0793 0.0317,0.16386 0.0317,0.25636 z m -0.29337,0.0264 c 0,-0.0661 -0.005,-0.12686 -0.0185,-0.17971 -0.0132,-0.0555 -0.0344,-0.10043 -0.0661,-0.13744 -0.0291,-0.0396 -0.0687,-0.0687 -0.11893,-0.0899 -0.0529,-0.0185 -0.11365,-0.0291 -0.18765,-0.0291 -0.0423,0 -0.0819,0.003 -0.12421,0.0106 -0.0423,0.008 -0.0819,0.0185 -0.11893,0.0317 -0.0396,0.0132 -0.0767,0.0264 -0.111,0.0449 -0.037,0.0185 -0.0687,0.037 -0.0978,0.0581 0,0.14801 0.0106,0.26958 0.0291,0.37001 0.0185,0.10043 0.0449,0.17972 0.0793,0.23786 0.0344,0.0608 0.0793,0.10307 0.13214,0.1295 0.0529,0.0264 0.11365,0.0396 0.185,0.0396 0.0714,0 0.13215,-0.0159 0.18501,-0.0423 0.0529,-0.0264 0.0978,-0.0634 0.13214,-0.111 0.0344,-0.0449 0.0608,-0.0978 0.0766,-0.15593 0.0159,-0.0581 0.0238,-0.11629 0.0238,-0.17708 z m 1.96104,-0.0211 c 0,0.11893 -0.0211,0.22465 -0.0582,0.31715 -0.0396,0.0925 -0.0951,0.16914 -0.1665,0.23257 -0.0714,0.0634 -0.15858,0.111 -0.25636,0.14536 -0.10043,0.0344 -0.20879,0.0502 -0.33036,0.0502 -0.0687,0 -0.13215,-0.005 -0.19294,-0.0159 -0.0581,-0.008 -0.11364,-0.0211 -0.16121,-0.0344 -0.0449,-0.0159 -0.0846,-0.0291 -0.11365,-0.0423 -0.0317,-0.0132 -0.0502,-0.0264 -0.0581,-0.0344 -0.008,-0.008 -0.0159,-0.0132 -0.0185,-0.0211 -0.003,-0.008 -0.005,-0.0159 -0.008,-0.0238 -0.005,-0.0106 -0.005,-0.0238 -0.008,-0.037 0,-0.0159 0,-0.0344 0,-0.0529 0,-0.0211 0,-0.037 0.003,-0.0529 0,-0.0159 0.003,-0.0291 0.008,-0.037 0.005,-0.0106 0.0106,-0.0185 0.0159,-0.0238 0.005,-0.003 0.0132,-0.005 0.0211,-0.005 0.0106,0 0.0291,0.008 0.0529,0.0211 0.0238,0.0132 0.0555,0.0291 0.0951,0.0449 0.0396,0.0185 0.0872,0.0344 0.148,0.0476 0.0581,0.0159 0.12686,0.0238 0.20879,0.0238 0.074,0 0.14271,-0.0106 0.20614,-0.0291 0.0634,-0.0185 0.11629,-0.0449 0.16122,-0.0846 0.0449,-0.0396 0.0819,-0.0872 0.10836,-0.14801 0.0238,-0.0581 0.037,-0.1295 0.037,-0.21407 0,-0.0714 -0.0106,-0.13215 -0.0317,-0.18765 -0.0211,-0.0529 -0.0555,-0.10043 -0.10044,-0.13479 -0.0476,-0.037 -0.10307,-0.0634 -0.17178,-0.0819 -0.0714,-0.0159 -0.15329,-0.0264 -0.25108,-0.0264 -0.0661,0 -0.12686,0.005 -0.17443,0.0106 -0.0502,0.008 -0.0951,0.0106 -0.13743,0.0106 -0.0317,0 -0.0555,-0.008 -0.0687,-0.0211 -0.0132,-0.0159 -0.0185,-0.0449 -0.0185,-0.0872 v -0.90123 c 0,-0.0396 0.008,-0.0661 0.0238,-0.0846 0.0185,-0.0185 0.0423,-0.0291 0.0766,-0.0291 h 0.96202 c 0.008,0 0.0185,0.003 0.0264,0.008 0.008,0.005 0.0159,0.0132 0.0211,0.0238 0.005,0.0106 0.008,0.0238 0.0106,0.0396 0.003,0.0159 0.005,0.0344 0.005,0.0555 0,0.0423 -0.005,0.074 -0.0159,0.0978 -0.0106,0.0212 -0.0264,0.0344 -0.0449,0.0344 h -0.77701 v 0.62108 c 0.037,-0.005 0.0766,-0.008 0.11629,-0.0106 0.0396,0 0.0846,0 0.13478,0 0.12158,0 0.22465,0.0132 0.31451,0.0449 0.0899,0.0291 0.16386,0.0714 0.22465,0.12686 0.0608,0.0555 0.10571,0.12422 0.13478,0.2035 0.0317,0.0767 0.0476,0.16386 0.0476,0.26165 z"
       id="path4911" />
    <path
       style="fill:#000000;fill-opacity:1;fill-rule:nonzero;stroke:none;stroke-width:0.264583"
       d="m 307.79395,150.73539 c 0,0.0846 -0.0396,0.15593 -0.12157,0.21408 -0.0819,0.0581 -0.18236,0.0872 -0.29865,0.0872 -0.11628,0 -0.21407,-0.0291 -0.29864,-0.0872 -0.0819,-0.0582 -0.12158,-0.1295 -0.12158,-0.21408 0,-0.0819 0.0396,-0.15064 0.12158,-0.20879 0.0819,-0.0608 0.17971,-0.0899 0.29864,-0.0899 0.11365,0 0.21408,0.0291 0.29601,0.0899 0.0819,0.0581 0.12421,0.12686 0.12421,0.20879 z m -0.71358,0 c 0,0.0608 0.0291,0.10836 0.0846,0.15065 0.0582,0.0396 0.12951,0.0608 0.20879,0.0608 0.0846,0 0.15329,-0.0211 0.20879,-0.0608 0.0555,-0.0423 0.0846,-0.0899 0.0846,-0.15065 0,-0.0581 -0.0291,-0.10571 -0.0872,-0.148 -0.0555,-0.0396 -0.12686,-0.0608 -0.20879,-0.0608 -0.0793,0 -0.148,0.0211 -0.20615,0.0634 -0.0555,0.0396 -0.0846,0.0899 -0.0846,0.14536 z"
       id="path4913" />
    <path
       style="fill:#000000;fill-opacity:1;fill-rule:nonzero;stroke:none;stroke-width:0.264583"
       d="m 309.98228,145.14037 c 0,0.0423 -0.005,0.074 -0.0185,0.0978 -0.0132,0.0238 -0.0291,0.037 -0.0529,0.037 h -0.27222 v 0.51801 c 0,0.008 -0.003,0.0185 -0.005,0.0238 -0.005,0.008 -0.0159,0.0132 -0.0291,0.0185 -0.0106,0.005 -0.0291,0.008 -0.0476,0.0106 -0.0211,0.003 -0.0476,0.005 -0.0793,0.005 -0.0317,0 -0.0555,-0.003 -0.0766,-0.005 -0.0211,-0.003 -0.037,-0.005 -0.0502,-0.0106 -0.0106,-0.005 -0.0185,-0.0106 -0.0238,-0.0185 -0.005,-0.005 -0.008,-0.0159 -0.008,-0.0238 v -0.51801 h -0.9858 c -0.0132,0 -0.0264,-0.003 -0.037,-0.005 -0.008,-0.005 -0.0185,-0.0106 -0.0264,-0.0212 -0.008,-0.0106 -0.0132,-0.0238 -0.0159,-0.0449 -0.003,-0.0185 -0.005,-0.0423 -0.005,-0.074 0,-0.0238 0.003,-0.0449 0.003,-0.0634 0,-0.0185 0.003,-0.037 0.008,-0.0529 0.003,-0.0159 0.008,-0.0317 0.0132,-0.0449 0.008,-0.0159 0.0132,-0.0291 0.0238,-0.0476 l 0.85894,-1.49324 c 0.005,-0.008 0.0132,-0.0185 0.0264,-0.0264 0.0132,-0.008 0.0264,-0.0132 0.0476,-0.0185 0.0185,-0.005 0.0423,-0.008 0.0687,-0.0106 0.0291,-0.003 0.0608,-0.003 0.10043,-0.003 0.0396,0 0.0766,0.003 0.10835,0.005 0.0317,0.003 0.0555,0.008 0.074,0.0132 0.0185,0.003 0.0344,0.0106 0.0449,0.0185 0.0106,0.008 0.0132,0.0185 0.0132,0.0291 v 1.56989 h 0.27222 c 0.0211,0 0.0396,0.0106 0.0529,0.0344 0.0132,0.0211 0.0185,0.0555 0.0185,0.10043 z m -0.66337,-1.48266 h -0.003 l -0.77437,1.34788 h 0.77701 z"
       id="path4915" />
    <path
       style="fill:none;stroke:#000000;stroke-width:0.211432px;stroke-linecap:round;stroke-linejoin:round;stroke-miterlimit:4;stroke-dasharray:none;stroke-opacity:1"
       d="m 275.66157,155.71198 h 32.94111 l -23.65924,19.91689 -9.28187,-19.91689"
       id="path4917" />
    <path
       style="fill:none;stroke:#000000;stroke-width:0.211432px;stroke-linecap:round;stroke-linejoin:round;stroke-miterlimit:4;stroke-dasharray:none;stroke-opacity:1"
       d="m 285.2183,155.71198 c 0,1.82095 -0.52065,3.60491 -1.50117,5.14044 -0.98051,1.53552 -2.38125,2.75918 -4.03835,3.52827"
       id="path4919" />
    <path
       style="fill:#000000;fill-opacity:1;fill-rule:nonzero;stroke:none;stroke-width:0.264583"
       d="m 280.21,160.42955 c 0,0.0978 -0.0159,0.19029 -0.0449,0.28015 -0.0291,0.0925 -0.074,0.17179 -0.13479,0.2405 -0.0608,0.0687 -0.13743,0.12422 -0.22994,0.16651 -0.0925,0.0423 -0.20086,0.0634 -0.32772,0.0634 -0.0925,0 -0.17178,-0.0132 -0.2405,-0.0344 -0.0687,-0.0238 -0.1295,-0.0555 -0.18236,-0.0978 -0.0502,-0.0423 -0.0951,-0.0951 -0.12686,-0.15593 -0.0344,-0.0608 -0.0634,-0.13215 -0.0846,-0.21143 -0.0185,-0.0793 -0.0344,-0.16386 -0.0423,-0.25901 -0.0106,-0.0925 -0.0159,-0.19293 -0.0159,-0.30129 0,-0.0951 0.005,-0.19029 0.0159,-0.28807 0.0106,-0.0978 0.0291,-0.19029 0.0555,-0.28015 0.0238,-0.0899 0.0608,-0.17443 0.10308,-0.25636 0.0449,-0.0793 0.10043,-0.148 0.1665,-0.20615 0.0661,-0.0581 0.148,-0.10572 0.2405,-0.14007 0.0925,-0.0344 0.20086,-0.0502 0.32244,-0.0502 0.0423,0 0.0846,0.003 0.12685,0.008 0.0423,0.005 0.0819,0.0106 0.11629,0.0185 0.037,0.0106 0.0661,0.0185 0.0925,0.0291 0.0238,0.0106 0.0396,0.0185 0.0476,0.0264 0.008,0.005 0.0132,0.0106 0.0185,0.0185 0.003,0.008 0.008,0.0159 0.008,0.0238 0.003,0.0106 0.005,0.0185 0.005,0.0291 0.003,0.0132 0.003,0.0264 0.003,0.0423 0,0.0185 0,0.037 0,0.0529 -0.003,0.0132 -0.003,0.0264 -0.008,0.0343 -0.003,0.0106 -0.008,0.0159 -0.0159,0.0212 -0.005,0.005 -0.0132,0.008 -0.0238,0.008 -0.0132,0 -0.0291,-0.005 -0.0502,-0.0132 -0.0212,-0.008 -0.0476,-0.0159 -0.0767,-0.0264 -0.0317,-0.0106 -0.0661,-0.0185 -0.111,-0.0264 -0.0423,-0.008 -0.0925,-0.0106 -0.15064,-0.0106 -0.10308,0 -0.19294,0.0211 -0.26694,0.0634 -0.0766,0.0449 -0.13743,0.10307 -0.185,0.17443 -0.0476,0.074 -0.0819,0.15858 -0.10572,0.25636 -0.0238,0.0951 -0.037,0.19558 -0.0396,0.30129 0.0291,-0.0159 0.0634,-0.0343 0.0978,-0.0502 0.037,-0.0185 0.0766,-0.0344 0.11893,-0.0476 0.0449,-0.0132 0.0899,-0.0238 0.13743,-0.0344 0.0476,-0.008 0.10043,-0.0106 0.15593,-0.0106 0.11629,0 0.21672,0.0159 0.29601,0.0476 0.0819,0.0317 0.14536,0.0766 0.19557,0.13479 0.0502,0.0581 0.0846,0.12686 0.10836,0.2035 0.0211,0.0793 0.0317,0.16386 0.0317,0.25636 z m -0.29336,0.0264 c 0,-0.0661 -0.005,-0.12686 -0.0185,-0.17972 -0.0132,-0.0555 -0.0344,-0.10043 -0.0661,-0.13743 -0.0291,-0.0396 -0.0687,-0.0687 -0.11893,-0.0898 -0.0529,-0.0185 -0.11365,-0.0291 -0.18765,-0.0291 -0.0423,0 -0.0819,0.003 -0.12421,0.0106 -0.0423,0.008 -0.0819,0.0185 -0.11893,0.0317 -0.0396,0.0132 -0.0766,0.0264 -0.111,0.0449 -0.037,0.0185 -0.0687,0.037 -0.0978,0.0581 0,0.14801 0.0106,0.26958 0.0291,0.37001 0.0185,0.10043 0.0449,0.17971 0.0793,0.23786 0.0344,0.0608 0.0793,0.10307 0.13214,0.1295 0.0529,0.0264 0.11365,0.0396 0.185,0.0396 0.0714,0 0.13215,-0.0159 0.18501,-0.0423 0.0529,-0.0264 0.0978,-0.0634 0.13214,-0.111 0.0344,-0.0449 0.0608,-0.0978 0.0767,-0.15593 0.0159,-0.0582 0.0238,-0.11629 0.0238,-0.17708 z m 1.96104,-0.0211 c 0,0.11893 -0.0211,0.22464 -0.0581,0.31715 -0.0396,0.0925 -0.0951,0.16914 -0.1665,0.23257 -0.0714,0.0634 -0.15858,0.111 -0.25636,0.14536 -0.10044,0.0344 -0.20879,0.0502 -0.33037,0.0502 -0.0687,0 -0.13214,-0.005 -0.19293,-0.0159 -0.0581,-0.008 -0.11364,-0.0211 -0.16122,-0.0344 -0.0449,-0.0159 -0.0846,-0.0291 -0.11364,-0.0423 -0.0317,-0.0132 -0.0502,-0.0264 -0.0581,-0.0343 -0.008,-0.008 -0.0159,-0.0132 -0.0185,-0.0212 -0.003,-0.008 -0.005,-0.0159 -0.008,-0.0238 -0.005,-0.0106 -0.005,-0.0238 -0.008,-0.037 0,-0.0159 0,-0.0344 0,-0.0529 0,-0.0211 0,-0.037 0.003,-0.0529 0,-0.0159 0.003,-0.0291 0.008,-0.037 0.005,-0.0106 0.0106,-0.0185 0.0159,-0.0238 0.005,-0.003 0.0132,-0.005 0.0211,-0.005 0.0106,0 0.0291,0.008 0.0529,0.0211 0.0238,0.0132 0.0555,0.0291 0.0951,0.0449 0.0396,0.0185 0.0872,0.0344 0.14801,0.0476 0.0581,0.0159 0.12686,0.0238 0.20878,0.0238 0.074,0 0.14272,-0.0106 0.20615,-0.0291 0.0634,-0.0185 0.11629,-0.0449 0.16122,-0.0846 0.0449,-0.0396 0.0819,-0.0872 0.10836,-0.148 0.0238,-0.0581 0.037,-0.1295 0.037,-0.21407 0,-0.0714 -0.0106,-0.13215 -0.0317,-0.18765 -0.0211,-0.0529 -0.0555,-0.10043 -0.10043,-0.13479 -0.0476,-0.037 -0.10307,-0.0634 -0.17178,-0.0819 -0.0714,-0.0159 -0.15329,-0.0264 -0.25108,-0.0264 -0.0661,0 -0.12686,0.005 -0.17443,0.0106 -0.0502,0.008 -0.0951,0.0106 -0.13743,0.0106 -0.0317,0 -0.0555,-0.008 -0.0687,-0.0212 -0.0132,-0.0159 -0.0185,-0.0449 -0.0185,-0.0872 v -0.90123 c 0,-0.0396 0.008,-0.0661 0.0238,-0.0846 0.0185,-0.0185 0.0423,-0.0291 0.0766,-0.0291 h 0.96202 c 0.008,0 0.0185,0.003 0.0264,0.008 0.008,0.005 0.0159,0.0132 0.0211,0.0238 0.005,0.0106 0.008,0.0238 0.0106,0.0396 0.003,0.0159 0.005,0.0344 0.005,0.0555 0,0.0423 -0.005,0.074 -0.0159,0.0978 -0.0106,0.0211 -0.0264,0.0344 -0.0449,0.0344 h -0.77701 v 0.62108 c 0.037,-0.005 0.0766,-0.008 0.11629,-0.0106 0.0396,0 0.0846,0 0.13478,0 0.12158,0 0.22465,0.0132 0.31451,0.0449 0.0899,0.0291 0.16386,0.0714 0.22464,0.12686 0.0608,0.0555 0.10572,0.12421 0.13479,0.2035 0.0317,0.0766 0.0476,0.16386 0.0476,0.26165 z"
       id="path4921" />
    <path
       style="fill:#000000;fill-opacity:1;fill-rule:nonzero;stroke:none;stroke-width:0.264583"
       d="m 283.09869,158.64295 c 0,0.0846 -0.0396,0.15593 -0.12157,0.21407 -0.0819,0.0582 -0.18236,0.0872 -0.29865,0.0872 -0.11629,0 -0.21407,-0.0291 -0.29864,-0.0872 -0.0819,-0.0581 -0.12158,-0.1295 -0.12158,-0.21407 0,-0.0819 0.0396,-0.15065 0.12158,-0.20879 0.0819,-0.0608 0.17971,-0.0899 0.29864,-0.0899 0.11365,0 0.21408,0.0291 0.29601,0.0899 0.0819,0.0581 0.12421,0.12686 0.12421,0.20879 z m -0.71358,0 c 0,0.0608 0.0291,0.10836 0.0846,0.15065 0.0581,0.0396 0.12951,0.0608 0.20879,0.0608 0.0846,0 0.15329,-0.0211 0.20879,-0.0608 0.0555,-0.0423 0.0846,-0.0899 0.0846,-0.15065 0,-0.0581 -0.0291,-0.10571 -0.0872,-0.148 -0.0555,-0.0396 -0.12686,-0.0608 -0.20879,-0.0608 -0.0793,0 -0.148,0.0212 -0.20615,0.0634 -0.0555,0.0396 -0.0846,0.0899 -0.0846,0.14536 z"
       id="path4923" />
    <path
       style="fill:none;stroke:#000000;stroke-width:0.211432px;stroke-linecap:round;stroke-linejoin:round;stroke-miterlimit:4;stroke-dasharray:none;stroke-opacity:1"
       d="m 281.32795,167.88517 c 1.70467,-0.79815 3.62078,-1.00958 5.45495,-0.60258 1.83681,0.40701 3.48598,1.40867 4.69379,2.84905"
       id="path4925" />
    <path
       style="fill:#000000;fill-opacity:1;fill-rule:nonzero;stroke:none;stroke-width:0.264583"
       d="m 285.59888,170.72629 c 0,0.0211 -0.003,0.0397 -0.003,0.0555 -0.003,0.0185 -0.005,0.0344 -0.008,0.0502 -0.003,0.0132 -0.005,0.0291 -0.0106,0.0423 -0.005,0.0159 -0.0106,0.0317 -0.0185,0.0476 l -0.78229,1.83946 c -0.005,0.0132 -0.0132,0.0238 -0.0212,0.0343 -0.008,0.008 -0.0185,0.0159 -0.0317,0.0185 -0.0132,0.005 -0.0291,0.0106 -0.0502,0.0106 -0.0185,0.003 -0.0449,0.003 -0.074,0.003 -0.037,0 -0.0661,0 -0.0872,-0.005 -0.0211,-0.003 -0.037,-0.008 -0.0476,-0.0159 -0.0106,-0.008 -0.0132,-0.0159 -0.0132,-0.0264 0.003,-0.0106 0.005,-0.0238 0.0132,-0.0396 l 0.82195,-1.88174 h -1.04131 c -0.0238,0 -0.0396,-0.0106 -0.0502,-0.0344 -0.0106,-0.0211 -0.0159,-0.0529 -0.0159,-0.0951 0,-0.0211 0.003,-0.0396 0.005,-0.0555 0.003,-0.0159 0.008,-0.0317 0.0132,-0.0423 0.005,-0.0106 0.0106,-0.0185 0.0185,-0.0238 0.008,-0.005 0.0185,-0.008 0.0291,-0.008 h 1.26595 c 0.0159,0 0.0291,0.003 0.0396,0.005 0.0132,0.005 0.0211,0.0106 0.0264,0.0211 0.008,0.0106 0.0132,0.0238 0.0159,0.0396 0.003,0.0159 0.005,0.037 0.005,0.0608 z m 1.75224,1.52231 c 0,0.0978 -0.0185,0.18236 -0.0502,0.25636 -0.0344,0.074 -0.0819,0.13743 -0.14536,0.19029 -0.0634,0.0502 -0.14272,0.0899 -0.23522,0.11629 -0.0925,0.0264 -0.19822,0.0396 -0.31979,0.0396 -0.11101,0 -0.21144,-0.0132 -0.29865,-0.037 -0.0899,-0.0238 -0.16386,-0.0581 -0.22729,-0.10571 -0.0608,-0.0476 -0.10836,-0.10572 -0.14007,-0.17443 -0.0317,-0.0661 -0.0476,-0.14536 -0.0476,-0.23258 0,-0.0714 0.0106,-0.13479 0.0317,-0.19293 0.0238,-0.0581 0.0555,-0.111 0.0978,-0.16122 0.0423,-0.0502 0.0925,-0.0951 0.15593,-0.13743 0.0608,-0.0423 0.1295,-0.0846 0.20614,-0.12157 -0.0661,-0.037 -0.12421,-0.074 -0.17707,-0.11365 -0.0502,-0.0396 -0.0951,-0.0819 -0.13215,-0.1295 -0.0344,-0.0449 -0.0608,-0.0951 -0.0793,-0.148 -0.0185,-0.0529 -0.0291,-0.10836 -0.0291,-0.17179 0,-0.0766 0.0132,-0.148 0.0423,-0.21672 0.0264,-0.0687 0.0687,-0.12686 0.12422,-0.17707 0.0555,-0.0502 0.12421,-0.0899 0.21143,-0.11893 0.0846,-0.0291 0.185,-0.0449 0.29865,-0.0449 0.111,0 0.20614,0.0132 0.28543,0.0396 0.0793,0.0264 0.14536,0.0634 0.19822,0.111 0.0529,0.0449 0.0899,0.10043 0.11364,0.16386 0.0264,0.0634 0.037,0.1295 0.037,0.20086 0,0.0581 -0.008,0.11365 -0.0264,0.16915 -0.0185,0.0529 -0.0449,0.10307 -0.0819,0.15329 -0.0344,0.0476 -0.0793,0.0925 -0.13215,0.13214 -0.0502,0.0423 -0.111,0.0819 -0.17708,0.11893 0.0793,0.0396 0.14801,0.0819 0.21144,0.12422 0.0634,0.0423 0.11364,0.0872 0.15593,0.13479 0.0423,0.0476 0.074,0.10043 0.0951,0.15329 0.0238,0.0555 0.0344,0.11628 0.0344,0.17971 z m -0.36472,-1.13645 c 0,-0.0502 -0.008,-0.0925 -0.0238,-0.13214 -0.0159,-0.037 -0.0396,-0.0714 -0.0714,-0.0978 -0.0317,-0.0291 -0.0687,-0.0502 -0.11629,-0.0634 -0.0476,-0.0132 -0.10043,-0.0211 -0.15858,-0.0211 -0.12157,0 -0.21143,0.0291 -0.27486,0.0846 -0.0608,0.0555 -0.0925,0.13215 -0.0925,0.22993 0,0.0423 0.008,0.0846 0.0211,0.12422 0.0159,0.037 0.0396,0.074 0.0714,0.10836 0.0317,0.0344 0.0714,0.0661 0.12158,0.10043 0.0476,0.0317 0.10571,0.0661 0.17443,0.10043 0.111,-0.0581 0.19822,-0.12421 0.259,-0.19557 0.0608,-0.0714 0.0899,-0.15329 0.0899,-0.23787 z m 0.0714,1.16817 c 0,-0.0529 -0.008,-0.10043 -0.0291,-0.14272 -0.0185,-0.0423 -0.0476,-0.0846 -0.0846,-0.12157 -0.0396,-0.037 -0.0872,-0.0714 -0.14536,-0.10836 -0.0582,-0.0344 -0.12422,-0.0687 -0.20087,-0.10836 -0.0713,0.037 -0.13214,0.0714 -0.185,0.10836 -0.0529,0.0344 -0.0978,0.0714 -0.13214,0.10836 -0.0344,0.037 -0.0582,0.0766 -0.0766,0.11893 -0.0185,0.0423 -0.0264,0.0872 -0.0264,0.13743 0,0.111 0.037,0.19822 0.111,0.259 0.0766,0.0582 0.18765,0.0899 0.33565,0.0899 0.14272,0 0.25108,-0.0317 0.32508,-0.0925 0.0714,-0.0608 0.10836,-0.14272 0.10836,-0.24843 z"
       id="path4927" />
    <path
       style="fill:#000000;fill-opacity:1;fill-rule:nonzero;stroke:none;stroke-width:0.264583"
       d="m 288.51135,170.314 c 0,0.0846 -0.0396,0.15593 -0.12157,0.21407 -0.0819,0.0582 -0.18236,0.0872 -0.29865,0.0872 -0.11629,0 -0.21407,-0.0291 -0.29864,-0.0872 -0.0819,-0.0581 -0.12158,-0.1295 -0.12158,-0.21407 0,-0.0819 0.0397,-0.15065 0.12158,-0.20879 0.0819,-0.0608 0.17971,-0.0899 0.29864,-0.0899 0.11365,0 0.21408,0.0291 0.29601,0.0899 0.0819,0.0581 0.12421,0.12686 0.12421,0.20879 z m -0.71358,0 c 0,0.0608 0.0291,0.10836 0.0846,0.15064 0.0582,0.0396 0.12951,0.0608 0.20879,0.0608 0.0846,0 0.15329,-0.0211 0.20879,-0.0608 0.0555,-0.0423 0.0846,-0.0899 0.0846,-0.15064 0,-0.0582 -0.0291,-0.10572 -0.0872,-0.148 -0.0555,-0.0396 -0.12686,-0.0608 -0.20879,-0.0608 -0.0793,0 -0.148,0.0211 -0.20615,0.0634 -0.0555,0.0396 -0.0846,0.0899 -0.0846,0.14536 z"
       id="path4929" />
    <path
       style="fill:#000000;fill-opacity:1;fill-rule:nonzero;stroke:none;stroke-width:0.264583"
       d="m 278.69034,168.22875 c 0,0.0423 -0.005,0.074 -0.0185,0.0978 -0.0132,0.0238 -0.0291,0.037 -0.0529,0.037 h -0.27222 v 0.51801 c 0,0.008 -0.003,0.0185 -0.005,0.0238 -0.005,0.008 -0.0159,0.0132 -0.0291,0.0185 -0.0106,0.005 -0.0291,0.008 -0.0476,0.0106 -0.0211,0.003 -0.0476,0.005 -0.0793,0.005 -0.0317,0 -0.0555,-0.003 -0.0766,-0.005 -0.0211,-0.003 -0.037,-0.005 -0.0502,-0.0106 -0.0106,-0.005 -0.0185,-0.0106 -0.0238,-0.0185 -0.005,-0.005 -0.008,-0.0159 -0.008,-0.0238 v -0.51801 h -0.9858 c -0.0132,0 -0.0264,-0.003 -0.037,-0.005 -0.008,-0.005 -0.0185,-0.0106 -0.0264,-0.0211 -0.008,-0.0106 -0.0132,-0.0238 -0.0159,-0.0449 -0.003,-0.0185 -0.005,-0.0423 -0.005,-0.074 0,-0.0238 0.003,-0.0449 0.003,-0.0634 0,-0.0185 0.003,-0.037 0.008,-0.0529 0.003,-0.0159 0.008,-0.0317 0.0132,-0.0449 0.008,-0.0159 0.0132,-0.0291 0.0238,-0.0476 l 0.85894,-1.49324 c 0.005,-0.008 0.0132,-0.0185 0.0264,-0.0264 0.0132,-0.008 0.0264,-0.0132 0.0476,-0.0185 0.0185,-0.005 0.0423,-0.008 0.0687,-0.0106 0.0291,-0.003 0.0608,-0.003 0.10043,-0.003 0.0396,0 0.0766,0.003 0.10835,0.005 0.0317,0.003 0.0555,0.008 0.074,0.0132 0.0185,0.003 0.0343,0.0106 0.0449,0.0185 0.0106,0.008 0.0132,0.0185 0.0132,0.0291 v 1.56988 h 0.27222 c 0.0211,0 0.0396,0.0106 0.0529,0.0344 0.0132,0.0211 0.0185,0.0555 0.0185,0.10043 z m -0.66337,-1.48267 h -0.003 l -0.77437,1.34788 h 0.77701 z"
       id="path4931" />
    <path
       style="fill:none;stroke:#000000;stroke-width:0.211432px;stroke-linecap:round;stroke-linejoin:round;stroke-miterlimit:4;stroke-dasharray:none;stroke-opacity:1"
       d="m 321.79113,161.66073 h 21.94665 l -10.97332,-27.44388 -10.97333,27.44388"
       id="path4933" />
    <path
       style="fill:none;stroke:#000000;stroke-width:0.211432px;stroke-linecap:round;stroke-linejoin:round;stroke-miterlimit:4;stroke-dasharray:none;stroke-opacity:1"
       d="m 327.88038,146.43762 c 1.55402,0.61844 3.21376,0.9303 4.88408,0.9303 1.67559,0 3.33534,-0.31186 4.88408,-0.9303"
       id="path4935" />
    <path
       style="fill:#000000;fill-opacity:1;fill-rule:nonzero;stroke:none;stroke-width:0.264583"
       d="m 331.83415,145.57604 c 0,0.037 -0.0106,0.0687 -0.0211,0.0899 -0.0106,0.0211 -0.0264,0.0317 -0.0476,0.0317 h -0.24315 v 0.46515 c 0,0.0106 0,0.0211 -0.005,0.0264 -0.005,0.005 -0.0159,0.0106 -0.0264,0.0159 -0.0106,0.005 -0.0264,0.005 -0.0423,0.0106 -0.0211,0 -0.0423,0 -0.074,0 -0.0264,0 -0.0476,0 -0.0687,0 -0.0159,-0.005 -0.0317,-0.005 -0.0423,-0.0106 -0.0106,-0.005 -0.0211,-0.0106 -0.0211,-0.0159 -0.005,-0.005 -0.0106,-0.0159 -0.0106,-0.0264 v -0.46515 h -0.88801 c -0.0106,0 -0.0211,0 -0.0317,-0.005 -0.0106,0 -0.0159,-0.0106 -0.0264,-0.0159 -0.005,-0.0106 -0.0106,-0.0264 -0.0106,-0.0423 -0.005,-0.0159 -0.005,-0.037 -0.005,-0.0634 0,-0.0264 0,-0.0423 0,-0.0581 0,-0.0212 0.005,-0.037 0.005,-0.0476 0.005,-0.0159 0.0106,-0.0317 0.0159,-0.0423 0.005,-0.0159 0.0106,-0.0264 0.0212,-0.0423 l 0.77172,-1.34788 c 0.005,-0.0106 0.0159,-0.0159 0.0264,-0.0264 0.0106,-0.005 0.0264,-0.0106 0.0423,-0.0159 0.0159,-0.005 0.037,-0.005 0.0634,-0.0106 0.0264,0 0.0529,0 0.0899,0 0.037,0 0.0687,0 0.0951,0.005 0.0317,0 0.0529,0.005 0.0687,0.0106 0.0159,0.005 0.0317,0.0106 0.037,0.0159 0.0106,0.0106 0.0159,0.0159 0.0159,0.0264 v 1.41659 h 0.24315 c 0.0211,0 0.037,0.0106 0.0476,0.0317 0.0106,0.0211 0.0211,0.0476 0.0211,0.0899 z m -0.60258,-1.33731 v 0 l -0.69772,1.21573 h 0.69772 z m 2.33633,1.33731 c 0,0.037 -0.0106,0.0687 -0.0212,0.0899 -0.0106,0.0211 -0.0264,0.0317 -0.0476,0.0317 h -0.24306 v 0.46515 c 0,0.0106 0,0.0211 -0.005,0.0264 -0.005,0.005 -0.0159,0.0106 -0.0264,0.0159 -0.0106,0.005 -0.0264,0.005 -0.0423,0.0106 -0.0211,0 -0.0423,0 -0.074,0 -0.0264,0 -0.0476,0 -0.0687,0 -0.0159,-0.005 -0.0317,-0.005 -0.0423,-0.0106 -0.0106,-0.005 -0.0211,-0.0106 -0.0211,-0.0159 -0.005,-0.005 -0.0106,-0.0159 -0.0106,-0.0264 v -0.46515 h -0.88802 c -0.0106,0 -0.0211,0 -0.0317,-0.005 -0.0106,0 -0.0159,-0.0106 -0.0264,-0.0159 -0.005,-0.0106 -0.0106,-0.0264 -0.0106,-0.0423 -0.005,-0.0159 -0.005,-0.037 -0.005,-0.0634 0,-0.0264 0,-0.0423 0,-0.0581 0,-0.0212 0.005,-0.037 0.005,-0.0476 0.005,-0.0159 0.0106,-0.0317 0.0159,-0.0423 0.005,-0.0159 0.0106,-0.0264 0.0211,-0.0423 l 0.77172,-1.34788 c 0.005,-0.0106 0.0159,-0.0159 0.0264,-0.0264 0.0106,-0.005 0.0264,-0.0106 0.0423,-0.0159 0.0159,-0.005 0.037,-0.005 0.0634,-0.0106 0.0264,0 0.0529,0 0.0899,0 0.037,0 0.0687,0 0.0951,0.005 0.0317,0 0.0529,0.005 0.0687,0.0106 0.0159,0.005 0.0317,0.0106 0.037,0.0159 0.0106,0.0106 0.0159,0.0159 0.0159,0.0264 v 1.41659 h 0.24314 c 0.0212,0 0.037,0.0106 0.0476,0.0317 0.0106,0.0211 0.0212,0.0476 0.0212,0.0899 z m -0.60258,-1.33731 v 0 l -0.69773,1.21573 h 0.69773 z"
       id="path4937" />
    <path
       style="fill:#000000;fill-opacity:1;fill-rule:nonzero;stroke:none;stroke-width:0.264583"
       d="m 334.72549,143.70486 c 0,0.0846 -0.037,0.15329 -0.12157,0.21144 -0.0793,0.0581 -0.17972,0.0898 -0.29601,0.0898 -0.11629,0 -0.21672,-0.0317 -0.30129,-0.0898 -0.0793,-0.0582 -0.12157,-0.12686 -0.12157,-0.21144 0,-0.0846 0.0423,-0.15329 0.12157,-0.21143 0.0846,-0.0581 0.17972,-0.0899 0.30129,-0.0899 0.111,0 0.21143,0.0317 0.29601,0.0899 0.0793,0.0581 0.12157,0.12686 0.12157,0.21143 z m -0.71358,0 c 0,0.0582 0.0317,0.10572 0.0846,0.14801 0.0581,0.0423 0.12686,0.0634 0.21143,0.0634 0.0846,0 0.15329,-0.0212 0.20615,-0.0634 0.0581,-0.0423 0.0846,-0.0899 0.0846,-0.14801 0,-0.0581 -0.0264,-0.10571 -0.0846,-0.148 -0.0582,-0.0423 -0.12686,-0.0634 -0.21144,-0.0634 -0.0793,0 -0.148,0.0211 -0.20614,0.0634 -0.0582,0.0423 -0.0846,0.0899 -0.0846,0.148 z"
       id="path4939" />
    <path
       style="fill:none;stroke:#000000;stroke-width:0.211432px;stroke-linecap:round;stroke-linejoin:round;stroke-miterlimit:4;stroke-dasharray:none;stroke-opacity:1"
       d="m 343.73778,134.21685 h 21.98893 l -10.99447,27.44388 -10.99446,-27.44388"
       id="path4941" />
    <path
       style="fill:none;stroke:#000000;stroke-width:0.211432px;stroke-linecap:round;stroke-linejoin:round;stroke-miterlimit:4;stroke-dasharray:none;stroke-opacity:1"
       d="m 353.6328,134.21685 c 0,1.97689 -0.59201,3.90621 -1.69674,5.54481 -1.11002,1.63331 -2.67991,2.9019 -4.51936,3.63134"
       id="path4943" />
    <path
       style="fill:#000000;fill-opacity:1;fill-rule:nonzero;stroke:none;stroke-width:0.264583"
       d="m 348.28885,138.89478 c 0,0.0951 -0.0159,0.19029 -0.0476,0.28015 -0.0264,0.0899 -0.074,0.16915 -0.13214,0.23786 -0.0634,0.0687 -0.13743,0.12686 -0.23258,0.16915 -0.0899,0.0423 -0.20086,0.0634 -0.32772,0.0634 -0.0899,0 -0.16914,-0.0159 -0.23786,-0.037 -0.074,-0.0212 -0.13215,-0.0529 -0.185,-0.0952 -0.0476,-0.0423 -0.0951,-0.0951 -0.12686,-0.15857 -0.0317,-0.0634 -0.0634,-0.13215 -0.0846,-0.21143 -0.0159,-0.0793 -0.0317,-0.16386 -0.0423,-0.25901 -0.0106,-0.0899 -0.0159,-0.19029 -0.0159,-0.30129 0,-0.0951 0.005,-0.19029 0.0159,-0.28543 0.0106,-0.10043 0.0317,-0.19029 0.0529,-0.28015 0.0264,-0.0899 0.0634,-0.17972 0.10571,-0.259 0.0476,-0.0793 0.10043,-0.14801 0.16915,-0.20615 0.0634,-0.0581 0.148,-0.10571 0.23786,-0.13743 0.0951,-0.037 0.20086,-0.0529 0.32243,-0.0529 0.0423,0 0.0846,0.005 0.12686,0.0106 0.0423,0.005 0.0846,0.0106 0.11629,0.0159 0.037,0.0106 0.0687,0.0211 0.0951,0.0317 0.0211,0.0106 0.037,0.0159 0.0476,0.0211 0.005,0.0106 0.0106,0.0159 0.0159,0.0211 0.005,0.0106 0.0106,0.0159 0.0106,0.0264 0,0.0106 0.005,0.0159 0.005,0.0264 0,0.0106 0,0.0264 0,0.0423 0,0.0211 0,0.037 0,0.0529 0,0.0159 0,0.0264 -0.005,0.037 -0.005,0.0106 -0.0106,0.0159 -0.0159,0.0211 -0.005,0.005 -0.0159,0.005 -0.0264,0.005 -0.0106,0 -0.0264,-0.005 -0.0476,-0.0106 -0.0211,-0.0106 -0.0476,-0.0159 -0.0793,-0.0264 -0.0317,-0.0106 -0.0634,-0.0211 -0.111,-0.0264 -0.0423,-0.0106 -0.0899,-0.0106 -0.148,-0.0106 -0.10572,0 -0.19558,0.0212 -0.26958,0.0634 -0.074,0.0423 -0.13743,0.10043 -0.185,0.17443 -0.0476,0.074 -0.0793,0.15858 -0.10572,0.25372 -0.0211,0.0951 -0.037,0.19558 -0.037,0.30129 0.0264,-0.0159 0.0634,-0.0317 0.0951,-0.0476 0.037,-0.0211 0.0793,-0.037 0.12157,-0.0476 0.0423,-0.0159 0.0899,-0.0264 0.13743,-0.037 0.0476,-0.005 0.10043,-0.0106 0.15329,-0.0106 0.11628,0 0.21672,0.0159 0.296,0.0476 0.0846,0.0317 0.14801,0.0793 0.19558,0.13743 0.0528,0.0581 0.0846,0.12686 0.111,0.20086 0.0211,0.0793 0.0317,0.16386 0.0317,0.259 z m -0.296,0.0264 c 0,-0.0687 -0.005,-0.12686 -0.0159,-0.17971 -0.0159,-0.0582 -0.037,-0.10043 -0.0687,-0.13743 -0.0264,-0.0423 -0.0687,-0.0687 -0.12157,-0.0899 -0.0476,-0.0212 -0.111,-0.0317 -0.185,-0.0317 -0.0423,0 -0.0793,0.005 -0.12157,0.0106 -0.0423,0.0106 -0.0846,0.0212 -0.12158,0.0317 -0.037,0.0159 -0.074,0.0264 -0.111,0.0476 -0.037,0.0159 -0.0687,0.037 -0.0951,0.0581 0,0.14801 0.005,0.26958 0.0264,0.37001 0.0159,0.10043 0.0476,0.17972 0.0793,0.23786 0.037,0.0582 0.0793,0.10043 0.13215,0.12686 0.0528,0.0264 0.11628,0.0423 0.185,0.0423 0.074,0 0.13215,-0.0159 0.185,-0.0423 0.0529,-0.0264 0.10043,-0.0634 0.13215,-0.111 0.037,-0.0476 0.0634,-0.10043 0.0793,-0.15858 0.0159,-0.0581 0.0211,-0.11628 0.0211,-0.17443 z m 2.02446,0.12158 c 0,0.0951 -0.0211,0.17971 -0.0529,0.25372 -0.0317,0.074 -0.0793,0.13743 -0.14271,0.19028 -0.0634,0.0529 -0.14272,0.0899 -0.23786,0.11629 -0.0899,0.0264 -0.19558,0.0423 -0.31715,0.0423 -0.11101,0 -0.21144,-0.0159 -0.30129,-0.037 -0.0899,-0.0264 -0.16386,-0.0582 -0.22729,-0.10572 -0.0581,-0.0476 -0.10572,-0.10571 -0.13743,-0.17443 -0.0317,-0.0687 -0.0476,-0.148 -0.0476,-0.23258 0,-0.074 0.0106,-0.13743 0.0317,-0.19557 0.0211,-0.0581 0.0528,-0.111 0.0951,-0.15857 0.0423,-0.0529 0.0951,-0.0951 0.15858,-0.13743 0.0581,-0.0423 0.12686,-0.0846 0.20614,-0.12686 -0.0687,-0.0317 -0.12686,-0.0687 -0.17971,-0.11101 -0.0476,-0.037 -0.0951,-0.0793 -0.13215,-0.12685 -0.0317,-0.0476 -0.0581,-0.0951 -0.0793,-0.14801 -0.0159,-0.0529 -0.0264,-0.111 -0.0264,-0.17443 0,-0.074 0.0106,-0.148 0.0423,-0.21672 0.0264,-0.0687 0.0687,-0.12686 0.12157,-0.17443 0.0582,-0.0529 0.12686,-0.0899 0.21144,-0.12157 0.0846,-0.0264 0.185,-0.0423 0.30129,-0.0423 0.111,0 0.20614,0.0106 0.28543,0.037 0.0793,0.0264 0.14272,0.0634 0.19557,0.111 0.0529,0.0476 0.0899,0.10043 0.11629,0.16386 0.0264,0.0634 0.037,0.13215 0.037,0.20086 0,0.0582 -0.0106,0.11629 -0.0264,0.16915 -0.0211,0.0529 -0.0476,0.10572 -0.0846,0.15329 -0.0317,0.0476 -0.0793,0.0951 -0.13214,0.13214 -0.0476,0.0423 -0.111,0.0846 -0.17444,0.12158 0.0793,0.037 0.14801,0.0793 0.21144,0.12157 0.0581,0.0423 0.111,0.0899 0.15328,0.13743 0.0423,0.0476 0.074,0.10043 0.0951,0.15329 0.0264,0.0529 0.037,0.11629 0.037,0.17972 z m -0.36472,-1.13645 c 0,-0.0529 -0.0106,-0.0951 -0.0264,-0.13215 -0.0159,-0.037 -0.037,-0.074 -0.0687,-0.10043 -0.0317,-0.0264 -0.0687,-0.0476 -0.11629,-0.0634 -0.0476,-0.0106 -0.10043,-0.0211 -0.15858,-0.0211 -0.12157,0 -0.21143,0.0317 -0.27486,0.0846 -0.0634,0.0582 -0.0951,0.13215 -0.0951,0.23258 0,0.0423 0.0106,0.0846 0.0211,0.12157 0.0159,0.037 0.0423,0.074 0.074,0.111 0.0317,0.0317 0.0687,0.0634 0.12157,0.10044 0.0476,0.0317 0.10572,0.0634 0.17444,0.10043 0.111,-0.0581 0.19557,-0.12686 0.259,-0.19558 0.0581,-0.074 0.0899,-0.15329 0.0899,-0.23786 z m 0.0687,1.16816 c 0,-0.0529 -0.005,-0.10043 -0.0264,-0.14271 -0.0212,-0.0476 -0.0476,-0.0846 -0.0846,-0.12158 -0.0423,-0.037 -0.0899,-0.074 -0.148,-0.111 -0.0581,-0.0317 -0.12157,-0.0687 -0.20086,-0.10572 -0.0687,0.037 -0.13215,0.0687 -0.185,0.10572 -0.0529,0.037 -0.0951,0.074 -0.13215,0.111 -0.0317,0.037 -0.0581,0.074 -0.074,0.11629 -0.0211,0.0423 -0.0264,0.0899 -0.0264,0.13743 0,0.111 0.037,0.20086 0.111,0.259 0.074,0.0582 0.18501,0.0899 0.33301,0.0899 0.14272,0 0.25372,-0.0317 0.32243,-0.0899 0.074,-0.0634 0.11101,-0.14271 0.11101,-0.24843 z"
       id="path4945" />
    <path
       style="fill:#000000;fill-opacity:1;fill-rule:nonzero;stroke:none;stroke-width:0.264583"
       d="m 351.1749,137.10818 c 0,0.0846 -0.037,0.15329 -0.12157,0.21144 -0.0793,0.0581 -0.17972,0.0899 -0.29601,0.0899 -0.11629,0 -0.21672,-0.0317 -0.30129,-0.0899 -0.0793,-0.0581 -0.12157,-0.12686 -0.12157,-0.21144 0,-0.0846 0.0423,-0.15328 0.12157,-0.21143 0.0846,-0.0581 0.17972,-0.0899 0.30129,-0.0899 0.111,0 0.21143,0.0317 0.29601,0.0899 0.0793,0.0582 0.12157,0.12686 0.12157,0.21143 z m -0.71358,0 c 0,0.0581 0.0317,0.10572 0.0846,0.14801 0.0581,0.0423 0.12686,0.0634 0.21143,0.0634 0.0846,0 0.15329,-0.0211 0.20615,-0.0634 0.0581,-0.0423 0.0846,-0.0899 0.0846,-0.14801 0,-0.0581 -0.0264,-0.10571 -0.0846,-0.148 -0.0582,-0.0423 -0.12686,-0.0634 -0.21143,-0.0634 -0.0793,0 -0.14801,0.0212 -0.20615,0.0634 -0.0581,0.0423 -0.0846,0.0899 -0.0846,0.148 z"
       id="path4947" />
    <path
       style="fill:#000000;fill-opacity:1;fill-rule:nonzero;stroke:none;stroke-width:0.264583"
       d="m 324.8199,149.98968 c 0,0.0423 -0.005,0.074 -0.0159,0.10043 -0.0159,0.0211 -0.0317,0.037 -0.0529,0.037 h -0.27486 v 0.51272 c 0,0.0106 0,0.0212 -0.005,0.0264 -0.005,0.0106 -0.0159,0.0159 -0.0264,0.0212 -0.0106,0.005 -0.0317,0.005 -0.0529,0.0106 -0.0159,0 -0.0423,0.005 -0.074,0.005 -0.0317,0 -0.0582,-0.005 -0.0793,-0.005 -0.0211,-0.005 -0.037,-0.005 -0.0476,-0.0106 -0.0106,-0.005 -0.0211,-0.0106 -0.0264,-0.0212 -0.005,-0.005 -0.005,-0.0159 -0.005,-0.0264 v -0.51272 h -0.98844 c -0.0106,0 -0.0264,-0.005 -0.037,-0.005 -0.005,-0.005 -0.0159,-0.0106 -0.0264,-0.0211 -0.005,-0.0106 -0.0106,-0.0264 -0.0159,-0.0476 0,-0.0159 -0.005,-0.0423 -0.005,-0.074 0,-0.0211 0,-0.0423 0.005,-0.0634 0,-0.0159 0,-0.037 0.005,-0.0529 0.005,-0.0159 0.0106,-0.0317 0.0159,-0.0423 0.005,-0.0159 0.0106,-0.0317 0.0212,-0.0476 l 0.86158,-1.49588 c 0.005,-0.005 0.0106,-0.0159 0.0264,-0.0264 0.0106,-0.005 0.0264,-0.0106 0.0476,-0.0159 0.0159,-0.005 0.0423,-0.0106 0.0687,-0.0106 0.0264,-0.005 0.0581,-0.005 0.0951,-0.005 0.0423,0 0.0793,0.005 0.11101,0.005 0.0317,0.005 0.0581,0.0106 0.074,0.0159 0.0211,0 0.037,0.0106 0.0476,0.0159 0.0106,0.0106 0.0106,0.0211 0.0106,0.0317 v 1.56989 h 0.27486 c 0.0211,0 0.037,0.0106 0.0529,0.0317 0.0106,0.0211 0.0159,0.0581 0.0159,0.10043 z m -0.66073,-1.48002 h -0.005 l -0.77173,1.34788 h 0.77701 z"
       id="path4949" />
    <path
       style="fill:#000000;fill-opacity:1;fill-rule:nonzero;stroke:none;stroke-width:0.264583"
       d="m 342.36876,150.03197 c 0,0.0423 -0.005,0.074 -0.0159,0.10043 -0.0159,0.0211 -0.0317,0.037 -0.0529,0.037 h -0.27486 v 0.51272 c 0,0.0106 0,0.0211 -0.005,0.0264 -0.005,0.0106 -0.0159,0.0159 -0.0264,0.0211 -0.0106,0.005 -0.0317,0.005 -0.0528,0.0106 -0.0159,0 -0.0423,0.005 -0.074,0.005 -0.0317,0 -0.0581,-0.005 -0.0793,-0.005 -0.0211,-0.005 -0.037,-0.005 -0.0476,-0.0106 -0.0106,-0.005 -0.0211,-0.0106 -0.0264,-0.0211 -0.005,-0.005 -0.005,-0.0159 -0.005,-0.0264 v -0.51272 h -0.98844 c -0.0106,0 -0.0264,-0.005 -0.037,-0.005 -0.005,-0.005 -0.0159,-0.0106 -0.0264,-0.0211 -0.005,-0.0106 -0.0106,-0.0264 -0.0159,-0.0476 0,-0.0159 -0.005,-0.0423 -0.005,-0.074 0,-0.0211 0,-0.0423 0.005,-0.0634 0,-0.0159 0,-0.037 0.005,-0.0529 0.005,-0.0159 0.0106,-0.0317 0.0159,-0.0423 0.005,-0.0159 0.0106,-0.0317 0.0212,-0.0476 l 0.86158,-1.49588 c 0.005,-0.005 0.0106,-0.0159 0.0264,-0.0264 0.0106,-0.005 0.0264,-0.0106 0.0476,-0.0159 0.0159,-0.005 0.0423,-0.0106 0.0687,-0.0106 0.0264,-0.005 0.0581,-0.005 0.0951,-0.005 0.0423,0 0.0793,0.005 0.111,0.005 0.0317,0.005 0.0581,0.0106 0.074,0.0159 0.0212,0 0.037,0.0106 0.0476,0.0159 0.0106,0.0106 0.0106,0.0212 0.0106,0.0317 v 1.56988 h 0.27486 c 0.0211,0 0.037,0.0106 0.0529,0.0317 0.0106,0.0211 0.0159,0.0581 0.0159,0.10043 z m -0.66073,-1.48003 h -0.005 l -0.77172,1.34788 h 0.77701 z"
       id="path4951" />
    <path
       style="fill:#000000;fill-opacity:1;fill-rule:nonzero;stroke:none;stroke-width:0.264583"
       d="m 364.35769,149.98968 c 0,0.0423 -0.005,0.074 -0.0159,0.10043 -0.0159,0.0211 -0.0317,0.037 -0.0529,0.037 h -0.27486 v 0.51272 c 0,0.0106 0,0.0212 -0.005,0.0264 -0.005,0.0106 -0.0159,0.0159 -0.0264,0.0212 -0.0106,0.005 -0.0317,0.005 -0.0529,0.0106 -0.0159,0 -0.0423,0.005 -0.074,0.005 -0.0317,0 -0.0581,-0.005 -0.0793,-0.005 -0.0211,-0.005 -0.037,-0.005 -0.0476,-0.0106 -0.0106,-0.005 -0.0212,-0.0106 -0.0264,-0.0212 -0.005,-0.005 -0.005,-0.0159 -0.005,-0.0264 v -0.51272 h -0.98844 c -0.0106,0 -0.0264,-0.005 -0.037,-0.005 -0.005,-0.005 -0.0159,-0.0106 -0.0264,-0.0211 -0.005,-0.0106 -0.0106,-0.0264 -0.0159,-0.0476 0,-0.0159 -0.005,-0.0423 -0.005,-0.074 0,-0.0211 0,-0.0423 0.005,-0.0634 0,-0.0159 0,-0.037 0.005,-0.0529 0.005,-0.0159 0.0106,-0.0317 0.0159,-0.0423 0.005,-0.0159 0.0106,-0.0317 0.0211,-0.0476 l 0.86158,-1.49588 c 0.005,-0.005 0.0106,-0.0159 0.0264,-0.0264 0.0106,-0.005 0.0264,-0.0106 0.0476,-0.0159 0.0159,-0.005 0.0423,-0.0106 0.0687,-0.0106 0.0264,-0.005 0.0581,-0.005 0.0951,-0.005 0.0423,0 0.0793,0.005 0.111,0.005 0.0317,0.005 0.0582,0.0106 0.074,0.0159 0.0211,0 0.037,0.0106 0.0476,0.0159 0.0106,0.0106 0.0106,0.0211 0.0106,0.0317 v 1.56989 h 0.27486 c 0.0211,0 0.037,0.0106 0.0529,0.0317 0.0106,0.0211 0.0159,0.0581 0.0159,0.10043 z m -0.66073,-1.48002 h -0.005 l -0.77173,1.34788 h 0.77701 z"
       id="path4953" />
    <text
       xml:space="preserve"
       style="font-style:normal;font-variant:normal;font-weight:400;font-size:3.88607px;line-height:125%;font-family:Calibri;text-align:start;letter-spacing:0px;word-spacing:0px;text-anchor:start;fill:#000000;fill-opacity:1;stroke:none;stroke-width:0.264583"
       x="275.89294"
       y="179.02783"
       id="text5012"><tspan
         sodipodi:role="line"
         x="275.89294"
         y="179.02783"
         id="tspan5010"
         style="stroke-width:0.264583"><tspan
           dx="0"
           dy="0"
           style="font-style:normal;font-variant:normal;font-weight:400;font-size:3.88607px;font-family:Calibri;fill:#181717;stroke-width:0.264583"
           id="tspan5006">III</tspan><tspan
           dx="0"
           dy="0"
           style="font-style:normal;font-variant:normal;font-weight:400;font-size:3.88607px;font-family:Calibri;fill:#181717;stroke-width:0.264583"
           id="tspan5008"> </tspan></tspan></text>
    <text
       xml:space="preserve"
       style="font-style:normal;font-variant:normal;font-weight:400;font-size:3.88607px;line-height:125%;font-family:Calibri;text-align:start;letter-spacing:0px;word-spacing:0px;text-anchor:start;fill:#000000;fill-opacity:1;stroke:none;stroke-width:0.264583"
       x="319.90097"
       y="179.46162"
       id="text5020"><tspan
         sodipodi:role="line"
         x="319.90097"
         y="179.46162"
         id="tspan5018"
         style="stroke-width:0.264583"><tspan
           dx="0"
           dy="0"
           style="font-style:normal;font-variant:normal;font-weight:400;font-size:3.88607px;font-family:Calibri;fill:#181717;stroke-width:0.264583"
           id="tspan5014">IV</tspan><tspan
           dx="0"
           dy="0"
           style="font-style:normal;font-variant:normal;font-weight:400;font-size:3.88607px;font-family:Calibri;fill:#181717;stroke-width:0.264583"
           id="tspan5016"> </tspan></tspan></text>
    <text
       xml:space="preserve"
       style="font-style:normal;font-variant:normal;font-weight:400;font-size:3.88607px;line-height:125%;font-family:Calibri;text-align:start;letter-spacing:0px;word-spacing:0px;text-anchor:start;fill:#000000;fill-opacity:1;stroke:none;stroke-width:0.264583"
       x="363.18304"
       y="207.33505"
       id="text5026"><tspan
         sodipodi:role="line"
         x="363.18304"
         y="207.33505"
         id="tspan5024"
         style="stroke-width:0.264583"><tspan
           dx="0"
           dy="0"
           style="font-style:normal;font-variant:normal;font-weight:400;font-size:3.88607px;font-family:Calibri;fill:#181717;stroke-width:0.264583"
           id="tspan5022"> </tspan></tspan></text>
    <path
       style="fill:none;stroke:#000000;stroke-width:0.211432px;stroke-linecap:round;stroke-linejoin:round;stroke-miterlimit:4;stroke-dasharray:none;stroke-opacity:1"
       d="m 281.49204,207.11823 h 21.94665 l -21.94665,-28.54332 v 28.54332"
       id="path5028" />
    <path
       style="fill:none;stroke:#000000;stroke-width:0.211432px;stroke-linecap:round;stroke-linejoin:round;stroke-miterlimit:4;stroke-dasharray:none;stroke-opacity:1"
       d="m 293.54367,207.11823 c 0,-1.51173 0.35151,-3.00233 1.02544,-4.35814 0.67659,-1.35581 1.6571,-2.54247 2.86491,-3.46484"
       id="path5030" />
    <path
       style="fill:#000000;fill-opacity:1;fill-rule:nonzero;stroke:none;stroke-width:0.264583"
       d="m 296.92658,206.34386 c 0,0.11893 -0.0211,0.22465 -0.0581,0.31715 -0.0396,0.0925 -0.0951,0.16915 -0.16651,0.23258 -0.0713,0.0634 -0.15857,0.111 -0.25636,0.14536 -0.10043,0.0344 -0.20879,0.0502 -0.33036,0.0502 -0.0687,0 -0.13214,-0.005 -0.19293,-0.0159 -0.0581,-0.008 -0.11365,-0.0211 -0.16122,-0.0344 -0.0449,-0.0159 -0.0846,-0.0291 -0.11364,-0.0423 -0.0317,-0.0132 -0.0502,-0.0264 -0.0582,-0.0344 -0.008,-0.008 -0.0159,-0.0132 -0.0185,-0.0211 -0.003,-0.008 -0.005,-0.0159 -0.008,-0.0238 -0.005,-0.0106 -0.005,-0.0238 -0.008,-0.037 0,-0.0159 0,-0.0343 0,-0.0529 0,-0.0211 0,-0.037 0.003,-0.0529 0,-0.0159 0.003,-0.0291 0.008,-0.037 0.005,-0.0106 0.0106,-0.0185 0.0159,-0.0238 0.005,-0.003 0.0132,-0.005 0.0211,-0.005 0.0106,0 0.0291,0.008 0.0529,0.0212 0.0238,0.0132 0.0555,0.0291 0.0951,0.0449 0.0396,0.0185 0.0872,0.0343 0.148,0.0476 0.0582,0.0159 0.12686,0.0238 0.20879,0.0238 0.074,0 0.14272,-0.0106 0.20615,-0.0291 0.0634,-0.0185 0.11628,-0.0449 0.16122,-0.0846 0.0449,-0.0396 0.0819,-0.0872 0.10835,-0.148 0.0238,-0.0582 0.037,-0.1295 0.037,-0.21408 0,-0.0714 -0.0106,-0.13214 -0.0317,-0.18764 -0.0211,-0.0529 -0.0555,-0.10043 -0.10043,-0.13479 -0.0476,-0.037 -0.10307,-0.0634 -0.17179,-0.0819 -0.0714,-0.0159 -0.15329,-0.0264 -0.25108,-0.0264 -0.0661,0 -0.12685,0.005 -0.17443,0.0106 -0.0502,0.008 -0.0951,0.0106 -0.13743,0.0106 -0.0317,0 -0.0555,-0.008 -0.0687,-0.0211 -0.0132,-0.0159 -0.0185,-0.0449 -0.0185,-0.0872 v -0.90123 c 0,-0.0396 0.008,-0.0661 0.0238,-0.0846 0.0185,-0.0185 0.0423,-0.0291 0.0766,-0.0291 h 0.96201 c 0.008,0 0.0185,0.003 0.0264,0.008 0.008,0.005 0.0159,0.0132 0.0211,0.0238 0.005,0.0106 0.008,0.0238 0.0106,0.0396 0.003,0.0159 0.005,0.0344 0.005,0.0555 0,0.0423 -0.005,0.074 -0.0159,0.0978 -0.0106,0.0211 -0.0264,0.0344 -0.0449,0.0344 h -0.77702 v 0.62108 c 0.037,-0.005 0.0766,-0.008 0.11629,-0.0106 0.0396,0 0.0846,0 0.13479,0 0.12157,0 0.22464,0.0132 0.3145,0.0449 0.0899,0.0291 0.16386,0.0714 0.22465,0.12686 0.0608,0.0555 0.10572,0.12422 0.13479,0.20351 0.0317,0.0766 0.0476,0.16386 0.0476,0.26164 z m 1.74431,0.58408 c 0,0.0212 -0.003,0.0396 -0.005,0.0555 -0.003,0.0159 -0.005,0.0291 -0.0106,0.0396 -0.005,0.0132 -0.0132,0.0211 -0.0211,0.0264 -0.008,0.003 -0.0185,0.005 -0.0291,0.005 h -1.19988 c -0.0159,0 -0.0291,0 -0.0396,-0.005 -0.0132,-0.003 -0.0238,-0.0106 -0.0317,-0.0185 -0.008,-0.0106 -0.0132,-0.0238 -0.0185,-0.0396 -0.003,-0.0185 -0.005,-0.0396 -0.005,-0.0634 0,-0.0238 0,-0.0423 0.003,-0.0608 0.003,-0.0159 0.005,-0.0317 0.0106,-0.0449 0.005,-0.0132 0.0132,-0.0264 0.0211,-0.0397 0.0106,-0.0132 0.0211,-0.0264 0.0344,-0.0423 l 0.43343,-0.45458 c 0.10043,-0.10572 0.18236,-0.20086 0.24315,-0.28279 0.0608,-0.0846 0.10571,-0.16122 0.14007,-0.22993 0.0317,-0.0661 0.0529,-0.12951 0.0634,-0.18501 0.0106,-0.0555 0.0159,-0.10835 0.0159,-0.15857 0,-0.0476 -0.008,-0.0951 -0.0238,-0.14007 -0.0159,-0.0423 -0.0396,-0.0819 -0.0687,-0.11629 -0.0317,-0.0317 -0.0714,-0.0581 -0.11629,-0.0766 -0.0476,-0.0211 -0.10043,-0.0291 -0.15857,-0.0291 -0.0714,0 -0.13479,0.008 -0.19029,0.0291 -0.0555,0.0185 -0.10572,0.0396 -0.148,0.0634 -0.0423,0.0212 -0.0766,0.0423 -0.10572,0.0634 -0.0291,0.0185 -0.0502,0.0291 -0.0634,0.0291 -0.008,0 -0.0159,-0.003 -0.0211,-0.008 -0.005,-0.005 -0.0106,-0.0106 -0.0159,-0.0212 -0.003,-0.0106 -0.008,-0.0238 -0.0106,-0.0423 0,-0.0159 -0.003,-0.037 -0.003,-0.0608 0,-0.0185 0,-0.0317 0.003,-0.0449 0,-0.0132 0.003,-0.0238 0.005,-0.0317 0.003,-0.0106 0.005,-0.0185 0.0106,-0.0264 0.005,-0.008 0.0132,-0.0185 0.0264,-0.0317 0.0132,-0.0106 0.037,-0.0264 0.0714,-0.0476 0.0317,-0.0211 0.074,-0.0396 0.12422,-0.0608 0.0502,-0.0211 0.10307,-0.037 0.16386,-0.0502 0.0608,-0.0132 0.12157,-0.0211 0.18764,-0.0211 0.10572,0 0.19822,0.0159 0.27751,0.0449 0.0793,0.0317 0.14536,0.0714 0.19557,0.12421 0.0529,0.0529 0.0925,0.11365 0.11893,0.185 0.0238,0.0687 0.037,0.14272 0.037,0.22201 0,0.0714 -0.005,0.14007 -0.0185,0.21143 -0.0132,0.0714 -0.037,0.14536 -0.0766,0.22729 -0.0396,0.0819 -0.0978,0.17443 -0.17443,0.27222 -0.074,0.10043 -0.17443,0.21672 -0.29865,0.34622 l -0.34358,0.36736 h 0.94616 c 0.008,0 0.0185,0.003 0.0264,0.008 0.008,0.005 0.0159,0.0132 0.0211,0.0211 0.005,0.0106 0.0106,0.0238 0.0132,0.0396 0.003,0.0159 0.005,0.0344 0.005,0.0529 z"
       id="path5032" />
    <path
       style="fill:#000000;fill-opacity:1;fill-rule:nonzero;stroke:none;stroke-width:0.264583"
       d="m 299.92363,204.55198 c 0,0.0846 -0.0396,0.15593 -0.12157,0.21407 -0.0819,0.0582 -0.18236,0.0872 -0.29865,0.0872 -0.11629,0 -0.21408,-0.0291 -0.29865,-0.0872 -0.0819,-0.0581 -0.12157,-0.1295 -0.12157,-0.21407 0,-0.0819 0.0396,-0.15065 0.12157,-0.20879 0.0819,-0.0608 0.17972,-0.0899 0.29865,-0.0899 0.11364,0 0.21407,0.0291 0.296,0.0899 0.0819,0.0581 0.12422,0.12686 0.12422,0.20879 z m -0.71358,0 c 0,0.0608 0.0291,0.10835 0.0846,0.15064 0.0581,0.0397 0.1295,0.0608 0.20879,0.0608 0.0846,0 0.15329,-0.0211 0.20879,-0.0608 0.0555,-0.0423 0.0846,-0.0899 0.0846,-0.15064 0,-0.0582 -0.0291,-0.10572 -0.0872,-0.14801 -0.0555,-0.0396 -0.12686,-0.0608 -0.2088,-0.0608 -0.0793,0 -0.148,0.0211 -0.20614,0.0634 -0.0555,0.0396 -0.0846,0.0899 -0.0846,0.14536 z"
       id="path5034" />
    <path
       style="fill:#000000;fill-opacity:1;fill-rule:evenodd;stroke:none;stroke-width:0.264583"
       d="m 283.3315,204.68676 c 0.30393,0 0.54972,0.24844 0.54972,0.54973 0,0.30393 -0.24579,0.54972 -0.54972,0.54972 -0.30129,0 -0.54972,-0.24579 -0.54972,-0.54972 0,-0.30129 0.24843,-0.54973 0.54972,-0.54973 z"
       id="path5036" />
    <path
       style="fill:none;stroke:#000000;stroke-width:0.211432px;stroke-linecap:round;stroke-linejoin:round;stroke-miterlimit:4;stroke-dasharray:none;stroke-opacity:1"
       d="m 286.43955,207.11823 c 0,-1.3003 -0.52065,-2.54775 -1.44831,-3.46748 -0.92766,-0.91973 -2.18568,-1.43774 -3.4992,-1.43774"
       id="path5038" />
    <path
       style="fill:none;stroke:#000000;stroke-width:0.211432px;stroke-linecap:round;stroke-linejoin:round;stroke-miterlimit:4;stroke-dasharray:none;stroke-opacity:1"
       d="M 314.43315,209.31713 V 180.7738 h -21.98893 l 21.98893,28.54333"
       id="path5040" />
    <path
       style="fill:none;stroke:#000000;stroke-width:0.211432px;stroke-linecap:round;stroke-linejoin:round;stroke-miterlimit:4;stroke-dasharray:none;stroke-opacity:1"
       d="m 314.43315,196.16605 c -1.44302,0 -2.87547,0.23522 -4.24185,0.69509 -1.36638,0.4625 -2.64819,1.14173 -3.79256,2.01124"
       id="path5042" />
    <path
       style="fill:#000000;fill-opacity:1;fill-rule:nonzero;stroke:none;stroke-width:0.264583"
       d="m 310.5613,201.26685 c 0,0.037 -0.008,0.0661 -0.0185,0.0899 -0.0106,0.0211 -0.0264,0.0317 -0.0476,0.0317 h -0.24315 v 0.46515 c 0,0.0106 -0.003,0.0185 -0.008,0.0238 -0.005,0.005 -0.0132,0.0106 -0.0238,0.0159 -0.0106,0.005 -0.0264,0.008 -0.0449,0.0106 -0.0185,0.003 -0.0423,0.003 -0.0714,0.003 -0.0264,0 -0.0502,0 -0.0687,-0.003 -0.0185,-0.003 -0.0344,-0.005 -0.0449,-0.0106 -0.0106,-0.005 -0.0185,-0.0106 -0.0211,-0.0159 -0.005,-0.005 -0.008,-0.0132 -0.008,-0.0238 v -0.46515 h -0.88802 c -0.0132,0 -0.0238,-0.003 -0.0344,-0.005 -0.008,-0.003 -0.0159,-0.0106 -0.0238,-0.0185 -0.008,-0.0106 -0.0106,-0.0238 -0.0132,-0.0396 -0.005,-0.0185 -0.005,-0.0396 -0.005,-0.0661 0,-0.0238 0,-0.0423 0.003,-0.0581 0,-0.0185 0.003,-0.0344 0.005,-0.0476 0.003,-0.0159 0.008,-0.0291 0.0132,-0.0423 0.005,-0.0132 0.0132,-0.0264 0.0211,-0.0423 l 0.77437,-1.34523 c 0.005,-0.0106 0.0132,-0.0185 0.0238,-0.0238 0.0106,-0.008 0.0264,-0.0132 0.0423,-0.0185 0.0185,-0.005 0.0396,-0.008 0.0634,-0.0106 0.0264,0 0.0555,0 0.0898,0 0.037,0 0.0687,0 0.0978,0.003 0.0291,0.003 0.0502,0.008 0.0687,0.0106 0.0159,0.005 0.0291,0.0106 0.037,0.0185 0.0106,0.008 0.0159,0.0159 0.0159,0.0264 v 1.4166 h 0.24315 c 0.0211,0 0.0344,0.0106 0.0476,0.0291 0.0106,0.0211 0.0185,0.0502 0.0185,0.0925 z m -0.59993,-1.33995 h -0.003 l -0.69772,1.21838 h 0.70037 z m 2.24646,1.85268 c 0,0.0238 -0.003,0.0423 -0.005,0.0555 -0.005,0.0159 -0.008,0.0264 -0.0132,0.037 -0.008,0.008 -0.0132,0.0159 -0.0211,0.0185 -0.008,0.005 -0.0132,0.005 -0.0211,0.005 h -1.13644 c -0.008,0 -0.0159,0 -0.0211,-0.005 -0.008,-0.003 -0.0132,-0.0106 -0.0185,-0.0185 -0.008,-0.0106 -0.0132,-0.0212 -0.0159,-0.037 -0.003,-0.0132 -0.005,-0.0317 -0.005,-0.0555 0,-0.0185 0.003,-0.037 0.005,-0.0529 0.003,-0.0132 0.008,-0.0264 0.0132,-0.037 0.005,-0.008 0.0106,-0.0159 0.0185,-0.0211 0.008,-0.005 0.0159,-0.008 0.0238,-0.008 h 0.45458 v -1.68617 l -0.42023,0.25636 c -0.0211,0.0106 -0.0396,0.0159 -0.0529,0.0185 -0.0106,0.003 -0.0211,0 -0.0291,-0.008 -0.008,-0.005 -0.0132,-0.0185 -0.0159,-0.037 -0.003,-0.0158 -0.005,-0.037 -0.005,-0.0634 0,-0.0212 0,-0.037 0.003,-0.0502 0.003,-0.0132 0.005,-0.0238 0.008,-0.0344 0.003,-0.008 0.008,-0.0159 0.0132,-0.0238 0.008,-0.008 0.0159,-0.0132 0.0238,-0.0212 l 0.50215,-0.32771 c 0.005,-0.003 0.0106,-0.005 0.0159,-0.008 0.008,-0.003 0.0159,-0.005 0.0264,-0.005 0.0106,-0.003 0.0211,-0.005 0.0344,-0.005 0.0132,0 0.0317,0 0.0502,0 0.0264,0 0.0502,0 0.0687,0.003 0.0159,0.003 0.0317,0.005 0.0396,0.008 0.0106,0.005 0.0185,0.0106 0.0211,0.0159 0.003,0.008 0.005,0.0132 0.005,0.0211 v 1.94781 h 0.39379 c 0.008,0 0.0159,0.003 0.0238,0.008 0.008,0.005 0.0159,0.0132 0.0211,0.0211 0.003,0.0106 0.008,0.0238 0.0106,0.037 0.003,0.0159 0.005,0.0344 0.005,0.0529 z"
       id="path5044" />
    <path
       style="fill:#000000;fill-opacity:1;fill-rule:nonzero;stroke:none;stroke-width:0.264583"
       d="m 313.41299,199.39304 c 0,0.0846 -0.0396,0.15593 -0.12157,0.21407 -0.0819,0.0582 -0.18236,0.0872 -0.29865,0.0872 -0.11629,0 -0.21407,-0.0291 -0.29864,-0.0872 -0.0819,-0.0581 -0.12158,-0.1295 -0.12158,-0.21407 0,-0.0819 0.0396,-0.15065 0.12158,-0.20879 0.0819,-0.0608 0.17971,-0.0899 0.29864,-0.0899 0.11365,0 0.21408,0.0291 0.29601,0.0899 0.0819,0.0581 0.12421,0.12686 0.12421,0.20879 z m -0.71358,0 c 0,0.0608 0.0291,0.10835 0.0846,0.15064 0.0582,0.0396 0.12951,0.0608 0.20879,0.0608 0.0846,0 0.15329,-0.0212 0.20879,-0.0608 0.0555,-0.0423 0.0846,-0.0899 0.0846,-0.15064 0,-0.0582 -0.0291,-0.10572 -0.0872,-0.14801 -0.0555,-0.0396 -0.12686,-0.0608 -0.20879,-0.0608 -0.0793,0 -0.148,0.0211 -0.20615,0.0634 -0.0555,0.0396 -0.0846,0.0899 -0.0846,0.14536 z"
       id="path5046" />
    <path
       style="fill:#000000;fill-opacity:1;fill-rule:evenodd;stroke:none;stroke-width:0.264583"
       d="m 312.55141,182.06354 c 0.30393,0 0.54972,0.24843 0.54972,0.54972 0,0.30393 -0.24579,0.54972 -0.54972,0.54972 -0.30129,0 -0.54973,-0.24579 -0.54973,-0.54972 0,-0.30129 0.24844,-0.54972 0.54973,-0.54972 z"
       id="path5048" />
    <path
       style="fill:none;stroke:#000000;stroke-width:0.211432px;stroke-linecap:round;stroke-linejoin:round;stroke-miterlimit:4;stroke-dasharray:none;stroke-opacity:1"
       d="m 314.43315,185.72131 c -1.31088,0 -2.5689,-0.52065 -3.49655,-1.44831 -0.92766,-0.92766 -1.45096,-2.18568 -1.45096,-3.4992"
       id="path5050" />
    <path
       style="fill:#000000;fill-opacity:1;fill-rule:nonzero;stroke:none;stroke-width:0.264583"
       d="m 295.40163,193.15579 c 0,0.13215 -0.0211,0.25108 -0.0661,0.35151 -0.0423,0.10307 -0.10307,0.19029 -0.18236,0.26164 -0.0793,0.0687 -0.17443,0.12158 -0.28543,0.15858 -0.10836,0.037 -0.22993,0.0555 -0.36472,0.0555 -0.074,0 -0.14536,-0.005 -0.21143,-0.0159 -0.0687,-0.0106 -0.12686,-0.0238 -0.17972,-0.0396 -0.0529,-0.0159 -0.0951,-0.0317 -0.1295,-0.0476 -0.0317,-0.0132 -0.0529,-0.0264 -0.0634,-0.0344 -0.008,-0.0106 -0.0159,-0.0185 -0.0185,-0.0264 -0.005,-0.008 -0.008,-0.0159 -0.0106,-0.0264 -0.003,-0.0106 -0.005,-0.0238 -0.008,-0.0423 0,-0.0159 0,-0.0343 0,-0.0581 0,-0.0211 0,-0.0396 0.003,-0.0581 0,-0.0159 0.005,-0.0317 0.0106,-0.0423 0.003,-0.0106 0.0106,-0.0185 0.0159,-0.0238 0.008,-0.003 0.0159,-0.005 0.0238,-0.005 0.0132,0 0.0317,0.008 0.0581,0.0238 0.0264,0.0159 0.0608,0.0317 0.10572,0.0502 0.0423,0.0185 0.0978,0.0344 0.16386,0.0529 0.0634,0.0159 0.14271,0.0238 0.22993,0.0238 0.0846,0 0.16122,-0.0106 0.22993,-0.0291 0.0687,-0.0211 0.1295,-0.0529 0.17972,-0.0951 0.0502,-0.0449 0.0899,-0.0978 0.11893,-0.16386 0.0264,-0.0661 0.0423,-0.14536 0.0423,-0.23786 0,-0.0793 -0.0132,-0.14801 -0.037,-0.20879 -0.0238,-0.0582 -0.0608,-0.10836 -0.11101,-0.15065 -0.0502,-0.0396 -0.11364,-0.0687 -0.19029,-0.0872 -0.0766,-0.0211 -0.16914,-0.0291 -0.2775,-0.0291 -0.074,0 -0.14007,0.003 -0.19557,0.0106 -0.0529,0.008 -0.10308,0.0106 -0.15065,0.0106 -0.0344,0 -0.0608,-0.008 -0.074,-0.0238 -0.0159,-0.0159 -0.0238,-0.0476 -0.0238,-0.0951 v -1.00166 c 0,-0.0423 0.0106,-0.0714 0.0291,-0.0925 0.0185,-0.0212 0.0476,-0.0317 0.0819,-0.0317 h 1.06773 c 0.0106,0 0.0185,0.003 0.0291,0.0106 0.008,0.005 0.0159,0.0132 0.0238,0.0238 0.005,0.0132 0.0106,0.0264 0.0132,0.0449 0.003,0.0185 0.005,0.037 0.005,0.0634 0,0.0449 -0.008,0.0793 -0.0185,0.10571 -0.0132,0.0238 -0.0291,0.037 -0.0502,0.037 h -0.86159 v 0.6898 c 0.0423,-0.005 0.0846,-0.0106 0.12951,-0.0106 0.0423,-0.003 0.0925,-0.003 0.15064,-0.003 0.13215,0 0.24843,0.0159 0.34886,0.0502 0.0978,0.0344 0.18237,0.0819 0.24844,0.14272 0.0661,0.0608 0.11628,0.13479 0.15064,0.22464 0.0344,0.0872 0.0502,0.18236 0.0502,0.28808 z"
       id="path5052" />
    <path
       style="fill:#000000;fill-opacity:1;fill-rule:nonzero;stroke:none;stroke-width:0.264583"
       d="m 301.99831,197.55358 c 0,0.13214 -0.0211,0.25107 -0.0661,0.3515 -0.0423,0.10308 -0.10308,0.19029 -0.18237,0.26165 -0.0793,0.0687 -0.17443,0.12157 -0.28543,0.15857 -0.10836,0.037 -0.22993,0.0555 -0.36472,0.0555 -0.074,0 -0.14536,-0.005 -0.21143,-0.0159 -0.0687,-0.0106 -0.12686,-0.0238 -0.17972,-0.0396 -0.0529,-0.0159 -0.0951,-0.0317 -0.1295,-0.0476 -0.0317,-0.0132 -0.0529,-0.0264 -0.0634,-0.0344 -0.008,-0.0106 -0.0159,-0.0185 -0.0185,-0.0264 -0.005,-0.008 -0.008,-0.0159 -0.0106,-0.0264 -0.003,-0.0106 -0.005,-0.0238 -0.008,-0.0423 0,-0.0159 0,-0.0344 0,-0.0581 0,-0.0212 0,-0.0396 0.003,-0.0581 0,-0.0159 0.005,-0.0317 0.0106,-0.0423 0.003,-0.0106 0.0106,-0.0185 0.0159,-0.0238 0.008,-0.003 0.0159,-0.005 0.0238,-0.005 0.0132,0 0.0317,0.008 0.0581,0.0238 0.0264,0.0159 0.0608,0.0317 0.10572,0.0502 0.0423,0.0185 0.0978,0.0344 0.16386,0.0529 0.0634,0.0159 0.14271,0.0238 0.22993,0.0238 0.0846,0 0.16122,-0.0106 0.22993,-0.0291 0.0687,-0.0212 0.1295,-0.0529 0.17972,-0.0952 0.0502,-0.0449 0.0899,-0.0978 0.11893,-0.16386 0.0264,-0.0661 0.0423,-0.14536 0.0423,-0.23786 0,-0.0793 -0.0132,-0.148 -0.037,-0.20879 -0.0238,-0.0581 -0.0608,-0.10836 -0.111,-0.15064 -0.0502,-0.0396 -0.11364,-0.0687 -0.19028,-0.0872 -0.0766,-0.0211 -0.16915,-0.0291 -0.27751,-0.0291 -0.074,0 -0.14007,0.003 -0.19558,0.0106 -0.0528,0.008 -0.10307,0.0106 -0.15064,0.0106 -0.0344,0 -0.0608,-0.008 -0.074,-0.0238 -0.0159,-0.0159 -0.0238,-0.0476 -0.0238,-0.0951 v -1.00166 c 0,-0.0423 0.0106,-0.0714 0.0291,-0.0925 0.0185,-0.0211 0.0476,-0.0317 0.0819,-0.0317 h 1.06774 c 0.0106,0 0.0185,0.003 0.0291,0.0106 0.008,0.005 0.0159,0.0132 0.0238,0.0238 0.005,0.0132 0.0106,0.0264 0.0132,0.0449 0.003,0.0185 0.005,0.037 0.005,0.0634 0,0.0449 -0.008,0.0793 -0.0185,0.10572 -0.0132,0.0238 -0.0291,0.037 -0.0502,0.037 h -0.86159 v 0.6898 c 0.0423,-0.005 0.0846,-0.0106 0.12951,-0.0106 0.0423,-0.003 0.0925,-0.003 0.15064,-0.003 0.13215,0 0.24843,0.0159 0.34886,0.0502 0.0978,0.0344 0.18236,0.0819 0.24844,0.14271 0.0661,0.0608 0.11628,0.13479 0.15064,0.22465 0.0344,0.0872 0.0502,0.18236 0.0502,0.28808 z"
       id="path5054" />
    <path
       style="fill:#000000;fill-opacity:1;fill-rule:evenodd;stroke:none;stroke-width:0.264583"
       d="m 325.48472,181.68836 c 0.25901,0 0.46515,0.21143 0.46515,0.46515 0,0.259 -0.20614,0.46515 -0.46515,0.46515 -0.25371,0 -0.46515,-0.20615 -0.46515,-0.46515 0,-0.25372 0.21144,-0.46515 0.46515,-0.46515 z"
       id="path5056" />
    <path
       style="fill:none;stroke:#000000;stroke-width:0.211432px;stroke-linecap:round;stroke-linejoin:round;stroke-miterlimit:4;stroke-dasharray:none;stroke-opacity:1"
       d="m 328.29677,180.31405 c 0,1.23688 -0.48101,2.4209 -1.34788,3.29305 -0.86159,0.87216 -2.03503,1.35845 -3.26134,1.35845"
       id="path5058" />
    <path
       style="fill:#000000;fill-opacity:1;fill-rule:nonzero;stroke:none;stroke-width:0.264583"
       d="m 334.29087,179.2146 c 0,0.111 -0.0159,0.21143 -0.0582,0.30129 -0.037,0.0899 -0.0899,0.16915 -0.16386,0.23258 -0.074,0.0634 -0.15857,0.11629 -0.26429,0.148 -0.10571,0.037 -0.22729,0.0529 -0.35943,0.0529 -0.0793,0 -0.15329,-0.005 -0.22729,-0.0159 -0.0687,-0.0159 -0.13215,-0.0317 -0.185,-0.0476 -0.0529,-0.0211 -0.10043,-0.0423 -0.13743,-0.0581 -0.037,-0.0212 -0.0581,-0.037 -0.0687,-0.0423 -0.005,-0.0106 -0.0159,-0.0211 -0.0211,-0.0264 -0.005,-0.0106 -0.005,-0.0211 -0.0106,-0.0317 -0.005,-0.0159 -0.005,-0.0317 -0.0106,-0.0476 0,-0.0211 0,-0.0423 0,-0.0687 0,-0.0476 0.005,-0.0793 0.0106,-0.0951 0.0106,-0.0159 0.0211,-0.0264 0.0423,-0.0264 0.0106,0 0.0317,0.0106 0.0634,0.0317 0.037,0.0211 0.0793,0.0423 0.13215,0.0634 0.0528,0.0264 0.11629,0.0476 0.185,0.0687 0.0687,0.0159 0.148,0.0264 0.23786,0.0264 0.0793,0 0.15329,-0.0106 0.21672,-0.0317 0.0687,-0.0211 0.12157,-0.0529 0.16386,-0.0899 0.0423,-0.0423 0.074,-0.0846 0.0951,-0.14272 0.0211,-0.0528 0.0317,-0.111 0.0317,-0.17443 0,-0.0687 -0.0106,-0.13214 -0.037,-0.185 -0.0317,-0.0581 -0.0687,-0.10572 -0.12158,-0.148 -0.0528,-0.037 -0.12157,-0.0687 -0.19557,-0.0899 -0.0793,-0.0212 -0.16915,-0.0317 -0.26429,-0.0317 h -0.23786 c -0.0106,0 -0.0211,-0.005 -0.0317,-0.0106 -0.0106,0 -0.0159,-0.0106 -0.0264,-0.0211 -0.005,-0.0106 -0.0106,-0.0211 -0.0159,-0.037 -0.005,-0.0159 -0.005,-0.037 -0.005,-0.0687 0,-0.0211 0,-0.0423 0.005,-0.0581 0.005,-0.0159 0.0106,-0.0264 0.0159,-0.037 0.005,-0.0106 0.0159,-0.0159 0.0211,-0.0212 0.0106,-0.005 0.0211,-0.005 0.0317,-0.005 h 0.21143 c 0.0793,0 0.15329,-0.0106 0.21672,-0.0317 0.0687,-0.0211 0.12158,-0.0529 0.16915,-0.0951 0.0423,-0.0423 0.0793,-0.0899 0.10571,-0.14272 0.0212,-0.0581 0.0317,-0.12157 0.0317,-0.19029 0,-0.0529 -0.005,-0.10043 -0.0211,-0.148 -0.0159,-0.0423 -0.0423,-0.0846 -0.074,-0.12157 -0.0317,-0.0317 -0.074,-0.0581 -0.12157,-0.0793 -0.0529,-0.0211 -0.111,-0.0264 -0.17443,-0.0264 -0.074,0 -0.13743,0.0106 -0.20086,0.0317 -0.0581,0.0211 -0.111,0.0476 -0.15858,0.0687 -0.0476,0.0264 -0.0899,0.0529 -0.11628,0.074 -0.0317,0.0212 -0.0529,0.0317 -0.0687,0.0317 -0.005,0 -0.0159,0 -0.0211,-0.005 -0.005,0 -0.0106,-0.0106 -0.0159,-0.0159 -0.005,-0.0106 -0.0106,-0.0264 -0.0106,-0.0423 0,-0.0159 -0.005,-0.037 -0.005,-0.0687 0,-0.0159 0.005,-0.0317 0.005,-0.0476 0,-0.0159 0,-0.0264 0.005,-0.037 0.005,-0.0106 0.0106,-0.0211 0.0159,-0.0317 0.005,-0.0106 0.0106,-0.0212 0.0211,-0.0317 0.0159,-0.0106 0.037,-0.0264 0.074,-0.0529 0.037,-0.0211 0.0793,-0.0423 0.13214,-0.0634 0.0529,-0.0264 0.11629,-0.0423 0.18501,-0.0581 0.0687,-0.0159 0.14271,-0.0211 0.222,-0.0211 0.111,0 0.20614,0.0106 0.29072,0.0423 0.0846,0.0264 0.15857,0.0687 0.21143,0.12158 0.0581,0.0529 0.10043,0.11628 0.12686,0.19028 0.0317,0.074 0.0423,0.15858 0.0423,0.24844 0,0.0793 -0.0106,0.148 -0.0264,0.21672 -0.0212,0.0634 -0.0529,0.12157 -0.0899,0.17443 -0.037,0.0529 -0.0846,0.0951 -0.14272,0.13214 -0.0529,0.037 -0.11629,0.0581 -0.19029,0.074 v 0.005 c 0.0793,0.005 0.15858,0.0317 0.22729,0.0634 0.0687,0.0317 0.12686,0.074 0.17443,0.12686 0.0529,0.0476 0.0899,0.111 0.11629,0.17443 0.0317,0.0687 0.0423,0.14272 0.0423,0.222 z"
       id="path5060" />
    <path
       style="fill:#000000;fill-opacity:1;fill-rule:nonzero;stroke:none;stroke-width:0.264583"
       d="m 337.59978,194.93986 c 0,0.13215 -0.0211,0.24843 -0.0687,0.34886 -0.0423,0.10572 -0.10043,0.19029 -0.17971,0.26429 -0.0793,0.0687 -0.17444,0.12158 -0.28544,0.15858 -0.111,0.037 -0.23257,0.0529 -0.36472,0.0529 -0.074,0 -0.148,-0.005 -0.21143,-0.0159 -0.0687,-0.0106 -0.12686,-0.0212 -0.17972,-0.037 -0.0528,-0.0159 -0.0951,-0.0317 -0.13214,-0.0476 -0.0317,-0.0159 -0.0529,-0.0264 -0.0634,-0.037 -0.0106,-0.0106 -0.0159,-0.0159 -0.0159,-0.0264 -0.005,-0.005 -0.0106,-0.0159 -0.0106,-0.0264 -0.005,-0.0106 -0.005,-0.0212 -0.0106,-0.0423 0,-0.0159 0,-0.0317 0,-0.0581 0,-0.0212 0,-0.037 0.005,-0.0582 0,-0.0159 0.005,-0.0317 0.0106,-0.0423 0,-0.0106 0.0106,-0.0159 0.0159,-0.0212 0.005,-0.005 0.0159,-0.005 0.0211,-0.005 0.0159,0 0.0317,0.005 0.0581,0.0211 0.0264,0.0159 0.0634,0.0317 0.10571,0.0529 0.0423,0.0159 0.10044,0.0317 0.16387,0.0529 0.0634,0.0159 0.14271,0.0211 0.23257,0.0211 0.0846,0 0.15858,-0.0106 0.22729,-0.0264 0.0687,-0.0211 0.13214,-0.0529 0.17972,-0.0951 0.0528,-0.0476 0.0899,-0.10043 0.12157,-0.16386 0.0264,-0.0687 0.0423,-0.14801 0.0423,-0.23787 0,-0.0793 -0.0159,-0.148 -0.037,-0.21143 -0.0264,-0.0581 -0.0634,-0.10571 -0.111,-0.148 -0.0529,-0.0423 -0.11629,-0.0687 -0.19029,-0.0899 -0.0793,-0.0211 -0.16915,-0.0264 -0.28015,-0.0264 -0.074,0 -0.13743,0 -0.19558,0.0106 -0.0528,0.005 -0.10043,0.0106 -0.148,0.0106 -0.037,0 -0.0634,-0.0106 -0.074,-0.0264 -0.0159,-0.0159 -0.0264,-0.0476 -0.0264,-0.0952 v -0.99901 c 0,-0.0423 0.0106,-0.074 0.0317,-0.0951 0.0159,-0.0211 0.0476,-0.0317 0.0793,-0.0317 h 1.06774 c 0.0106,0 0.0211,0.005 0.0317,0.0106 0.005,0.005 0.0159,0.0159 0.0211,0.0264 0.005,0.0106 0.0106,0.0264 0.0159,0.0423 0,0.0211 0.005,0.037 0.005,0.0634 0,0.0476 -0.0106,0.0793 -0.0212,0.10572 -0.0106,0.0264 -0.0264,0.037 -0.0476,0.037 h -0.86159 v 0.69244 c 0.0423,-0.005 0.0846,-0.0106 0.12686,-0.0106 0.0423,-0.005 0.0951,-0.005 0.15329,-0.005 0.13215,0 0.24843,0.0159 0.34886,0.0529 0.0951,0.0317 0.17972,0.0793 0.24844,0.14272 0.0634,0.0581 0.11628,0.13214 0.148,0.222 0.037,0.0899 0.0529,0.185 0.0529,0.29072 z"
       id="path5062" />
    <path
       style="fill:none;stroke:#000000;stroke-width:0.211432px;stroke-linecap:round;stroke-linejoin:round;stroke-miterlimit:4;stroke-dasharray:none;stroke-opacity:1"
       d="m 323.68755,180.31405 h 19.74775 l -19.74775,26.38672 v -26.38672"
       id="path5064" />
    <path
       style="fill:#000000;fill-opacity:1;fill-rule:evenodd;stroke:none;stroke-width:0.264583"
       d="m 358.0664,204.35387 c 0.24843,0 0.44401,0.21143 0.44401,0.46515 0,0.25901 -0.19558,0.46515 -0.44401,0.46515 -0.24315,0 -0.44401,-0.20614 -0.44401,-0.46515 0,-0.25372 0.20086,-0.46515 0.44401,-0.46515 z"
       id="path5066" />
    <path
       style="fill:none;stroke:#000000;stroke-width:0.211432px;stroke-linecap:round;stroke-linejoin:round;stroke-miterlimit:4;stroke-dasharray:none;stroke-opacity:1"
       d="m 355.31778,206.70077 c 0,-1.22102 0.4863,-2.39447 1.35317,-3.25606 0.86158,-0.86687 2.03503,-1.35316 3.25605,-1.35316"
       id="path5068" />
    <path
       style="fill:#000000;fill-opacity:1;fill-rule:nonzero;stroke:none;stroke-width:0.264583"
       d="m 347.45251,194.93986 c 0,0.13215 -0.0211,0.24843 -0.0687,0.34886 -0.0423,0.10572 -0.10044,0.19029 -0.17972,0.26429 -0.0793,0.0687 -0.17443,0.12158 -0.28544,0.15858 -0.111,0.037 -0.23257,0.0529 -0.36472,0.0529 -0.074,0 -0.148,-0.005 -0.21143,-0.0159 -0.0687,-0.0106 -0.12686,-0.0212 -0.17971,-0.037 -0.0529,-0.0159 -0.0951,-0.0317 -0.13215,-0.0476 -0.0317,-0.0159 -0.0529,-0.0264 -0.0634,-0.037 -0.0106,-0.0106 -0.0159,-0.0159 -0.0159,-0.0264 -0.005,-0.005 -0.0106,-0.0159 -0.0106,-0.0264 -0.005,-0.0106 -0.005,-0.0212 -0.0106,-0.0423 0,-0.0159 0,-0.0317 0,-0.0581 0,-0.0212 0,-0.037 0.005,-0.0582 0,-0.0159 0.005,-0.0317 0.0106,-0.0423 0,-0.0106 0.0106,-0.0159 0.0159,-0.0212 0.005,-0.005 0.0159,-0.005 0.0211,-0.005 0.0159,0 0.0317,0.005 0.0581,0.0211 0.0264,0.0159 0.0634,0.0317 0.10572,0.0529 0.0423,0.0159 0.10043,0.0317 0.16386,0.0529 0.0634,0.0159 0.14271,0.0211 0.23257,0.0211 0.0846,0 0.15858,-0.0106 0.22729,-0.0264 0.0687,-0.0211 0.13215,-0.0529 0.17972,-0.0951 0.0529,-0.0476 0.0899,-0.10043 0.12157,-0.16386 0.0264,-0.0687 0.0423,-0.14801 0.0423,-0.23787 0,-0.0793 -0.0159,-0.148 -0.037,-0.21143 -0.0264,-0.0581 -0.0634,-0.10571 -0.111,-0.148 -0.0529,-0.0423 -0.11629,-0.0687 -0.19029,-0.0899 -0.0793,-0.0211 -0.16915,-0.0264 -0.28015,-0.0264 -0.074,0 -0.13743,0 -0.19557,0.0106 -0.0529,0.005 -0.10043,0.0106 -0.14801,0.0106 -0.037,0 -0.0634,-0.0106 -0.074,-0.0264 -0.0159,-0.0159 -0.0264,-0.0476 -0.0264,-0.0952 v -0.99901 c 0,-0.0423 0.0106,-0.074 0.0317,-0.0951 0.0159,-0.0211 0.0476,-0.0317 0.0793,-0.0317 h 1.06773 c 0.0106,0 0.0211,0.005 0.0317,0.0106 0.005,0.005 0.0159,0.0159 0.0211,0.0264 0.005,0.0106 0.0106,0.0264 0.0159,0.0423 0,0.0211 0.005,0.037 0.005,0.0634 0,0.0476 -0.0106,0.0793 -0.0212,0.10572 -0.0106,0.0264 -0.0264,0.037 -0.0476,0.037 h -0.86158 v 0.69244 c 0.0423,-0.005 0.0846,-0.0106 0.12686,-0.0106 0.0423,-0.005 0.0951,-0.005 0.15329,-0.005 0.13214,0 0.24843,0.0159 0.34886,0.0529 0.0951,0.0317 0.17971,0.0793 0.24843,0.14272 0.0634,0.0581 0.11629,0.13214 0.148,0.222 0.037,0.0899 0.0529,0.185 0.0529,0.29072 z"
       id="path5070" />
    <path
       style="fill:#000000;fill-opacity:1;fill-rule:nonzero;stroke:none;stroke-width:0.264583"
       d="m 363.08262,195.02972 c 0,0.0423 -0.005,0.074 -0.0159,0.10043 -0.0159,0.0211 -0.0317,0.037 -0.0529,0.037 h -0.27486 v 0.51272 c 0,0.0106 0,0.0211 -0.005,0.0264 -0.005,0.0106 -0.0159,0.0159 -0.0264,0.0211 -0.0106,0.005 -0.0317,0.005 -0.0529,0.0106 -0.0159,0 -0.0423,0.005 -0.074,0.005 -0.0317,0 -0.0581,-0.005 -0.0793,-0.005 -0.0211,-0.005 -0.037,-0.005 -0.0476,-0.0106 -0.0106,-0.005 -0.0211,-0.0106 -0.0264,-0.0211 -0.005,-0.005 -0.005,-0.0159 -0.005,-0.0264 v -0.51272 h -0.98845 c -0.0106,0 -0.0264,-0.005 -0.037,-0.005 -0.005,-0.005 -0.0159,-0.0106 -0.0264,-0.0211 -0.005,-0.0106 -0.0106,-0.0264 -0.0159,-0.0476 0,-0.0159 -0.005,-0.0423 -0.005,-0.074 0,-0.0211 0,-0.0423 0.005,-0.0634 0,-0.0159 0,-0.037 0.005,-0.0529 0.005,-0.0159 0.0106,-0.0317 0.0159,-0.0423 0.005,-0.0159 0.0106,-0.0317 0.0211,-0.0476 l 0.86159,-1.49588 c 0.005,-0.005 0.0106,-0.0159 0.0264,-0.0264 0.0106,-0.005 0.0264,-0.0106 0.0476,-0.0159 0.0159,-0.005 0.0423,-0.0106 0.0687,-0.0106 0.0264,-0.005 0.0582,-0.005 0.0951,-0.005 0.0423,0 0.0793,0.005 0.111,0.005 0.0317,0.005 0.0581,0.0106 0.074,0.0159 0.0212,0 0.037,0.0106 0.0476,0.0159 0.0106,0.0106 0.0106,0.0211 0.0106,0.0317 v 1.56988 h 0.27486 c 0.0211,0 0.037,0.0106 0.0529,0.0317 0.0106,0.0211 0.0159,0.0581 0.0159,0.10043 z m -0.66072,-1.48003 h -0.005 l -0.77173,1.34788 h 0.77702 z"
       id="path5072" />
    <path
       style="fill:none;stroke:#000000;stroke-width:0.211432px;stroke-linecap:round;stroke-linejoin:round;stroke-miterlimit:4;stroke-dasharray:none;stroke-opacity:1"
       d="M 340.13696,206.70077 H 359.927 v -26.38672 l -19.79004,26.38672"
       id="path5074" />
    <rect
       style="fill:#000000;stroke-width:0.358219"
       id="rect5118"
       width="0.28919181"
       height="76.202042"
       x="318.76132"
       y="133.41846" />
    <rect
       style="fill:#000000;stroke-width:0.264583"
       id="rect5120"
       width="89.50486"
       height="0.14459591"
       x="275.96094"
       y="175.78506" />
  </g>
</svg>
