<?xml version="1.0" encoding="UTF-8" standalone="no"?>

<svg
   viewBox="0 0 109.59625 32.147213"
   version="1.1"
   id="svg5"
   inkscape:version="1.2.2 (732a01da63, 2022-12-09)"
   sodipodi:docname="kwiecień2019z11.svg"
   xmlns:inkscape="http://www.inkscape.org/namespaces/inkscape"
   xmlns:sodipodi="http://sodipodi.sourceforge.net/DTD/sodipodi-0.dtd"
   xmlns="http://www.w3.org/2000/svg"
   xmlns:svg="http://www.w3.org/2000/svg">
  <sodipodi:namedview
     id="namedview7"
     pagecolor="#ffffff"
     bordercolor="#000000"
     borderopacity="0.25"
     inkscape:showpageshadow="2"
     inkscape:pageopacity="0.0"
     inkscape:pagecheckerboard="0"
     inkscape:deskcolor="#d1d1d1"
     inkscape:document-units="mm"
     showgrid="false"
     inkscape:zoom="1.829812"
     inkscape:cx="250.57219"
     inkscape:cy="99.190517"
     inkscape:window-width="1958"
     inkscape:window-height="1368"
     inkscape:window-x="2553"
     inkscape:window-y="127"
     inkscape:window-maximized="0"
     inkscape:current-layer="layer1" />
  <defs
     id="defs2">
    <clipPath
       clipPathUnits="userSpaceOnUse"
       id="clipEmfPath1">
      <path
         d="M 0,0 H 601.09294 V 344.25796 H 0 Z"
         id="path278" />
    </clipPath>
    <pattern
       id="EMFhbasepattern"
       patternUnits="userSpaceOnUse"
       width="6"
       height="6"
       x="0"
       y="0" />
    <clipPath
       clipPathUnits="userSpaceOnUse"
       id="clipEmfPath1-0">
      <path
         d="M 0,0 H 601.09294 V 281.60749 H 0 Z"
         id="path697" />
    </clipPath>
    <clipPath
       clipPathUnits="userSpaceOnUse"
       id="clipEmfPath2">
      <path
         d="m 316.92829,14.54386 h 52.58165 v 62.330828 h -52.58165 z"
         id="path700" />
    </clipPath>
    <clipPath
       clipPathUnits="userSpaceOnUse"
       id="clipEmfPath3">
      <path
         d="m 318.52734,15.34375 v 60.732422 h 24.45118 V 15.34375 Z"
         id="path703" />
    </clipPath>
    <clipPath
       clipPathUnits="userSpaceOnUse"
       id="clipEmfPath4">
      <path
         d="m 343.29883,15.34375 v 29.886719 h 24.61328 V 15.34375 Z"
         id="path706" />
    </clipPath>
    <clipPath
       clipPathUnits="userSpaceOnUse"
       id="clipEmfPath5">
      <path
         d="m 342.97852,46.029297 v 30.046875 h 24.45312 V 46.029297 Z"
         id="path709" />
    </clipPath>
    <pattern
       id="EMFhbasepattern-6"
       patternUnits="userSpaceOnUse"
       width="6"
       height="6"
       x="0"
       y="0" />
    <clipPath
       clipPathUnits="userSpaceOnUse"
       id="clipEmfPath1-4">
      <path
         d="M 0,0 H 601.09294 V 221.51418 H 0 Z"
         id="path1547" />
    </clipPath>
    <pattern
       id="EMFhbasepattern-7"
       patternUnits="userSpaceOnUse"
       width="6"
       height="6"
       x="0"
       y="0" />
    <clipPath
       clipPathUnits="userSpaceOnUse"
       id="clipEmfPath1-6">
      <path
         d="M 0,0 H 686.11858 V 297.42993 H 0 Z"
         id="path1856" />
    </clipPath>
    <pattern
       id="EMFhbasepattern-0"
       patternUnits="userSpaceOnUse"
       width="6"
       height="6"
       x="0"
       y="0" />
    <clipPath
       clipPathUnits="userSpaceOnUse"
       id="clipEmfPath1-5">
      <path
         d="M -236.05804,0 H 450.06055 V 160.46193 H -236.05804 Z"
         id="path2132" />
    </clipPath>
    <pattern
       id="EMFhbasepattern-4"
       patternUnits="userSpaceOnUse"
       width="6"
       height="6"
       x="0"
       y="0" />
    <clipPath
       clipPathUnits="userSpaceOnUse"
       id="clipEmfPath1-7">
      <path
         d="M 0,0 H 686.11858 V 194.98362 H 0 Z"
         id="path2256" />
    </clipPath>
    <pattern
       id="EMFhbasepattern-1"
       patternUnits="userSpaceOnUse"
       width="6"
       height="6"
       x="0"
       y="0" />
    <clipPath
       clipPathUnits="userSpaceOnUse"
       id="clipEmfPath1-00">
      <path
         d="M 0,0 H 686.11858 V 131.53403 H 0 Z"
         id="path2517" />
    </clipPath>
    <pattern
       id="EMFhbasepattern-8"
       patternUnits="userSpaceOnUse"
       width="6"
       height="6"
       x="0"
       y="0" />
    <clipPath
       clipPathUnits="userSpaceOnUse"
       id="clipEmfPath1-9">
      <path
         d="M 0,0 H 686.11858 V 265.94487 H 0 Z"
         id="path3071" />
    </clipPath>
    <clipPath
       clipPathUnits="userSpaceOnUse"
       id="clipEmfPath2-4">
      <path
         d="M 188.75053,44.590516 H 242.1313 V 69.842492 H 188.75053 Z"
         id="path3074" />
    </clipPath>
    <clipPath
       clipPathUnits="userSpaceOnUse"
       id="clipEmfPath3-9">
      <path
         d="m 190.18945,49.865234 v 19.337891 h 25.41211 V 49.865234 Z"
         id="path3077" />
    </clipPath>
    <clipPath
       clipPathUnits="userSpaceOnUse"
       id="clipEmfPath4-8">
      <path
         d="m 216.24023,49.865234 v 19.337891 h 24.61329 V 49.865234 Z"
         id="path3080" />
    </clipPath>
    <clipPath
       clipPathUnits="userSpaceOnUse"
       id="clipEmfPath5-2">
      <path
         d="m 123.06343,110.91691 h 53.70041 v 25.4118 h -53.70041 z"
         id="path3083" />
    </clipPath>
    <clipPath
       clipPathUnits="userSpaceOnUse"
       id="clipEmfPath6">
      <path
         d="m 124.50195,116.19141 v 19.49804 h 24.77149 v -19.49804 z"
         id="path3086" />
    </clipPath>
    <clipPath
       clipPathUnits="userSpaceOnUse"
       id="clipEmfPath7">
      <path
         d="m 149.91406,116.19141 v 19.49804 h 25.57032 v -19.49804 z"
         id="path3089" />
    </clipPath>
    <pattern
       id="EMFhbasepattern-70"
       patternUnits="userSpaceOnUse"
       width="6"
       height="6"
       x="0"
       y="0" />
    <clipPath
       clipPathUnits="userSpaceOnUse"
       id="clipEmfPath1-02">
      <path
         d="M 0,0.79911319 H 686.11858 V 226.30885 H 0 Z"
         id="path3695" />
    </clipPath>
    <pattern
       id="EMFhbasepattern-64"
       patternUnits="userSpaceOnUse"
       width="6"
       height="6"
       x="0"
       y="0" />
  </defs>
  <g
     inkscape:label="Warstwa 1"
     inkscape:groupmode="layer"
     id="layer1"
     transform="translate(-142.01698,-146.64147)">
    <text
       xml:space="preserve"
       style="font-style:normal;font-variant:normal;font-weight:400;font-size:3.88607px;line-height:125%;font-family:Calibri;text-align:start;letter-spacing:0px;word-spacing:0px;text-anchor:start;fill:#000000;fill-opacity:1;stroke:none;stroke-width:0.264583"
       x="142.01698"
       y="168.76631"
       id="text3127"><tspan
         sodipodi:role="line"
         x="142.01698"
         y="168.76631"
         id="tspan3125"
         style="stroke-width:0.264583"><tspan
           dx="0"
           dy="0"
           style="font-style:normal;font-variant:normal;font-weight:400;font-size:3.88607px;font-family:Calibri;fill:#000000;stroke-width:0.264583"
           id="tspan3123"> </tspan></tspan></text>
    <text
       xml:space="preserve"
       style="font-style:normal;font-variant:normal;font-weight:400;font-size:3.88607px;line-height:125%;font-family:Calibri;text-align:start;letter-spacing:0px;word-spacing:0px;text-anchor:start;fill:#000000;fill-opacity:1;stroke:none;stroke-width:0.264583"
       x="295.38977"
       y="191.30496"
       id="text3209"><tspan
         sodipodi:role="line"
         x="295.38977"
         y="191.30496"
         id="tspan3207"
         style="stroke-width:0.264583"><tspan
           dx="0"
           dy="0"
           style="font-style:normal;font-variant:normal;font-weight:400;font-size:3.88607px;font-family:Calibri;fill:#181717;stroke-width:0.264583"
           id="tspan3205"> </tspan></tspan></text>
    <text
       xml:space="preserve"
       style="font-style:italic;font-variant:normal;font-weight:400;font-size:3.88607px;line-height:125%;font-family:Calibri;text-align:start;letter-spacing:0px;word-spacing:0px;text-anchor:start;fill:#000000;fill-opacity:1;stroke:none;stroke-width:0.264583"
       x="166.30167"
       y="151.30942"
       id="text3707"><tspan
         sodipodi:role="line"
         x="166.30167"
         y="151.30942"
         id="tspan3705"
         style="stroke-width:0.264583"><tspan
           dx="0"
           dy="0"
           style="font-style:italic;font-variant:normal;font-weight:400;font-size:3.88607px;font-family:Calibri;fill:#000000;stroke-width:0.264583"
           id="tspan3701">C</tspan><tspan
           dx="0"
           dy="0"
           style="font-style:italic;font-variant:normal;font-weight:400;font-size:3.88607px;font-family:Arial;fill:#000000;stroke-width:0.264583"
           id="tspan3703"> </tspan></tspan></text>
    <text
       xml:space="preserve"
       style="font-style:italic;font-variant:normal;font-weight:400;font-size:3.88607px;line-height:125%;font-family:Calibri;text-align:start;letter-spacing:0px;word-spacing:0px;text-anchor:start;fill:#000000;fill-opacity:1;stroke:none;stroke-width:0.264583"
       x="211.68765"
       y="174.44476"
       id="text3713"><tspan
         sodipodi:role="line"
         x="211.68765"
         y="174.44476"
         id="tspan3711"
         style="stroke-width:0.264583"><tspan
           dx="0"
           dy="0"
           style="font-style:italic;font-variant:normal;font-weight:400;font-size:3.88607px;font-family:Calibri;fill:#000000;stroke-width:0.264583"
           id="tspan3709"> </tspan></tspan></text>
    <text
       xml:space="preserve"
       style="font-style:italic;font-variant:normal;font-weight:400;font-size:3.88607px;line-height:125%;font-family:Calibri;text-align:start;letter-spacing:0px;word-spacing:0px;text-anchor:start;fill:#000000;fill-opacity:1;stroke:none;stroke-width:0.264583"
       x="142.80515"
       y="178.20425"
       id="text3721"><tspan
         sodipodi:role="line"
         x="142.80515"
         y="178.20425"
         id="tspan3719"
         style="stroke-width:0.264583"><tspan
           dx="0 0"
           dy="0 0"
           style="font-style:italic;font-variant:normal;font-weight:400;font-size:3.88607px;font-family:Calibri;fill:#000000;stroke-width:0.264583"
           id="tspan3715">A </tspan></tspan></text>
    <text
       xml:space="preserve"
       style="font-style:italic;font-variant:normal;font-weight:400;font-size:3.88607px;line-height:125%;font-family:Calibri;text-align:start;letter-spacing:0px;word-spacing:0px;text-anchor:start;fill:#000000;fill-opacity:1;stroke:none;stroke-width:0.264583"
       x="178.84875"
       y="178.34885"
       id="text3729"><tspan
         sodipodi:role="line"
         x="178.84875"
         y="178.34885"
         id="tspan3727"
         style="stroke-width:0.264583"><tspan
           dx="0"
           dy="0"
           style="font-style:italic;font-variant:normal;font-weight:400;font-size:3.88607px;font-family:Calibri;fill:#000000;stroke-width:0.264583"
           id="tspan3723">B</tspan><tspan
           dx="0"
           dy="0"
           style="font-style:italic;font-variant:normal;font-weight:400;font-size:3.88607px;font-family:Calibri;fill:#000000;stroke-width:0.264583"
           id="tspan3725"> </tspan></tspan></text>
    <text
       xml:space="preserve"
       style="font-style:italic;font-variant:normal;font-weight:400;font-size:3.88607px;line-height:125%;font-family:Calibri;text-align:start;letter-spacing:0px;word-spacing:0px;text-anchor:start;fill:#000000;fill-opacity:1;stroke:none;stroke-width:0.264583"
       x="185.25021"
       y="177.91505"
       id="text3737"><tspan
         sodipodi:role="line"
         x="185.25021"
         y="177.91505"
         id="tspan3735"
         style="stroke-width:0.264583"><tspan
           dx="0"
           dy="0"
           style="font-style:italic;font-variant:normal;font-weight:400;font-size:3.88607px;font-family:Calibri;fill:#000000;stroke-width:0.264583"
           id="tspan3731">K</tspan><tspan
           dx="0"
           dy="0"
           style="font-style:italic;font-variant:normal;font-weight:400;font-size:3.88607px;font-family:Calibri;fill:#000000;stroke-width:0.264583"
           id="tspan3733"> </tspan></tspan></text>
    <text
       xml:space="preserve"
       style="font-style:normal;font-variant:normal;font-weight:400;font-size:3.88607px;line-height:125%;font-family:Calibri;text-align:start;letter-spacing:0px;word-spacing:0px;text-anchor:start;fill:#000000;fill-opacity:1;stroke:none;stroke-width:0.264583"
       x="196.56793"
       y="178.05965"
       id="text3745"><tspan
         sodipodi:role="line"
         x="196.56793"
         y="178.05965"
         id="tspan3743"
         style="stroke-width:0.264583"><tspan
           dx="0"
           dy="0"
           style="font-style:normal;font-variant:normal;font-weight:400;font-size:3.88607px;font-family:Calibri;fill:#000000;stroke-width:0.264583"
           id="tspan3739">7</tspan><tspan
           dx="0"
           dy="0"
           style="font-style:normal;font-variant:normal;font-weight:400;font-size:3.88607px;font-family:Calibri;fill:#000000;stroke-width:0.264583"
           id="tspan3741"> </tspan></tspan></text>
    <text
       xml:space="preserve"
       style="font-style:italic;font-variant:normal;font-weight:400;font-size:3.88607px;line-height:125%;font-family:Calibri;text-align:start;letter-spacing:0px;word-spacing:0px;text-anchor:start;fill:#000000;fill-opacity:1;stroke:none;stroke-width:0.264583"
       x="327.07193"
       y="188.61516"
       id="text3761"><tspan
         sodipodi:role="line"
         x="327.07193"
         y="188.61516"
         id="tspan3759"
         style="stroke-width:0.264583"><tspan
           dx="0"
           dy="0"
           style="font-style:italic;font-variant:normal;font-weight:400;font-size:3.88607px;font-family:Calibri;fill:#000000;stroke-width:0.264583"
           id="tspan3755">P</tspan><tspan
           dx="0"
           dy="0"
           style="font-style:italic;font-variant:normal;font-weight:400;font-size:3.88607px;font-family:Calibri;fill:#000000;stroke-width:0.264583"
           id="tspan3757"> </tspan></tspan></text>
    <text
       xml:space="preserve"
       style="font-style:italic;font-variant:normal;font-weight:400;font-size:3.88607px;line-height:125%;font-family:Calibri;text-align:start;letter-spacing:0px;word-spacing:0px;text-anchor:start;fill:#000000;fill-opacity:1;stroke:none;stroke-width:0.264583"
       x="339.54642"
       y="186.66998"
       id="text3767"><tspan
         sodipodi:role="line"
         x="339.54642"
         y="186.66998"
         id="tspan3765"
         style="stroke-width:0.264583"><tspan
           dx="0"
           dy="0"
           style="font-style:italic;font-variant:normal;font-weight:400;font-size:3.88607px;font-family:Calibri;fill:#000000;stroke-width:0.264583"
           id="tspan3763">Q</tspan></tspan></text>
    <text
       xml:space="preserve"
       style="font-style:italic;font-variant:normal;font-weight:400;font-size:3.88607px;line-height:125%;font-family:Calibri;text-align:start;letter-spacing:0px;word-spacing:0px;text-anchor:start;fill:#000000;fill-opacity:1;stroke:none;stroke-width:0.264583"
       x="342.12592"
       y="188.61516"
       id="text3773"><tspan
         sodipodi:role="line"
         x="342.12592"
         y="188.61516"
         id="tspan3771"
         style="stroke-width:0.264583"><tspan
           dx="0"
           dy="0"
           style="font-style:italic;font-variant:normal;font-weight:400;font-size:3.88607px;font-family:Calibri;fill:#000000;stroke-width:0.264583"
           id="tspan3769"> </tspan></tspan></text>
    <path
       style="fill:none;stroke:#000000;stroke-width:0.211432px;stroke-linecap:round;stroke-linejoin:round;stroke-miterlimit:4;stroke-dasharray:none;stroke-opacity:1"
       d="m 185.34322,174.44476 h 26.34443 l -19.39096,-27.69759 -6.95347,27.69759"
       id="path3783" />
    <path
       style="fill:none;stroke:#000000;stroke-width:0.211432px;stroke-linecap:round;stroke-linejoin:round;stroke-miterlimit:4;stroke-dasharray:none;stroke-opacity:1"
       d="m 201.66578,174.44476 c 0,-1.60952 0.3885,-3.19526 1.1338,-4.62243 0.74265,-1.42981 1.81831,-2.65611 3.13712,-3.58113"
       id="path3785" />
    <path
       style="fill:#000000;fill-opacity:1;fill-rule:nonzero;stroke:none;stroke-width:0.264583"
       d="m 204.87954,173.0361 c 0,0.11893 -0.0211,0.22464 -0.0581,0.31715 -0.0396,0.0925 -0.0951,0.16914 -0.16651,0.23257 -0.0713,0.0634 -0.15857,0.111 -0.25636,0.14536 -0.10043,0.0344 -0.20879,0.0502 -0.33036,0.0502 -0.0687,0 -0.13215,-0.005 -0.19293,-0.0159 -0.0581,-0.008 -0.11364,-0.0211 -0.16122,-0.0344 -0.0449,-0.0159 -0.0846,-0.0291 -0.11364,-0.0423 -0.0317,-0.0132 -0.0502,-0.0264 -0.0582,-0.0344 -0.008,-0.008 -0.0159,-0.0132 -0.0185,-0.0211 -0.003,-0.008 -0.005,-0.0159 -0.008,-0.0238 -0.005,-0.0106 -0.005,-0.0238 -0.008,-0.037 0,-0.0159 0,-0.0344 0,-0.0529 0,-0.0211 0,-0.037 0.003,-0.0529 0,-0.0159 0.003,-0.0291 0.008,-0.037 0.005,-0.0106 0.0106,-0.0185 0.0159,-0.0238 0.005,-0.003 0.0132,-0.005 0.0211,-0.005 0.0106,0 0.0291,0.008 0.0529,0.0211 0.0238,0.0132 0.0555,0.0291 0.0951,0.0449 0.0396,0.0185 0.0872,0.0344 0.148,0.0476 0.0582,0.0159 0.12686,0.0238 0.20879,0.0238 0.074,0 0.14272,-0.0106 0.20615,-0.0291 0.0634,-0.0185 0.11629,-0.0449 0.16121,-0.0846 0.0449,-0.0396 0.0819,-0.0872 0.10836,-0.148 0.0238,-0.0581 0.037,-0.1295 0.037,-0.21407 0,-0.0714 -0.0106,-0.13215 -0.0317,-0.18765 -0.0211,-0.0529 -0.0555,-0.10043 -0.10043,-0.13479 -0.0476,-0.037 -0.10307,-0.0634 -0.17179,-0.0819 -0.0714,-0.0159 -0.15329,-0.0264 -0.25107,-0.0264 -0.0661,0 -0.12686,0.005 -0.17444,0.0106 -0.0502,0.008 -0.0951,0.0106 -0.13743,0.0106 -0.0317,0 -0.0555,-0.008 -0.0687,-0.0212 -0.0132,-0.0159 -0.0185,-0.0449 -0.0185,-0.0872 v -0.90123 c 0,-0.0396 0.008,-0.0661 0.0238,-0.0846 0.0185,-0.0185 0.0423,-0.0291 0.0767,-0.0291 h 0.96201 c 0.008,0 0.0185,0.003 0.0264,0.008 0.008,0.005 0.0159,0.0132 0.0212,0.0238 0.005,0.0106 0.008,0.0238 0.0106,0.0396 0.003,0.0159 0.005,0.0344 0.005,0.0555 0,0.0423 -0.005,0.074 -0.0159,0.0978 -0.0106,0.0211 -0.0264,0.0344 -0.0449,0.0344 h -0.77702 v 0.62108 c 0.037,-0.005 0.0766,-0.008 0.11629,-0.0106 0.0396,0 0.0846,0 0.13479,0 0.12157,0 0.22465,0.0132 0.3145,0.0449 0.0899,0.0291 0.16387,0.0714 0.22465,0.12686 0.0608,0.0555 0.10572,0.12421 0.13479,0.2035 0.0317,0.0766 0.0476,0.16386 0.0476,0.26165 z m 1.73374,0 c 0,0.11893 -0.0211,0.22464 -0.0581,0.31715 -0.0396,0.0925 -0.0951,0.16914 -0.1665,0.23257 -0.0714,0.0634 -0.15858,0.111 -0.25636,0.14536 -0.10044,0.0344 -0.20879,0.0502 -0.33037,0.0502 -0.0687,0 -0.13214,-0.005 -0.19293,-0.0159 -0.0581,-0.008 -0.11364,-0.0211 -0.16122,-0.0344 -0.0449,-0.0159 -0.0846,-0.0291 -0.11364,-0.0423 -0.0317,-0.0132 -0.0502,-0.0264 -0.0581,-0.0344 -0.008,-0.008 -0.0159,-0.0132 -0.0185,-0.0211 -0.003,-0.008 -0.005,-0.0159 -0.008,-0.0238 -0.005,-0.0106 -0.005,-0.0238 -0.008,-0.037 0,-0.0159 0,-0.0344 0,-0.0529 0,-0.0211 0,-0.037 0.003,-0.0529 0,-0.0159 0.003,-0.0291 0.008,-0.037 0.005,-0.0106 0.0106,-0.0185 0.0159,-0.0238 0.005,-0.003 0.0132,-0.005 0.0211,-0.005 0.0106,0 0.0291,0.008 0.0529,0.0211 0.0238,0.0132 0.0555,0.0291 0.0951,0.0449 0.0396,0.0185 0.0872,0.0344 0.14801,0.0476 0.0581,0.0159 0.12685,0.0238 0.20878,0.0238 0.074,0 0.14272,-0.0106 0.20615,-0.0291 0.0634,-0.0185 0.11629,-0.0449 0.16122,-0.0846 0.0449,-0.0396 0.0819,-0.0872 0.10836,-0.148 0.0238,-0.0581 0.037,-0.1295 0.037,-0.21407 0,-0.0714 -0.0106,-0.13215 -0.0317,-0.18765 -0.0211,-0.0529 -0.0555,-0.10043 -0.10043,-0.13479 -0.0476,-0.037 -0.10307,-0.0634 -0.17178,-0.0819 -0.0714,-0.0159 -0.15329,-0.0264 -0.25108,-0.0264 -0.0661,0 -0.12686,0.005 -0.17443,0.0106 -0.0502,0.008 -0.0951,0.0106 -0.13743,0.0106 -0.0317,0 -0.0555,-0.008 -0.0687,-0.0212 -0.0132,-0.0159 -0.0185,-0.0449 -0.0185,-0.0872 v -0.90123 c 0,-0.0396 0.008,-0.0661 0.0238,-0.0846 0.0185,-0.0185 0.0423,-0.0291 0.0766,-0.0291 h 0.96202 c 0.008,0 0.0185,0.003 0.0264,0.008 0.008,0.005 0.0159,0.0132 0.0211,0.0238 0.005,0.0106 0.008,0.0238 0.0106,0.0396 0.003,0.0159 0.005,0.0344 0.005,0.0555 0,0.0423 -0.005,0.074 -0.0159,0.0978 -0.0106,0.0211 -0.0264,0.0344 -0.0449,0.0344 h -0.77701 v 0.62108 c 0.037,-0.005 0.0766,-0.008 0.11629,-0.0106 0.0396,0 0.0846,0 0.13478,0 0.12158,0 0.22465,0.0132 0.31451,0.0449 0.0899,0.0291 0.16386,0.0714 0.22464,0.12686 0.0608,0.0555 0.10572,0.12421 0.13479,0.2035 0.0317,0.0766 0.0476,0.16386 0.0476,0.26165 z"
       id="path3787" />
    <path
       style="fill:#000000;fill-opacity:1;fill-rule:nonzero;stroke:none;stroke-width:0.264583"
       d="m 207.8343,171.24421 c 0,0.0846 -0.0396,0.15593 -0.12157,0.21408 -0.0819,0.0581 -0.18236,0.0872 -0.29865,0.0872 -0.11629,0 -0.21407,-0.0291 -0.29864,-0.0872 -0.0819,-0.0582 -0.12158,-0.12951 -0.12158,-0.21408 0,-0.0819 0.0396,-0.15065 0.12158,-0.20879 0.0819,-0.0608 0.17971,-0.0899 0.29864,-0.0899 0.11365,0 0.21408,0.0291 0.29601,0.0899 0.0819,0.0581 0.12421,0.12686 0.12421,0.20879 z m -0.71358,0 c 0,0.0608 0.0291,0.10836 0.0846,0.15065 0.0582,0.0396 0.12951,0.0608 0.20879,0.0608 0.0846,0 0.15329,-0.0211 0.20879,-0.0608 0.0555,-0.0423 0.0846,-0.0899 0.0846,-0.15065 0,-0.0581 -0.0291,-0.10571 -0.0872,-0.148 -0.0555,-0.0396 -0.12686,-0.0608 -0.20879,-0.0608 -0.0793,0 -0.148,0.0211 -0.20615,0.0634 -0.0555,0.0396 -0.0846,0.0899 -0.0846,0.14536 z"
       id="path3789" />
    <path
       style="fill:none;stroke:#000000;stroke-width:0.211432px;stroke-linecap:round;stroke-linejoin:round;stroke-miterlimit:4;stroke-dasharray:none;stroke-opacity:1"
       d="m 189.48729,157.83678 c 1.59102,0.40172 3.24812,0.45458 4.86029,0.15593 1.61482,-0.30129 3.14241,-0.9488 4.48501,-1.90025"
       id="path3791" />
    <path
       style="fill:#000000;fill-opacity:1;fill-rule:nonzero;stroke:none;stroke-width:0.264583"
       d="m 193.14242,156.75319 c 0,0.037 -0.008,0.0661 -0.0185,0.0899 -0.0106,0.0211 -0.0264,0.0317 -0.0476,0.0317 h -0.24315 v 0.46515 c 0,0.0106 -0.003,0.0185 -0.008,0.0238 -0.005,0.005 -0.0132,0.0106 -0.0238,0.0159 -0.0106,0.005 -0.0264,0.008 -0.0449,0.0106 -0.0185,0.003 -0.0423,0.003 -0.0714,0.003 -0.0264,0 -0.0502,0 -0.0687,-0.003 -0.0185,-0.003 -0.0343,-0.005 -0.0449,-0.0106 -0.0106,-0.005 -0.0185,-0.0106 -0.0211,-0.0159 -0.005,-0.005 -0.008,-0.0132 -0.008,-0.0238 v -0.46515 h -0.88801 c -0.0132,0 -0.0238,-0.003 -0.0344,-0.005 -0.008,-0.003 -0.0159,-0.0106 -0.0238,-0.0185 -0.008,-0.0106 -0.0106,-0.0238 -0.0132,-0.0396 -0.005,-0.0185 -0.005,-0.0396 -0.005,-0.0661 0,-0.0238 0,-0.0423 0.003,-0.0581 0,-0.0185 0.003,-0.0344 0.005,-0.0476 0.003,-0.0159 0.008,-0.0291 0.0132,-0.0423 0.005,-0.0132 0.0132,-0.0264 0.0211,-0.0423 l 0.77437,-1.34524 c 0.005,-0.0106 0.0132,-0.0185 0.0238,-0.0238 0.0106,-0.008 0.0264,-0.0132 0.0423,-0.0185 0.0185,-0.005 0.0396,-0.008 0.0634,-0.0106 0.0264,0 0.0555,0 0.0899,0 0.037,0 0.0687,0 0.0978,0.003 0.0291,0.003 0.0502,0.008 0.0687,0.0106 0.0159,0.005 0.0291,0.0106 0.037,0.0185 0.0106,0.008 0.0159,0.0159 0.0159,0.0264 v 1.41659 h 0.24315 c 0.0211,0 0.0344,0.0106 0.0476,0.0291 0.0106,0.0211 0.0185,0.0502 0.0185,0.0925 z m -0.59994,-1.33995 h -0.003 l -0.69773,1.21837 h 0.70037 z m 2.25704,0.77437 c 0,0.0951 -0.005,0.19293 -0.0159,0.29072 -0.0132,0.0978 -0.0317,0.19293 -0.0581,0.28279 -0.0264,0.0925 -0.0634,0.17707 -0.10836,0.25636 -0.0449,0.0793 -0.10307,0.148 -0.17179,0.20879 -0.0687,0.0581 -0.15065,0.10571 -0.24579,0.14007 -0.0925,0.0317 -0.2035,0.0502 -0.32772,0.0502 -0.0502,0 -0.0951,-0.003 -0.14007,-0.0106 -0.0476,-0.005 -0.0872,-0.0132 -0.12422,-0.0238 -0.037,-0.008 -0.0661,-0.0185 -0.0925,-0.0291 -0.0238,-0.008 -0.0423,-0.0185 -0.0529,-0.0291 -0.0106,-0.0106 -0.0185,-0.0238 -0.0238,-0.0423 -0.005,-0.0185 -0.008,-0.0423 -0.008,-0.0714 0,-0.0264 0,-0.0449 0.003,-0.0608 0.003,-0.0132 0.005,-0.0264 0.008,-0.0344 0.003,-0.008 0.008,-0.0132 0.0132,-0.0159 0.008,-0.003 0.0132,-0.003 0.0238,-0.003 0.0132,0 0.0291,0.003 0.0529,0.0106 0.0211,0.0106 0.0502,0.0185 0.0846,0.0291 0.0344,0.0106 0.074,0.0211 0.11893,0.0291 0.0449,0.008 0.0978,0.0132 0.15593,0.0132 0.10836,0 0.20086,-0.0212 0.2775,-0.0661 0.0793,-0.0423 0.14272,-0.10043 0.19294,-0.17179 0.0476,-0.0713 0.0846,-0.15593 0.10836,-0.24843 0.0264,-0.0951 0.0396,-0.19557 0.0423,-0.30129 -0.0608,0.0344 -0.13214,0.0661 -0.21407,0.0951 -0.0819,0.0264 -0.17708,0.0396 -0.28543,0.0396 -0.12158,0 -0.22201,-0.0159 -0.30394,-0.0502 -0.0846,-0.0344 -0.15064,-0.0793 -0.19821,-0.13743 -0.0502,-0.0581 -0.0872,-0.12686 -0.10837,-0.20879 -0.0211,-0.0793 -0.0317,-0.1665 -0.0317,-0.26164 0,-0.0978 0.0132,-0.19029 0.0396,-0.28015 0.0291,-0.0872 0.074,-0.1665 0.13215,-0.23258 0.0581,-0.0687 0.13479,-0.12157 0.22729,-0.16121 0.0925,-0.0396 0.20086,-0.0608 0.32772,-0.0608 0.0925,0 0.17179,0.0132 0.24314,0.0344 0.0687,0.0238 0.12951,0.0581 0.18236,0.10307 0.0502,0.0423 0.0952,0.0951 0.12951,0.15858 0.037,0.0608 0.0661,0.13214 0.0872,0.21143 0.0212,0.0793 0.037,0.16386 0.0476,0.25636 0.008,0.0925 0.0132,0.18764 0.0132,0.29072 z m -0.29336,-0.0317 c 0,-0.148 -0.0106,-0.26957 -0.0291,-0.37 -0.0185,-0.10043 -0.0476,-0.18236 -0.0846,-0.24315 -0.037,-0.0608 -0.0819,-0.10572 -0.13478,-0.13479 -0.0555,-0.0264 -0.11629,-0.0396 -0.18765,-0.0396 -0.0714,0 -0.13479,0.0132 -0.185,0.0396 -0.0529,0.0264 -0.0952,0.0634 -0.12686,0.10836 -0.0344,0.0449 -0.0582,0.0951 -0.074,0.15329 -0.0159,0.0581 -0.0238,0.11629 -0.0238,0.17707 0,0.0661 0.008,0.1295 0.0211,0.18501 0.0132,0.0555 0.037,0.10307 0.0687,0.14271 0.0317,0.037 0.0714,0.0687 0.12157,0.0899 0.0502,0.0212 0.11365,0.0317 0.18765,0.0317 0.0846,0 0.16386,-0.0132 0.24314,-0.0396 0.0793,-0.0264 0.14536,-0.0581 0.20351,-0.10043 z"
       id="path3793" />
    <path
       style="fill:#000000;fill-opacity:1;fill-rule:nonzero;stroke:none;stroke-width:0.264583"
       d="m 195.99411,154.87937 c 0,0.0846 -0.0396,0.15593 -0.12157,0.21408 -0.0819,0.0581 -0.18236,0.0872 -0.29865,0.0872 -0.11629,0 -0.21407,-0.0291 -0.29865,-0.0872 -0.0819,-0.0582 -0.12157,-0.1295 -0.12157,-0.21408 0,-0.0819 0.0396,-0.15064 0.12157,-0.20879 0.0819,-0.0608 0.17972,-0.0899 0.29865,-0.0899 0.11364,0 0.21407,0.0291 0.296,0.0899 0.0819,0.0582 0.12422,0.12686 0.12422,0.20879 z m -0.71358,0 c 0,0.0608 0.0291,0.10836 0.0846,0.15065 0.0581,0.0396 0.1295,0.0608 0.20879,0.0608 0.0846,0 0.15329,-0.0211 0.20879,-0.0608 0.0555,-0.0423 0.0846,-0.0899 0.0846,-0.15065 0,-0.0581 -0.0291,-0.10571 -0.0872,-0.148 -0.0555,-0.0396 -0.12685,-0.0608 -0.20878,-0.0608 -0.0793,0 -0.14801,0.0212 -0.20615,0.0634 -0.0555,0.0396 -0.0846,0.0899 -0.0846,0.14536 z"
       id="path3795" />
    <path
       style="fill:none;stroke:#000000;stroke-width:0.211432px;stroke-linecap:round;stroke-linejoin:round;stroke-miterlimit:4;stroke-dasharray:none;stroke-opacity:1"
       d="m 142.80793,174.65418 h 37.80405 l -13.58187,-22.58094 -24.22218,22.58094"
       id="path3797" />
    <path
       style="fill:#000000;fill-opacity:1;fill-rule:nonzero;stroke:none;stroke-width:0.264583"
       d="m 177.44314,163.47999 c 0,0.0212 -0.003,0.0423 -0.003,0.0608 -0.003,0.0185 -0.005,0.037 -0.008,0.0529 -0.003,0.0185 -0.008,0.0344 -0.0132,0.0502 -0.005,0.0159 -0.0132,0.0317 -0.0211,0.0502 l -0.86687,2.04032 c -0.005,0.0159 -0.0132,0.0264 -0.0238,0.037 -0.008,0.008 -0.0211,0.0159 -0.0344,0.0211 -0.0132,0.008 -0.0317,0.0106 -0.0555,0.0132 -0.0211,0 -0.0476,0.003 -0.0819,0.003 -0.0423,0 -0.074,-0.003 -0.0978,-0.005 -0.0238,-0.005 -0.0396,-0.0106 -0.0502,-0.0185 -0.0106,-0.008 -0.0159,-0.0185 -0.0159,-0.0317 0.003,-0.0106 0.005,-0.0264 0.0132,-0.0423 l 0.9118,-2.08525 h -1.15495 c -0.0238,0 -0.0423,-0.0132 -0.0529,-0.037 -0.0132,-0.0264 -0.0185,-0.0608 -0.0185,-0.10836 0,-0.0238 0.003,-0.0449 0.005,-0.0608 0.003,-0.0185 0.008,-0.0344 0.0132,-0.0449 0.008,-0.0132 0.0132,-0.0211 0.0238,-0.0264 0.008,-0.008 0.0185,-0.0106 0.0291,-0.0106 h 1.40338 c 0.0185,0 0.0317,0.003 0.0449,0.008 0.0132,0.003 0.0238,0.0106 0.0317,0.0211 0.005,0.0132 0.0106,0.0264 0.0159,0.0449 0.003,0.0159 0.005,0.0396 0.005,0.0687 z"
       id="path3799" />
    <path
       style="fill:none;stroke:#000000;stroke-width:0.211432px;stroke-linecap:round;stroke-linejoin:round;stroke-miterlimit:4;stroke-dasharray:none;stroke-opacity:1"
       d="m 153.4641,174.65418 c 0,-1.32938 -0.25107,-2.64819 -0.74265,-3.88507 -0.49422,-1.23687 -1.21573,-2.37332 -2.13282,-3.34591"
       id="path3801" />
    <path
       style="fill:#000000;fill-opacity:1;fill-rule:nonzero;stroke:none;stroke-width:0.264583"
       d="m 148.91567,173.58116 c 0,0.037 -0.008,0.0661 -0.0185,0.0899 -0.0106,0.0211 -0.0264,0.0317 -0.0476,0.0317 h -0.24315 v 0.46515 c 0,0.0106 -0.003,0.0185 -0.008,0.0238 -0.005,0.005 -0.0132,0.0106 -0.0238,0.0159 -0.0106,0.005 -0.0264,0.008 -0.0449,0.0106 -0.0185,0.003 -0.0423,0.003 -0.0714,0.003 -0.0264,0 -0.0502,0 -0.0687,-0.003 -0.0185,-0.003 -0.0344,-0.005 -0.0449,-0.0106 -0.0106,-0.005 -0.0185,-0.0106 -0.0212,-0.0159 -0.005,-0.005 -0.008,-0.0132 -0.008,-0.0238 v -0.46518 h -0.88801 c -0.0132,0 -0.0238,-0.003 -0.0344,-0.005 -0.008,-0.003 -0.0159,-0.0106 -0.0238,-0.0185 -0.008,-0.0106 -0.0106,-0.0238 -0.0132,-0.0396 -0.005,-0.0185 -0.005,-0.0396 -0.005,-0.0661 0,-0.0238 0,-0.0423 0.003,-0.0581 0,-0.0185 0.003,-0.0344 0.005,-0.0476 0.003,-0.0159 0.008,-0.0291 0.0132,-0.0423 0.005,-0.0132 0.0132,-0.0264 0.0211,-0.0423 l 0.77437,-1.34523 c 0.005,-0.0106 0.0132,-0.0185 0.0238,-0.0238 0.0106,-0.008 0.0264,-0.0132 0.0423,-0.0185 0.0185,-0.005 0.0396,-0.008 0.0634,-0.0106 0.0264,0 0.0555,0 0.0899,0 0.037,0 0.0687,0 0.0978,0.003 0.0291,0.003 0.0502,0.008 0.0687,0.0106 0.0159,0.005 0.0291,0.0106 0.037,0.0185 0.0106,0.008 0.0159,0.0159 0.0159,0.0264 v 1.4166 h 0.24315 c 0.0211,0 0.0344,0.0106 0.0476,0.0291 0.0106,0.0211 0.0185,0.0502 0.0185,0.0925 z m -0.59994,-1.33995 h -0.003 l -0.69772,1.21838 h 0.70036 z m 2.23061,1.25802 c 0,0.11893 -0.0211,0.22465 -0.0581,0.31715 -0.0397,0.0925 -0.0951,0.16914 -0.16651,0.23257 -0.0713,0.0634 -0.15857,0.111 -0.25636,0.14536 -0.10043,0.0344 -0.20878,0.0502 -0.33036,0.0502 -0.0687,0 -0.13214,-0.005 -0.19293,-0.0159 -0.0581,-0.008 -0.11365,-0.0211 -0.16122,-0.0344 -0.0449,-0.0159 -0.0846,-0.0291 -0.11364,-0.0423 -0.0317,-0.0132 -0.0502,-0.0264 -0.0582,-0.0344 -0.008,-0.008 -0.0159,-0.0132 -0.0185,-0.0211 -0.003,-0.008 -0.005,-0.0159 -0.008,-0.0238 -0.005,-0.0106 -0.005,-0.0238 -0.008,-0.037 0,-0.0159 0,-0.0344 0,-0.0529 0,-0.0211 0,-0.037 0.003,-0.0529 0,-0.0159 0.003,-0.0291 0.008,-0.037 0.005,-0.0106 0.0106,-0.0185 0.0159,-0.0238 0.005,-0.003 0.0132,-0.005 0.0211,-0.005 0.0106,0 0.0291,0.008 0.0529,0.0211 0.0238,0.0132 0.0555,0.0291 0.0951,0.0449 0.0396,0.0185 0.0872,0.0344 0.148,0.0476 0.0582,0.0159 0.12686,0.0238 0.20879,0.0238 0.074,0 0.14272,-0.0106 0.20615,-0.0291 0.0634,-0.0185 0.11629,-0.0449 0.16122,-0.0846 0.0449,-0.0396 0.0819,-0.0872 0.10835,-0.14801 0.0238,-0.0581 0.037,-0.1295 0.037,-0.21407 0,-0.0714 -0.0106,-0.13215 -0.0317,-0.18765 -0.0211,-0.0529 -0.0555,-0.10043 -0.10043,-0.13479 -0.0476,-0.037 -0.10307,-0.0634 -0.17179,-0.0819 -0.0714,-0.0159 -0.15328,-0.0264 -0.25107,-0.0264 -0.0661,0 -0.12686,0.005 -0.17443,0.0106 -0.0502,0.008 -0.0952,0.0106 -0.13744,0.0106 -0.0317,0 -0.0555,-0.008 -0.0687,-0.0211 -0.0132,-0.0159 -0.0185,-0.0449 -0.0185,-0.0872 v -0.90123 c 0,-0.0396 0.008,-0.0661 0.0238,-0.0846 0.0185,-0.0185 0.0423,-0.0291 0.0766,-0.0291 h 0.96201 c 0.008,0 0.0185,0.003 0.0264,0.008 0.008,0.005 0.0159,0.0132 0.0211,0.0238 0.005,0.0106 0.008,0.0238 0.0106,0.0396 0.003,0.0159 0.005,0.0344 0.005,0.0555 0,0.0423 -0.005,0.074 -0.0159,0.0978 -0.0106,0.0211 -0.0264,0.0344 -0.0449,0.0344 h -0.77702 v 0.62108 c 0.037,-0.005 0.0767,-0.008 0.11629,-0.0106 0.0396,0 0.0846,0 0.13479,0 0.12157,0 0.22465,0.0132 0.31451,0.0449 0.0898,0.0291 0.16385,0.0714 0.22464,0.12686 0.0608,0.0555 0.10572,0.12422 0.13479,0.2035 0.0317,0.0767 0.0476,0.16386 0.0476,0.26165 z"
       id="path3803" />
    <path
       style="fill:#000000;fill-opacity:1;fill-rule:nonzero;stroke:none;stroke-width:0.264583"
       d="m 151.76736,171.70734 c 0,0.0846 -0.0396,0.15593 -0.12157,0.21408 -0.0819,0.0581 -0.18236,0.0872 -0.29865,0.0872 -0.11629,0 -0.21407,-0.0291 -0.29865,-0.0872 -0.0819,-0.0581 -0.12157,-0.1295 -0.12157,-0.21408 0,-0.0819 0.0396,-0.15064 0.12157,-0.20879 0.0819,-0.0608 0.17972,-0.0899 0.29865,-0.0899 0.11365,0 0.21408,0.0291 0.29601,0.0899 0.0819,0.0582 0.12421,0.12686 0.12421,0.20879 z m -0.71358,0 c 0,0.0608 0.0291,0.10836 0.0846,0.15065 0.0581,0.0396 0.12951,0.0608 0.20879,0.0608 0.0846,0 0.15329,-0.0212 0.20879,-0.0608 0.0555,-0.0423 0.0846,-0.0899 0.0846,-0.15065 0,-0.0581 -0.0291,-0.10571 -0.0872,-0.148 -0.0555,-0.0396 -0.12686,-0.0608 -0.20879,-0.0608 -0.0793,0 -0.148,0.0212 -0.20615,0.0634 -0.0555,0.0396 -0.0846,0.0899 -0.0846,0.14536 z"
       id="path3805" />
    <path
       style="fill:none;stroke:#000000;stroke-width:0.211432px;stroke-linecap:round;stroke-linejoin:round;stroke-miterlimit:4;stroke-dasharray:none;stroke-opacity:1"
       d="m 160.73737,157.95105 c 1.34787,1.43773 3.15033,2.37332 5.10608,2.64554 1.9531,0.27222 3.94321,-0.1295 5.63466,-1.14438"
       id="path3807" />
    <path
       style="fill:#000000;fill-opacity:1;fill-rule:nonzero;stroke:none;stroke-width:0.264583"
       d="m 165.6003,157.69997 c 0,0.0211 -0.003,0.0396 -0.003,0.0555 -0.003,0.0185 -0.005,0.0344 -0.008,0.0502 -0.003,0.0132 -0.005,0.0291 -0.0106,0.0423 -0.005,0.0159 -0.0106,0.0317 -0.0185,0.0476 l -0.7823,1.83945 c -0.005,0.0132 -0.0132,0.0238 -0.0211,0.0344 -0.008,0.008 -0.0185,0.0159 -0.0317,0.0185 -0.0132,0.005 -0.0291,0.0106 -0.0502,0.0106 -0.0185,0.003 -0.0449,0.003 -0.074,0.003 -0.037,0 -0.0661,0 -0.0872,-0.005 -0.0211,-0.003 -0.037,-0.008 -0.0476,-0.0159 -0.0106,-0.008 -0.0132,-0.0159 -0.0132,-0.0264 0.003,-0.0106 0.005,-0.0238 0.0132,-0.0396 l 0.82194,-1.88174 h -1.0413 c -0.0238,0 -0.0396,-0.0106 -0.0502,-0.0344 -0.0106,-0.0211 -0.0159,-0.0529 -0.0159,-0.0951 0,-0.0211 0.003,-0.0396 0.005,-0.0555 0.003,-0.0159 0.008,-0.0317 0.0132,-0.0423 0.005,-0.0106 0.0106,-0.0185 0.0185,-0.0238 0.008,-0.005 0.0185,-0.008 0.0291,-0.008 h 1.26595 c 0.0159,0 0.0291,0.003 0.0396,0.005 0.0132,0.005 0.0211,0.0106 0.0264,0.0211 0.008,0.0106 0.0132,0.0238 0.0159,0.0396 0.003,0.0159 0.005,0.037 0.005,0.0608 z m 1.75753,1.37431 c 0,0.0978 -0.0159,0.19029 -0.0449,0.28015 -0.0291,0.0925 -0.074,0.17179 -0.13479,0.2405 -0.0608,0.0687 -0.13743,0.12422 -0.22993,0.1665 -0.0925,0.0423 -0.20086,0.0634 -0.32772,0.0634 -0.0925,0 -0.17179,-0.0132 -0.2405,-0.0344 -0.0687,-0.0238 -0.1295,-0.0555 -0.18236,-0.0978 -0.0502,-0.0423 -0.0951,-0.0951 -0.12686,-0.15593 -0.0344,-0.0608 -0.0634,-0.13215 -0.0846,-0.21144 -0.0185,-0.0793 -0.0344,-0.16385 -0.0423,-0.259 -0.0106,-0.0925 -0.0159,-0.19293 -0.0159,-0.30129 0,-0.0951 0.005,-0.19029 0.0159,-0.28808 0.0106,-0.0978 0.0291,-0.19028 0.0555,-0.28014 0.0238,-0.0899 0.0608,-0.17444 0.10307,-0.25636 0.0449,-0.0793 0.10043,-0.14801 0.16651,-0.20615 0.0661,-0.0581 0.148,-0.10572 0.2405,-0.14007 0.0925,-0.0344 0.20086,-0.0502 0.32244,-0.0502 0.0423,0 0.0846,0.003 0.12685,0.008 0.0423,0.005 0.0819,0.0106 0.11629,0.0185 0.037,0.0106 0.0661,0.0185 0.0925,0.0291 0.0238,0.0106 0.0396,0.0185 0.0476,0.0264 0.008,0.005 0.0132,0.0106 0.0185,0.0185 0.003,0.008 0.008,0.0159 0.008,0.0238 0.003,0.0106 0.005,0.0185 0.005,0.0291 0.003,0.0132 0.003,0.0264 0.003,0.0423 0,0.0185 0,0.037 0,0.0529 -0.003,0.0132 -0.003,0.0264 -0.008,0.0344 -0.003,0.0106 -0.008,0.0159 -0.0159,0.0211 -0.005,0.005 -0.0132,0.008 -0.0238,0.008 -0.0132,0 -0.0291,-0.005 -0.0502,-0.0132 -0.0211,-0.008 -0.0476,-0.0159 -0.0766,-0.0264 -0.0317,-0.0106 -0.0661,-0.0185 -0.111,-0.0264 -0.0423,-0.008 -0.0925,-0.0106 -0.15065,-0.0106 -0.10307,0 -0.19293,0.0211 -0.26693,0.0634 -0.0766,0.0449 -0.13743,0.10307 -0.185,0.17443 -0.0476,0.074 -0.0819,0.15857 -0.10572,0.25636 -0.0238,0.0951 -0.037,0.19558 -0.0396,0.30129 0.0291,-0.0159 0.0634,-0.0344 0.0978,-0.0502 0.037,-0.0185 0.0766,-0.0344 0.11893,-0.0476 0.0449,-0.0132 0.0899,-0.0238 0.13743,-0.0344 0.0476,-0.008 0.10043,-0.0106 0.15593,-0.0106 0.11629,0 0.21672,0.0159 0.296,0.0476 0.0819,0.0317 0.14536,0.0766 0.19558,0.13478 0.0502,0.0582 0.0846,0.12686 0.10836,0.20351 0.0211,0.0793 0.0317,0.16386 0.0317,0.25636 z m -0.29336,0.0264 c 0,-0.0661 -0.005,-0.12686 -0.0185,-0.17972 -0.0132,-0.0555 -0.0344,-0.10043 -0.0661,-0.13743 -0.0291,-0.0396 -0.0687,-0.0687 -0.11893,-0.0899 -0.0529,-0.0185 -0.11365,-0.0291 -0.18765,-0.0291 -0.0423,0 -0.0819,0.003 -0.12422,0.0106 -0.0423,0.008 -0.0819,0.0185 -0.11893,0.0317 -0.0396,0.0132 -0.0766,0.0264 -0.111,0.0449 -0.037,0.0185 -0.0687,0.037 -0.0978,0.0581 0,0.148 0.0106,0.26958 0.0291,0.37001 0.0185,0.10043 0.0449,0.17971 0.0793,0.23786 0.0344,0.0608 0.0793,0.10307 0.13215,0.1295 0.0529,0.0264 0.11364,0.0396 0.185,0.0396 0.0714,0 0.13215,-0.0159 0.18501,-0.0423 0.0529,-0.0264 0.0978,-0.0634 0.13214,-0.11101 0.0344,-0.0449 0.0608,-0.0978 0.0766,-0.15593 0.0159,-0.0581 0.0238,-0.11628 0.0238,-0.17707 z"
       id="path3809" />
    <path
       style="fill:#000000;fill-opacity:1;fill-rule:nonzero;stroke:none;stroke-width:0.264583"
       d="m 168.55507,157.28768 c 0,0.0846 -0.0396,0.15593 -0.12158,0.21407 -0.0819,0.0582 -0.18236,0.0872 -0.29865,0.0872 -0.11628,0 -0.21407,-0.0291 -0.29864,-0.0872 -0.0819,-0.0581 -0.12158,-0.1295 -0.12158,-0.21407 0,-0.0819 0.0396,-0.15065 0.12158,-0.20879 0.0819,-0.0608 0.17971,-0.0899 0.29864,-0.0899 0.11365,0 0.21408,0.0291 0.29601,0.0899 0.0819,0.0581 0.12422,0.12686 0.12422,0.20879 z m -0.71359,0 c 0,0.0608 0.0291,0.10836 0.0846,0.15064 0.0581,0.0396 0.1295,0.0608 0.20878,0.0608 0.0846,0 0.15329,-0.0211 0.20879,-0.0608 0.0555,-0.0423 0.0846,-0.0899 0.0846,-0.15064 0,-0.0582 -0.0291,-0.10572 -0.0872,-0.148 -0.0555,-0.0396 -0.12686,-0.0608 -0.20879,-0.0608 -0.0793,0 -0.148,0.0211 -0.20614,0.0634 -0.0555,0.0396 -0.0846,0.0899 -0.0846,0.14536 z"
       id="path3811" />
    <path
       style="fill:none;stroke:#000000;stroke-width:0.211432px;stroke-linecap:round;stroke-linejoin:round;stroke-miterlimit:4;stroke-dasharray:none;stroke-opacity:1"
       d="m 217.33762,174.16448 h 33.82913 l -18.70645,-21.60835 -15.12268,21.60835"
       id="path3813" />
    <path
       style="fill:#000000;fill-opacity:1;fill-rule:nonzero;stroke:none;stroke-width:0.264583"
       d="m 224.23559,160.87598 c 0,0.0211 -0.005,0.0423 -0.005,0.0634 0,0.0159 -0.005,0.037 -0.005,0.0529 -0.005,0.0159 -0.0106,0.0317 -0.0159,0.0476 -0.005,0.0159 -0.0106,0.0317 -0.0211,0.0529 l -0.86687,2.04031 c -0.005,0.0106 -0.0106,0.0264 -0.0211,0.037 -0.0106,0.005 -0.0212,0.0159 -0.037,0.0211 -0.0106,0.005 -0.0317,0.0106 -0.0529,0.0106 -0.0211,0 -0.0529,0.005 -0.0846,0.005 -0.0423,0 -0.074,-0.005 -0.0951,-0.005 -0.0264,-0.005 -0.0423,-0.0106 -0.0529,-0.0211 -0.0106,-0.005 -0.0159,-0.0159 -0.0159,-0.0317 0.005,-0.0106 0.005,-0.0264 0.0159,-0.0423 l 0.90916,-2.08261 h -1.15231 c -0.0264,0 -0.0423,-0.0159 -0.0528,-0.037 -0.0159,-0.0264 -0.0211,-0.0634 -0.0211,-0.111 0,-0.0212 0.005,-0.0423 0.005,-0.0582 0.005,-0.0211 0.0106,-0.037 0.0159,-0.0476 0.005,-0.0106 0.0106,-0.0211 0.0211,-0.0264 0.0106,-0.005 0.0211,-0.0106 0.0317,-0.0106 h 1.40074 c 0.0211,0 0.0317,0.005 0.0476,0.0106 0.0106,0 0.0212,0.0106 0.0317,0.0211 0.005,0.0106 0.0106,0.0264 0.0159,0.0423 0,0.0159 0.005,0.0423 0.005,0.0687 z"
       id="path3815" />
    <path
       style="fill:none;stroke:#000000;stroke-width:0.211432px;stroke-linecap:round;stroke-linejoin:round;stroke-miterlimit:4;stroke-dasharray:none;stroke-opacity:1"
       d="m 227.86694,174.16448 c 0,-1.69146 -0.40701,-3.35648 -1.18402,-4.85765 -0.7823,-1.50645 -1.91346,-2.79619 -3.29834,-3.76878"
       id="path3817" />
    <path
       style="fill:#000000;fill-opacity:1;fill-rule:nonzero;stroke:none;stroke-width:0.264583"
       d="m 222.62342,172.75846 c 0,0.11629 -0.0211,0.222 -0.0581,0.31715 -0.037,0.0899 -0.0951,0.16914 -0.16386,0.23257 -0.074,0.0634 -0.15857,0.111 -0.259,0.14272 -0.10043,0.0317 -0.20615,0.0529 -0.32772,0.0529 -0.0687,0 -0.13215,-0.005 -0.19558,-0.0159 -0.0581,-0.0106 -0.111,-0.0211 -0.15857,-0.037 -0.0476,-0.0159 -0.0846,-0.0264 -0.11629,-0.0423 -0.0317,-0.0106 -0.0476,-0.0264 -0.0581,-0.0317 -0.0106,-0.0106 -0.0159,-0.0159 -0.0159,-0.0211 -0.005,-0.0106 -0.005,-0.0159 -0.0106,-0.0264 -0.005,-0.0106 -0.005,-0.0211 -0.005,-0.037 0,-0.0159 0,-0.0317 0,-0.0529 0,-0.0212 0,-0.037 0,-0.0529 0,-0.0159 0.005,-0.0264 0.0106,-0.037 0.005,-0.0106 0.0106,-0.0159 0.0159,-0.0212 0.005,-0.005 0.0106,-0.005 0.0211,-0.005 0.0106,0 0.0264,0.005 0.0529,0.0211 0.0211,0.0106 0.0529,0.0264 0.0952,0.0423 0.037,0.0211 0.0846,0.037 0.148,0.0476 0.0581,0.0159 0.12686,0.0264 0.20615,0.0264 0.074,0 0.14271,-0.0106 0.20614,-0.0317 0.0634,-0.0159 0.11629,-0.0423 0.16386,-0.0846 0.0423,-0.037 0.0793,-0.0846 0.10572,-0.148 0.0264,-0.0581 0.037,-0.12686 0.037,-0.21143 0,-0.074 -0.0106,-0.13215 -0.0317,-0.19029 -0.0211,-0.0529 -0.0529,-0.10043 -0.10043,-0.13215 -0.0476,-0.037 -0.10043,-0.0634 -0.17443,-0.0846 -0.0687,-0.0159 -0.148,-0.0264 -0.24843,-0.0264 -0.0634,0 -0.12686,0.005 -0.17443,0.0106 -0.0476,0.0106 -0.0951,0.0106 -0.13743,0.0106 -0.0317,0 -0.0529,-0.005 -0.0687,-0.0211 -0.0106,-0.0159 -0.0159,-0.0423 -0.0159,-0.0846 v -0.90387 c 0,-0.037 0.005,-0.0634 0.0211,-0.0846 0.0211,-0.0159 0.0423,-0.0264 0.0793,-0.0264 h 0.96202 c 0.005,0 0.0159,0 0.0264,0.005 0.005,0.005 0.0106,0.0159 0.0211,0.0264 0.005,0.0106 0.005,0.0211 0.0106,0.037 0,0.0159 0.005,0.037 0.005,0.0581 0,0.0423 -0.005,0.074 -0.0159,0.0951 -0.0106,0.0211 -0.0264,0.037 -0.0476,0.037 h -0.77701 v 0.61844 c 0.037,-0.005 0.0793,-0.005 0.11628,-0.0106 0.0423,0 0.0846,0 0.13744,0 0.12157,0 0.222,0.0159 0.31186,0.0476 0.0899,0.0264 0.16386,0.0687 0.22729,0.12686 0.0581,0.0529 0.10571,0.12157 0.13214,0.20086 0.0317,0.0793 0.0476,0.16386 0.0476,0.26429 z m 1.73375,0 c 0,0.11629 -0.0211,0.222 -0.0581,0.31715 -0.037,0.0899 -0.0951,0.16914 -0.16386,0.23257 -0.074,0.0634 -0.15857,0.111 -0.259,0.14272 -0.10043,0.0317 -0.20615,0.0529 -0.32772,0.0529 -0.0687,0 -0.13215,-0.005 -0.19558,-0.0159 -0.0581,-0.0106 -0.111,-0.0211 -0.15857,-0.037 -0.0476,-0.0159 -0.0846,-0.0264 -0.11629,-0.0423 -0.0317,-0.0106 -0.0476,-0.0264 -0.0581,-0.0317 -0.0106,-0.0106 -0.0159,-0.0159 -0.0159,-0.0211 -0.005,-0.0106 -0.005,-0.0159 -0.0106,-0.0264 -0.005,-0.0106 -0.005,-0.0211 -0.005,-0.037 0,-0.0159 0,-0.0317 0,-0.0529 0,-0.0212 0,-0.037 0,-0.0529 0,-0.0159 0.005,-0.0264 0.0106,-0.037 0.005,-0.0106 0.0106,-0.0159 0.0159,-0.0212 0.005,-0.005 0.0106,-0.005 0.0212,-0.005 0.0106,0 0.0264,0.005 0.0528,0.0211 0.0212,0.0106 0.0529,0.0264 0.0951,0.0423 0.037,0.0211 0.0846,0.037 0.148,0.0476 0.0582,0.0159 0.12686,0.0264 0.20615,0.0264 0.074,0 0.14271,-0.0106 0.20614,-0.0317 0.0634,-0.0159 0.11629,-0.0423 0.16386,-0.0846 0.0423,-0.037 0.0793,-0.0846 0.10572,-0.148 0.0264,-0.0581 0.037,-0.12686 0.037,-0.21143 0,-0.074 -0.0106,-0.13215 -0.0317,-0.19029 -0.0212,-0.0529 -0.0529,-0.10043 -0.10044,-0.13215 -0.0476,-0.037 -0.10043,-0.0634 -0.17443,-0.0846 -0.0687,-0.0159 -0.148,-0.0264 -0.24843,-0.0264 -0.0634,0 -0.12686,0.005 -0.17443,0.0106 -0.0476,0.0106 -0.0952,0.0106 -0.13743,0.0106 -0.0317,0 -0.0529,-0.005 -0.0687,-0.0211 -0.0106,-0.0159 -0.0159,-0.0423 -0.0159,-0.0846 v -0.90387 c 0,-0.037 0.005,-0.0634 0.0211,-0.0846 0.0211,-0.0159 0.0423,-0.0264 0.0793,-0.0264 h 0.96202 c 0.005,0 0.0159,0 0.0264,0.005 0.005,0.005 0.0106,0.0159 0.0211,0.0264 0.005,0.0106 0.005,0.0211 0.0106,0.037 0,0.0159 0.005,0.037 0.005,0.0581 0,0.0423 -0.005,0.074 -0.0159,0.0951 -0.0106,0.0211 -0.0264,0.037 -0.0476,0.037 h -0.77701 v 0.61844 c 0.037,-0.005 0.0793,-0.005 0.11629,-0.0106 0.0423,0 0.0846,0 0.13743,0 0.12157,0 0.222,0.0159 0.31186,0.0476 0.0899,0.0264 0.16386,0.0687 0.22729,0.12686 0.0581,0.0529 0.10572,0.12157 0.13214,0.20086 0.0317,0.0793 0.0476,0.16386 0.0476,0.26429 z"
       id="path3819" />
    <path
       style="fill:#000000;fill-opacity:1;fill-rule:nonzero;stroke:none;stroke-width:0.264583"
       d="m 225.62047,170.96657 c 0,0.0846 -0.037,0.15329 -0.12157,0.21143 -0.0793,0.0581 -0.17972,0.0899 -0.29601,0.0899 -0.11628,0 -0.21671,-0.0317 -0.30129,-0.0899 -0.0793,-0.0581 -0.12157,-0.12686 -0.12157,-0.21143 0,-0.0846 0.0423,-0.15329 0.12157,-0.21143 0.0846,-0.0581 0.17972,-0.0899 0.30129,-0.0899 0.11101,0 0.21144,0.0317 0.29601,0.0899 0.0793,0.0581 0.12157,0.12686 0.12157,0.21143 z m -0.71358,0 c 0,0.0582 0.0317,0.10572 0.0846,0.148 0.0581,0.0423 0.12686,0.0634 0.21143,0.0634 0.0846,0 0.15329,-0.0211 0.20615,-0.0634 0.0581,-0.0423 0.0846,-0.0898 0.0846,-0.148 0,-0.0581 -0.0264,-0.10571 -0.0846,-0.148 -0.0581,-0.0423 -0.12686,-0.0634 -0.21143,-0.0634 -0.0793,0 -0.14801,0.0211 -0.20615,0.0634 -0.0581,0.0423 -0.0846,0.0899 -0.0846,0.148 z"
       id="path3821" />
    <path
       style="fill:none;stroke:#000000;stroke-width:0.211432px;stroke-linecap:round;stroke-linejoin:round;stroke-miterlimit:4;stroke-dasharray:none;stroke-opacity:1"
       d="m 227.40179,159.75539 c 1.60688,1.12587 3.5362,1.68088 5.49194,1.58045 1.95046,-0.10043 3.81635,-0.85101 5.29109,-2.14075"
       id="path3823" />
    <path
       style="fill:#000000;fill-opacity:1;fill-rule:nonzero;stroke:none;stroke-width:0.264583"
       d="m 232.09558,158.73523 c 0,0.0211 0,0.037 0,0.0529 -0.005,0.0211 -0.005,0.037 -0.0106,0.0529 0,0.0106 -0.005,0.0264 -0.0106,0.0423 -0.005,0.0159 -0.0106,0.0317 -0.0159,0.0476 l -0.7823,1.83946 c -0.005,0.0106 -0.0159,0.0212 -0.0211,0.0317 -0.0106,0.0106 -0.0212,0.0159 -0.0317,0.0211 -0.0159,0.005 -0.0317,0.0106 -0.0529,0.0106 -0.0159,0 -0.0423,0 -0.074,0 -0.037,0 -0.0634,0 -0.0846,-0.005 -0.0264,0 -0.037,-0.005 -0.0476,-0.0159 -0.0106,-0.005 -0.0159,-0.0159 -0.0159,-0.0264 0.005,-0.0106 0.005,-0.0211 0.0159,-0.037 l 0.8193,-1.88175 h -1.04131 c -0.0211,0 -0.037,-0.0106 -0.0476,-0.037 -0.0106,-0.0211 -0.0159,-0.0529 -0.0159,-0.0951 0,-0.0211 0,-0.037 0.005,-0.0529 0,-0.0159 0.005,-0.0317 0.0106,-0.0423 0.005,-0.0106 0.0106,-0.0211 0.0212,-0.0264 0.005,-0.005 0.0159,-0.005 0.0264,-0.005 h 1.2686 c 0.0159,0 0.0264,0 0.037,0.005 0.0159,0.005 0.0211,0.0106 0.0264,0.0211 0.0106,0.0106 0.0159,0.0211 0.0159,0.037 0.005,0.0159 0.005,0.037 0.005,0.0634 z m 1.76017,1.37431 c 0,0.0951 -0.0159,0.19029 -0.0476,0.28014 -0.0264,0.0899 -0.074,0.16915 -0.13215,0.23787 -0.0634,0.0687 -0.13743,0.12685 -0.23257,0.16914 -0.0899,0.0423 -0.20086,0.0634 -0.32772,0.0634 -0.0899,0 -0.16915,-0.0159 -0.23786,-0.037 -0.074,-0.0211 -0.13215,-0.0529 -0.18501,-0.0951 -0.0476,-0.0423 -0.0951,-0.0952 -0.12685,-0.15858 -0.0317,-0.0634 -0.0634,-0.13214 -0.0846,-0.21143 -0.0159,-0.0793 -0.0317,-0.16386 -0.0423,-0.259 -0.0106,-0.0899 -0.0159,-0.19029 -0.0159,-0.3013 0,-0.0951 0.005,-0.19028 0.0159,-0.28543 0.0106,-0.10043 0.0317,-0.19029 0.0528,-0.28015 0.0264,-0.0899 0.0634,-0.17971 0.10572,-0.259 0.0476,-0.0793 0.10043,-0.148 0.16915,-0.20615 0.0634,-0.0581 0.148,-0.10571 0.23786,-0.13743 0.0951,-0.037 0.20086,-0.0529 0.32243,-0.0529 0.0423,0 0.0846,0.005 0.12686,0.0106 0.0423,0.005 0.0846,0.0106 0.11629,0.0159 0.037,0.0106 0.0687,0.0212 0.0951,0.0317 0.0211,0.0106 0.037,0.0159 0.0476,0.0211 0.005,0.0106 0.0106,0.0159 0.0159,0.0211 0.005,0.0106 0.0106,0.0159 0.0106,0.0264 0,0.0106 0.005,0.0159 0.005,0.0264 0,0.0106 0,0.0264 0,0.0423 0,0.0211 0,0.037 0,0.0529 0,0.0159 0,0.0264 -0.005,0.037 -0.005,0.0106 -0.0106,0.0159 -0.0159,0.0211 -0.005,0.005 -0.0159,0.005 -0.0264,0.005 -0.0106,0 -0.0264,-0.005 -0.0476,-0.0106 -0.0211,-0.0106 -0.0476,-0.0159 -0.0793,-0.0264 -0.0317,-0.0106 -0.0634,-0.0212 -0.11101,-0.0264 -0.0423,-0.0106 -0.0899,-0.0106 -0.148,-0.0106 -0.10571,0 -0.19557,0.0211 -0.26957,0.0634 -0.074,0.0423 -0.13743,0.10043 -0.18501,0.17443 -0.0476,0.074 -0.0793,0.15857 -0.10571,0.25372 -0.0212,0.0951 -0.037,0.19557 -0.037,0.30129 0.0264,-0.0159 0.0634,-0.0317 0.0951,-0.0476 0.037,-0.0211 0.0793,-0.037 0.12158,-0.0476 0.0423,-0.0159 0.0899,-0.0264 0.13743,-0.037 0.0476,-0.005 0.10043,-0.0106 0.15328,-0.0106 0.11629,0 0.21672,0.0159 0.29601,0.0476 0.0846,0.0317 0.148,0.0793 0.19557,0.13743 0.0529,0.0582 0.0846,0.12686 0.111,0.20086 0.0212,0.0793 0.0317,0.16386 0.0317,0.25901 z m -0.296,0.0264 c 0,-0.0687 -0.005,-0.12686 -0.0159,-0.17972 -0.0159,-0.0581 -0.037,-0.10043 -0.0687,-0.13743 -0.0264,-0.0423 -0.0687,-0.0687 -0.12157,-0.0899 -0.0476,-0.0211 -0.111,-0.0317 -0.185,-0.0317 -0.0423,0 -0.0793,0.005 -0.12158,0.0106 -0.0423,0.0106 -0.0846,0.0211 -0.12157,0.0317 -0.037,0.0159 -0.074,0.0264 -0.111,0.0476 -0.037,0.0159 -0.0687,0.037 -0.0951,0.0582 0,0.148 0.005,0.26957 0.0264,0.37 0.0159,0.10043 0.0476,0.17972 0.0793,0.23786 0.037,0.0582 0.0793,0.10043 0.13214,0.12686 0.0529,0.0264 0.11629,0.0423 0.18501,0.0423 0.074,0 0.13214,-0.0159 0.185,-0.0423 0.0529,-0.0264 0.10043,-0.0634 0.13214,-0.111 0.037,-0.0476 0.0634,-0.10043 0.0793,-0.15857 0.0159,-0.0581 0.0211,-0.11629 0.0211,-0.17443 z"
       id="path3825" />
    <path
       style="fill:#000000;fill-opacity:1;fill-rule:nonzero;stroke:none;stroke-width:0.264583"
       d="m 235.00805,158.32294 c 0,0.0846 -0.037,0.15328 -0.12157,0.21143 -0.0793,0.0581 -0.17972,0.0899 -0.296,0.0899 -0.11629,0 -0.21672,-0.0317 -0.30129,-0.0899 -0.0793,-0.0582 -0.12158,-0.12686 -0.12158,-0.21143 0,-0.0846 0.0423,-0.15329 0.12158,-0.21144 0.0846,-0.0581 0.17971,-0.0898 0.30129,-0.0898 0.111,0 0.21143,0.0317 0.296,0.0898 0.0793,0.0582 0.12157,0.12686 0.12157,0.21144 z m -0.71358,0 c 0,0.0581 0.0317,0.10571 0.0846,0.148 0.0582,0.0423 0.12686,0.0634 0.21144,0.0634 0.0846,0 0.15328,-0.0212 0.20614,-0.0634 0.0582,-0.0423 0.0846,-0.0899 0.0846,-0.148 0,-0.0582 -0.0264,-0.10572 -0.0846,-0.14801 -0.0581,-0.0423 -0.12686,-0.0634 -0.21143,-0.0634 -0.0793,0 -0.148,0.0212 -0.20615,0.0634 -0.0581,0.0423 -0.0846,0.0899 -0.0846,0.14801 z"
       id="path3827" />
    <text
       xml:space="preserve"
       style="font-style:italic;font-variant:normal;font-weight:400;font-size:3.88607px;line-height:125%;font-family:Calibri;text-align:start;letter-spacing:0px;word-spacing:0px;text-anchor:start;fill:#000000;fill-opacity:1;stroke:none;stroke-width:0.264583"
       x="186.56721"
       y="149.29112"
       id="text3729-6"><tspan
         sodipodi:role="line"
         x="186.56721"
         y="149.29112"
         id="tspan3727-8"
         style="stroke-width:0.264583"><tspan
           dx="0 0"
           dy="0 0"
           style="font-style:italic;font-variant:normal;font-weight:400;font-size:3.88607px;font-family:Calibri;fill:#000000;stroke-width:0.264583"
           id="tspan3723-1">M </tspan></tspan></text>
    <text
       xml:space="preserve"
       style="font-style:italic;font-variant:normal;font-weight:400;font-size:3.88607px;line-height:125%;font-family:Calibri;text-align:start;letter-spacing:0px;word-spacing:0px;text-anchor:start;fill:#000000;fill-opacity:1;stroke:none;stroke-width:0.264583"
       x="216.78778"
       y="177.92111"
       id="text3729-3"><tspan
         sodipodi:role="line"
         x="216.78778"
         y="177.92111"
         id="tspan3727-3"
         style="stroke-width:0.264583"><tspan
           dx="0 0"
           dy="0 0"
           style="font-style:italic;font-variant:normal;font-weight:400;font-size:3.88607px;font-family:Calibri;fill:#000000;stroke-width:0.264583"
           id="tspan3725-7">P </tspan></tspan></text>
    <text
       xml:space="preserve"
       style="font-style:italic;font-variant:normal;font-weight:400;font-size:3.88607px;line-height:125%;font-family:Calibri;text-align:start;letter-spacing:0px;word-spacing:0px;text-anchor:start;fill:#000000;fill-opacity:1;stroke:none;stroke-width:0.264583"
       x="249.03265"
       y="178.21031"
       id="text3729-66"><tspan
         sodipodi:role="line"
         x="249.03265"
         y="178.21031"
         id="tspan3727-5"
         style="stroke-width:0.264583"><tspan
           dx="0 0"
           dy="0 0"
           style="font-style:italic;font-variant:normal;font-weight:400;font-size:3.88607px;font-family:Calibri;fill:#000000;stroke-width:0.264583"
           id="tspan3725-3">Q </tspan></tspan></text>
    <text
       xml:space="preserve"
       style="font-style:italic;font-variant:normal;font-weight:400;font-size:3.88607px;line-height:125%;font-family:Calibri;text-align:start;letter-spacing:0px;word-spacing:0px;text-anchor:start;fill:#000000;fill-opacity:1;stroke:none;stroke-width:0.264583"
       x="231.39195"
       y="151.89386"
       id="text3729-4"><tspan
         sodipodi:role="line"
         x="231.39195"
         y="151.89386"
         id="tspan3727-4"
         style="stroke-width:0.264583"><tspan
           dx="0 0"
           dy="0 0"
           style="font-style:italic;font-variant:normal;font-weight:400;font-size:3.88607px;font-family:Calibri;fill:#000000;stroke-width:0.264583"
           id="tspan3725-4">R </tspan></tspan></text>
    <text
       xml:space="preserve"
       style="font-style:italic;font-variant:normal;font-weight:400;font-size:3.88607px;line-height:125%;font-family:Calibri;text-align:start;letter-spacing:0px;word-spacing:0px;text-anchor:start;fill:#000000;fill-opacity:1;stroke:none;stroke-width:0.264583"
       x="210.28096"
       y="178.78868"
       id="text3729-5"><tspan
         sodipodi:role="line"
         x="210.28096"
         y="178.78868"
         id="tspan3727-0"
         style="stroke-width:0.264583"><tspan
           dx="0 0"
           dy="0 0"
           style="font-style:italic;font-variant:normal;font-weight:400;font-size:3.88607px;font-family:Calibri;fill:#000000;stroke-width:0.264583"
           id="tspan3725-8">L </tspan></tspan></text>
  </g>
</svg>
