<?xml version="1.0" encoding="UTF-8" standalone="no"?>

<svg
   version="1.1"
   id="svg2000"
   viewBox="0 0 461.70728 245.97386"
   sodipodi:docname="logo.svg"
   inkscape:version="1.2.2 (732a01da63, 2022-12-09)"
   xmlns:inkscape="http://www.inkscape.org/namespaces/inkscape"
   xmlns:sodipodi="http://sodipodi.sourceforge.net/DTD/sodipodi-0.dtd"
   xmlns="http://www.w3.org/2000/svg"
   xmlns:svg="http://www.w3.org/2000/svg">
  <defs
     id="defs2004" />
  <sodipodi:namedview
     id="namedview2002"
     pagecolor="#ffffff"
     bordercolor="#000000"
     borderopacity="0.25"
     inkscape:showpageshadow="2"
     inkscape:pageopacity="0.0"
     inkscape:pagecheckerboard="0"
     inkscape:deskcolor="#d1d1d1"
     showgrid="false"
     inkscape:zoom="2.1395833"
     inkscape:cx="351.23661"
     inkscape:cy="142.08374"
     inkscape:window-width="3440"
     inkscape:window-height="1377"
     inkscape:window-x="2552"
     inkscape:window-y="119"
     inkscape:window-maximized="1"
     inkscape:current-layer="g2006" />
  <g
     inkscape:groupmode="layer"
     inkscape:label="Image"
     id="g2006"
     transform="translate(-16.839321,-92.883008)">
    <g
       id="g2382">
      <path
         id="path2024"
         style="fill:#62cba6"
         d="m 159.60871,93.891645 -65.250005,0.002 c -72.053354,0.002 -69.374174,-0.2259 -74.177734,6.322255 -2.03862,2.77917 -2.07227,3.73532 -2.07227,61 0,53.79672 0.13848,58.55241 1.82422,63.17578 2.55521,7.00855 4.90106,10.50193 10.69141,15.91797 5.54574,5.18758 9.71498,7.31569 17.98437,9.17774 3.96574,0.89298 20.21488,1.26186 58.249999,1.32226 l 52.75001,0.084 v -14 -14 l -52.25001,-0.002 c -47.739539,-0.001 -52.552129,-0.15244 -55.749999,-1.75 -2.38401,-1.19077 -3.88037,-2.8659 -4.69335,-5.25 -0.85205,-2.49823 -1.20971,-16.44795 -1.25,-48.75 l -0.0566,-45.25 h 56.999999 57 v -14 z M 57.608701,157.89164 v 14.5 14.5 h 44.499999 44.50001 v -14.5 -14.5 H 102.1087 Z" />
      <path
         style="fill:#404040"
         d="m 17.373033,337.24813 c -0.26681,-0.69531 -0.36519,-13.63281 -0.21861,-28.75 l 0.2665,-27.48581 6.1964,-0.29633 6.19641,-0.29632 4.64111,8.04632 c 2.55262,4.42548 4.93924,8.0359 5.3036,8.02314 0.36436,-0.0127 2.68748,-3.50025 5.16248,-7.75 l 4.5,-7.72681 6.25,-0.29772 6.25,-0.29771 v 29.09543 29.09543 l -6.25,-0.29771 -6.25,-0.29772 -0.5,-17.5 -0.5,-17.5 -3.37544,5.80311 c -4.30947,7.40893 -6.44495,7.39807 -10.43803,-0.0531 -1.54741,-2.8875 -3.23491,-5.25 -3.75,-5.25 -0.54637,-1e-5 -0.93653,7.29064 -0.93653,17.49999 v 17.5 h -6.03139 c -3.93873,0 -6.1997,-0.43863 -6.5165,-1.26419 z m 50.54789,0.88127 c 0,-0.26087 2.95347,-11.64393 6.56327,-25.29569 3.6098,-13.65177 7.00214,-26.50889 7.53854,-28.57139 l 0.97528,-3.75 h 7.922907 7.92291 l 0.98945,3.75 c 10.16576,38.52801 14.08764,53.53255 14.08764,53.89718 0,0.24431 -2.99848,0.31114 -6.66329,0.14851 l -6.66328,-0.29569 -1.11876,-4 -1.11875,-4 h -7.43592 -7.435917 l -1.11876,4 -1.11875,4 -6.66329,0.29569 c -3.6648,0.16263 -6.66328,0.0823 -6.66328,-0.17861 z M 95.91534,318.26232 c -0.003,-0.6875 -0.42013,-2.825 -0.9268,-4.75 -0.50667,-1.925 -1.44606,-6.13561 -2.08751,-9.35691 -0.64146,-3.2213 -1.5248,-5.4713 -1.96297,-5 -0.67009,0.72075 -5.01714,17.81623 -5.01714,19.7307 0,0.34441 2.25,0.62621 5,0.62621 3.33631,0 4.99814,-0.41592 4.99442,-1.25 z m 29.67225,19.58333 c -0.36667,-0.36666 -0.66667,-10.69519 -0.66667,-22.95228 v -22.28562 l -6.25,-0.29771 -6.25,-0.29772 -0.2999,-5.75 -0.29991,-5.75 h 20.04991 20.04989 v 6 6 h -7 -7 v 23 23 h -5.83332 c -3.20834,0 -6.13334,-0.3 -6.5,-0.66667 z m 32.33332,-28.3564 v -29.02308 l 17.75,0.27308 17.75,0.27307 0.30111,5.21677 0.3011,5.21677 -11.3011,0.28323 -11.30111,0.28323 -0.2999,5.75 -0.29991,5.75 h 7.04991 7.0499 v 5.45431 5.45431 l -6.75,0.29569 -6.75,0.29569 v 6 6 l 11.25,0.28275 11.25,0.28275 v 5.46725 5.46725 h -18 -18 z m 42,0.0231 v -29 l 5.75,0.0153 c 3.1625,0.008 6.23647,0.34592 6.83105,0.75 0.59457,0.40408 2.84457,3.99391 5,7.97741 2.15542,3.98349 4.36895,7.09729 4.91895,6.91955 0.55,-0.17774 2.94858,-3.795 5.33017,-8.03835 l 4.33018,-7.71519 6.16982,0.29563 6.16983,0.29564 0.26534,28.75 0.26533,28.75 h -6.51533 -6.51534 v -17.5 c 0,-9.625 -0.39483,-17.5 -0.87741,-17.5 -0.48257,0 -2.17007,2.47393 -3.75,5.49762 -3.97017,7.5982 -6.03734,7.45078 -10.48326,-0.74762 l -3.38933,-6.25002 -0.27256,18.25 -0.27256,18.25 h -6.47744 -6.47744 v -29 z m 51,27.86446 c 0,-0.62454 2.3025,-9.73704 5.11668,-20.25 2.81417,-10.51298 6.08792,-22.93949 7.27499,-27.61449 l 2.15833,-8.5 7.3781,-0.2969 c 4.05795,-0.16329 7.73052,0.0617 8.16125,0.5 0.87569,0.89106 14.91065,53.39336 14.91065,55.7781 0,1.19973 -1.34059,1.5188 -6.38129,1.5188 h -6.38128 l -1.13311,-4.5 -1.13312,-4.5 h -7.36688 -7.36689 l -1.13311,4.5 -1.13312,4.5 h -6.4856 c -4.17314,0 -6.4856,-0.40488 -6.4856,-1.13554 z m 27.63662,-19.61449 c -0.27399,-0.9625 -1.2581,-5.35 -2.18691,-9.75 -0.92881,-4.4 -2.03535,-8.37789 -2.45898,-8.83975 -0.69746,-0.76041 -4.99073,15.51143 -4.99073,18.91528 0,1.04522 1.34913,1.42447 5.06739,1.42447 4.34919,0 4.99678,-0.24803 4.56923,-1.75 z m 29.36338,-2.15659 V 292.6037 l -6.75,-0.29569 -6.75,-0.29569 -0.11371,-4.5 c -0.0625,-2.475 0.0981,-5.0625 0.35699,-5.75 0.3549,-0.94248 5.37699,-1.25 20.41361,-1.25 h 19.94292 l -0.29991,5.75 -0.2999,5.75 -6.73134,0.29526 -6.73134,0.29527 -0.26866,22.70473 -0.26866,22.70474 -6.25,0.29772 -6.25,0.29771 z m 45.70896,22.28222 c -0.38993,-0.38993 -0.70896,-5.51424 -0.70896,-11.38735 v -10.67839 l -7,-17.23922 c -3.85,-9.48157 -7,-17.4263 -7,-17.65495 0,-0.22865 3.06143,-0.41572 6.80317,-0.41572 h 6.80316 l 2.27684,7.06936 c 1.25226,3.88814 2.97429,8.72564 3.82672,10.75 l 1.54988,3.68064 3.62012,-10.5 3.62011,-10.5 6.75,-0.29569 c 3.7125,-0.16263 6.75,-0.0293 6.75,0.29626 0,0.32557 -3.03547,7.88363 -6.74548,16.79569 l -6.74548,16.20374 -0.50452,12 -0.50452,12 -6.04104,0.29229 c -3.32257,0.16076 -6.36007,-0.0267 -6.75,-0.41666 z m 33.5257,-28.12563 0.26534,-28.75 6.25,-0.29772 6.25,-0.29771 v 10.54771 c 0,5.80125 0.39872,10.54772 0.88603,10.54772 0.48732,0 2.79911,-3.2625 5.13732,-7.25 7.97296,-13.59685 8.14591,-13.75 15.52754,-13.75 3.54701,0 6.43662,0.3375 6.42136,0.75 -0.0153,0.4125 -3.35151,6.12018 -7.41389,12.68373 l -7.38614,11.93372 7.91389,15.80452 c 4.35264,8.69248 7.91389,16.0348 7.91389,16.31627 0,0.28147 -3.14624,0.51176 -6.99165,0.51176 h -6.99164 l -5.59108,-11.1483 -5.59109,-11.1483 -1.91068,2.8983 c -1.49049,2.26092 -1.91213,4.71261 -1.91727,11.1483 l -0.007,8.25 h -6.51534 -6.51533 z m 45.81504,27.5 c 0.0273,-0.6875 3.33046,-13.625 7.34027,-28.75 l 7.29058,-27.5 7.96585,-0.28731 7.9659,-0.28731 7.5103,28.55417 c 4.1307,15.7048 7.2929,28.77159 7.0272,29.03732 -0.2657,0.26572 -3.3066,0.48313 -6.7576,0.48313 h -6.2745 l -0.8376,-4.25 -0.8376,-4.25 -7.5925,-0.28975 -7.59255,-0.28974 -1.14312,4.53974 -1.14313,4.53975 h -6.4856 c -4.54832,0 -6.47075,-0.37338 -6.4359,-1.25 z m 27.5857,-20 c -0.3289,-1.2375 -1.3737,-5.9625 -2.3219,-10.5 -0.9482,-4.5375 -2.0261,-8.25 -2.3954,-8.25 -0.6481,0 -4.93909,17.20746 -4.92502,19.75 0.005,0.83623 1.7006,1.25 5.12352,1.25 4.8167,0 5.0816,-0.13193 4.5188,-2.25 z M 230.59954,254.49413 c -50.36489,-6.13093 -82.66552,-56.94226 -67.196,-105.70438 6.4183,-20.23136 23.08956,-39.0992 42.62391,-48.23995 15.91087,-7.445198 37.29422,-9.543218 51.39346,-5.042438 16.12033,5.145938 23.99023,10.497388 38.86093,26.425038 l 10.81314,11.5817 -7.47163,10.24911 c -4.1094,5.63701 -8.3668,11.35311 -9.4609,12.70244 l -1.98925,2.45333 -10.53287,-10.9919 c -21.04721,-21.96446 -33.4575,-27.64846 -49.78792,-22.80324 -25.20511,7.47835 -40.86538,31.47193 -36.96191,56.63046 3.69379,23.80701 25.54507,43.61583 48.2429,43.73357 5.79264,0.03 14.54348,-3.11167 21.59516,-7.75307 7.28631,-4.79584 22.36416,-22.43567 47.20205,-55.22248 11.45806,-15.125 24.40605,-31.57593 28.77333,-36.55763 26.17147,-29.853478 54.56697,-39.283408 85.91088,-28.530348 24.60212,8.440158 45.52209,30.348828 52.74419,55.236848 4.2539,14.65926 3.8741,32.0512 -1.021,46.75626 -7.9577,23.90502 -28.26599,44.17967 -51.69938,51.61377 -20.01659,6.35014 -37.45378,5.07784 -55.76411,-4.06882 -10.03278,-5.01172 -20.921,-14.53549 -33.89174,-29.64461 l -3.17165,-3.69453 9.30489,-12.51264 c 5.11769,-6.88195 9.52989,-12.51578 9.80489,-12.51963 0.275,-0.004 3.15311,3.32991 6.39579,7.40833 19.77924,24.87693 35.07666,32.95809 53.23582,28.12287 13.11179,-3.49126 26.53978,-14.06345 32.26331,-25.40171 4.89504,-9.69702 6.42525,-17.11222 5.87772,-28.48277 -0.43224,-8.9763 -0.80902,-10.45863 -4.60608,-18.12142 -5.23587,-10.56642 -14.08616,-19.23968 -24.84702,-24.34998 -5.96002,-2.83041 -8.84866,-3.5659 -15.56866,-3.96404 -8.08545,-0.47905 -8.41128,-0.40749 -16.25088,3.56888 -8.8216,4.47445 -19.90346,13.72273 -29.52658,24.64117 -3.39325,3.85 -14.30619,17.8 -24.25097,31 -24.11061,32.00273 -34.55711,44.45399 -44.18933,52.66956 -17.31265,14.76641 -36.88622,21.243 -56.85449,18.81225 z"
         id="path2022" />
    </g>
  </g>
</svg>
