<?xml version="1.0" encoding="UTF-8" standalone="no"?>

<svg
   viewBox="0 0 47.79703 72.86168"
   version="1.1"
   id="svg5"
   inkscape:version="1.2.2 (732a01da63, 2022-12-09)"
   sodipodi:docname="maj2022z13.svg"
   xmlns:inkscape="http://www.inkscape.org/namespaces/inkscape"
   xmlns:sodipodi="http://sodipodi.sourceforge.net/DTD/sodipodi-0.dtd"
   xmlns="http://www.w3.org/2000/svg"
   xmlns:svg="http://www.w3.org/2000/svg">
  <sodipodi:namedview
     id="namedview7"
     pagecolor="#ffffff"
     bordercolor="#000000"
     borderopacity="0.25"
     inkscape:showpageshadow="2"
     inkscape:pageopacity="0.0"
     inkscape:pagecheckerboard="0"
     inkscape:deskcolor="#d1d1d1"
     inkscape:document-units="mm"
     showgrid="false"
     inkscape:zoom="1.829812"
     inkscape:cx="271.88585"
     inkscape:cy="154.6607"
     inkscape:window-width="3440"
     inkscape:window-height="1377"
     inkscape:window-x="2552"
     inkscape:window-y="119"
     inkscape:window-maximized="1"
     inkscape:current-layer="layer1" />
  <defs
     id="defs2">
    <clipPath
       clipPathUnits="userSpaceOnUse"
       id="clipEmfPath1">
      <path
         d="M 0,0 H 601.09294 V 344.25796 H 0 Z"
         id="path278" />
    </clipPath>
    <pattern
       id="EMFhbasepattern"
       patternUnits="userSpaceOnUse"
       width="6"
       height="6"
       x="0"
       y="0" />
    <clipPath
       clipPathUnits="userSpaceOnUse"
       id="clipEmfPath1-0">
      <path
         d="M 0,0 H 601.09294 V 281.60749 H 0 Z"
         id="path697" />
    </clipPath>
    <clipPath
       clipPathUnits="userSpaceOnUse"
       id="clipEmfPath2">
      <path
         d="m 316.92829,14.54386 h 52.58165 v 62.330828 h -52.58165 z"
         id="path700" />
    </clipPath>
    <clipPath
       clipPathUnits="userSpaceOnUse"
       id="clipEmfPath3">
      <path
         d="m 318.52734,15.34375 v 60.732422 h 24.45118 V 15.34375 Z"
         id="path703" />
    </clipPath>
    <clipPath
       clipPathUnits="userSpaceOnUse"
       id="clipEmfPath4">
      <path
         d="m 343.29883,15.34375 v 29.886719 h 24.61328 V 15.34375 Z"
         id="path706" />
    </clipPath>
    <clipPath
       clipPathUnits="userSpaceOnUse"
       id="clipEmfPath5">
      <path
         d="m 342.97852,46.029297 v 30.046875 h 24.45312 V 46.029297 Z"
         id="path709" />
    </clipPath>
    <pattern
       id="EMFhbasepattern-6"
       patternUnits="userSpaceOnUse"
       width="6"
       height="6"
       x="0"
       y="0" />
    <clipPath
       clipPathUnits="userSpaceOnUse"
       id="clipEmfPath1-4">
      <path
         d="M 0,0 H 601.09294 V 221.51418 H 0 Z"
         id="path1547" />
    </clipPath>
    <pattern
       id="EMFhbasepattern-7"
       patternUnits="userSpaceOnUse"
       width="6"
       height="6"
       x="0"
       y="0" />
    <clipPath
       clipPathUnits="userSpaceOnUse"
       id="clipEmfPath1-6">
      <path
         d="M 0,0 H 686.11858 V 297.42993 H 0 Z"
         id="path1856" />
    </clipPath>
    <pattern
       id="EMFhbasepattern-0"
       patternUnits="userSpaceOnUse"
       width="6"
       height="6"
       x="0"
       y="0" />
  </defs>
  <g
     inkscape:label="Warstwa 1"
     inkscape:groupmode="layer"
     id="layer1"
     transform="translate(-112.6797,-130.23859)">
    <text
       xml:space="preserve"
       style="font-style:italic;font-variant:normal;font-weight:400;font-size:3.88607px;line-height:125%;font-family:Calibri;text-align:start;letter-spacing:0px;word-spacing:0px;text-anchor:start;fill:#000000;fill-opacity:1;stroke:none;stroke-width:0.264583"
       x="125.71782"
       y="132.7243"
       id="text1868"><tspan
         sodipodi:role="line"
         x="125.71782"
         y="132.7243"
         id="tspan1866"
         style="stroke-width:0.264583"><tspan
           dx="0"
           dy="0"
           style="font-style:italic;font-variant:normal;font-weight:400;font-size:3.88607px;font-family:Calibri;fill:#000000;stroke-width:0.264583"
           id="tspan1862">C</tspan><tspan
           dx="0"
           dy="0"
           style="font-style:normal;font-variant:normal;font-weight:400;font-size:3.88607px;font-family:Calibri;fill:#181717;stroke-width:0.264583"
           id="tspan1864"> </tspan></tspan></text>
    <text
       xml:space="preserve"
       style="font-style:normal;font-variant:normal;font-weight:400;font-size:3.88607px;line-height:125%;font-family:Calibri;text-align:start;letter-spacing:0px;word-spacing:0px;text-anchor:start;fill:#000000;fill-opacity:1;stroke:none;stroke-width:0.264583"
       x="157.26347"
       y="198.22595"
       id="text1874"><tspan
         sodipodi:role="line"
         x="157.26347"
         y="198.22595"
         id="tspan1872"
         style="stroke-width:0.264583"><tspan
           dx="0"
           dy="0"
           style="font-style:normal;font-variant:normal;font-weight:400;font-size:3.88607px;font-family:Calibri;fill:#181717;stroke-width:0.264583"
           id="tspan1870"> </tspan></tspan></text>
    <text
       xml:space="preserve"
       style="font-style:normal;font-variant:normal;font-weight:400;font-size:3.88607px;line-height:125%;font-family:Calibri;text-align:start;letter-spacing:0px;word-spacing:0px;text-anchor:start;fill:#000000;fill-opacity:1;stroke:none;stroke-width:0.264583"
       x="46.007942"
       y="203.08888"
       id="text1880"><tspan
         sodipodi:role="line"
         x="46.007942"
         y="203.08888"
         id="tspan1878"
         style="stroke-width:0.264583"><tspan
           dx="0"
           dy="0"
           style="font-style:normal;font-variant:normal;font-weight:400;font-size:3.88607px;font-family:Calibri;fill:#000000;stroke-width:0.264583"
           id="tspan1876"> </tspan></tspan></text>
    <text
       xml:space="preserve"
       style="font-style:italic;font-variant:normal;font-weight:400;font-size:3.88607px;line-height:125%;font-family:Calibri;text-align:start;letter-spacing:0px;word-spacing:0px;text-anchor:start;fill:#000000;fill-opacity:1;stroke:none;stroke-width:0.264583"
       x="112.77818"
       y="203.08888"
       id="text1888"><tspan
         sodipodi:role="line"
         x="112.77818"
         y="203.08888"
         id="tspan1886"
         style="stroke-width:0.264583"><tspan
           dx="0"
           dy="0"
           style="font-style:italic;font-variant:normal;font-weight:400;font-size:3.88607px;font-family:Calibri;fill:#000000;stroke-width:0.264583"
           id="tspan1882">A</tspan><tspan
           dx="0"
           dy="0"
           style="font-style:italic;font-variant:normal;font-weight:400;font-size:3.88607px;font-family:Calibri;fill:#000000;stroke-width:0.264583"
           id="tspan1884"> </tspan></tspan></text>
    <text
       xml:space="preserve"
       style="font-style:italic;font-variant:normal;font-weight:400;font-size:3.88607px;line-height:125%;font-family:Calibri;text-align:start;letter-spacing:0px;word-spacing:0px;text-anchor:start;fill:#000000;fill-opacity:1;stroke:none;stroke-width:0.264583"
       x="158.36293"
       y="203.08888"
       id="text1896"><tspan
         sodipodi:role="line"
         x="158.36293"
         y="203.08888"
         id="tspan1894"
         style="stroke-width:0.264583"><tspan
           dx="0"
           dy="0"
           style="font-style:italic;font-variant:normal;font-weight:400;font-size:3.88607px;font-family:Calibri;fill:#000000;stroke-width:0.264583"
           id="tspan1890">B</tspan><tspan
           dx="0"
           dy="0"
           style="font-style:italic;font-variant:normal;font-weight:400;font-size:3.88607px;font-family:Calibri;fill:#000000;stroke-width:0.264583"
           id="tspan1892"> </tspan></tspan></text>
    <path
       style="fill:none;stroke:#000000;stroke-width:0.211432px;stroke-linecap:round;stroke-linejoin:round;stroke-miterlimit:4;stroke-dasharray:none;stroke-opacity:1"
       d="m 116.07652,198.26824 h 41.18696 l -20.59348,-44.1893 -20.59348,44.1893"
       id="path1898" />
    <path
       style="fill:none;stroke:#000000;stroke-width:0.211432px;stroke-linecap:round;stroke-linejoin:round;stroke-miterlimit:4;stroke-dasharray:none;stroke-opacity:1"
       d="m 136.67,154.06837 -9.29244,-19.94861 -11.30104,64.14848"
       id="path1900" />
    <path
       style="fill:none;stroke:#000000;stroke-width:0.211432px;stroke-linecap:round;stroke-linejoin:round;stroke-miterlimit:4;stroke-dasharray:none;stroke-opacity:1"
       d="m 121.57375,198.26824 c 0,-1.28974 -0.45193,-2.54247 -1.27916,-3.53092 -0.82723,-0.99109 -1.97689,-1.6571 -3.24548,-1.88174"
       id="path1902" />
    <path
       style="fill:none;stroke:#000000;stroke-width:0.211432px;stroke-linecap:round;stroke-linejoin:round;stroke-miterlimit:4;stroke-dasharray:none;stroke-opacity:1"
       d="m 125.21038,146.59425 c 1.2686,0.22729 2.56362,0.25372 3.84278,0.0846 1.27388,-0.16914 2.52133,-0.53915 3.68421,-1.09945"
       id="path1904" />
    <path
       style="fill:#000000;fill-opacity:1;fill-rule:nonzero;stroke:none;stroke-width:0.264583"
       d="m 127.73964,146.06831 c 0,0.10043 -0.0159,0.19293 -0.0502,0.27486 -0.037,0.0819 -0.0846,0.15065 -0.15064,0.20879 -0.0661,0.0581 -0.14536,0.10308 -0.2405,0.13479 -0.0952,0.0317 -0.20351,0.0476 -0.32244,0.0476 -0.0714,0 -0.14007,-0.005 -0.2035,-0.0185 -0.0634,-0.0132 -0.11893,-0.0264 -0.16915,-0.0423 -0.0502,-0.0159 -0.0899,-0.0344 -0.12157,-0.0529 -0.0344,-0.0159 -0.0529,-0.0291 -0.0634,-0.037 -0.008,-0.008 -0.0132,-0.0159 -0.0185,-0.0238 -0.005,-0.008 -0.008,-0.0185 -0.0106,-0.0291 -0.005,-0.0132 -0.005,-0.0264 -0.008,-0.0423 -0.003,-0.0185 -0.003,-0.037 -0.003,-0.0608 0,-0.0423 0.003,-0.0714 0.0106,-0.0872 0.0106,-0.0159 0.0211,-0.0238 0.037,-0.0238 0.008,0 0.0291,0.0106 0.0608,0.0291 0.0291,0.0185 0.0687,0.037 0.11628,0.0581 0.0476,0.0211 0.10308,0.0396 0.16651,0.0581 0.0634,0.0185 0.13478,0.0291 0.21407,0.0291 0.074,0 0.14272,-0.0106 0.19822,-0.0291 0.0581,-0.0211 0.10572,-0.0476 0.14536,-0.0819 0.0396,-0.037 0.0687,-0.0793 0.0872,-0.12686 0.0212,-0.0476 0.0291,-0.10043 0.0291,-0.15857 0,-0.0634 -0.0106,-0.11893 -0.037,-0.16915 -0.0238,-0.0502 -0.0608,-0.0951 -0.10836,-0.13214 -0.0476,-0.0344 -0.10572,-0.0634 -0.17708,-0.0819 -0.0687,-0.0211 -0.15064,-0.0291 -0.23786,-0.0291 h -0.21407 c -0.008,0 -0.0185,-0.003 -0.0264,-0.008 -0.008,-0.003 -0.0159,-0.0106 -0.0238,-0.0185 -0.005,-0.0106 -0.0106,-0.0211 -0.0159,-0.037 -0.003,-0.0132 -0.005,-0.0344 -0.005,-0.0582 0,-0.0211 0.003,-0.0396 0.005,-0.0529 0.003,-0.0159 0.008,-0.0264 0.0132,-0.0344 0.008,-0.008 0.0132,-0.0159 0.0211,-0.0185 0.008,-0.005 0.0185,-0.008 0.0291,-0.008 h 0.18765 c 0.074,0 0.14007,-0.008 0.20086,-0.0291 0.0581,-0.0185 0.10836,-0.0476 0.148,-0.0819 0.0423,-0.037 0.074,-0.0819 0.0952,-0.13215 0.0211,-0.0502 0.0317,-0.10836 0.0317,-0.16914 0,-0.0476 -0.008,-0.0899 -0.0211,-0.13215 -0.0159,-0.0423 -0.037,-0.0793 -0.0661,-0.10836 -0.0291,-0.0317 -0.0661,-0.0555 -0.111,-0.074 -0.0449,-0.0185 -0.0978,-0.0264 -0.15593,-0.0264 -0.0661,0 -0.12686,0.0106 -0.17971,0.0291 -0.0555,0.0211 -0.10308,0.0423 -0.14536,0.0661 -0.0423,0.0211 -0.0793,0.0449 -0.10572,0.0634 -0.0291,0.0211 -0.0476,0.0291 -0.0581,0.0291 -0.008,0 -0.0159,0 -0.0212,-0.003 -0.008,-0.003 -0.0132,-0.008 -0.0159,-0.0185 -0.005,-0.008 -0.008,-0.0185 -0.008,-0.0344 -0.003,-0.0159 -0.003,-0.037 -0.003,-0.0608 0,-0.0185 0,-0.0317 0,-0.0449 0.003,-0.0132 0.005,-0.0264 0.008,-0.0344 0.003,-0.0106 0.008,-0.0185 0.0106,-0.0264 0.005,-0.008 0.0132,-0.0185 0.0238,-0.0291 0.0106,-0.0106 0.0317,-0.0264 0.0634,-0.0476 0.0344,-0.0211 0.074,-0.0396 0.12157,-0.0608 0.0476,-0.0211 0.10308,-0.037 0.16386,-0.0502 0.0634,-0.0132 0.1295,-0.0211 0.20086,-0.0211 0.10043,0 0.19029,0.0132 0.26694,0.0396 0.074,0.0264 0.13743,0.0634 0.19028,0.111 0.0502,0.0476 0.0872,0.10572 0.11365,0.17179 0.0238,0.0687 0.037,0.14272 0.037,0.222 0,0.0714 -0.008,0.13479 -0.0264,0.19558 -0.0185,0.0608 -0.0449,0.11364 -0.0793,0.15857 -0.0344,0.0476 -0.0767,0.0872 -0.12686,0.11893 -0.0502,0.0317 -0.10836,0.0555 -0.17444,0.0687 v 0.003 c 0.074,0.008 0.14272,0.0264 0.20615,0.0582 0.0608,0.0291 0.11364,0.0661 0.15857,0.11364 0.0449,0.0449 0.0793,0.0978 0.10572,0.15857 0.0264,0.0608 0.037,0.12686 0.037,0.19822 z m 1.74167,-0.0793 c 0,0.11893 -0.0211,0.22465 -0.0581,0.31715 -0.0396,0.0925 -0.0951,0.16915 -0.1665,0.23258 -0.0714,0.0634 -0.15858,0.111 -0.25637,0.14536 -0.10043,0.0343 -0.20879,0.0502 -0.33036,0.0502 -0.0687,0 -0.13214,-0.005 -0.19293,-0.0159 -0.0581,-0.008 -0.11365,-0.0211 -0.16122,-0.0343 -0.0449,-0.0159 -0.0846,-0.0291 -0.11364,-0.0423 -0.0317,-0.0132 -0.0502,-0.0264 -0.0581,-0.0344 -0.008,-0.008 -0.0159,-0.0132 -0.0185,-0.0211 -0.003,-0.008 -0.005,-0.0159 -0.008,-0.0238 -0.005,-0.0106 -0.005,-0.0238 -0.008,-0.037 0,-0.0159 0,-0.0344 0,-0.0529 0,-0.0212 0,-0.037 0.003,-0.0529 0,-0.0159 0.003,-0.0291 0.008,-0.037 0.005,-0.0106 0.0106,-0.0185 0.0159,-0.0238 0.005,-0.003 0.0132,-0.005 0.0211,-0.005 0.0106,0 0.0291,0.008 0.0529,0.0212 0.0238,0.0132 0.0555,0.0291 0.0951,0.0449 0.0396,0.0185 0.0872,0.0344 0.148,0.0476 0.0582,0.0159 0.12686,0.0238 0.20879,0.0238 0.074,0 0.14272,-0.0106 0.20615,-0.0291 0.0634,-0.0185 0.11629,-0.0449 0.16122,-0.0846 0.0449,-0.0396 0.0819,-0.0872 0.10836,-0.148 0.0238,-0.0581 0.037,-0.1295 0.037,-0.21408 0,-0.0714 -0.0106,-0.13214 -0.0317,-0.18764 -0.0211,-0.0529 -0.0555,-0.10043 -0.10043,-0.13479 -0.0476,-0.037 -0.10307,-0.0634 -0.17179,-0.0819 -0.0714,-0.0159 -0.15329,-0.0264 -0.25107,-0.0264 -0.0661,0 -0.12686,0.005 -0.17444,0.0106 -0.0502,0.008 -0.0951,0.0106 -0.13743,0.0106 -0.0317,0 -0.0555,-0.008 -0.0687,-0.0211 -0.0132,-0.0159 -0.0185,-0.0449 -0.0185,-0.0872 v -0.90122 c 0,-0.0396 0.008,-0.0661 0.0238,-0.0846 0.0185,-0.0185 0.0423,-0.0291 0.0767,-0.0291 h 0.96201 c 0.008,0 0.0185,0.003 0.0264,0.008 0.008,0.005 0.0159,0.0132 0.0212,0.0238 0.005,0.0106 0.008,0.0238 0.0106,0.0396 0.003,0.0159 0.005,0.0344 0.005,0.0555 0,0.0423 -0.005,0.074 -0.0159,0.0978 -0.0106,0.0211 -0.0264,0.0344 -0.0449,0.0344 h -0.77701 v 0.62108 c 0.037,-0.005 0.0766,-0.008 0.11628,-0.0106 0.0396,0 0.0846,0 0.13479,0 0.12157,0 0.22465,0.0132 0.3145,0.0449 0.0899,0.0291 0.16387,0.0714 0.22465,0.12686 0.0608,0.0555 0.10572,0.12422 0.13479,0.20351 0.0317,0.0766 0.0476,0.16386 0.0476,0.26164 z"
       id="path1906" />
    <path
       style="fill:#000000;fill-opacity:1;fill-rule:nonzero;stroke:none;stroke-width:0.264583"
       d="m 130.70233,144.19714 c 0,0.0846 -0.0396,0.15593 -0.12157,0.21407 -0.0819,0.0582 -0.18236,0.0872 -0.29865,0.0872 -0.11629,0 -0.21408,-0.0291 -0.29865,-0.0872 -0.0819,-0.0581 -0.12157,-0.1295 -0.12157,-0.21407 0,-0.0819 0.0396,-0.15065 0.12157,-0.20879 0.0819,-0.0608 0.17972,-0.0899 0.29865,-0.0899 0.11365,0 0.21408,0.0291 0.29601,0.0899 0.0819,0.0581 0.12421,0.12686 0.12421,0.20879 z m -0.71358,0 c 0,0.0608 0.0291,0.10836 0.0846,0.15064 0.0582,0.0396 0.1295,0.0608 0.20879,0.0608 0.0846,0 0.15329,-0.0211 0.20879,-0.0608 0.0555,-0.0423 0.0846,-0.0899 0.0846,-0.15064 0,-0.0581 -0.0291,-0.10572 -0.0872,-0.148 -0.0555,-0.0396 -0.12686,-0.0608 -0.20879,-0.0608 -0.0793,0 -0.148,0.0211 -0.20615,0.0634 -0.0555,0.0396 -0.0846,0.0899 -0.0846,0.14536 z"
       id="path1908" />
    <path
       style="fill:none;stroke:#000000;stroke-width:0.211432px;stroke-linecap:round;stroke-linejoin:round;stroke-miterlimit:4;stroke-dasharray:none;stroke-opacity:1"
       d="m 133.32938,161.30992 c -2.80677,-1.30559 -4.60922,-4.12821 -4.60922,-7.23098 0,-3.09748 1.80245,-5.92009 4.60922,-7.23097"
       id="path1910" />
    <path
       style="fill:#000000;fill-opacity:1;fill-rule:nonzero;stroke:none;stroke-width:0.264583"
       d="m 130.97719,156.64784 c 0,0.0264 0,0.0423 -0.005,0.0581 -0.005,0.0159 -0.005,0.0264 -0.0106,0.037 -0.0106,0.005 -0.0159,0.0159 -0.0212,0.0159 -0.0106,0.005 -0.0159,0.005 -0.0211,0.005 h -1.13645 c -0.0106,0 -0.0159,0 -0.0211,-0.005 -0.0106,0 -0.0159,-0.0106 -0.0211,-0.0159 -0.005,-0.0106 -0.0106,-0.0212 -0.0159,-0.037 0,-0.0159 -0.005,-0.0317 -0.005,-0.0581 0,-0.0159 0.005,-0.037 0.005,-0.0529 0.005,-0.0106 0.0106,-0.0264 0.0159,-0.037 0.005,-0.005 0.0106,-0.0159 0.0159,-0.0211 0.0106,-0.005 0.0159,-0.005 0.0264,-0.005 h 0.45458 v -1.68617 l -0.42286,0.25372 c -0.0212,0.0106 -0.037,0.0159 -0.0529,0.0212 -0.0106,0 -0.0211,0 -0.0264,-0.0106 -0.0106,-0.005 -0.0159,-0.0159 -0.0159,-0.037 -0.005,-0.0159 -0.005,-0.037 -0.005,-0.0634 0,-0.0211 0,-0.037 0,-0.0476 0.005,-0.0159 0.005,-0.0264 0.0106,-0.037 0,-0.005 0.005,-0.0159 0.0106,-0.0211 0.0106,-0.0106 0.0159,-0.0159 0.0264,-0.0212 l 0.50215,-0.32772 c 0.005,-0.005 0.0106,-0.005 0.0159,-0.0106 0.005,0 0.0159,-0.005 0.0264,-0.005 0.0106,0 0.0211,-0.005 0.0317,-0.005 0.0159,0 0.0317,0 0.0529,0 0.0264,0 0.0476,0 0.0687,0.005 0.0159,0 0.0317,0.005 0.037,0.005 0.0106,0.005 0.0211,0.0106 0.0211,0.0159 0.005,0.0106 0.005,0.0159 0.005,0.0211 v 1.95046 h 0.39644 c 0.005,0 0.0159,0 0.0211,0.005 0.0106,0.005 0.0159,0.0159 0.0212,0.0211 0.005,0.0106 0.0106,0.0264 0.0106,0.037 0.005,0.0159 0.005,0.037 0.005,0.0529 z m 1.7126,-0.51272 c 0,0.10043 -0.0159,0.19029 -0.0529,0.27486 -0.037,0.0793 -0.0846,0.148 -0.148,0.20615 -0.0687,0.0581 -0.148,0.10571 -0.24314,0.13743 -0.0952,0.0317 -0.20087,0.0476 -0.32244,0.0476 -0.0687,0 -0.13743,-0.0106 -0.20086,-0.0211 -0.0634,-0.0106 -0.12157,-0.0264 -0.16914,-0.0423 -0.0529,-0.0159 -0.0899,-0.0317 -0.12158,-0.0529 -0.037,-0.0159 -0.0529,-0.0264 -0.0634,-0.037 -0.0106,-0.005 -0.0159,-0.0159 -0.0211,-0.0211 -0.005,-0.0106 -0.005,-0.0212 -0.0106,-0.0317 -0.005,-0.0106 -0.005,-0.0264 -0.005,-0.0423 -0.005,-0.0159 -0.005,-0.037 -0.005,-0.0581 0,-0.0423 0.005,-0.074 0.0106,-0.0899 0.0106,-0.0159 0.0211,-0.0212 0.037,-0.0212 0.0106,0 0.0317,0.0106 0.0634,0.0264 0.0264,0.0159 0.0687,0.037 0.11629,0.0581 0.0476,0.0212 0.10042,0.0423 0.16386,0.0581 0.0634,0.0211 0.13743,0.0317 0.21671,0.0317 0.074,0 0.14272,-0.0106 0.19558,-0.0317 0.0581,-0.0211 0.10572,-0.0476 0.148,-0.0793 0.037,-0.037 0.0687,-0.0793 0.0846,-0.12686 0.0212,-0.0529 0.0317,-0.10043 0.0317,-0.15857 0,-0.0634 -0.0106,-0.12157 -0.037,-0.16915 -0.0264,-0.0529 -0.0634,-0.0951 -0.111,-0.13214 -0.0476,-0.037 -0.10572,-0.0634 -0.17444,-0.0846 -0.0687,-0.0211 -0.15328,-0.0264 -0.23786,-0.0264 h -0.21671 c -0.005,0 -0.0159,-0.005 -0.0264,-0.0106 -0.005,0 -0.0159,-0.0106 -0.0212,-0.0159 -0.005,-0.0106 -0.0106,-0.0212 -0.0159,-0.037 -0.005,-0.0159 -0.005,-0.037 -0.005,-0.0582 0,-0.0211 0,-0.0423 0.005,-0.0529 0,-0.0159 0.005,-0.0264 0.0106,-0.037 0.0106,-0.005 0.0159,-0.0158 0.0211,-0.0158 0.0106,-0.005 0.0211,-0.0106 0.0317,-0.0106 h 0.185 c 0.074,0 0.14271,-0.005 0.20086,-0.0264 0.0581,-0.0212 0.111,-0.0476 0.148,-0.0846 0.0423,-0.037 0.074,-0.0793 0.0952,-0.13214 0.0211,-0.0476 0.0317,-0.10572 0.0317,-0.16915 0,-0.0476 -0.005,-0.0899 -0.0211,-0.13214 -0.0159,-0.0423 -0.037,-0.0793 -0.0634,-0.10572 -0.0317,-0.0317 -0.0687,-0.0581 -0.111,-0.074 -0.0476,-0.0211 -0.10043,-0.0264 -0.15858,-0.0264 -0.0634,0 -0.12686,0.0106 -0.17971,0.0264 -0.0529,0.0211 -0.10044,0.0423 -0.14272,0.0687 -0.0423,0.0211 -0.0793,0.0423 -0.10572,0.0634 -0.0317,0.0212 -0.0476,0.0264 -0.0581,0.0264 -0.0106,0 -0.0159,0 -0.0212,0 -0.0106,-0.005 -0.0159,-0.0106 -0.0159,-0.0211 -0.005,-0.005 -0.0106,-0.0159 -0.0106,-0.0317 0,-0.0159 0,-0.037 0,-0.0634 0,-0.0159 0,-0.0317 0,-0.0423 0,-0.0159 0.005,-0.0264 0.005,-0.037 0.005,-0.0106 0.0106,-0.0159 0.0106,-0.0264 0.005,-0.0106 0.0159,-0.0159 0.0264,-0.0264 0.0106,-0.0106 0.0317,-0.0264 0.0634,-0.0476 0.0317,-0.0211 0.074,-0.0423 0.12158,-0.0634 0.0476,-0.0211 0.10043,-0.037 0.16385,-0.0476 0.0634,-0.0159 0.12686,-0.0211 0.20087,-0.0211 0.10043,0 0.19028,0.0106 0.26429,0.037 0.074,0.0264 0.13743,0.0634 0.19028,0.11101 0.0529,0.0476 0.0899,0.10571 0.11629,0.17443 0.0212,0.0687 0.037,0.14271 0.037,0.222 0,0.0687 -0.0106,0.13215 -0.0264,0.19558 -0.0211,0.0581 -0.0476,0.111 -0.0793,0.15857 -0.037,0.0476 -0.0793,0.0846 -0.12686,0.11629 -0.0529,0.0317 -0.111,0.0581 -0.17443,0.0687 v 0.005 c 0.074,0.005 0.14271,0.0264 0.20614,0.0581 0.0582,0.0264 0.111,0.0634 0.15858,0.111 0.0423,0.0476 0.0793,0.10043 0.10571,0.15858 0.0211,0.0634 0.037,0.12686 0.037,0.20086 z m 1.8236,-0.48101 c 0,0.16915 -0.0159,0.32243 -0.0423,0.46515 -0.0264,0.14272 -0.0687,0.25901 -0.13215,0.35944 -0.0581,0.10571 -0.13743,0.17971 -0.23786,0.23786 -0.0951,0.0529 -0.21672,0.0846 -0.36472,0.0846 -0.13743,0 -0.24843,-0.0264 -0.34358,-0.074 -0.0951,-0.0529 -0.16914,-0.12686 -0.22729,-0.222 -0.0581,-0.0952 -0.0951,-0.21672 -0.12157,-0.35415 -0.0211,-0.14272 -0.037,-0.30658 -0.037,-0.4863 0,-0.16914 0.0159,-0.32772 0.0423,-0.46515 0.0264,-0.14271 0.0687,-0.26429 0.13214,-0.36472 0.0582,-0.10043 0.13743,-0.17972 0.23786,-0.23786 0.10043,-0.0529 0.21672,-0.0793 0.36472,-0.0793 0.13743,0 0.24844,0.0211 0.34358,0.074 0.0951,0.0476 0.16915,0.12157 0.22729,0.21671 0.0581,0.10043 0.0952,0.21672 0.12157,0.35944 0.0211,0.14271 0.037,0.30129 0.037,0.48629 z m -0.296,0.0212 c 0,-0.11101 -0.005,-0.21144 -0.0106,-0.3013 -0.0106,-0.0846 -0.0212,-0.16386 -0.037,-0.23257 -0.0159,-0.0687 -0.037,-0.12686 -0.0581,-0.17443 -0.0264,-0.0476 -0.0529,-0.0899 -0.0846,-0.11629 -0.037,-0.0317 -0.074,-0.0581 -0.11629,-0.0687 -0.0423,-0.0159 -0.0951,-0.0264 -0.148,-0.0264 -0.0951,0 -0.16914,0.0264 -0.23258,0.0687 -0.0581,0.0476 -0.10571,0.111 -0.13743,0.19029 -0.037,0.0793 -0.0581,0.17443 -0.0687,0.28015 -0.0159,0.111 -0.0211,0.222 -0.0211,0.34886 0,0.16386 0.0106,0.30658 0.0264,0.42286 0.0159,0.11629 0.0423,0.21144 0.0793,0.28015 0.037,0.074 0.0846,0.12686 0.13743,0.16386 0.0582,0.0317 0.12686,0.0476 0.20615,0.0476 0.0634,0 0.12157,-0.0106 0.16914,-0.0317 0.0476,-0.0211 0.0846,-0.0476 0.12158,-0.0899 0.0317,-0.037 0.0634,-0.0846 0.0846,-0.13743 0.0211,-0.0529 0.0423,-0.111 0.0529,-0.17443 0.0159,-0.0687 0.0211,-0.13743 0.0264,-0.21143 0.005,-0.0793 0.0106,-0.15858 0.0106,-0.23786 z"
       id="path1912" />
    <path
       style="fill:#000000;fill-opacity:1;fill-rule:nonzero;stroke:none;stroke-width:0.264583"
       d="m 135.64984,154.22166 c 0,0.0846 -0.037,0.15329 -0.12157,0.21143 -0.0793,0.0581 -0.17972,0.0899 -0.29601,0.0899 -0.11629,0 -0.21672,-0.0317 -0.30129,-0.0899 -0.0793,-0.0581 -0.12157,-0.12686 -0.12157,-0.21143 0,-0.0846 0.0423,-0.15329 0.12157,-0.21143 0.0846,-0.0582 0.17972,-0.0899 0.30129,-0.0899 0.111,0 0.21144,0.0317 0.29601,0.0899 0.0793,0.0581 0.12157,0.12686 0.12157,0.21143 z m -0.71358,0 c 0,0.0581 0.0317,0.10571 0.0846,0.148 0.0582,0.0423 0.12686,0.0634 0.21143,0.0634 0.0846,0 0.15329,-0.0211 0.20615,-0.0634 0.0581,-0.0423 0.0846,-0.0899 0.0846,-0.148 0,-0.0581 -0.0264,-0.10572 -0.0846,-0.148 -0.0582,-0.0423 -0.12686,-0.0634 -0.21143,-0.0634 -0.0793,0 -0.148,0.0211 -0.20615,0.0634 -0.0581,0.0423 -0.0846,0.0899 -0.0846,0.148 z"
       id="path1914" />
    <path
       style="fill:#000000;fill-opacity:1;fill-rule:nonzero;stroke:none;stroke-width:0.264583"
       d="m 140.3542,153.12221 c 0,0.0793 -0.005,0.16915 -0.0211,0.25901 -0.0159,0.0846 -0.0423,0.17443 -0.074,0.26429 -0.0317,0.0899 -0.0793,0.17971 -0.13215,0.26429 -0.0529,0.0846 -0.11628,0.16914 -0.19557,0.24843 -0.074,0.074 -0.16386,0.148 -0.26429,0.21143 -0.10043,0.0687 -0.21672,0.12686 -0.34358,0.17443 -0.13214,0.0476 -0.27486,0.0846 -0.43343,0.111 -0.15858,0.0264 -0.34886,0.037 -0.57087,0.037 h -0.74001 c -0.0211,0 -0.0423,0 -0.0634,-0.005 -0.0211,-0.005 -0.037,-0.0106 -0.0529,-0.0211 -0.0106,-0.0106 -0.0211,-0.0212 -0.0264,-0.0423 -0.005,-0.0159 -0.005,-0.037 0.005,-0.0634 l 0.59201,-2.18832 c 0.0159,-0.0529 0.0423,-0.0846 0.0793,-0.10572 0.0423,-0.0211 0.0899,-0.0317 0.13744,-0.0317 h 0.70829 c 0.25372,0 0.47044,0.0211 0.63958,0.0634 0.16386,0.037 0.30658,0.0951 0.41758,0.17443 0.11629,0.074 0.20086,0.16914 0.25372,0.27486 0.0581,0.111 0.0846,0.23786 0.0846,0.37529 z m -0.47043,0.0264 c 0,-0.0899 -0.0159,-0.17972 -0.0529,-0.259 -0.0317,-0.074 -0.0899,-0.14272 -0.16386,-0.20086 -0.0793,-0.0582 -0.17443,-0.10043 -0.29072,-0.13215 -0.12157,-0.0317 -0.27486,-0.0476 -0.47043,-0.0476 h -0.46516 l -0.518,1.91346 h 0.45986 c 0.21143,0 0.38586,-0.0211 0.52858,-0.0581 0.13743,-0.037 0.26429,-0.0899 0.37001,-0.15329 0.111,-0.0634 0.20086,-0.13743 0.28014,-0.22201 0.074,-0.0846 0.13743,-0.17443 0.18501,-0.26957 0.0476,-0.0899 0.0846,-0.18501 0.10571,-0.28544 0.0212,-0.10043 0.0317,-0.19028 0.0317,-0.28543 z"
       id="path1916" />
  </g>
</svg>
