<?xml version="1.0" encoding="UTF-8" standalone="no"?>

<svg
   viewBox="0 0 31.672536 39.540389"
   version="1.1"
   id="svg5"
   inkscape:version="1.2.2 (732a01da63, 2022-12-09)"
   sodipodi:docname="listopad 2012 - zad. 9.svg"
   xmlns:inkscape="http://www.inkscape.org/namespaces/inkscape"
   xmlns:sodipodi="http://sodipodi.sourceforge.net/DTD/sodipodi-0.dtd"
   xmlns="http://www.w3.org/2000/svg"
   xmlns:svg="http://www.w3.org/2000/svg">
  <sodipodi:namedview
     id="namedview7"
     pagecolor="#ffffff"
     bordercolor="#000000"
     borderopacity="0.25"
     inkscape:showpageshadow="2"
     inkscape:pageopacity="0.0"
     inkscape:pagecheckerboard="0"
     inkscape:deskcolor="#d1d1d1"
     inkscape:document-units="mm"
     showgrid="false"
     inkscape:zoom="0.914906"
     inkscape:cx="-462.88908"
     inkscape:cy="34.429766"
     inkscape:window-width="1379"
     inkscape:window-height="1230"
     inkscape:window-x="2607"
     inkscape:window-y="186"
     inkscape:window-maximized="0"
     inkscape:current-layer="layer1" />
  <defs
     id="defs2">
    <clipPath
       clipPathUnits="userSpaceOnUse"
       id="clipEmfPath1">
      <path
         d="M 0,0 H 601.09294 V 161.42086 H 0 Z"
         id="path9" />
    </clipPath>
    <pattern
       id="EMFhbasepattern"
       patternUnits="userSpaceOnUse"
       width="6"
       height="6"
       x="0"
       y="0" />
    <clipPath
       clipPathUnits="userSpaceOnUse"
       id="clipEmfPath1-9">
      <path
         d="M 0,0 H 601.09294 V 148.47523 H 0 Z"
         id="path390" />
    </clipPath>
    <pattern
       id="EMFhbasepattern-3"
       patternUnits="userSpaceOnUse"
       width="6"
       height="6"
       x="0"
       y="0" />
    <clipPath
       clipPathUnits="userSpaceOnUse"
       id="clipEmfPath1-1">
      <path
         d="m 200.09794,0.79911319 h 50.34413 V 100.04897 h -50.34413 z"
         id="path580" />
    </clipPath>
    <clipPath
       clipPathUnits="userSpaceOnUse"
       id="clipEmfPath2">
      <path
         d="M 200.09766,100.04883 V 0.79882812 h 50.34375 -50.34375 z"
         id="path583" />
    </clipPath>
    <clipPath
       clipPathUnits="userSpaceOnUse"
       id="clipEmfPath3">
      <path
         d="M 250.44207,0.79911319 H 354.00714 V 100.04897 H 250.44207 Z"
         id="path586" />
    </clipPath>
    <clipPath
       clipPathUnits="userSpaceOnUse"
       id="clipEmfPath4">
      <path
         d="M 269.78125,67.605469 V 99.25 h 31.00586 V 67.605469 Z"
         id="path589" />
    </clipPath>
    <clipPath
       clipPathUnits="userSpaceOnUse"
       id="clipEmfPath5">
      <path
         d="M 301.58594,67.605469 V 99.25 h 30.8457 V 67.605469 Z"
         id="path592" />
    </clipPath>
    <clipPath
       clipPathUnits="userSpaceOnUse"
       id="clipEmfPath6">
      <path
         d="m 354.00714,0.79911319 h 132.0135 V 100.04897 h -132.0135 z"
         id="path595" />
    </clipPath>
    <clipPath
       clipPathUnits="userSpaceOnUse"
       id="clipEmfPath7">
      <path
         d="M 354.00781,100.04883 V 0.79882812 H 486.02148 354.00781 Z"
         id="path598" />
    </clipPath>
    <clipPath
       clipPathUnits="userSpaceOnUse"
       id="clipEmfPath8">
      <path
         d="M 0,0.79911319 H 601.09294 V 135.20995 H 0 Z"
         id="path601" />
    </clipPath>
    <pattern
       id="EMFhbasepattern-2"
       patternUnits="userSpaceOnUse"
       width="6"
       height="6"
       x="0"
       y="0" />
    <clipPath
       clipPathUnits="userSpaceOnUse"
       id="clipEmfPath1-4">
      <path
         d="M 0,0 H 601.09294 V 105.48294 H 0 Z"
         id="path927" />
    </clipPath>
    <pattern
       id="EMFhbasepattern-28"
       patternUnits="userSpaceOnUse"
       width="6"
       height="6"
       x="0"
       y="0" />
    <clipPath
       clipPathUnits="userSpaceOnUse"
       id="clipEmfPath1-2">
      <path
         d="M 0,0 H 601.09294 V 186.03355 H 0 Z"
         id="path1066" />
    </clipPath>
    <clipPath
       clipPathUnits="userSpaceOnUse"
       id="clipEmfPath2-6">
      <path
         d="m 283.04589,160.46193 h 14.70368 v 17.42067 h -14.70368 z"
         id="path1069" />
    </clipPath>
    <clipPath
       clipPathUnits="userSpaceOnUse"
       id="clipEmfPath3-3">
      <path
         d="m 357.52324,77.513979 h 12.14652 v 17.420667 h -12.14652 z"
         id="path1072" />
    </clipPath>
    <pattern
       id="EMFhbasepattern-24"
       patternUnits="userSpaceOnUse"
       width="6"
       height="6"
       x="0"
       y="0" />
  </defs>
  <g
     inkscape:label="Warstwa 1"
     inkscape:groupmode="layer"
     id="layer1"
     transform="translate(-291.31005,-140.87506)">
    <text
       xml:space="preserve"
       style="font-style:normal;font-variant:normal;font-weight:400;font-size:3.88607px;line-height:125%;font-family:Calibri;text-align:start;letter-spacing:0px;word-spacing:0px;text-anchor:start;fill:#000000;fill-opacity:1;stroke:none;stroke-width:0.264583"
       x="322.98257"
       y="180.25424"
       id="text1090"><tspan
         sodipodi:role="line"
         x="322.98257"
         y="180.25424"
         id="tspan1088"
         style="stroke-width:0.264583"><tspan
           dx="0"
           dy="0"
           style="font-style:normal;font-variant:normal;font-weight:400;font-size:3.88607px;font-family:Calibri;fill:#181717;stroke-width:0.264583"
           id="tspan1086"> </tspan></tspan></text>
    <path
       style="fill:none;stroke:#000000;stroke-width:0.211432px;stroke-linecap:round;stroke-linejoin:round;stroke-miterlimit:4;stroke-dasharray:none;stroke-opacity:1"
       d="m 294.86211,176.11017 h 24.69526 v -32.9834 h -24.69526 v 32.9834"
       id="path1092" />
    <path
       style="fill:none;stroke:#000000;stroke-width:0.211432px;stroke-linecap:round;stroke-linejoin:round;stroke-miterlimit:4;stroke-dasharray:none;stroke-opacity:1"
       d="m 294.86211,176.11017 24.69526,-32.9834"
       id="path1094" />
    <path
       style="fill:none;stroke:#000000;stroke-width:0.211432px;stroke-linecap:round;stroke-linejoin:round;stroke-miterlimit:4;stroke-dasharray:none;stroke-opacity:1"
       d="m 294.86211,143.12677 15.81512,11.88248"
       id="path1096" />
    <path
       style="fill:none;stroke:#000000;stroke-width:0.211432px;stroke-linecap:round;stroke-linejoin:round;stroke-miterlimit:4;stroke-dasharray:none;stroke-opacity:1"
       d="m 308.94349,157.33501 c -0.60787,-0.45987 -1.00959,-1.14702 -1.11531,-1.90818 -0.111,-0.76115 0.0899,-1.53288 0.54444,-2.15132"
       id="path1098" />
    <path
       style="fill:#000000;fill-opacity:1;fill-rule:evenodd;stroke:none;stroke-width:0.264583"
       d="m 309.00692,154.90354 c 0.19029,0 0.33829,0.15328 0.33829,0.33829 0,0.19029 -0.148,0.33829 -0.33829,0.33829 -0.18501,0 -0.3383,-0.148 -0.3383,-0.33829 0,-0.18501 0.15329,-0.33829 0.3383,-0.33829 z"
       id="path1100" />
    <path
       style="fill:#000000;fill-opacity:1;fill-rule:nonzero;stroke:none"
       clip-path="url(#clipEmfPath2-6)"
       d="m 293.25456,173.69724 c 0.02,0.0999 0.02,0.18979 0.01,0.24972 -0.01,0.0699 -0.04,0.11987 -0.0999,0.14984 -0.0599,0.03 -0.15982,0.0499 -0.28968,0.0599 -0.11986,0.01 -0.28968,0.02 -0.50943,0.02 -0.13985,0 -0.25971,-0.01 -0.3596,-0.01 -0.10988,-0.01 -0.1798,-0.02 -0.23974,-0.04 -0.0499,-0.02 -0.0899,-0.0399 -0.11986,-0.0699 -0.02,-0.03 -0.04,-0.0599 -0.0499,-0.0999 l -0.4495,-2.26748 h -5.15428 l -1.60821,2.23751 c -0.03,0.05 -0.0699,0.0899 -0.10988,0.11987 -0.04,0.03 -0.0999,0.0599 -0.1798,0.0799 -0.0699,0.02 -0.15983,0.03 -0.27969,0.04 -0.11987,0 -0.25971,0.01 -0.43952,0.01 -0.18978,0 -0.33962,-0.01 -0.45949,-0.02 -0.10987,-0.01 -0.18978,-0.03 -0.22974,-0.0699 -0.0499,-0.03 -0.0599,-0.0799 -0.04,-0.14984 0.02,-0.0599 0.0599,-0.14983 0.12986,-0.24972 l 6.43286,-8.63042 c 0.05,-0.0499 0.0999,-0.0999 0.14983,-0.12986 0.05,-0.03 0.11987,-0.0599 0.19978,-0.0799 0.0799,-0.02 0.18979,-0.03 0.30966,-0.04 0.12986,-0.01 0.28968,-0.01 0.46948,-0.01 0.20977,0 0.37958,0 0.50943,0.01 0.12986,0.01 0.23974,0.02 0.31965,0.04 0.0799,0.02 0.12985,0.0499 0.16981,0.0799 0.03,0.04 0.0499,0.0799 0.0599,0.13985 z m -3.21643,-7.62154 h -0.01 l -3.34628,4.63485 h 4.27525 z"
       id="path1102"
       transform="matrix(0.26458333,0,0,0.26458333,216.42083,134.3312)" />
    <path
       style="fill:#000000;fill-opacity:1;fill-rule:nonzero;stroke:none;stroke-width:0.264583"
       d="m 322.861,178.42535 c 0,0.0793 -0.0159,0.148 -0.0423,0.222 -0.0317,0.0687 -0.074,0.13215 -0.12685,0.19029 -0.0529,0.0582 -0.12158,0.10572 -0.20087,0.15329 -0.074,0.0423 -0.16386,0.0793 -0.26429,0.111 0.0793,0.005 0.14801,0.0264 0.21144,0.0529 0.0687,0.0264 0.12157,0.0581 0.16914,0.10043 0.0476,0.037 0.0846,0.0846 0.10572,0.14272 0.0264,0.0528 0.0423,0.111 0.0423,0.17971 0,0.0634 -0.0159,0.13215 -0.037,0.20087 -0.0264,0.0687 -0.0634,0.13214 -0.11628,0.19557 -0.0476,0.0581 -0.11101,0.11629 -0.19029,0.16915 -0.074,0.0529 -0.16386,0.10043 -0.26429,0.13743 -0.10572,0.0423 -0.21672,0.0687 -0.34358,0.0899 -0.12686,0.0211 -0.26958,0.0317 -0.43872,0.0317 h -0.91973 c -0.0582,0 -0.10043,-0.0106 -0.13215,-0.0264 -0.0264,-0.0211 -0.0317,-0.0581 -0.0159,-0.10571 l 0.61315,-2.18833 c 0.0159,-0.0529 0.0423,-0.0846 0.0846,-0.10571 0.0476,-0.0212 0.0951,-0.0317 0.14272,-0.0317 h 0.7453 c 0.17443,0 0.32243,0.0106 0.444,0.0317 0.11629,0.0211 0.21672,0.0529 0.29601,0.0951 0.0793,0.037 0.13743,0.0899 0.17972,0.148 0.037,0.0581 0.0581,0.12686 0.0581,0.20615 z m -0.49158,0.0581 c 0,-0.0423 -0.0106,-0.0793 -0.0264,-0.111 -0.0211,-0.0317 -0.0529,-0.0634 -0.0951,-0.0846 -0.0476,-0.0211 -0.10043,-0.0423 -0.16915,-0.0529 -0.0634,-0.0159 -0.15329,-0.0211 -0.26429,-0.0211 h -0.48629 l -0.222,0.79287 h 0.52329 c 0.14271,0 0.259,-0.0159 0.34886,-0.0476 0.0899,-0.0317 0.16386,-0.074 0.22201,-0.12686 0.0581,-0.0529 0.10043,-0.10572 0.12685,-0.16915 0.0317,-0.0634 0.0423,-0.12157 0.0423,-0.17972 z m -0.10043,1.11531 c 0,-0.10572 -0.0529,-0.18501 -0.15857,-0.24315 -0.10572,-0.0581 -0.26958,-0.0846 -0.49158,-0.0846 h -0.59201 l -0.23786,0.86158 h 0.64486 c 0.14801,0 0.26958,-0.0106 0.37001,-0.0423 0.10043,-0.0317 0.185,-0.0687 0.25372,-0.11629 0.0687,-0.0529 0.12157,-0.10572 0.15329,-0.16915 0.037,-0.0687 0.0581,-0.13214 0.0581,-0.20614 z"
       id="path1104" />
    <path
       style="fill:#000000;fill-opacity:1;fill-rule:nonzero;stroke:none;stroke-width:0.264583"
       d="m 294.27539,141.78682 c 0,0.0819 -0.008,0.16915 -0.0238,0.25901 -0.0159,0.0898 -0.0396,0.17707 -0.074,0.26693 -0.0317,0.0899 -0.0766,0.17707 -0.1295,0.26429 -0.0529,0.0846 -0.11893,0.1665 -0.19557,0.24579 -0.0766,0.0766 -0.16387,0.148 -0.26694,0.21407 -0.10043,0.0661 -0.21407,0.12422 -0.34357,0.17179 -0.12951,0.0476 -0.27222,0.0846 -0.4308,0.111 -0.15857,0.0264 -0.34886,0.0396 -0.57086,0.0396 h -0.74266 c -0.0211,0 -0.0423,0 -0.0634,-0.005 -0.0185,-0.005 -0.037,-0.0106 -0.0502,-0.0211 -0.0132,-0.0106 -0.0238,-0.0238 -0.0291,-0.0423 -0.005,-0.0159 -0.003,-0.037 0.005,-0.0634 l 0.59465,-2.19096 c 0.0132,-0.0502 0.0396,-0.0846 0.0793,-0.10307 0.0396,-0.0211 0.0872,-0.0317 0.13743,-0.0317 h 0.70566 c 0.25636,0 0.47043,0.0211 0.63958,0.0608 0.1665,0.0396 0.30922,0.0978 0.42022,0.17443 0.11364,0.0766 0.19822,0.16914 0.25372,0.2775 0.0555,0.111 0.0846,0.23522 0.0846,0.37265 z m -0.47044,0.0291 c 0,-0.0925 -0.0185,-0.17971 -0.0529,-0.259 -0.0344,-0.0766 -0.0899,-0.14536 -0.16651,-0.20086 -0.0766,-0.0555 -0.17179,-0.10043 -0.29072,-0.13215 -0.11893,-0.0344 -0.27486,-0.0502 -0.46779,-0.0502 h -0.46515 l -0.52065,1.91346 h 0.45986 c 0.21144,0 0.38587,-0.0185 0.52858,-0.0555 0.14008,-0.037 0.26429,-0.0899 0.37265,-0.15329 0.10836,-0.0634 0.20086,-0.13743 0.27751,-0.222 0.0766,-0.0846 0.13743,-0.17444 0.185,-0.26958 0.0502,-0.0925 0.0846,-0.18765 0.10572,-0.28543 0.0238,-0.10043 0.0344,-0.19293 0.0344,-0.28544 z"
       id="path1106" />
    <path
       style="fill:#000000;fill-opacity:1;fill-rule:nonzero;stroke:none;stroke-width:0.264583"
       d="m 322.98257,141.15517 c 0,0.0264 -0.005,0.0581 -0.0211,0.10043 -0.0106,0.037 -0.0264,0.0687 -0.0423,0.0899 -0.0211,0.0211 -0.0423,0.037 -0.0634,0.037 -0.0264,0 -0.0528,-0.0159 -0.0846,-0.037 -0.0317,-0.0211 -0.074,-0.0476 -0.12686,-0.074 -0.0581,-0.0317 -0.12686,-0.0529 -0.21143,-0.0793 -0.0846,-0.0211 -0.19029,-0.0317 -0.31715,-0.0317 -0.14271,0 -0.26957,0.0159 -0.38586,0.0581 -0.11629,0.037 -0.22201,0.0951 -0.31715,0.15857 -0.0951,0.0687 -0.17443,0.148 -0.24315,0.23786 -0.074,0.0899 -0.13214,0.17972 -0.17971,0.27486 -0.0423,0.10044 -0.0793,0.19558 -0.10043,0.29601 -0.0264,0.10043 -0.037,0.19029 -0.037,0.28015 0,0.10043 0.0159,0.19029 0.0476,0.26957 0.037,0.0793 0.0846,0.14801 0.148,0.20086 0.0634,0.0581 0.14272,0.0952 0.23786,0.12686 0.0899,0.0264 0.19558,0.0423 0.31186,0.0423 0.13215,0 0.24844,-0.0159 0.34358,-0.037 0.0951,-0.0211 0.17443,-0.0476 0.24315,-0.074 0.0687,-0.0264 0.12686,-0.0529 0.16914,-0.074 0.0476,-0.0211 0.0846,-0.0317 0.11101,-0.0317 0.0211,0 0.0317,0.005 0.0423,0.0159 0.005,0.0106 0.0106,0.0264 0.0106,0.0423 0,0.0106 0,0.0159 0,0.0317 -0.005,0.0106 -0.005,0.0211 -0.0106,0.037 -0.005,0.0159 -0.005,0.0317 -0.0106,0.0476 -0.005,0.0159 -0.0106,0.0317 -0.0159,0.0423 -0.0106,0.0159 -0.0159,0.0317 -0.0211,0.0423 -0.0106,0.0106 -0.0211,0.0264 -0.0423,0.037 -0.0159,0.0106 -0.0529,0.0317 -0.111,0.0581 -0.0529,0.0211 -0.12157,0.0476 -0.20614,0.0687 -0.0793,0.0211 -0.17444,0.0423 -0.27487,0.0581 -0.10043,0.0159 -0.21143,0.0211 -0.32243,0.0211 -0.17443,0 -0.32772,-0.0159 -0.46515,-0.0581 -0.13743,-0.037 -0.25901,-0.0951 -0.35415,-0.16915 -0.0951,-0.074 -0.16915,-0.16914 -0.22729,-0.28014 -0.0529,-0.11101 -0.0793,-0.24315 -0.0793,-0.38587 0,-0.12157 0.0212,-0.24843 0.0529,-0.37529 0.0317,-0.12686 0.0846,-0.24843 0.148,-0.37001 0.0687,-0.12157 0.14801,-0.23257 0.24844,-0.33829 0.0951,-0.10571 0.21143,-0.20086 0.34357,-0.28014 0.12686,-0.0793 0.27487,-0.14272 0.43873,-0.19029 0.16385,-0.0476 0.34357,-0.0687 0.53915,-0.0687 0.12157,0 0.23786,0.0106 0.34357,0.0317 0.10572,0.0211 0.20087,0.0476 0.27486,0.0793 0.074,0.0317 0.13215,0.0581 0.16387,0.0846 0.037,0.0211 0.0528,0.0528 0.0528,0.0846 z"
       id="path1108" />
    <path
       style="fill:#000000;fill-opacity:1;fill-rule:nonzero;stroke:none"
       clip-path="url(#clipEmfPath3-3)"
       d="m 366.37342,82.768148 c 0,0.03996 0,0.07991 0,0.119867 -0.02,0.05993 -0.02,0.09989 -0.04,0.159823 -0.02,0.05993 -0.0399,0.119867 -0.0599,0.1798 -0.02,0.05993 -0.04,0.09989 -0.0799,0.159823 -0.04,0.03996 -0.0599,0.07991 -0.0999,0.09989 -0.0599,0.03996 -0.0999,0.03996 -0.15982,0.03996 -0.0599,0 -0.15983,-0.01998 -0.27969,-0.07991 -0.13985,-0.05993 -0.29967,-0.139844 -0.49945,-0.199778 -0.1798,-0.07991 -0.41953,-0.139845 -0.69922,-0.199778 -0.25972,-0.05993 -0.57936,-0.09989 -0.93896,-0.09989 -0.39956,0 -0.73918,0.05993 -1.03885,0.139845 -0.29967,0.07991 -0.5394,0.199778 -0.73918,0.3596 -0.19978,0.159823 -0.3596,0.319646 -0.45949,0.519424 -0.0999,0.1798 -0.13984,0.379579 -0.13984,0.599335 0,0.199778 0.0599,0.379579 0.1798,0.539401 0.13984,0.159823 0.29966,0.299668 0.49944,0.439513 0.19978,0.119867 0.43952,0.239734 0.69923,0.3596 0.25971,0.119867 0.51942,0.239734 0.79911,0.359601 0.27969,0.119867 0.5394,0.239734 0.79911,0.379579 0.27969,0.139845 0.49945,0.299668 0.69923,0.479468 0.21975,0.179801 0.37958,0.379579 0.49944,0.619313 0.11987,0.219756 0.19978,0.499446 0.19978,0.799113 0,0.399557 -0.11987,0.779135 -0.33962,1.138736 -0.23974,0.359601 -0.55938,0.679246 -0.97892,0.938958 -0.39955,0.259712 -0.91898,0.479468 -1.49833,0.639291 -0.57936,0.139845 -1.23863,0.219756 -1.97781,0.219756 -0.37958,0 -0.75916,-0.01998 -1.09878,-0.05993 -0.33962,-0.05993 -0.63929,-0.119867 -0.899,-0.199778 -0.27969,-0.07991 -0.51942,-0.139845 -0.69922,-0.219756 -0.17981,-0.07991 -0.31965,-0.159823 -0.39956,-0.219756 -0.0799,-0.05993 -0.13985,-0.159823 -0.13985,-0.27969 0,-0.01998 0.02,-0.05993 0.02,-0.119867 0.02,-0.03995 0.02,-0.09989 0.04,-0.159822 0.02,-0.05993 0.0399,-0.119867 0.0599,-0.179801 0.04,-0.05993 0.0599,-0.119867 0.0999,-0.1798 0.04,-0.03996 0.0799,-0.07991 0.11987,-0.119867 0.04,-0.01998 0.0799,-0.03996 0.13984,-0.03996 0.0999,0 0.23974,0.03996 0.39956,0.119867 0.13984,0.05993 0.33962,0.159823 0.55938,0.239734 0.23973,0.07991 0.51942,0.179801 0.81909,0.239734 0.31964,0.07991 0.69922,0.119867 1.11876,0.119867 0.45949,0 0.85904,-0.03996 1.21864,-0.139845 0.35961,-0.09989 0.65927,-0.219756 0.89901,-0.379579 0.23973,-0.159822 0.41953,-0.339623 0.55938,-0.559379 0.11986,-0.219756 0.1798,-0.439512 0.1798,-0.699224 0,-0.199778 -0.0599,-0.399556 -0.1798,-0.559379 -0.11987,-0.159823 -0.27969,-0.299668 -0.47947,-0.439512 -0.19978,-0.119867 -0.43951,-0.239734 -0.69923,-0.359601 -0.25971,-0.09989 -0.51942,-0.219756 -0.79911,-0.339623 -0.25971,-0.119867 -0.51942,-0.239734 -0.77913,-0.379579 -0.25972,-0.139845 -0.49945,-0.299668 -0.69923,-0.479468 -0.19978,-0.179801 -0.3596,-0.379579 -0.47947,-0.619313 -0.11986,-0.219756 -0.19977,-0.499446 -0.19977,-0.799113 0,-0.379579 0.0999,-0.73918 0.31964,-1.078803 0.19978,-0.319645 0.47947,-0.619312 0.83907,-0.859046 0.37958,-0.259712 0.81909,-0.439513 1.33851,-0.599335 0.51943,-0.139845 1.11876,-0.199779 1.75805,-0.199779 0.29967,0 0.59934,0.01998 0.87903,0.03996 0.27969,0.03996 0.5394,0.09989 0.75916,0.139845 0.23973,0.05993 0.41953,0.119867 0.59933,0.1798 0.15982,0.07991 0.25971,0.119867 0.31965,0.179801 0.0599,0.03996 0.0999,0.07991 0.11986,0.119867 0.04,0.03996 0.04,0.09989 0.04,0.1798 z"
       id="path1110"
       transform="matrix(0.26458333,0,0,0.26458333,216.42083,134.3312)" />
  </g>
</svg>
