<?xml version="1.0" encoding="UTF-8" standalone="no"?>
<!-- Created with Inkscape (http://www.inkscape.org/) -->

<svg
   width="62.174416mm"
   height="44.952656mm"
   viewBox="0 0 62.174409 44.952656"
   version="1.1"
   id="svg5"
   inkscape:version="1.2.2 (732a01da63, 2022-12-09)"
   sodipodi:docname="maj2021z12.svg"
   xmlns:inkscape="http://www.inkscape.org/namespaces/inkscape"
   xmlns:sodipodi="http://sodipodi.sourceforge.net/DTD/sodipodi-0.dtd"
   xmlns="http://www.w3.org/2000/svg"
   xmlns:svg="http://www.w3.org/2000/svg">
  <sodipodi:namedview
     id="namedview7"
     pagecolor="#ffffff"
     bordercolor="#000000"
     borderopacity="0.25"
     inkscape:showpageshadow="2"
     inkscape:pageopacity="0.0"
     inkscape:pagecheckerboard="0"
     inkscape:deskcolor="#d1d1d1"
     inkscape:document-units="mm"
     showgrid="false"
     inkscape:zoom="1.829812"
     inkscape:cx="119.13792"
     inkscape:cy="78.150105"
     inkscape:window-width="3440"
     inkscape:window-height="1377"
     inkscape:window-x="2552"
     inkscape:window-y="119"
     inkscape:window-maximized="1"
     inkscape:current-layer="layer1" />
  <defs
     id="defs2">
    <clipPath
       clipPathUnits="userSpaceOnUse"
       id="clipEmfPath1">
      <path
         d="M 0,0 H 601.09294 V 344.25796 H 0 Z"
         id="path278" />
    </clipPath>
    <pattern
       id="EMFhbasepattern"
       patternUnits="userSpaceOnUse"
       width="6"
       height="6"
       x="0"
       y="0" />
    <clipPath
       clipPathUnits="userSpaceOnUse"
       id="clipEmfPath1-0">
      <path
         d="M 0,0 H 601.09294 V 281.60749 H 0 Z"
         id="path697" />
    </clipPath>
    <clipPath
       clipPathUnits="userSpaceOnUse"
       id="clipEmfPath2">
      <path
         d="m 316.92829,14.54386 h 52.58165 v 62.330828 h -52.58165 z"
         id="path700" />
    </clipPath>
    <clipPath
       clipPathUnits="userSpaceOnUse"
       id="clipEmfPath3">
      <path
         d="m 318.52734,15.34375 v 60.732422 h 24.45118 V 15.34375 Z"
         id="path703" />
    </clipPath>
    <clipPath
       clipPathUnits="userSpaceOnUse"
       id="clipEmfPath4">
      <path
         d="m 343.29883,15.34375 v 29.886719 h 24.61328 V 15.34375 Z"
         id="path706" />
    </clipPath>
    <clipPath
       clipPathUnits="userSpaceOnUse"
       id="clipEmfPath5">
      <path
         d="m 342.97852,46.029297 v 30.046875 h 24.45312 V 46.029297 Z"
         id="path709" />
    </clipPath>
    <pattern
       id="EMFhbasepattern-6"
       patternUnits="userSpaceOnUse"
       width="6"
       height="6"
       x="0"
       y="0" />
    <clipPath
       clipPathUnits="userSpaceOnUse"
       id="clipEmfPath1-4">
      <path
         d="M 0,0 H 601.09294 V 221.51418 H 0 Z"
         id="path1547" />
    </clipPath>
    <pattern
       id="EMFhbasepattern-7"
       patternUnits="userSpaceOnUse"
       width="6"
       height="6"
       x="0"
       y="0" />
    <clipPath
       clipPathUnits="userSpaceOnUse"
       id="clipEmfPath1-6">
      <path
         d="M 0,0 H 686.11858 V 297.42993 H 0 Z"
         id="path1856" />
    </clipPath>
    <pattern
       id="EMFhbasepattern-0"
       patternUnits="userSpaceOnUse"
       width="6"
       height="6"
       x="0"
       y="0" />
    <clipPath
       clipPathUnits="userSpaceOnUse"
       id="clipEmfPath1-5">
      <path
         d="M -236.05804,0 H 450.06055 V 160.46193 H -236.05804 Z"
         id="path2132" />
    </clipPath>
    <pattern
       id="EMFhbasepattern-4"
       patternUnits="userSpaceOnUse"
       width="6"
       height="6"
       x="0"
       y="0" />
    <clipPath
       clipPathUnits="userSpaceOnUse"
       id="clipEmfPath1-7">
      <path
         d="M 0,0 H 686.11858 V 194.98362 H 0 Z"
         id="path2256" />
    </clipPath>
    <pattern
       id="EMFhbasepattern-1"
       patternUnits="userSpaceOnUse"
       width="6"
       height="6"
       x="0"
       y="0" />
  </defs>
  <g
     inkscape:label="Warstwa 1"
     inkscape:groupmode="layer"
     id="layer1"
     transform="translate(-153.05339,-150.38258)">
    <text
       xml:space="preserve"
       style="font-style:normal;font-variant:normal;font-weight:400;font-size:3.88607px;line-height:125%;font-family:Calibri;text-align:start;letter-spacing:0px;word-spacing:0px;text-anchor:start;fill:#000000;fill-opacity:1;stroke:none;stroke-width:0.264583"
       x="93.570335"
       y="195.32385"
       id="text2280"><tspan
         sodipodi:role="line"
         x="93.570335"
         y="195.32385"
         id="tspan2278"
         style="stroke-width:0.264583"><tspan
           dx="0"
           dy="0"
           style="font-style:normal;font-variant:normal;font-weight:400;font-size:3.88607px;font-family:Calibri;fill:#000000;stroke-width:0.264583"
           id="tspan2276"> </tspan></tspan></text>
    <text
       xml:space="preserve"
       style="font-style:italic;font-variant:normal;font-weight:400;font-size:3.88607px;line-height:125%;font-family:Calibri;text-align:start;letter-spacing:0px;word-spacing:0px;text-anchor:start;fill:#000000;fill-opacity:1;stroke:none;stroke-width:0.264583"
       x="171.20818"
       y="152.8683"
       id="text2268"><tspan
         sodipodi:role="line"
         x="171.20818"
         y="152.8683"
         id="tspan2266"
         style="stroke-width:0.264583"><tspan
           dx="0"
           dy="0"
           style="font-style:italic;font-variant:normal;font-weight:400;font-size:3.88607px;font-family:Calibri;fill:#000000;stroke-width:0.264583"
           id="tspan2262">C</tspan><tspan
           dx="0"
           dy="0"
           style="font-style:normal;font-variant:normal;font-weight:400;font-size:3.88607px;font-family:Calibri;fill:#181717;stroke-width:0.264583"
           id="tspan2264"> </tspan></tspan></text>
    <text
       xml:space="preserve"
       style="font-style:normal;font-variant:normal;font-weight:400;font-size:3.88607px;line-height:125%;font-family:Calibri;text-align:start;letter-spacing:0px;word-spacing:0px;text-anchor:start;fill:#000000;fill-opacity:1;stroke:none;stroke-width:0.264583"
       x="212.26828"
       y="190.46092"
       id="text2274"><tspan
         sodipodi:role="line"
         x="212.26828"
         y="190.46092"
         id="tspan2272"
         style="stroke-width:0.264583"><tspan
           dx="0"
           dy="0"
           style="font-style:normal;font-variant:normal;font-weight:400;font-size:3.88607px;font-family:Calibri;fill:#181717;stroke-width:0.264583"
           id="tspan2270"> </tspan></tspan></text>
    <text
       xml:space="preserve"
       style="font-style:italic;font-variant:normal;font-weight:400;font-size:3.88607px;line-height:125%;font-family:Calibri;text-align:start;letter-spacing:0px;word-spacing:0px;text-anchor:start;fill:#000000;fill-opacity:1;stroke:none;stroke-width:0.264583"
       x="153.15187"
       y="195.32385"
       id="text2288"><tspan
         sodipodi:role="line"
         x="153.15187"
         y="195.32385"
         id="tspan2286"
         style="stroke-width:0.264583"><tspan
           dx="0"
           dy="0"
           style="font-style:italic;font-variant:normal;font-weight:400;font-size:3.88607px;font-family:Calibri;fill:#000000;stroke-width:0.264583"
           id="tspan2282">A</tspan><tspan
           dx="0"
           dy="0"
           style="font-style:italic;font-variant:normal;font-weight:400;font-size:3.88607px;font-family:Calibri;fill:#000000;stroke-width:0.264583"
           id="tspan2284"> </tspan></tspan></text>
    <text
       xml:space="preserve"
       style="font-style:italic;font-variant:normal;font-weight:400;font-size:3.88607px;line-height:125%;font-family:Calibri;text-align:start;letter-spacing:0px;word-spacing:0px;text-anchor:start;fill:#000000;fill-opacity:1;stroke:none;stroke-width:0.264583"
       x="171.50418"
       y="195.32385"
       id="text2296"><tspan
         sodipodi:role="line"
         x="171.50418"
         y="195.32385"
         id="tspan2294"
         style="stroke-width:0.264583"><tspan
           dx="0"
           dy="0"
           style="font-style:italic;font-variant:normal;font-weight:400;font-size:3.88607px;font-family:Calibri;fill:#000000;stroke-width:0.264583"
           id="tspan2290">D</tspan><tspan
           dx="0"
           dy="0"
           style="font-style:italic;font-variant:normal;font-weight:400;font-size:3.88607px;font-family:Calibri;fill:#000000;stroke-width:0.264583"
           id="tspan2292"> </tspan></tspan></text>
    <text
       xml:space="preserve"
       style="font-style:italic;font-variant:normal;font-weight:400;font-size:3.88607px;line-height:125%;font-family:Calibri;text-align:start;letter-spacing:0px;word-spacing:0px;text-anchor:start;fill:#000000;fill-opacity:1;stroke:none;stroke-width:0.264583"
       x="213.114"
       y="195.32385"
       id="text2304"><tspan
         sodipodi:role="line"
         x="213.114"
         y="195.32385"
         id="tspan2302"
         style="stroke-width:0.264583"><tspan
           dx="0"
           dy="0"
           style="font-style:italic;font-variant:normal;font-weight:400;font-size:3.88607px;font-family:Calibri;fill:#000000;stroke-width:0.264583"
           id="tspan2298">B</tspan><tspan
           dx="0"
           dy="0"
           style="font-style:italic;font-variant:normal;font-weight:400;font-size:3.88607px;font-family:Calibri;fill:#000000;stroke-width:0.264583"
           id="tspan2300"> </tspan></tspan></text>
    <path
       style="fill:none;stroke:#000000;stroke-width:0.211432px;stroke-linecap:round;stroke-linejoin:round;stroke-miterlimit:4;stroke-dasharray:none;stroke-opacity:1"
       d="m 156.23878,190.5455 h 56.02949 l -39.54836,-36.28174 -16.48113,36.28174"
       id="path2306" />
    <path
       style="fill:none;stroke:#000000;stroke-width:0.211432px;stroke-linecap:round;stroke-linejoin:round;stroke-miterlimit:4;stroke-dasharray:none;stroke-opacity:1"
       d="M 172.73048,190.5455 V 154.26376"
       id="path2308" />
    <path
       style="fill:none;stroke:#000000;stroke-width:0.211432px;stroke-linecap:round;stroke-linejoin:round;stroke-miterlimit:4;stroke-dasharray:none;stroke-opacity:1"
       d="m 180.63804,161.53702 -7.90756,9.38758"
       id="path2310" />
    <path
       style="fill:none;stroke:#000000;stroke-width:0.211432px;stroke-linecap:round;stroke-linejoin:round;stroke-miterlimit:4;stroke-dasharray:none;stroke-opacity:1"
       d="m 156.23878,190.5455 24.39926,-29.00848"
       id="path2312" />
    <path
       style="fill:none;stroke:#000000;stroke-width:0.211432px;stroke-linecap:round;stroke-linejoin:round;stroke-miterlimit:4;stroke-dasharray:none;stroke-opacity:1"
       d="m 172.73048,179.17045 c 3.4622,0 6.5544,-2.16189 7.73841,-5.41266 1.18402,-3.25605 0.21144,-6.90325 -2.43675,-9.13386"
       id="path2314" />
    <path
       style="fill:#000000;fill-opacity:1;fill-rule:nonzero;stroke:none;stroke-width:0.264583"
       d="m 175.11438,174.25466 c 0,0.0238 -0.003,0.0423 -0.005,0.0555 -0.005,0.0159 -0.008,0.0264 -0.0132,0.037 -0.008,0.008 -0.0132,0.0159 -0.0212,0.0185 -0.008,0.005 -0.0132,0.005 -0.0211,0.005 h -1.13645 c -0.008,0 -0.0159,0 -0.0211,-0.005 -0.008,-0.003 -0.0132,-0.0106 -0.0185,-0.0185 -0.008,-0.0106 -0.0132,-0.0211 -0.0159,-0.037 -0.003,-0.0132 -0.005,-0.0317 -0.005,-0.0555 0,-0.0185 0.003,-0.037 0.005,-0.0529 0.003,-0.0132 0.008,-0.0264 0.0132,-0.037 0.005,-0.008 0.0106,-0.0159 0.0185,-0.0211 0.008,-0.005 0.0159,-0.008 0.0238,-0.008 h 0.45458 v -1.68617 l -0.42022,0.25636 c -0.0211,0.0106 -0.0396,0.0159 -0.0529,0.0185 -0.0106,0.003 -0.0211,0 -0.0291,-0.008 -0.008,-0.005 -0.0132,-0.0185 -0.0159,-0.037 -0.003,-0.0159 -0.005,-0.037 -0.005,-0.0634 0,-0.0211 0,-0.037 0.003,-0.0502 0.003,-0.0132 0.005,-0.0238 0.008,-0.0343 0.003,-0.008 0.008,-0.0159 0.0132,-0.0238 0.008,-0.008 0.0159,-0.0132 0.0238,-0.0211 l 0.50215,-0.32772 c 0.005,-0.003 0.0106,-0.005 0.0159,-0.008 0.008,-0.003 0.0159,-0.005 0.0264,-0.005 0.0106,-0.003 0.0211,-0.005 0.0344,-0.005 0.0132,0 0.0317,0 0.0502,0 0.0264,0 0.0502,0 0.0687,0.003 0.0159,0.003 0.0317,0.005 0.0396,0.008 0.0106,0.005 0.0185,0.0106 0.0211,0.0159 0.003,0.008 0.005,0.0132 0.005,0.0211 v 1.94782 h 0.39379 c 0.008,0 0.0159,0.003 0.0238,0.008 0.008,0.005 0.0159,0.0132 0.0211,0.0211 0.003,0.0106 0.008,0.0238 0.0106,0.037 0.003,0.0159 0.005,0.0344 0.005,0.0529 z m 1.70996,-0.51537 c 0,0.10043 -0.0159,0.19293 -0.0502,0.27486 -0.037,0.0819 -0.0846,0.15065 -0.15065,0.20879 -0.0661,0.0581 -0.14535,0.10308 -0.2405,0.13479 -0.0951,0.0317 -0.2035,0.0476 -0.32243,0.0476 -0.0714,0 -0.14008,-0.005 -0.20351,-0.0185 -0.0634,-0.0132 -0.11893,-0.0264 -0.16914,-0.0423 -0.0502,-0.0159 -0.0899,-0.0344 -0.12158,-0.0529 -0.0343,-0.0159 -0.0528,-0.0291 -0.0634,-0.037 -0.008,-0.008 -0.0132,-0.0159 -0.0185,-0.0238 -0.005,-0.008 -0.008,-0.0185 -0.0106,-0.0291 -0.005,-0.0132 -0.005,-0.0264 -0.008,-0.0423 -0.003,-0.0185 -0.003,-0.037 -0.003,-0.0608 0,-0.0423 0.003,-0.0714 0.0106,-0.0872 0.0106,-0.0159 0.0212,-0.0238 0.037,-0.0238 0.008,0 0.0291,0.0106 0.0608,0.0291 0.0291,0.0185 0.0687,0.037 0.11629,0.0581 0.0476,0.0211 0.10307,0.0396 0.1665,0.0581 0.0634,0.0185 0.13479,0.0291 0.21408,0.0291 0.074,0 0.14271,-0.0106 0.19821,-0.0291 0.0581,-0.0211 0.10572,-0.0476 0.14536,-0.0819 0.0396,-0.037 0.0687,-0.0793 0.0872,-0.12686 0.0211,-0.0476 0.0291,-0.10043 0.0291,-0.15857 0,-0.0634 -0.0106,-0.11893 -0.037,-0.16915 -0.0238,-0.0502 -0.0608,-0.0951 -0.10836,-0.13214 -0.0476,-0.0344 -0.10572,-0.0634 -0.17707,-0.0819 -0.0687,-0.0211 -0.15065,-0.0291 -0.23786,-0.0291 h -0.21408 c -0.008,0 -0.0185,-0.003 -0.0264,-0.008 -0.008,-0.003 -0.0159,-0.0106 -0.0238,-0.0185 -0.005,-0.0106 -0.0106,-0.0211 -0.0159,-0.037 -0.003,-0.0132 -0.005,-0.0344 -0.005,-0.0582 0,-0.0211 0.003,-0.0396 0.005,-0.0528 0.003,-0.0159 0.008,-0.0264 0.0132,-0.0344 0.008,-0.008 0.0132,-0.0159 0.0212,-0.0185 0.008,-0.005 0.0185,-0.008 0.0291,-0.008 h 0.18764 c 0.074,0 0.14008,-0.008 0.20086,-0.0291 0.0582,-0.0185 0.10836,-0.0476 0.14801,-0.0819 0.0423,-0.037 0.074,-0.0819 0.0951,-0.13215 0.0211,-0.0502 0.0317,-0.10836 0.0317,-0.16914 0,-0.0476 -0.008,-0.0899 -0.0211,-0.13215 -0.0159,-0.0423 -0.037,-0.0793 -0.0661,-0.10836 -0.0291,-0.0317 -0.0661,-0.0555 -0.111,-0.074 -0.0449,-0.0185 -0.0978,-0.0264 -0.15593,-0.0264 -0.0661,0 -0.12686,0.0106 -0.17972,0.0291 -0.0555,0.0211 -0.10307,0.0423 -0.14536,0.0661 -0.0423,0.0211 -0.0793,0.0449 -0.10572,0.0634 -0.0291,0.0211 -0.0476,0.0291 -0.0581,0.0291 -0.008,0 -0.0159,0 -0.0211,-0.003 -0.008,-0.003 -0.0132,-0.008 -0.0159,-0.0185 -0.005,-0.008 -0.008,-0.0185 -0.008,-0.0344 -0.003,-0.0159 -0.003,-0.037 -0.003,-0.0608 0,-0.0185 0,-0.0317 0,-0.0449 0.003,-0.0132 0.005,-0.0264 0.008,-0.0344 0.003,-0.0106 0.008,-0.0185 0.0106,-0.0264 0.005,-0.008 0.0132,-0.0185 0.0238,-0.0291 0.0106,-0.0106 0.0317,-0.0264 0.0634,-0.0476 0.0344,-0.0211 0.074,-0.0396 0.12158,-0.0608 0.0476,-0.0212 0.10307,-0.037 0.16386,-0.0502 0.0634,-0.0132 0.1295,-0.0211 0.20086,-0.0211 0.10043,0 0.19029,0.0132 0.26693,0.0396 0.074,0.0264 0.13743,0.0634 0.19029,0.111 0.0502,0.0476 0.0872,0.10572 0.11364,0.17179 0.0238,0.0687 0.037,0.14272 0.037,0.222 0,0.0714 -0.008,0.13479 -0.0264,0.19558 -0.0185,0.0608 -0.0449,0.11364 -0.0793,0.15857 -0.0344,0.0476 -0.0767,0.0872 -0.12686,0.11893 -0.0502,0.0317 -0.10836,0.0555 -0.17443,0.0687 v 0.003 c 0.074,0.008 0.14272,0.0264 0.20614,0.0582 0.0608,0.0291 0.11365,0.0661 0.15858,0.11364 0.0449,0.0449 0.0793,0.0978 0.10571,0.15857 0.0264,0.0608 0.037,0.12686 0.037,0.19822 z m 1.80245,0.0634 c 0,0.0978 -0.0185,0.18236 -0.0502,0.25636 -0.0344,0.074 -0.0819,0.13743 -0.14536,0.19029 -0.0634,0.0502 -0.14272,0.0899 -0.23522,0.11629 -0.0925,0.0264 -0.19822,0.0396 -0.31979,0.0396 -0.111,0 -0.21143,-0.0132 -0.29865,-0.037 -0.0899,-0.0238 -0.16386,-0.0581 -0.22729,-0.10571 -0.0608,-0.0476 -0.10836,-0.10572 -0.14007,-0.17444 -0.0317,-0.0661 -0.0476,-0.14536 -0.0476,-0.23257 0,-0.0714 0.0106,-0.13479 0.0317,-0.19293 0.0238,-0.0581 0.0555,-0.111 0.0978,-0.16122 0.0423,-0.0502 0.0925,-0.0951 0.15593,-0.13743 0.0608,-0.0423 0.1295,-0.0846 0.20615,-0.12157 -0.0661,-0.037 -0.12422,-0.074 -0.17708,-0.11365 -0.0502,-0.0396 -0.0951,-0.0819 -0.13214,-0.1295 -0.0344,-0.0449 -0.0608,-0.0951 -0.0793,-0.148 -0.0185,-0.0529 -0.0291,-0.10836 -0.0291,-0.17179 0,-0.0767 0.0132,-0.148 0.0423,-0.21672 0.0264,-0.0687 0.0687,-0.12686 0.12422,-0.17707 0.0555,-0.0502 0.12422,-0.0899 0.21143,-0.11893 0.0846,-0.0291 0.18501,-0.0449 0.29865,-0.0449 0.111,0 0.20614,0.0132 0.28543,0.0396 0.0793,0.0264 0.14536,0.0634 0.19822,0.111 0.0529,0.0449 0.0899,0.10043 0.11364,0.16386 0.0264,0.0634 0.037,0.1295 0.037,0.20086 0,0.0582 -0.008,0.11365 -0.0264,0.16915 -0.0185,0.0529 -0.0449,0.10307 -0.0819,0.15329 -0.0344,0.0476 -0.0793,0.0925 -0.13215,0.13214 -0.0502,0.0423 -0.111,0.0819 -0.17707,0.11893 0.0793,0.0397 0.148,0.0819 0.21143,0.12422 0.0634,0.0423 0.11365,0.0872 0.15593,0.13479 0.0423,0.0476 0.074,0.10043 0.0952,0.15328 0.0238,0.0555 0.0343,0.11629 0.0343,0.17972 z m -0.36472,-1.13645 c 0,-0.0502 -0.008,-0.0925 -0.0238,-0.13214 -0.0159,-0.037 -0.0396,-0.0714 -0.0714,-0.0978 -0.0317,-0.0291 -0.0687,-0.0502 -0.11629,-0.0634 -0.0476,-0.0132 -0.10043,-0.0211 -0.15857,-0.0211 -0.12158,0 -0.21144,0.0291 -0.27487,0.0846 -0.0608,0.0555 -0.0925,0.13215 -0.0925,0.22993 0,0.0423 0.008,0.0846 0.0212,0.12422 0.0159,0.037 0.0396,0.074 0.0713,0.10836 0.0317,0.0344 0.0714,0.0661 0.12158,0.10043 0.0476,0.0317 0.10572,0.0661 0.17443,0.10043 0.111,-0.0581 0.19822,-0.12422 0.259,-0.19557 0.0608,-0.0714 0.0899,-0.15329 0.0899,-0.23787 z m 0.0714,1.16817 c 0,-0.0529 -0.008,-0.10043 -0.0291,-0.14272 -0.0185,-0.0423 -0.0476,-0.0846 -0.0846,-0.12157 -0.0396,-0.037 -0.0872,-0.0714 -0.14536,-0.10836 -0.0582,-0.0344 -0.12422,-0.0687 -0.20086,-0.10836 -0.0714,0.037 -0.13215,0.0714 -0.18501,0.10836 -0.0529,0.0344 -0.0978,0.0714 -0.13214,0.10836 -0.0344,0.037 -0.0582,0.0766 -0.0766,0.11893 -0.0185,0.0423 -0.0264,0.0872 -0.0264,0.13743 0,0.111 0.037,0.19821 0.111,0.259 0.0766,0.0581 0.18764,0.0899 0.33564,0.0899 0.14272,0 0.25108,-0.0317 0.32508,-0.0925 0.0714,-0.0608 0.10836,-0.14272 0.10836,-0.24843 z"
       id="path2316" />
    <path
       style="fill:#000000;fill-opacity:1;fill-rule:nonzero;stroke:none;stroke-width:0.264583"
       d="m 179.82931,171.86812 c 0,0.0846 -0.0396,0.15593 -0.12157,0.21407 -0.0819,0.0581 -0.18236,0.0872 -0.29865,0.0872 -0.11629,0 -0.21407,-0.0291 -0.29865,-0.0872 -0.0819,-0.0581 -0.12157,-0.1295 -0.12157,-0.21407 0,-0.0819 0.0396,-0.15065 0.12157,-0.20879 0.0819,-0.0608 0.17972,-0.0899 0.29865,-0.0899 0.11365,0 0.21408,0.0291 0.29601,0.0899 0.0819,0.0581 0.12421,0.12686 0.12421,0.20879 z m -0.71358,0 c 0,0.0608 0.0291,0.10836 0.0846,0.15064 0.0582,0.0396 0.12951,0.0608 0.20879,0.0608 0.0846,0 0.15329,-0.0211 0.20879,-0.0608 0.0555,-0.0423 0.0846,-0.0899 0.0846,-0.15064 0,-0.0582 -0.0291,-0.10572 -0.0872,-0.148 -0.0555,-0.0396 -0.12686,-0.0608 -0.20879,-0.0608 -0.0793,0 -0.148,0.0211 -0.20615,0.0634 -0.0555,0.0396 -0.0846,0.0899 -0.0846,0.14536 z"
       id="path2318" />
    <path
       style="fill:none;stroke:#000000;stroke-width:0.211432px;stroke-linecap:round;stroke-linejoin:round;stroke-miterlimit:4;stroke-dasharray:none;stroke-opacity:1"
       d="m 178.69287,163.79406 c 0.58672,0.49686 1.34259,0.7453 2.10903,0.69772 0.76116,-0.0476 1.48002,-0.39643 1.99275,-0.9673"
       id="path2320" />
    <path
       style="fill:#000000;fill-opacity:1;fill-rule:evenodd;stroke:none;stroke-width:0.264583"
       d="m 180.59575,162.74218 c 0.22201,0 0.40172,0.17972 0.40172,0.40172 0,0.22201 -0.17971,0.40172 -0.40172,0.40172 -0.222,0 -0.40172,-0.17971 -0.40172,-0.40172 0,-0.222 0.17972,-0.40172 0.40172,-0.40172 z"
       id="path2322" />
    <path
       style="fill:none;stroke:#000000;stroke-width:0.211432px;stroke-linecap:round;stroke-linejoin:round;stroke-miterlimit:4;stroke-dasharray:none;stroke-opacity:1"
       d="m 172.73048,187.54316 c 0.78759,0 1.53817,0.31715 2.09318,0.88009 0.55501,0.56293 0.86687,1.32673 0.86687,2.12225"
       id="path2324" />
    <path
       style="fill:#000000;fill-opacity:1;fill-rule:evenodd;stroke:none;stroke-width:0.264583"
       d="m 173.87222,188.91747 c 0.222,0 0.40172,0.18236 0.40172,0.40172 0,0.222 -0.17972,0.40172 -0.40172,0.40172 -0.21937,0 -0.40173,-0.17972 -0.40173,-0.40172 0,-0.21936 0.18236,-0.40172 0.40173,-0.40172 z"
       id="path2326" />
    <path
       style="fill:#000000;fill-opacity:1;fill-rule:nonzero;stroke:none;stroke-width:0.264583"
       d="m 183.96504,158.40524 c 0,0.005 0,0.0159 -0.005,0.0317 0,0.0106 0,0.0264 -0.005,0.0423 -0.005,0.0159 -0.0106,0.0317 -0.0159,0.0476 -0.0106,0.0159 -0.0159,0.0317 -0.0317,0.0423 -0.0106,0.0159 -0.0211,0.0264 -0.037,0.0317 -0.0211,0.0106 -0.037,0.0159 -0.0529,0.0159 h -1.45359 l -0.23258,0.77172 h 1.24745 c 0.0211,0 0.0423,0.005 0.0529,0.0159 0.0106,0.0106 0.0159,0.0211 0.0159,0.0423 0,0.005 0,0.0159 -0.005,0.0317 0,0.0106 -0.005,0.0264 -0.0106,0.0423 0,0.0159 -0.005,0.0317 -0.0159,0.0476 -0.005,0.0159 -0.0159,0.0264 -0.0264,0.0423 -0.0106,0.0106 -0.0211,0.0211 -0.037,0.0264 -0.0159,0.0106 -0.037,0.0159 -0.0529,0.0159 h -1.24744 l -0.26958,0.87745 h 1.48003 c 0.0159,0 0.0317,0.005 0.0476,0.0159 0.0106,0.0106 0.0159,0.0264 0.0159,0.0476 0,0.005 0,0.0159 0,0.0317 -0.005,0.0159 -0.005,0.0264 -0.0106,0.0423 -0.005,0.0159 -0.0106,0.0317 -0.0159,0.0476 -0.0106,0.0159 -0.0159,0.0317 -0.0317,0.0423 -0.0106,0.0159 -0.0211,0.0264 -0.037,0.0317 -0.0211,0.0106 -0.037,0.0106 -0.0529,0.0106 h -1.7866 c -0.0211,0 -0.0423,0 -0.0634,-0.005 -0.0159,-0.005 -0.037,-0.0106 -0.0476,-0.0212 -0.0159,-0.0106 -0.0264,-0.0264 -0.0317,-0.0423 -0.005,-0.0159 -0.005,-0.037 0.005,-0.0634 l 0.66072,-2.18832 c 0.0159,-0.0529 0.0423,-0.0846 0.0899,-0.10572 0.0476,-0.0211 0.0898,-0.0317 0.13743,-0.0317 h 1.75488 c 0.0476,0 0.0687,0.0212 0.0687,0.0634 z"
       id="path2328" />
    <path
       style="fill:none;stroke:#000000;stroke-width:0.211432px;stroke-linecap:round;stroke-linejoin:round;stroke-miterlimit:4;stroke-dasharray:none;stroke-opacity:1"
       d="m 164.48463,190.5455 c 0,-1.20781 -0.26429,-2.4024 -0.77437,-3.49656 -0.51272,-1.0968 -1.25802,-2.06675 -2.18567,-2.84641"
       id="path2330" />
    <path
       style="fill:#000000;fill-opacity:1;fill-rule:nonzero;stroke:none;stroke-width:0.264583"
       d="m 162.52096,189.74734 c 0,0.003 0,0.0106 -0.003,0.0211 0,0.0132 -0.003,0.0238 -0.005,0.0396 -0.003,0.0132 -0.008,0.0264 -0.0106,0.0423 -0.003,0.0132 -0.008,0.0264 -0.0132,0.0396 -0.005,0.0159 -0.0106,0.0264 -0.0159,0.0396 -0.005,0.0106 -0.0132,0.0185 -0.0212,0.0264 -0.005,0.005 -0.0185,0.0106 -0.0344,0.0185 -0.0159,0.005 -0.0343,0.0106 -0.0581,0.0159 -0.0238,0.005 -0.0502,0.0106 -0.0766,0.0132 -0.0291,0.005 -0.0529,0.005 -0.0767,0.005 -0.0793,0 -0.14536,-0.008 -0.19293,-0.0264 -0.0502,-0.0211 -0.0872,-0.0449 -0.11629,-0.0793 -0.0264,-0.0317 -0.0476,-0.0766 -0.0581,-0.13479 -0.0132,-0.0555 -0.0132,-0.13214 -0.003,-0.22993 -0.0608,0.0872 -0.12951,0.16122 -0.20879,0.22465 -0.0793,0.0634 -0.15329,0.111 -0.22465,0.148 -0.0687,0.0344 -0.13743,0.0608 -0.2035,0.0766 -0.0687,0.0159 -0.12951,0.0238 -0.18765,0.0238 -0.10836,0 -0.20086,-0.0132 -0.2775,-0.0423 -0.0767,-0.0291 -0.14008,-0.0713 -0.18501,-0.12421 -0.0476,-0.0555 -0.0819,-0.11893 -0.10307,-0.19029 -0.0211,-0.0714 -0.0344,-0.15329 -0.0344,-0.24579 0,-0.0872 0.0106,-0.17708 0.0264,-0.26693 0.0159,-0.0925 0.0423,-0.18501 0.0767,-0.27751 0.0344,-0.0925 0.0793,-0.185 0.13743,-0.27222 0.0555,-0.0872 0.12422,-0.1665 0.20086,-0.23522 0.0793,-0.0661 0.17443,-0.12157 0.28279,-0.16121 0.10836,-0.0423 0.22729,-0.0634 0.35679,-0.0634 0.0978,0 0.185,0.0159 0.26165,0.0423 0.0766,0.0291 0.14007,0.074 0.19029,0.13479 0.0529,0.0608 0.0899,0.14272 0.111,0.24579 0.0238,0.10307 0.0291,0.20879 0.0159,0.31979 0.0185,-0.0555 0.0396,-0.10571 0.0608,-0.15329 0.0211,-0.0476 0.0449,-0.0978 0.0714,-0.15064 0.0238,-0.0555 0.0502,-0.11365 0.0714,-0.17179 0.0238,-0.0608 0.0449,-0.12157 0.0634,-0.18236 0.003,-0.008 0.008,-0.0185 0.0159,-0.0238 0.008,-0.008 0.0185,-0.0159 0.0317,-0.0211 0.0132,-0.005 0.0317,-0.008 0.0555,-0.0106 0.0211,0 0.0502,-0.003 0.0872,-0.003 0.0317,0 0.0608,0.003 0.0819,0.003 0.0238,0.003 0.0423,0.005 0.0529,0.0106 0.0132,0.005 0.0212,0.0132 0.0238,0.0211 0.003,0.005 0.003,0.0159 0,0.0238 -0.0344,0.10307 -0.074,0.20086 -0.11364,0.29336 -0.0397,0.0925 -0.0819,0.17972 -0.12686,0.26694 -0.0449,0.0872 -0.0925,0.16914 -0.14008,0.24843 -0.0502,0.0793 -0.10571,0.16122 -0.16914,0.24843 0,0.0502 0,0.0846 0,0.10043 0,0.0185 0,0.0502 0,0.0951 0,0.0476 0.003,0.0899 0.008,0.12951 0.005,0.0396 0.0159,0.0714 0.0291,0.0951 0.0132,0.0238 0.0291,0.037 0.0476,0.0423 0.0159,0.005 0.037,0.0106 0.0608,0.0106 0.0238,0 0.0502,-0.003 0.074,-0.008 0.0238,-0.005 0.0423,-0.008 0.0608,-0.0132 0.0159,-0.003 0.0317,-0.008 0.0449,-0.0106 0.0132,-0.005 0.0264,-0.008 0.0344,-0.008 0.0159,0 0.0238,0.0132 0.0238,0.0396 z m -0.73473,-0.76909 c 0,-0.148 -0.008,-0.25636 -0.0264,-0.32771 -0.0211,-0.0687 -0.0423,-0.12158 -0.0661,-0.15594 -0.0264,-0.0317 -0.0555,-0.0581 -0.0925,-0.074 -0.037,-0.0159 -0.0819,-0.0238 -0.13215,-0.0238 -0.0766,0 -0.148,0.0159 -0.21407,0.0502 -0.0634,0.0317 -0.11893,0.074 -0.16915,0.12686 -0.0502,0.0529 -0.0925,0.111 -0.1295,0.17972 -0.037,0.0687 -0.0687,0.13743 -0.0925,0.20879 -0.0264,0.0687 -0.0449,0.14007 -0.0555,0.21407 -0.0132,0.0714 -0.0185,0.13743 -0.0185,0.19822 0,0.0582 0.005,0.111 0.0159,0.15857 0.0106,0.0502 0.0291,0.0899 0.0529,0.12422 0.0264,0.0317 0.0582,0.0555 0.0952,0.0714 0.037,0.0132 0.0793,0.0211 0.12686,0.0211 0.0608,0 0.12686,-0.0159 0.19293,-0.0449 0.0687,-0.0317 0.13743,-0.074 0.2035,-0.13214 0.0687,-0.0555 0.12686,-0.11365 0.17443,-0.17179 0.0502,-0.0608 0.0846,-0.10307 0.10572,-0.13215 0.0185,-0.0264 0.0291,-0.0423 0.0291,-0.0449 0,-0.003 0,-0.0846 0,-0.24579 z"
       id="path2332" />
  </g>
</svg>
