<?xml version="1.0" encoding="UTF-8" standalone="no"?>
<svg
   viewBox="0 0 66.135947 52.94258"
   version="1.1"
   id="svg5"
   inkscape:version="1.2.2 (732a01da63, 2022-12-09)"
   sodipodi:docname="marzec 2020 - zad. 8.svg"
   xmlns:inkscape="http://www.inkscape.org/namespaces/inkscape"
   xmlns:sodipodi="http://sodipodi.sourceforge.net/DTD/sodipodi-0.dtd"
   xmlns="http://www.w3.org/2000/svg"
   xmlns:svg="http://www.w3.org/2000/svg">
  <sodipodi:namedview
     id="namedview7"
     pagecolor="#ffffff"
     bordercolor="#000000"
     borderopacity="0.25"
     inkscape:showpageshadow="2"
     inkscape:pageopacity="0.0"
     inkscape:pagecheckerboard="0"
     inkscape:deskcolor="#d1d1d1"
     inkscape:document-units="mm"
     showgrid="false"
     inkscape:zoom="14.638496"
     inkscape:cx="48.365624"
     inkscape:cy="34.054044"
     inkscape:window-width="2050"
     inkscape:window-height="1230"
     inkscape:window-x="2611"
     inkscape:window-y="186"
     inkscape:window-maximized="0"
     inkscape:current-layer="layer1" />
  <defs
     id="defs2">
    <rect
       x="-61.057022"
       y="23.959084"
       width="36.325066"
       height="20.86759"
       id="rect6215" />
    <rect
       x="-120.5683"
       y="-125.20554"
       width="381.79959"
       height="346.24741"
       id="rect6209" />
    <rect
       x="-61.829895"
       y="157.66623"
       width="113.61243"
       height="35.552189"
       id="rect6203" />
    <rect
       x="60.115463"
       y="-215.32268"
       width="240.46185"
       height="127.88199"
       id="rect4357" />
    <clipPath
       clipPathUnits="userSpaceOnUse"
       id="clipEmfPath1">
      <path
         d="M 0,0 H 601.09294 V 161.42086 H 0 Z"
         id="path9" />
    </clipPath>
    <pattern
       id="EMFhbasepattern"
       patternUnits="userSpaceOnUse"
       width="6"
       height="6"
       x="0"
       y="0" />
    <clipPath
       clipPathUnits="userSpaceOnUse"
       id="clipEmfPath1-9">
      <path
         d="M 0,0 H 601.09294 V 148.47523 H 0 Z"
         id="path390" />
    </clipPath>
    <pattern
       id="EMFhbasepattern-3"
       patternUnits="userSpaceOnUse"
       width="6"
       height="6"
       x="0"
       y="0" />
    <clipPath
       clipPathUnits="userSpaceOnUse"
       id="clipEmfPath1-1">
      <path
         d="m 200.09794,0.79911319 h 50.34413 V 100.04897 h -50.34413 z"
         id="path580" />
    </clipPath>
    <clipPath
       clipPathUnits="userSpaceOnUse"
       id="clipEmfPath2">
      <path
         d="M 200.09766,100.04883 V 0.79882812 h 50.34375 -50.34375 z"
         id="path583" />
    </clipPath>
    <clipPath
       clipPathUnits="userSpaceOnUse"
       id="clipEmfPath3">
      <path
         d="M 250.44207,0.79911319 H 354.00714 V 100.04897 H 250.44207 Z"
         id="path586" />
    </clipPath>
    <clipPath
       clipPathUnits="userSpaceOnUse"
       id="clipEmfPath4">
      <path
         d="M 269.78125,67.605469 V 99.25 h 31.00586 V 67.605469 Z"
         id="path589" />
    </clipPath>
    <clipPath
       clipPathUnits="userSpaceOnUse"
       id="clipEmfPath5">
      <path
         d="M 301.58594,67.605469 V 99.25 h 30.8457 V 67.605469 Z"
         id="path592" />
    </clipPath>
    <clipPath
       clipPathUnits="userSpaceOnUse"
       id="clipEmfPath6">
      <path
         d="m 354.00714,0.79911319 h 132.0135 V 100.04897 h -132.0135 z"
         id="path595" />
    </clipPath>
    <clipPath
       clipPathUnits="userSpaceOnUse"
       id="clipEmfPath7">
      <path
         d="M 354.00781,100.04883 V 0.79882812 H 486.02148 354.00781 Z"
         id="path598" />
    </clipPath>
    <clipPath
       clipPathUnits="userSpaceOnUse"
       id="clipEmfPath8">
      <path
         d="M 0,0.79911319 H 601.09294 V 135.20995 H 0 Z"
         id="path601" />
    </clipPath>
    <pattern
       id="EMFhbasepattern-2"
       patternUnits="userSpaceOnUse"
       width="6"
       height="6"
       x="0"
       y="0" />
    <clipPath
       clipPathUnits="userSpaceOnUse"
       id="clipEmfPath1-4">
      <path
         d="M 0,0 H 601.09294 V 105.48294 H 0 Z"
         id="path927" />
    </clipPath>
    <pattern
       id="EMFhbasepattern-28"
       patternUnits="userSpaceOnUse"
       width="6"
       height="6"
       x="0"
       y="0" />
    <clipPath
       clipPathUnits="userSpaceOnUse"
       id="clipEmfPath1-2">
      <path
         d="M 0,0 H 601.09294 V 186.03355 H 0 Z"
         id="path1066" />
    </clipPath>
    <clipPath
       clipPathUnits="userSpaceOnUse"
       id="clipEmfPath2-6">
      <path
         d="m 283.04589,160.46193 h 14.70368 v 17.42067 h -14.70368 z"
         id="path1069" />
    </clipPath>
    <clipPath
       clipPathUnits="userSpaceOnUse"
       id="clipEmfPath3-3">
      <path
         d="m 357.52324,77.513979 h 12.14652 v 17.420667 h -12.14652 z"
         id="path1072" />
    </clipPath>
    <pattern
       id="EMFhbasepattern-24"
       patternUnits="userSpaceOnUse"
       width="6"
       height="6"
       x="0"
       y="0" />
    <clipPath
       clipPathUnits="userSpaceOnUse"
       id="clipEmfPath1-41">
      <path
         d="M -278.8905,0.79911319 H 322.20244 V 147.51629 H -278.8905 Z"
         id="path1190" />
    </clipPath>
    <clipPath
       clipPathUnits="userSpaceOnUse"
       id="clipEmfPath2-1">
      <path
         d="M 0.47946791,13.904569 H 15.183151 V 31.325237 H 0.47946791 Z"
         id="path1193" />
    </clipPath>
    <clipPath
       clipPathUnits="userSpaceOnUse"
       id="clipEmfPath3-0">
      <path
         d="M 58.974553,69.043379 H 70.961251 V 86.304224 H 58.974553 Z"
         id="path1196" />
    </clipPath>
    <pattern
       id="EMFhbasepattern-34"
       patternUnits="userSpaceOnUse"
       width="6"
       height="6"
       x="0"
       y="0" />
    <clipPath
       clipPathUnits="userSpaceOnUse"
       id="clipEmfPath1-0">
      <path
         d="M 0,0 H 601.09294 V 196.2622 H 0 Z"
         id="path1293" />
    </clipPath>
    <clipPath
       clipPathUnits="userSpaceOnUse"
       id="clipEmfPath2-5">
      <path
         d="m 271.05919,24.612686 h 31.48506 v 80.710434 h -31.48506 z"
         id="path1296" />
    </clipPath>
    <clipPath
       clipPathUnits="userSpaceOnUse"
       id="clipEmfPath3-38">
      <path
         d="m 303.34337,24.612686 h 79.27202 v 80.710434 h -79.27202 z"
         id="path1299" />
    </clipPath>
    <clipPath
       clipPathUnits="userSpaceOnUse"
       id="clipEmfPath4-3">
      <path
         d="m 383.41451,24.612686 h 31.48506 v 80.710434 h -31.48506 z"
         id="path1302" />
    </clipPath>
    <clipPath
       clipPathUnits="userSpaceOnUse"
       id="clipEmfPath5-6">
      <path
         d="m 271.05919,110.1178 h 31.48506 v 53.86023 h -31.48506 z"
         id="path1305" />
    </clipPath>
    <clipPath
       clipPathUnits="userSpaceOnUse"
       id="clipEmfPath6-3">
      <path
         d="m 303.34337,110.1178 h 79.27202 v 53.86023 h -79.27202 z"
         id="path1308" />
    </clipPath>
    <clipPath
       clipPathUnits="userSpaceOnUse"
       id="clipEmfPath7-4">
      <path
         d="m 383.41451,110.1178 h 31.48506 v 53.86023 h -31.48506 z"
         id="path1311" />
    </clipPath>
    <pattern
       id="EMFhbasepattern-9"
       patternUnits="userSpaceOnUse"
       width="6"
       height="6"
       x="0"
       y="0" />
    <clipPath
       clipPathUnits="userSpaceOnUse"
       id="clipEmfPath1-6">
      <path
         d="M -194.82379,0 H 406.26914 V 120.50627 H -194.82379 Z"
         id="path1651" />
    </clipPath>
    <pattern
       id="EMFhbasepattern-0"
       patternUnits="userSpaceOnUse"
       width="6"
       height="6"
       x="0"
       y="0" />
    <clipPath
       clipPathUnits="userSpaceOnUse"
       id="clipEmfPath1-26">
      <path
         d="M -267.38327,0.79911319 H 333.70967 V 185.23444 h -601.09294 z"
         id="path1810" />
    </clipPath>
    <pattern
       id="EMFhbasepattern-5"
       patternUnits="userSpaceOnUse"
       width="6"
       height="6"
       x="0"
       y="0" />
    <clipPath
       clipPathUnits="userSpaceOnUse"
       id="clipEmfPath1-95">
      <path
         d="M 0,0 H 601.09294 V 146.39754 H 0 Z"
         id="path1956" />
    </clipPath>
    <clipPath
       clipPathUnits="userSpaceOnUse"
       id="clipEmfPath2-9">
      <path
         d="m 317.24793,56.737036 16.78138,-9.589358 8.4706,14.703683 -16.62155,9.74918 z"
         id="path1959" />
    </clipPath>
    <clipPath
       clipPathUnits="userSpaceOnUse"
       id="clipEmfPath3-5">
      <path
         d="m 331.47215,48.586082 21.57606,-12.466166 8.4706,14.863505 -21.41624,12.306343 z"
         id="path1962" />
    </clipPath>
    <pattern
       id="EMFhbasepattern-8"
       patternUnits="userSpaceOnUse"
       width="6"
       height="6"
       x="0"
       y="0" />
    <clipPath
       clipPathUnits="userSpaceOnUse"
       id="clipEmfPath1-65">
      <path
         d="M 0,0 H 601.09294 V 217.19896 H 0 Z"
         id="path2395" />
    </clipPath>
    <clipPath
       clipPathUnits="userSpaceOnUse"
       id="clipEmfPath2-0">
      <path
         d="m 262.90824,20.61712 h 64.40852 v 162.69944 h -64.40852 z"
         id="path2398" />
    </clipPath>
    <clipPath
       clipPathUnits="userSpaceOnUse"
       id="clipEmfPath3-380">
      <path
         d="m 327.31676,20.61712 h 40.11548 v 56.577214 h -40.11548 z"
         id="path2401" />
    </clipPath>
    <clipPath
       clipPathUnits="userSpaceOnUse"
       id="clipEmfPath4-5">
      <path
         d="m 368.23136,20.61712 h 55.93792 v 56.577214 h -55.93792 z"
         id="path2404" />
    </clipPath>
    <clipPath
       clipPathUnits="userSpaceOnUse"
       id="clipEmfPath5-3">
      <path
         d="m 327.79623,77.993447 h 96.37305 V 183.31656 h -96.37305 z"
         id="path2407" />
    </clipPath>
    <pattern
       id="EMFhbasepattern-6"
       patternUnits="userSpaceOnUse"
       width="6"
       height="6"
       x="0"
       y="0" />
    <clipPath
       clipPathUnits="userSpaceOnUse"
       id="clipEmfPath1-5">
      <path
         d="M 0,0 H 601.09294 V 254.75728 H 0 Z"
         id="path2790" />
    </clipPath>
    <clipPath
       clipPathUnits="userSpaceOnUse"
       id="clipEmfPath2-90">
      <path
         d="m 149.75381,152.4708 h 14.70368 v 17.42066 h -14.70368 z"
         id="path2793" />
    </clipPath>
    <pattern
       id="EMFhbasepattern-69"
       patternUnits="userSpaceOnUse"
       width="6"
       height="6"
       x="0"
       y="0" />
    <clipPath
       clipPathUnits="userSpaceOnUse"
       id="clipEmfPath1-3">
      <path
         d="M 0,0 H 686.11858 V 173.40756 H 0 Z"
         id="path3106" />
    </clipPath>
    <pattern
       id="EMFhbasepattern-26"
       patternUnits="userSpaceOnUse"
       width="6"
       height="6"
       x="0"
       y="0" />
    <clipPath
       clipPathUnits="userSpaceOnUse"
       id="clipEmfPath1-21">
      <path
         d="M 0,0 H 686.11858 V 159.66281 H 0 Z"
         id="path3364" />
    </clipPath>
    <pattern
       id="EMFhbasepattern-88"
       patternUnits="userSpaceOnUse"
       width="6"
       height="6"
       x="0"
       y="0" />
    <clipPath
       clipPathUnits="userSpaceOnUse"
       id="clipEmfPath1-50">
      <path
         d="M 0,0 H 686.11858 V 159.66281 H 0 Z"
         id="path3431" />
    </clipPath>
    <pattern
       id="EMFhbasepattern-31"
       patternUnits="userSpaceOnUse"
       width="6"
       height="6"
       x="0"
       y="0" />
    <clipPath
       clipPathUnits="userSpaceOnUse"
       id="clipEmfPath1-96">
      <path
         d="M 0,0 H 686.11858 V 154.54849 H 0 Z"
         id="path3622" />
    </clipPath>
    <clipPath
       clipPathUnits="userSpaceOnUse"
       id="clipEmfPath2-03">
      <path
         d="M 259.23232,14.224215 H 427.36573 V 120.82591 H 259.23232 Z"
         id="path3625" />
    </clipPath>
    <clipPath
       clipPathUnits="userSpaceOnUse"
       id="clipEmfPath3-1">
      <path
         d="M 260.66992,15.023438 V 46.189453 H 425.92773 V 15.023438 Z"
         id="path3628" />
    </clipPath>
    <clipPath
       clipPathUnits="userSpaceOnUse"
       id="clipEmfPath4-51">
      <path
         d="M 260.66992,47.306641 V 120.02734 H 425.92773 V 47.306641 Z"
         id="path3631" />
    </clipPath>
    <pattern
       id="EMFhbasepattern-242"
       patternUnits="userSpaceOnUse"
       width="6"
       height="6"
       x="0"
       y="0" />
    <clipPath
       clipPathUnits="userSpaceOnUse"
       id="clipEmfPath1-36">
      <path
         d="M -78.472915,4.9545018 H 607.64567 V 187.95142 H -78.472915 Z"
         id="path4094" />
    </clipPath>
    <clipPath
       clipPathUnits="userSpaceOnUse"
       id="clipEmfPath2-3">
      <path
         d="m 97.971277,4.9545018 h 5.593793 V 22.215347 h -5.593793 z"
         id="path4097" />
    </clipPath>
    <clipPath
       clipPathUnits="userSpaceOnUse"
       id="clipEmfPath3-33">
      <path
         d="m 436.47562,85.984579 h 20.61712 v 15.982261 h -20.61712 z"
         id="path4100" />
    </clipPath>
    <clipPath
       clipPathUnits="userSpaceOnUse"
       id="clipEmfPath4-7">
      <path
         d="m 451.49895,85.984579 h 18.05996 v 15.982261 h -18.05996 z"
         id="path4103" />
    </clipPath>
    <pattern
       id="EMFhbasepattern-4"
       patternUnits="userSpaceOnUse"
       width="6"
       height="6"
       x="0"
       y="0" />
    <clipPath
       clipPathUnits="userSpaceOnUse"
       id="clipEmfPath1-22">
      <path
         d="M 0,0 H 686.11858 V 37.078852 H 0 Z"
         id="path4361" />
    </clipPath>
    <pattern
       id="EMFhbasepattern-698"
       patternUnits="userSpaceOnUse"
       width="6"
       height="6"
       x="0"
       y="0" />
    <clipPath
       clipPathUnits="userSpaceOnUse"
       id="clipEmfPath1-42">
      <path
         d="M 0,0 H 686.11858 V 185.55408 H 0 Z"
         id="path4610" />
    </clipPath>
    <pattern
       id="EMFhbasepattern-67"
       patternUnits="userSpaceOnUse"
       width="6"
       height="6"
       x="0"
       y="0" />
    <clipPath
       clipPathUnits="userSpaceOnUse"
       id="clipEmfPath1-48">
      <path
         d="M 0,0 H 686.11858 V 133.61172 H 0 Z"
         id="path4869" />
    </clipPath>
    <pattern
       id="EMFhbasepattern-49"
       patternUnits="userSpaceOnUse"
       width="6"
       height="6"
       x="0"
       y="0" />
    <clipPath
       clipPathUnits="userSpaceOnUse"
       id="clipEmfPath1-31">
      <path
         d="M -253.4787,0.79911319 H 432.63988 V 96.37305 H -253.4787 Z"
         id="path5198" />
    </clipPath>
    <pattern
       id="EMFhbasepattern-678"
       patternUnits="userSpaceOnUse"
       width="6"
       height="6"
       x="0"
       y="0" />
    <clipPath
       clipPathUnits="userSpaceOnUse"
       id="clipEmfPath1-364">
      <path
         d="M -288.32004,0.79911319 H 397.79854 V 136.80818 h -686.11858 z"
         id="path5375" />
    </clipPath>
    <pattern
       id="EMFhbasepattern-21"
       patternUnits="userSpaceOnUse"
       width="6"
       height="6"
       x="0"
       y="0" />
    <clipPath
       clipPathUnits="userSpaceOnUse"
       id="clipEmfPath1-7">
      <path
         d="M 0,0 H 686.11858 V 192.26663 H 0 Z"
         id="path5555" />
    </clipPath>
    <pattern
       id="EMFhbasepattern-30"
       patternUnits="userSpaceOnUse"
       width="6"
       height="6"
       x="0"
       y="0" />
    <clipPath
       clipPathUnits="userSpaceOnUse"
       id="clipEmfPath1-69">
      <path
         d="M 0,0 H 686.11858 V 188.11124 H 0 Z"
         id="path5858" />
    </clipPath>
    <pattern
       id="EMFhbasepattern-38"
       patternUnits="userSpaceOnUse"
       width="6"
       height="6"
       x="0"
       y="0" />
    <clipPath
       clipPathUnits="userSpaceOnUse"
       id="clipEmfPath1-961">
      <path
         d="M 0,0 H 686.11858 V 126.41971 H 0 Z"
         id="path6104" />
    </clipPath>
    <pattern
       id="EMFhbasepattern-1"
       patternUnits="userSpaceOnUse"
       width="6"
       height="6"
       x="0"
       y="0" />
    <clipPath
       clipPathUnits="userSpaceOnUse"
       id="clipEmfPath1-8">
      <path
         d="m 259.71179,0.79911319 h 55.29863 V 113.6339 h -55.29863 z"
         id="path6395" />
    </clipPath>
    <clipPath
       clipPathUnits="userSpaceOnUse"
       id="clipEmfPath2-12">
      <path
         d="M 315.80953,0.79911319 H 427.04609 V 56.896859 H 315.80953 Z"
         id="path6398" />
    </clipPath>
    <clipPath
       clipPathUnits="userSpaceOnUse"
       id="clipEmfPath3-381">
      <path
         d="M 315.80953,57.695972 H 427.04609 V 113.6339 H 315.80953 Z"
         id="path6401" />
    </clipPath>
    <pattern
       id="EMFhbasepattern-39"
       patternUnits="userSpaceOnUse"
       width="6"
       height="6"
       x="0"
       y="0" />
    <clipPath
       clipPathUnits="userSpaceOnUse"
       id="clipEmfPath1-52">
      <path
         d="M 0,0 H 686.11858 V 198.65954 H 0 Z"
         id="path6724" />
    </clipPath>
    <clipPath
       clipPathUnits="userSpaceOnUse"
       id="clipEmfPath2-4">
      <path
         d="m 289.11915,152.4708 h 14.70368 v 17.42066 h -14.70368 z"
         id="path6727" />
    </clipPath>
    <clipPath
       clipPathUnits="userSpaceOnUse"
       id="clipEmfPath3-7">
      <path
         d="m 370.30905,48.905727 h 4.9545 v 15.662618 h -4.9545 z"
         id="path6730" />
    </clipPath>
    <pattern
       id="EMFhbasepattern-63"
       patternUnits="userSpaceOnUse"
       width="6"
       height="6"
       x="0"
       y="0" />
    <clipPath
       clipPathUnits="userSpaceOnUse"
       id="clipEmfPath1-64">
      <path
         d="M -311.01485,0.79911319 H 375.10373 V 102.60613 h -686.11858 z"
         id="path7049" />
    </clipPath>
    <pattern
       id="EMFhbasepattern-66"
       patternUnits="userSpaceOnUse"
       width="6"
       height="6"
       x="0"
       y="0" />
    <clipPath
       clipPathUnits="userSpaceOnUse"
       id="clipEmfPath1-61">
      <path
         d="M -311.01485,0.79911319 H 375.10373 V 102.60613 h -686.11858 z"
         id="path7086" />
    </clipPath>
    <pattern
       id="EMFhbasepattern-32"
       patternUnits="userSpaceOnUse"
       width="6"
       height="6"
       x="0"
       y="0" />
    <clipPath
       clipPathUnits="userSpaceOnUse"
       id="clipEmfPath1-93">
      <path
         d="M 0,0 H 686.11858 V 242.29112 H 0 Z"
         id="path7294" />
    </clipPath>
    <clipPath
       clipPathUnits="userSpaceOnUse"
       id="clipEmfPath2-905">
      <path
         d="m 455.17487,121.30538 h 10.70812 v 16.46173 h -10.70812 z"
         id="path7297" />
    </clipPath>
    <clipPath
       clipPathUnits="userSpaceOnUse"
       id="clipEmfPath3-2">
      <path
         d="m 420.97283,107.40081 h 13.10545 v 15.66262 h -13.10545 z"
         id="path7300" />
    </clipPath>
    <pattern
       id="EMFhbasepattern-36"
       patternUnits="userSpaceOnUse"
       width="6"
       height="6"
       x="0"
       y="0" />
  </defs>
  <g
     inkscape:label="Warstwa 1"
     inkscape:groupmode="layer"
     id="layer1"
     transform="translate(-640.63063,-197.21439)">
    <text
       xml:space="preserve"
       style="font-style:normal;font-variant:normal;font-weight:400;font-size:3.88607px;line-height:125%;font-family:Calibri;text-align:start;letter-spacing:0px;word-spacing:0px;text-anchor:start;fill:#000000;fill-opacity:1;stroke:none;stroke-width:0.264583"
       x="582.71942"
       y="195.41722"
       id="text7310"><tspan
         sodipodi:role="line"
         x="582.71942"
         y="195.41722"
         id="tspan7308"
         style="stroke-width:0.264583"><tspan
           dx="0"
           dy="0"
           style="font-style:normal;font-variant:normal;font-weight:400;font-size:3.88607px;font-family:Calibri;fill:#181717;stroke-width:0.264583"
           id="tspan7306"> </tspan></tspan></text>
    <text
       xml:space="preserve"
       style="font-style:normal;font-variant:normal;font-weight:400;font-size:3.88607px;line-height:125%;font-family:Calibri;text-align:start;letter-spacing:0px;word-spacing:0px;text-anchor:start;fill:#000000;fill-opacity:1;stroke:none;stroke-width:0.264583"
       x="706.66089"
       y="250.05125"
       id="text7316"><tspan
         sodipodi:role="line"
         x="706.66089"
         y="250.05125"
         id="tspan7314"
         style="stroke-width:0.264583"><tspan
           dx="0"
           dy="0"
           style="font-style:normal;font-variant:normal;font-weight:400;font-size:3.88607px;font-family:Calibri;fill:#181717;stroke-width:0.264583"
           id="tspan7312"> </tspan></tspan></text>
    <path
       style="fill:none;stroke:#7f7f7f;stroke-width:0.126859px;stroke-linecap:round;stroke-linejoin:round;stroke-miterlimit:4;stroke-dasharray:none;stroke-opacity:1"
       d="M 640.73635,250.05126 V 197.32011"
       id="path7318" />
    <path
       style="fill:none;stroke:#7f7f7f;stroke-width:0.126859px;stroke-linecap:round;stroke-linejoin:round;stroke-miterlimit:4;stroke-dasharray:none;stroke-opacity:1"
       d="M 645.13414,250.05126 V 197.32011"
       id="path7320" />
    <path
       style="fill:none;stroke:#7f7f7f;stroke-width:0.126859px;stroke-linecap:round;stroke-linejoin:round;stroke-miterlimit:4;stroke-dasharray:none;stroke-opacity:1"
       d="M 649.53192,250.05126 V 197.32011"
       id="path7322" />
    <path
       style="fill:none;stroke:#7f7f7f;stroke-width:0.126859px;stroke-linecap:round;stroke-linejoin:round;stroke-miterlimit:4;stroke-dasharray:none;stroke-opacity:1"
       d="M 653.92971,250.05126 V 197.32011"
       id="path7324" />
    <path
       style="fill:none;stroke:#7f7f7f;stroke-width:0.126859px;stroke-linecap:round;stroke-linejoin:round;stroke-miterlimit:4;stroke-dasharray:none;stroke-opacity:1"
       d="M 658.3275,250.05126 V 197.32011"
       id="path7326" />
    <path
       style="fill:none;stroke:#7f7f7f;stroke-width:0.126859px;stroke-linecap:round;stroke-linejoin:round;stroke-miterlimit:4;stroke-dasharray:none;stroke-opacity:1"
       d="M 662.72528,250.05126 V 197.32011"
       id="path7328" />
    <path
       style="fill:none;stroke:#7f7f7f;stroke-width:0.126859px;stroke-linecap:round;stroke-linejoin:round;stroke-miterlimit:4;stroke-dasharray:none;stroke-opacity:1"
       d="M 667.12307,250.05126 V 197.32011"
       id="path7330" />
    <path
       style="fill:none;stroke:#7f7f7f;stroke-width:0.126859px;stroke-linecap:round;stroke-linejoin:round;stroke-miterlimit:4;stroke-dasharray:none;stroke-opacity:1"
       d="M 671.52085,250.05126 V 197.32011"
       id="path7332" />
    <path
       style="fill:none;stroke:#7f7f7f;stroke-width:0.126859px;stroke-linecap:round;stroke-linejoin:round;stroke-miterlimit:4;stroke-dasharray:none;stroke-opacity:1"
       d="M 675.91864,250.05126 V 197.32011"
       id="path7334" />
    <path
       style="fill:none;stroke:#7f7f7f;stroke-width:0.126859px;stroke-linecap:round;stroke-linejoin:round;stroke-miterlimit:4;stroke-dasharray:none;stroke-opacity:1"
       d="M 680.31643,250.05126 V 197.32011"
       id="path7336" />
    <path
       style="fill:none;stroke:#7f7f7f;stroke-width:0.126859px;stroke-linecap:round;stroke-linejoin:round;stroke-miterlimit:4;stroke-dasharray:none;stroke-opacity:1"
       d="M 684.71421,250.05126 V 197.32011"
       id="path7338" />
    <path
       style="fill:none;stroke:#7f7f7f;stroke-width:0.126859px;stroke-linecap:round;stroke-linejoin:round;stroke-miterlimit:4;stroke-dasharray:none;stroke-opacity:1"
       d="M 689.112,250.05126 V 197.32011"
       id="path7340" />
    <path
       style="fill:none;stroke:#7f7f7f;stroke-width:0.126859px;stroke-linecap:round;stroke-linejoin:round;stroke-miterlimit:4;stroke-dasharray:none;stroke-opacity:1"
       d="M 693.4675,250.05126 V 197.32011"
       id="path7342" />
    <path
       style="fill:none;stroke:#7f7f7f;stroke-width:0.126859px;stroke-linecap:round;stroke-linejoin:round;stroke-miterlimit:4;stroke-dasharray:none;stroke-opacity:1"
       d="M 697.86529,250.05126 V 197.32011"
       id="path7344" />
    <path
       style="fill:none;stroke:#7f7f7f;stroke-width:0.126859px;stroke-linecap:round;stroke-linejoin:round;stroke-miterlimit:4;stroke-dasharray:none;stroke-opacity:1"
       d="M 702.26307,250.05126 V 197.32011"
       id="path7346" />
    <path
       style="fill:none;stroke:#7f7f7f;stroke-width:0.126859px;stroke-linecap:round;stroke-linejoin:round;stroke-miterlimit:4;stroke-dasharray:none;stroke-opacity:1"
       d="M 706.66086,250.05126 V 197.32011"
       id="path7348" />
    <path
       style="fill:none;stroke:#7f7f7f;stroke-width:0.126859px;stroke-linecap:round;stroke-linejoin:round;stroke-miterlimit:4;stroke-dasharray:none;stroke-opacity:1"
       d="m 640.73635,250.05126 h 65.92451"
       id="path7350" />
    <path
       style="fill:none;stroke:#7f7f7f;stroke-width:0.126859px;stroke-linecap:round;stroke-linejoin:round;stroke-miterlimit:4;stroke-dasharray:none;stroke-opacity:1"
       d="m 640.73635,245.65347 h 65.92451"
       id="path7352" />
    <path
       style="fill:none;stroke:#7f7f7f;stroke-width:0.126859px;stroke-linecap:round;stroke-linejoin:round;stroke-miterlimit:4;stroke-dasharray:none;stroke-opacity:1"
       d="m 640.73635,241.25569 h 65.92451"
       id="path7354" />
    <path
       style="fill:none;stroke:#7f7f7f;stroke-width:0.126859px;stroke-linecap:round;stroke-linejoin:round;stroke-miterlimit:4;stroke-dasharray:none;stroke-opacity:1"
       d="m 640.73635,236.8579 h 65.92451"
       id="path7356" />
    <path
       style="fill:none;stroke:#7f7f7f;stroke-width:0.126859px;stroke-linecap:round;stroke-linejoin:round;stroke-miterlimit:4;stroke-dasharray:none;stroke-opacity:1"
       d="m 640.73635,232.46011 h 65.92451"
       id="path7358" />
    <path
       style="fill:none;stroke:#7f7f7f;stroke-width:0.126859px;stroke-linecap:round;stroke-linejoin:round;stroke-miterlimit:4;stroke-dasharray:none;stroke-opacity:1"
       d="m 640.73635,228.06233 h 65.92451"
       id="path7360" />
    <path
       style="fill:none;stroke:#7f7f7f;stroke-width:0.126859px;stroke-linecap:round;stroke-linejoin:round;stroke-miterlimit:4;stroke-dasharray:none;stroke-opacity:1"
       d="m 640.73635,223.66454 h 65.92451"
       id="path7362" />
    <path
       style="fill:none;stroke:#7f7f7f;stroke-width:0.126859px;stroke-linecap:round;stroke-linejoin:round;stroke-miterlimit:4;stroke-dasharray:none;stroke-opacity:1"
       d="m 640.73635,219.26675 h 65.92451"
       id="path7364" />
    <path
       style="fill:none;stroke:#7f7f7f;stroke-width:0.126859px;stroke-linecap:round;stroke-linejoin:round;stroke-miterlimit:4;stroke-dasharray:none;stroke-opacity:1"
       d="m 640.73635,214.86897 h 65.92451"
       id="path7366" />
    <path
       style="fill:none;stroke:#7f7f7f;stroke-width:0.126859px;stroke-linecap:round;stroke-linejoin:round;stroke-miterlimit:4;stroke-dasharray:none;stroke-opacity:1"
       d="m 640.73635,210.47118 h 65.92451"
       id="path7368" />
    <path
       style="fill:none;stroke:#7f7f7f;stroke-width:0.126859px;stroke-linecap:round;stroke-linejoin:round;stroke-miterlimit:4;stroke-dasharray:none;stroke-opacity:1"
       d="m 640.73635,206.0734 h 65.92451"
       id="path7370" />
    <path
       style="fill:none;stroke:#7f7f7f;stroke-width:0.126859px;stroke-linecap:round;stroke-linejoin:round;stroke-miterlimit:4;stroke-dasharray:none;stroke-opacity:1"
       d="m 640.73635,201.7179 h 65.92451"
       id="path7372" />
    <path
       style="fill:none;stroke:#7f7f7f;stroke-width:0.126859px;stroke-linecap:round;stroke-linejoin:round;stroke-miterlimit:4;stroke-dasharray:none;stroke-opacity:1"
       d="m 640.73635,197.32011 h 65.92451"
       id="path7374" />
    <path
       style="fill:none;stroke:#000000;stroke-width:0.211432px;stroke-linecap:round;stroke-linejoin:round;stroke-miterlimit:4;stroke-dasharray:none;stroke-opacity:1"
       d="m 640.73635,223.66454 h 65.92451"
       id="path7376" />
    <path
       style="fill:#000000;fill-opacity:1;fill-rule:evenodd;stroke:none;stroke-width:0.264583"
       d="m 705.22312,223.07253 1.43774,0.59201 -1.43774,0.59201 z"
       id="path7378" />
    <path
       style="fill:none;stroke:#000000;stroke-width:0.211432px;stroke-linecap:round;stroke-linejoin:round;stroke-miterlimit:4;stroke-dasharray:none;stroke-opacity:1"
       d="m 705.22312,223.07253 1.43774,0.59201 -1.43774,0.59201 z"
       id="path7380" />
    <path
       style="fill:none;stroke:#000000;stroke-width:0.211432px;stroke-linecap:round;stroke-linejoin:round;stroke-miterlimit:4;stroke-dasharray:none;stroke-opacity:1"
       d="M 667.12307,250.05126 V 197.32011"
       id="path7382" />
    <path
       style="fill:#000000;fill-opacity:1;fill-rule:evenodd;stroke:none;stroke-width:0.264583"
       d="m 667.12307,197.32011 0.59201,1.43774 h -1.18402 z"
       id="path7384" />
    <path
       style="fill:none;stroke:#000000;stroke-width:0.211432px;stroke-linecap:round;stroke-linejoin:round;stroke-miterlimit:4;stroke-dasharray:none;stroke-opacity:1"
       d="m 667.12307,197.32011 0.59201,1.43774 h -1.18402 z"
       id="path7386" />
    <path
       style="fill:#000000;fill-opacity:1;fill-rule:nonzero;stroke:none"
       clip-path="url(#clipEmfPath2-905)"
       d="m 460.30917,131.33425 1.81799,3.01665 c 0.0399,0.0799 0.0599,0.11987 0.0599,0.15983 -0.02,0.0599 -0.0599,0.0799 -0.11987,0.11986 -0.0799,0.02 -0.15982,0.04 -0.29967,0.0599 -0.11986,0 -0.25971,0.02 -0.45949,0.02 -0.1798,0 -0.31964,-0.02 -0.41953,-0.02 -0.0999,0 -0.1798,-0.02 -0.21976,-0.04 -0.0599,-0.02 -0.0999,-0.0399 -0.11986,-0.0599 -0.02,-0.02 -0.04,-0.04 -0.0599,-0.0799 l -1.39844,-2.4373 -2.63708,2.4373 c -0.0399,0.04 -0.0799,0.0599 -0.11987,0.0799 -0.0399,0.02 -0.0999,0.04 -0.1798,0.0599 -0.0599,0.02 -0.15982,0.02 -0.27969,0.04 -0.11986,0 -0.25971,0.02 -0.45949,0.02 -0.1798,0 -0.31964,-0.02 -0.43951,-0.02 -0.0999,-0.02 -0.1798,-0.04 -0.23973,-0.0599 -0.0599,-0.04 -0.0799,-0.0599 -0.0599,-0.0999 0,-0.04 0.04,-0.0999 0.0999,-0.15982 l 3.49612,-3.05661 -1.73807,-2.8768 c -0.02,-0.0799 -0.04,-0.11987 -0.04,-0.15983 0,-0.0599 0.04,-0.0799 0.0999,-0.11986 0.0599,-0.02 0.13984,-0.04 0.25971,-0.04 0.11987,-0.02 0.27969,-0.02 0.47947,-0.02 0.15982,0 0.29966,0 0.39955,0 0.0999,0.02 0.1798,0.02 0.23974,0.04 0.04,0.02 0.0799,0.04 0.0999,0.0599 0.02,0.02 0.0399,0.04 0.0599,0.0799 l 1.33851,2.29745 2.51721,-2.29745 c 0.04,-0.04 0.0799,-0.0599 0.11987,-0.0799 0.0399,-0.02 0.0999,-0.04 0.15982,-0.0599 0.0599,-0.02 0.15982,-0.02 0.25971,-0.04 0.0999,0 0.23974,0 0.39956,0 0.19978,0 0.33962,0 0.45949,0.02 0.11987,0 0.19978,0.02 0.25971,0.04 0.0599,0.02 0.0799,0.0599 0.0799,0.0999 -0.02,0.04 -0.0599,0.0999 -0.13984,0.15982 z"
       id="path7388"
       transform="matrix(0.26458333,0,0,0.26458333,582.97312,191.78059)" />
    <path
       style="fill:#000000;fill-opacity:1;fill-rule:nonzero;stroke:none;stroke-width:0.264583"
       d="m 666.02098,199.62472 c 0,0.0132 -0.003,0.0264 -0.005,0.0396 -0.003,0.0132 -0.005,0.0264 -0.0132,0.0396 -0.0449,0.111 -0.0925,0.22464 -0.14536,0.34357 -0.0529,0.11893 -0.11365,0.24579 -0.18236,0.37529 -0.0714,0.12951 -0.15329,0.26694 -0.24579,0.40701 -0.0925,0.14272 -0.2035,0.29072 -0.33301,0.44665 l -0.52329,0.64223 c -0.008,0.0106 -0.0185,0.0185 -0.0291,0.0264 -0.0132,0.005 -0.0291,0.0132 -0.0449,0.0185 -0.0185,0.005 -0.0397,0.008 -0.0634,0.0106 -0.0264,0.003 -0.0555,0.005 -0.0872,0.005 -0.037,0 -0.0687,-0.003 -0.0899,-0.005 -0.0238,-0.003 -0.0423,-0.008 -0.0555,-0.0159 -0.0106,-0.008 -0.0159,-0.0159 -0.0159,-0.0291 0.003,-0.0106 0.0106,-0.0264 0.0238,-0.0423 l 0.49422,-0.57087 -0.30129,-1.59631 c -0.003,-0.0132 -0.005,-0.0264 -0.005,-0.0396 -0.003,-0.0132 -0.003,-0.0211 -0.003,-0.0317 0,-0.0132 0.003,-0.0238 0.008,-0.0317 0.003,-0.0106 0.0132,-0.0185 0.0264,-0.0238 0.0132,-0.005 0.0317,-0.008 0.0529,-0.0106 0.0211,0 0.0502,-0.003 0.0819,-0.003 0.037,0 0.0661,0.003 0.0846,0.003 0.0212,0.003 0.037,0.005 0.0502,0.0106 0.0106,0.003 0.0185,0.0106 0.0238,0.0185 0.005,0.008 0.008,0.0185 0.008,0.0317 l 0.23786,1.33202 h 0.003 c 0.0846,-0.10572 0.15857,-0.21143 0.22729,-0.31979 0.0661,-0.111 0.12686,-0.222 0.185,-0.33301 0.0555,-0.111 0.10836,-0.22464 0.15593,-0.33829 0.0476,-0.11628 0.0925,-0.23257 0.13479,-0.34886 0.003,-0.0106 0.008,-0.0185 0.0132,-0.0238 0.008,-0.008 0.0185,-0.0132 0.0344,-0.0185 0.0132,-0.005 0.0317,-0.008 0.0555,-0.0106 0.0264,0 0.0555,-0.003 0.0925,-0.003 0.0608,0 0.10043,0.005 0.11893,0.0106 0.0212,0.008 0.0317,0.0185 0.0317,0.0344 z"
       id="path7390" />
    <path
       style="fill:none;stroke:#000000;stroke-width:0.211432px;stroke-linecap:round;stroke-linejoin:round;stroke-miterlimit:4;stroke-dasharray:none;stroke-opacity:1"
       d="m 671.52085,222.77652 v 1.77603"
       id="path7392" />
    <path
       style="fill:none;stroke:#000000;stroke-width:0.211432px;stroke-linecap:round;stroke-linejoin:round;stroke-miterlimit:4;stroke-dasharray:none;stroke-opacity:1"
       d="m 668.01108,219.26675 h -1.77603"
       id="path7394" />
    <path
       style="fill:#000000;fill-opacity:1;fill-rule:evenodd;stroke:none;stroke-width:0.264583"
       d="m 693.4675,223.13596 c 0.296,0 0.52858,0.23786 0.52858,0.52858 0,0.29601 -0.23258,0.52858 -0.52858,0.52858 -0.29072,0 -0.52858,-0.23257 -0.52858,-0.52858 0,-0.29072 0.23786,-0.52858 0.52858,-0.52858 z"
       id="path7396" />
    <path
       style="fill:#000000;fill-opacity:1;fill-rule:evenodd;stroke:none;stroke-width:0.264583"
       d="m 649.53192,209.9426 c 0.29337,0 0.52858,0.23786 0.52858,0.52858 0,0.29336 -0.23521,0.52858 -0.52858,0.52858 -0.29072,0 -0.52858,-0.23522 -0.52858,-0.52858 0,-0.29072 0.23786,-0.52858 0.52858,-0.52858 z"
       id="path7398" />
    <path
       style="fill:#000000;fill-opacity:1;fill-rule:evenodd;stroke:none;stroke-width:0.264583"
       d="m 675.87635,236.28703 c 0.29601,0 0.52859,0.23786 0.52859,0.52858 0,0.29601 -0.23258,0.52858 -0.52859,0.52858 -0.29072,0 -0.52858,-0.23257 -0.52858,-0.52858 0,-0.29072 0.23786,-0.52858 0.52858,-0.52858 z"
       id="path7400" />
    <path
       style="fill:#000000;fill-opacity:1;fill-rule:evenodd;stroke:none;stroke-width:0.264583"
       d="m 662.70414,223.13596 c 0.28279,0 0.50743,0.23786 0.50743,0.52858 0,0.29336 -0.22464,0.52858 -0.50743,0.52858 -0.28015,0 -0.50744,-0.23522 -0.50744,-0.52858 0,-0.29072 0.22729,-0.52858 0.50744,-0.52858 z"
       id="path7402" />
    <path
       style="fill:none;stroke:#000000;stroke-width:0.211432px;stroke-linecap:round;stroke-linejoin:round;stroke-miterlimit:4;stroke-dasharray:none;stroke-opacity:1"
       d="m 675.8975,236.8579 17.57,-13.19336 -43.93558,-13.19336 26.36558,26.38672"
       id="path7404" />
    <path
       style="fill:#000000;fill-opacity:1;fill-rule:nonzero;stroke:none;stroke-width:0.264583"
       d="m 672.14986,228.06761 c 0,0.0159 -0.005,0.0317 -0.005,0.0476 -0.005,0.0106 -0.0106,0.0264 -0.0159,0.0317 0,0.0106 -0.0106,0.0159 -0.0159,0.0159 -0.005,0.005 -0.0106,0.005 -0.0211,0.005 h -1.02544 c -0.005,0 -0.0106,0 -0.0211,-0.005 -0.005,0 -0.0106,-0.005 -0.0159,-0.0159 -0.005,-0.005 -0.0106,-0.0211 -0.0106,-0.0317 -0.005,-0.0159 -0.005,-0.0317 -0.005,-0.0476 0,-0.0211 0,-0.037 0.005,-0.0529 0,-0.0106 0.005,-0.0211 0.0106,-0.0317 0.005,-0.005 0.0106,-0.0159 0.0159,-0.0211 0.005,-0.005 0.0159,-0.005 0.0211,-0.005 h 0.41229 v -1.52231 l -0.38058,0.22729 c -0.0211,0.0106 -0.037,0.0211 -0.0476,0.0211 -0.0106,0 -0.0212,0 -0.0264,-0.005 -0.005,-0.0106 -0.0106,-0.0212 -0.0159,-0.037 0,-0.0159 -0.005,-0.0317 -0.005,-0.0581 0,-0.0159 0.005,-0.0317 0.005,-0.0423 0,-0.0159 0.005,-0.0264 0.005,-0.0317 0.005,-0.0106 0.0106,-0.0159 0.0159,-0.0211 0.005,-0.005 0.0106,-0.0159 0.0212,-0.0211 l 0.44929,-0.29601 c 0.005,0 0.0106,-0.005 0.0159,-0.005 0.005,-0.005 0.0159,-0.005 0.0211,-0.005 0.0106,-0.005 0.0211,-0.005 0.037,-0.005 0.0106,0 0.0264,0 0.0423,0 0.0264,0 0.0476,0 0.0634,0 0.0159,0.005 0.0264,0.005 0.037,0.0106 0.0106,0.005 0.0159,0.005 0.0159,0.0159 0.005,0.005 0.005,0.0106 0.005,0.0159 v 1.76017 h 0.35415 c 0.0106,0 0.0159,0 0.0264,0.005 0.005,0.005 0.0106,0.0159 0.0159,0.0211 0.005,0.0106 0.005,0.0211 0.0106,0.0317 0,0.0159 0.005,0.0317 0.005,0.0529 z"
       id="path7406" />
    <path
       style="fill:#000000;fill-opacity:1;fill-rule:nonzero;stroke:none;stroke-width:0.264583"
       d="m 665.55054,221.04542 c 0,0.0185 -0.003,0.0344 -0.005,0.0476 -0.003,0.0132 -0.008,0.0264 -0.0132,0.0344 -0.003,0.008 -0.0106,0.0132 -0.0159,0.0159 -0.008,0.005 -0.0132,0.005 -0.0212,0.005 h -1.02544 c -0.008,0 -0.0132,0 -0.0211,-0.005 -0.005,-0.003 -0.0106,-0.008 -0.0159,-0.0159 -0.005,-0.008 -0.0106,-0.0211 -0.0132,-0.0344 -0.003,-0.0132 -0.005,-0.0291 -0.005,-0.0476 0,-0.0185 0.003,-0.0344 0.005,-0.0502 0.003,-0.0132 0.008,-0.0238 0.0106,-0.0317 0.005,-0.008 0.0106,-0.0159 0.0185,-0.0211 0.005,-0.005 0.0132,-0.005 0.0211,-0.005 h 0.40965 v -1.52496 l -0.38058,0.22994 c -0.0185,0.0106 -0.0344,0.0185 -0.0449,0.0185 -0.0132,0.003 -0.0212,0 -0.0291,-0.005 -0.005,-0.008 -0.0106,-0.0185 -0.0132,-0.0344 -0.003,-0.0159 -0.005,-0.0344 -0.005,-0.0581 0,-0.0185 0.003,-0.0317 0.003,-0.0449 0.003,-0.0132 0.005,-0.0238 0.008,-0.0317 0.003,-0.008 0.008,-0.0159 0.0132,-0.0211 0.005,-0.005 0.0132,-0.0132 0.0211,-0.0185 l 0.45193,-0.296 c 0.005,-0.003 0.0106,-0.005 0.0159,-0.008 0.005,-0.003 0.0132,-0.003 0.0238,-0.005 0.008,-0.003 0.0185,-0.005 0.0317,-0.005 0.0106,0 0.0264,0 0.0449,0 0.0238,0 0.0449,0 0.0608,0.003 0.0159,0.003 0.0291,0.005 0.037,0.008 0.0106,0.005 0.0159,0.0106 0.0185,0.0159 0.003,0.005 0.005,0.0106 0.005,0.0159 v 1.76282 h 0.35415 c 0.008,0 0.0159,0 0.0238,0.005 0.005,0.005 0.0132,0.0132 0.0159,0.0211 0.005,0.008 0.008,0.0185 0.0106,0.0317 0.003,0.0159 0.005,0.0317 0.005,0.0502 z"
       id="path7408" />
    <path
       style="fill:#000000;fill-opacity:1;fill-rule:nonzero;stroke:none"
       clip-path="url(#clipEmfPath3-2)"
       d="m 430.20258,119.72713 c 0,0.0799 0.02,0.15983 0,0.21976 0,0.0599 -0.04,0.0999 -0.0999,0.13984 -0.0399,0.02 -0.13984,0.04 -0.23973,0.0599 -0.11987,0 -0.27969,0 -0.47947,0 -0.11986,0 -0.21975,0 -0.31964,0 -0.0999,0 -0.15983,-0.02 -0.21976,-0.04 -0.0399,0 -0.0799,-0.02 -0.0999,-0.0599 -0.02,-0.02 -0.0399,-0.0599 -0.0399,-0.0999 l -0.41954,-2.03774 h -4.63485 l -1.45839,2.01776 c -0.02,0.0599 -0.0599,0.0799 -0.0999,0.11987 -0.04,0.02 -0.0799,0.04 -0.15982,0.0599 -0.0599,0.02 -0.13984,0.04 -0.25971,0.04 -0.0999,0 -0.23973,0 -0.37958,0 -0.1798,0 -0.31964,0 -0.41953,0 -0.0999,-0.02 -0.1798,-0.04 -0.21976,-0.0599 -0.04,-0.04 -0.04,-0.0799 -0.04,-0.13984 0.02,-0.0599 0.0599,-0.13985 0.13984,-0.23973 l 5.79357,-7.77138 c 0.04,-0.0599 0.0799,-0.0999 0.13985,-0.11987 0.04,-0.04 0.0999,-0.0599 0.1798,-0.0799 0.0599,-0.02 0.15982,-0.02 0.27969,-0.04 0.11986,0 0.25971,0 0.41953,0 0.19978,0 0.33962,0 0.45949,0 0.11987,0.02 0.21976,0.02 0.27969,0.04 0.0799,0.02 0.11987,0.04 0.15982,0.0799 0.02,0.04 0.04,0.0799 0.0599,0.11987 z m -2.91676,-6.87237 v 0 l -3.01665,4.17537 h 3.85572 z"
       id="path7410"
       transform="matrix(0.26458333,0,0,0.26458333,582.39346,190.8628)" />
    <path
       style="fill:#000000;fill-opacity:1;fill-rule:nonzero;stroke:none;stroke-width:0.264583"
       d="m 648.45626,212.97929 c 0,0.0687 -0.0132,0.13479 -0.0396,0.19822 -0.0264,0.0608 -0.0634,0.11893 -0.11364,0.17179 -0.0476,0.0529 -0.10836,0.0978 -0.17708,0.13743 -0.0714,0.0423 -0.15065,0.074 -0.23786,0.10043 0.0661,0.008 0.1295,0.0264 0.18765,0.0502 0.0608,0.0238 0.111,0.0528 0.15328,0.0898 0.0397,0.0344 0.074,0.0793 0.0978,0.12686 0.0211,0.0502 0.0344,0.10308 0.0344,0.16386 0,0.0608 -0.0106,0.12158 -0.0344,0.18236 -0.0238,0.0608 -0.0555,0.11893 -0.10307,0.17444 -0.0449,0.0555 -0.10308,0.10571 -0.17179,0.15328 -0.0687,0.0476 -0.148,0.0899 -0.2405,0.12422 -0.0899,0.037 -0.19294,0.0634 -0.30658,0.0819 -0.11365,0.0211 -0.24579,0.0291 -0.39644,0.0291 h -0.82722 c -0.0555,0 -0.0951,-0.008 -0.12158,-0.0264 -0.0264,-0.0185 -0.0317,-0.0502 -0.0185,-0.0925 l 0.55765,-1.97689 c 0.0106,-0.0449 0.037,-0.0766 0.0766,-0.0951 0.0396,-0.0159 0.0819,-0.0264 0.12686,-0.0264 h 0.6713 c 0.15857,0 0.29335,0.0106 0.40171,0.0291 0.10572,0.0185 0.19558,0.0476 0.26694,0.0846 0.074,0.0344 0.12686,0.0793 0.16121,0.13479 0.037,0.0529 0.0529,0.11365 0.0529,0.185 z m -0.44136,0.0529 c 0,-0.037 -0.008,-0.0714 -0.0264,-0.10043 -0.0185,-0.0317 -0.0476,-0.0555 -0.0846,-0.0766 -0.0396,-0.0212 -0.0899,-0.037 -0.15065,-0.0502 -0.0608,-0.0132 -0.14007,-0.0185 -0.23786,-0.0185 h -0.44136 l -0.19822,0.71887 h 0.47044 c 0.12685,0 0.23257,-0.0159 0.3145,-0.0449 0.0819,-0.0291 0.148,-0.0687 0.20086,-0.11364 0.0529,-0.0476 0.0899,-0.0978 0.11629,-0.15329 0.0238,-0.0555 0.037,-0.111 0.037,-0.16122 z m -0.0951,1.00695 c 0,-0.0951 -0.0476,-0.16915 -0.14271,-0.22201 -0.0925,-0.0502 -0.24051,-0.0766 -0.43872,-0.0766 h -0.53387 l -0.21672,0.77965 h 0.58144 c 0.13215,0 0.24315,-0.0132 0.33565,-0.0396 0.0899,-0.0264 0.1665,-0.0608 0.22729,-0.10571 0.0608,-0.0449 0.10836,-0.0952 0.14007,-0.15329 0.0317,-0.0582 0.0476,-0.11893 0.0476,-0.18236 z"
       id="path7412" />
    <path
       style="fill:#000000;fill-opacity:1;fill-rule:nonzero;stroke:none;stroke-width:0.264583"
       d="m 674.95662,239.16251 c 0,0.0211 -0.005,0.0529 -0.0159,0.0899 -0.0106,0.0317 -0.0211,0.0634 -0.0423,0.0793 -0.0159,0.0212 -0.037,0.0317 -0.0529,0.0317 -0.0211,0 -0.0476,-0.0106 -0.0793,-0.0317 -0.0264,-0.0211 -0.0634,-0.0423 -0.11629,-0.0687 -0.0476,-0.0212 -0.111,-0.0476 -0.18501,-0.0687 -0.0793,-0.0211 -0.17443,-0.0317 -0.29071,-0.0317 -0.12686,0 -0.24315,0.0211 -0.34887,0.0581 -0.10571,0.0317 -0.19557,0.0846 -0.28014,0.14272 -0.0846,0.0634 -0.15858,0.13214 -0.22201,0.21143 -0.0634,0.0793 -0.11629,0.16386 -0.15857,0.25372 -0.0423,0.0846 -0.074,0.17443 -0.0951,0.26429 -0.0211,0.0899 -0.0317,0.17443 -0.0317,0.25372 0,0.0899 0.0159,0.16914 0.0423,0.24314 0.0317,0.0687 0.074,0.13215 0.13214,0.17972 0.0581,0.0476 0.13214,0.0846 0.21143,0.111 0.0846,0.0264 0.17972,0.037 0.28543,0.037 0.12158,0 0.22201,-0.0106 0.30658,-0.0264 0.0899,-0.0211 0.16386,-0.0423 0.22201,-0.0687 0.0634,-0.0264 0.11628,-0.0476 0.15328,-0.0687 0.0423,-0.0159 0.074,-0.0264 0.10043,-0.0264 0.0159,0 0.0317,0.005 0.037,0.0106 0.0106,0.0106 0.0106,0.0264 0.0106,0.0423 0,0.005 0,0.0159 0,0.0264 -0.005,0.0106 -0.005,0.0211 -0.0106,0.0317 0,0.0159 -0.005,0.0264 -0.0106,0.0423 -0.005,0.0159 -0.005,0.0317 -0.0159,0.0423 -0.005,0.0159 -0.0106,0.0264 -0.0159,0.037 -0.0106,0.0106 -0.0212,0.0211 -0.037,0.0317 -0.0159,0.0106 -0.0476,0.0317 -0.10043,0.0529 -0.0476,0.0211 -0.111,0.0423 -0.185,0.0634 -0.074,0.0212 -0.15858,0.037 -0.24844,0.0529 -0.0899,0.0106 -0.19029,0.0211 -0.29072,0.0211 -0.15857,0 -0.296,-0.0211 -0.42286,-0.0529 -0.12157,-0.037 -0.22729,-0.0899 -0.31715,-0.15329 -0.0899,-0.0687 -0.15329,-0.15329 -0.20086,-0.25372 -0.0476,-0.10572 -0.074,-0.222 -0.074,-0.34886 0,-0.11101 0.0159,-0.22201 0.0476,-0.33829 0.0264,-0.11101 0.074,-0.22729 0.13215,-0.33301 0.0581,-0.111 0.13214,-0.21143 0.222,-0.30658 0.0899,-0.0951 0.19557,-0.17971 0.31186,-0.25372 0.11629,-0.074 0.24844,-0.13214 0.39644,-0.16914 0.148,-0.0423 0.31186,-0.0634 0.48629,-0.0634 0.111,0 0.21672,0.0106 0.31186,0.0264 0.0951,0.0211 0.17972,0.0423 0.24844,0.074 0.0634,0.0264 0.11628,0.0529 0.148,0.074 0.0264,0.0211 0.0423,0.0476 0.0423,0.0793 z"
       id="path7414" />
    <path
       style="fill:#000000;fill-opacity:1;fill-rule:nonzero;stroke:none;stroke-width:0.264583"
       d="m 661.4514,226.26251 c 0,0.0582 -0.0106,0.12157 -0.0264,0.18765 -0.0185,0.0687 -0.0476,0.13214 -0.0872,0.19557 -0.037,0.0634 -0.0872,0.12422 -0.148,0.17972 -0.0582,0.0581 -0.13215,0.10572 -0.21672,0.15064 -0.0846,0.0423 -0.18236,0.0767 -0.29072,0.10044 -0.111,0.0264 -0.2405,0.037 -0.39115,0.037 h -0.38322 l -0.20086,0.8008 c -0.003,0.008 -0.008,0.0159 -0.0159,0.0238 -0.008,0.005 -0.0185,0.0106 -0.037,0.0159 -0.0159,0.003 -0.0344,0.008 -0.0581,0.0106 -0.0238,0.003 -0.0555,0.003 -0.0899,0.003 -0.0344,0 -0.0634,0 -0.0846,-0.003 -0.0238,-0.003 -0.0423,-0.005 -0.0555,-0.0106 -0.0132,-0.003 -0.0238,-0.008 -0.0291,-0.0159 -0.005,-0.005 -0.005,-0.0132 -0.003,-0.0238 l 0.51537,-2.04824 c 0.0106,-0.0449 0.0344,-0.0767 0.0714,-0.0978 0.0344,-0.0185 0.0766,-0.0291 0.12421,-0.0291 h 0.54972 c 0.0714,0 0.13743,0.003 0.19294,0.008 0.0555,0.003 0.10835,0.0106 0.15857,0.0185 0.0793,0.0132 0.148,0.0343 0.21143,0.0634 0.0634,0.0291 0.11629,0.0634 0.15858,0.10571 0.0423,0.0423 0.0766,0.0899 0.10043,0.14536 0.0211,0.0555 0.0344,0.11365 0.0344,0.18236 z m -0.39379,0.0291 c 0,-0.0713 -0.0211,-0.13214 -0.0661,-0.18236 -0.0423,-0.0502 -0.111,-0.0872 -0.2035,-0.10571 -0.0344,-0.008 -0.074,-0.0132 -0.11365,-0.0159 -0.0423,-0.003 -0.0872,-0.005 -0.13479,-0.005 h -0.34886 l -0.222,0.89066 h 0.3515 c 0.10308,0 0.19029,-0.008 0.26165,-0.0264 0.0687,-0.0185 0.13214,-0.0423 0.185,-0.074 0.0529,-0.0291 0.0978,-0.0634 0.13479,-0.10307 0.037,-0.0397 0.0661,-0.0819 0.0899,-0.12422 0.0211,-0.0423 0.0396,-0.0872 0.0502,-0.1295 0.0106,-0.0449 0.0159,-0.0872 0.0159,-0.12422 z"
       id="path7416" />
  </g>
</svg>
