<?xml version="1.0" encoding="UTF-8" standalone="no"?>
<!-- Created with Inkscape (http://www.inkscape.org/) -->

<svg
   width="81.655037mm"
   height="20.255192mm"
   viewBox="0 0 81.655028 20.255192"
   version="1.1"
   id="svg5"
   inkscape:version="1.2.2 (732a01da63, 2022-12-09)"
   sodipodi:docname="marzec2020z11.svg"
   xmlns:inkscape="http://www.inkscape.org/namespaces/inkscape"
   xmlns:sodipodi="http://sodipodi.sourceforge.net/DTD/sodipodi-0.dtd"
   xmlns="http://www.w3.org/2000/svg"
   xmlns:svg="http://www.w3.org/2000/svg">
  <sodipodi:namedview
     id="namedview7"
     pagecolor="#ffffff"
     bordercolor="#000000"
     borderopacity="0.25"
     inkscape:showpageshadow="2"
     inkscape:pageopacity="0.0"
     inkscape:pagecheckerboard="0"
     inkscape:deskcolor="#d1d1d1"
     inkscape:document-units="mm"
     showgrid="false"
     inkscape:zoom="1.829812"
     inkscape:cx="48.912128"
     inkscape:cy="24.865942"
     inkscape:window-width="1958"
     inkscape:window-height="1368"
     inkscape:window-x="2553"
     inkscape:window-y="127"
     inkscape:window-maximized="0"
     inkscape:current-layer="layer1" />
  <defs
     id="defs2">
    <clipPath
       clipPathUnits="userSpaceOnUse"
       id="clipEmfPath1">
      <path
         d="M 0,0 H 601.09294 V 344.25796 H 0 Z"
         id="path278" />
    </clipPath>
    <pattern
       id="EMFhbasepattern"
       patternUnits="userSpaceOnUse"
       width="6"
       height="6"
       x="0"
       y="0" />
    <clipPath
       clipPathUnits="userSpaceOnUse"
       id="clipEmfPath1-0">
      <path
         d="M 0,0 H 601.09294 V 281.60749 H 0 Z"
         id="path697" />
    </clipPath>
    <clipPath
       clipPathUnits="userSpaceOnUse"
       id="clipEmfPath2">
      <path
         d="m 316.92829,14.54386 h 52.58165 v 62.330828 h -52.58165 z"
         id="path700" />
    </clipPath>
    <clipPath
       clipPathUnits="userSpaceOnUse"
       id="clipEmfPath3">
      <path
         d="m 318.52734,15.34375 v 60.732422 h 24.45118 V 15.34375 Z"
         id="path703" />
    </clipPath>
    <clipPath
       clipPathUnits="userSpaceOnUse"
       id="clipEmfPath4">
      <path
         d="m 343.29883,15.34375 v 29.886719 h 24.61328 V 15.34375 Z"
         id="path706" />
    </clipPath>
    <clipPath
       clipPathUnits="userSpaceOnUse"
       id="clipEmfPath5">
      <path
         d="m 342.97852,46.029297 v 30.046875 h 24.45312 V 46.029297 Z"
         id="path709" />
    </clipPath>
    <pattern
       id="EMFhbasepattern-6"
       patternUnits="userSpaceOnUse"
       width="6"
       height="6"
       x="0"
       y="0" />
    <clipPath
       clipPathUnits="userSpaceOnUse"
       id="clipEmfPath1-4">
      <path
         d="M 0,0 H 601.09294 V 221.51418 H 0 Z"
         id="path1547" />
    </clipPath>
    <pattern
       id="EMFhbasepattern-7"
       patternUnits="userSpaceOnUse"
       width="6"
       height="6"
       x="0"
       y="0" />
    <clipPath
       clipPathUnits="userSpaceOnUse"
       id="clipEmfPath1-6">
      <path
         d="M 0,0 H 686.11858 V 297.42993 H 0 Z"
         id="path1856" />
    </clipPath>
    <pattern
       id="EMFhbasepattern-0"
       patternUnits="userSpaceOnUse"
       width="6"
       height="6"
       x="0"
       y="0" />
    <clipPath
       clipPathUnits="userSpaceOnUse"
       id="clipEmfPath1-5">
      <path
         d="M -236.05804,0 H 450.06055 V 160.46193 H -236.05804 Z"
         id="path2132" />
    </clipPath>
    <pattern
       id="EMFhbasepattern-4"
       patternUnits="userSpaceOnUse"
       width="6"
       height="6"
       x="0"
       y="0" />
    <clipPath
       clipPathUnits="userSpaceOnUse"
       id="clipEmfPath1-7">
      <path
         d="M 0,0 H 686.11858 V 194.98362 H 0 Z"
         id="path2256" />
    </clipPath>
    <pattern
       id="EMFhbasepattern-1"
       patternUnits="userSpaceOnUse"
       width="6"
       height="6"
       x="0"
       y="0" />
    <clipPath
       clipPathUnits="userSpaceOnUse"
       id="clipEmfPath1-00">
      <path
         d="M 0,0 H 686.11858 V 131.53403 H 0 Z"
         id="path2517" />
    </clipPath>
    <pattern
       id="EMFhbasepattern-8"
       patternUnits="userSpaceOnUse"
       width="6"
       height="6"
       x="0"
       y="0" />
  </defs>
  <g
     inkscape:label="Warstwa 1"
     inkscape:groupmode="layer"
     id="layer1"
     transform="translate(-171.72744,-164.4373)">
    <text
       xml:space="preserve"
       style="font-style:normal;font-variant:normal;font-weight:400;font-size:3.88607px;line-height:125%;font-family:Calibri;text-align:start;letter-spacing:0px;word-spacing:0px;text-anchor:start;fill:#000000;fill-opacity:1;stroke:none;stroke-width:0.264583"
       x="93.570335"
       y="195.32385"
       id="text2280"><tspan
         sodipodi:role="line"
         x="93.570335"
         y="195.32385"
         id="tspan2278"
         style="stroke-width:0.264583"><tspan
           dx="0"
           dy="0"
           style="font-style:normal;font-variant:normal;font-weight:400;font-size:3.88607px;font-family:Calibri;fill:#000000;stroke-width:0.264583"
           id="tspan2276"> </tspan></tspan></text>
    <text
       xml:space="preserve"
       style="font-style:normal;font-variant:normal;font-weight:400;font-size:3.88607px;line-height:125%;font-family:Calibri;text-align:start;letter-spacing:0px;word-spacing:0px;text-anchor:start;fill:#000000;fill-opacity:1;stroke:none;stroke-width:0.264583"
       x="253.27678"
       y="184.58678"
       id="text2535"><tspan
         sodipodi:role="line"
         x="253.27678"
         y="184.58678"
         id="tspan2533"
         style="stroke-width:0.264583"><tspan
           dx="0"
           dy="0"
           style="font-style:normal;font-variant:normal;font-weight:400;font-size:3.88607px;font-family:Calibri;fill:#181717;stroke-width:0.264583"
           id="tspan2531"> </tspan></tspan></text>
    <path
       style="fill:#cccccc;fill-opacity:1;fill-rule:evenodd;stroke:none;stroke-width:0.264583"
       d="m 224.91845,164.52188 h 28.33718 l -20.03318,20.04375 h -28.34247 z"
       id="path2537" />
    <path
       style="fill:none;stroke:#000000;stroke-width:0.211432px;stroke-linecap:round;stroke-linejoin:round;stroke-miterlimit:4;stroke-dasharray:none;stroke-opacity:1"
       d="m 171.83316,184.58678 h 61.40515 l 20.03847,-20.04376 H 224.9396 l -20.03847,20.04376"
       id="path2539" />
    <path
       style="fill:none;stroke:#000000;stroke-width:0.211432px;stroke-linecap:round;stroke-linejoin:round;stroke-miterlimit:4;stroke-dasharray:none;stroke-opacity:1"
       d="m 219.23622,170.23054 c 2.30461,2.29404 5.76681,2.98119 8.77443,1.73903 3.00762,-1.24216 4.96865,-4.17578 4.96865,-7.42655"
       id="path2541" />
    <path
       style="fill:#000000;fill-opacity:1;fill-rule:nonzero;stroke:none;stroke-width:0.264583"
       d="m 226.1659,167.57178 c 0.10043,0 0.18501,0.0106 0.25901,0.037 0.074,0.0211 0.13743,0.0529 0.185,0.0951 0.0476,0.037 0.0846,0.0846 0.10572,0.13743 0.0264,0.0581 0.037,0.11629 0.037,0.17972 0,0.0634 -0.0106,0.12157 -0.0317,0.17971 -0.0159,0.0582 -0.0476,0.11101 -0.0899,0.16386 -0.0476,0.0476 -0.10043,0.10043 -0.16914,0.14272 -0.0687,0.0476 -0.148,0.0899 -0.24843,0.12686 0.0687,0.0106 0.12686,0.037 0.17971,0.0687 0.0529,0.0317 0.0951,0.0793 0.13743,0.13215 0.037,0.0529 0.0634,0.111 0.0846,0.17972 0.0211,0.0687 0.0264,0.14271 0.0264,0.222 0,0.0687 -0.005,0.14272 -0.0212,0.21672 -0.0159,0.0793 -0.0423,0.15857 -0.074,0.23257 -0.037,0.0793 -0.0793,0.15329 -0.13214,0.22201 -0.0581,0.0687 -0.12158,0.13214 -0.20086,0.185 -0.0793,0.0529 -0.16915,0.0951 -0.27487,0.12686 -0.10042,0.0317 -0.222,0.0476 -0.34886,0.0476 -0.11628,0 -0.222,-0.0106 -0.30658,-0.037 -0.0846,-0.0264 -0.15857,-0.0687 -0.21671,-0.12686 -0.0581,-0.0581 -0.10043,-0.13214 -0.13215,-0.222 -0.0264,-0.0951 -0.0423,-0.20086 -0.0423,-0.33301 0,-0.0793 0.005,-0.16914 0.0159,-0.26957 0.0106,-0.10043 0.0264,-0.20086 0.0529,-0.31187 0.0212,-0.10571 0.0529,-0.21671 0.0899,-0.32772 0.037,-0.111 0.0793,-0.21671 0.12686,-0.32243 0.0529,-0.10043 0.111,-0.20086 0.17443,-0.29072 0.0687,-0.0899 0.14272,-0.16914 0.222,-0.23786 0.0793,-0.0634 0.16915,-0.11629 0.26958,-0.15857 0.10043,-0.037 0.20615,-0.0581 0.32243,-0.0581 z m -0.84044,1.36374 c -0.0159,0.0529 -0.0264,0.10572 -0.037,0.15857 -0.0106,0.0529 -0.0211,0.10572 -0.0264,0.15858 -0.0106,0.0529 -0.0159,0.10043 -0.0211,0.15329 0,0.0476 -0.005,0.0951 -0.005,0.13743 0,0.074 0.0106,0.13743 0.0211,0.19029 0.0159,0.0581 0.037,0.10571 0.0687,0.148 0.0317,0.037 0.074,0.0687 0.12686,0.0899 0.0476,0.0159 0.111,0.0264 0.185,0.0264 0.0846,0 0.15858,-0.0106 0.22201,-0.037 0.0634,-0.0211 0.12157,-0.0529 0.16914,-0.0951 0.0476,-0.037 0.0899,-0.0846 0.12158,-0.13743 0.0317,-0.0476 0.0581,-0.10043 0.0793,-0.15857 0.0211,-0.0529 0.037,-0.10572 0.0423,-0.15858 0.0106,-0.0529 0.0159,-0.10043 0.0159,-0.14272 0,-0.0581 -0.005,-0.11628 -0.0212,-0.16914 -0.0159,-0.0529 -0.037,-0.10043 -0.0634,-0.14272 -0.0317,-0.037 -0.0687,-0.0687 -0.11629,-0.0951 -0.0423,-0.0264 -0.10043,-0.037 -0.16386,-0.037 -0.0476,0 -0.0951,0.005 -0.13743,0.0106 -0.0476,0.005 -0.0899,0.0106 -0.13215,0.0211 -0.0476,0.0106 -0.0951,0.0212 -0.148,0.0317 -0.0529,0.0159 -0.111,0.0317 -0.17972,0.0476 z m 0.0687,-0.259 c 0.21672,-0.0529 0.39115,-0.10044 0.52329,-0.15329 0.13215,-0.0476 0.23786,-0.10043 0.30658,-0.14801 0.074,-0.0529 0.12157,-0.10571 0.148,-0.15328 0.0211,-0.0529 0.037,-0.10572 0.037,-0.15858 0,-0.0687 -0.0211,-0.12157 -0.0687,-0.16386 -0.0476,-0.0423 -0.11629,-0.0634 -0.21144,-0.0634 -0.0846,0 -0.16386,0.0212 -0.23786,0.0634 -0.074,0.0423 -0.14271,0.10572 -0.20086,0.17972 -0.0634,0.074 -0.11629,0.16386 -0.16914,0.26958 -0.0476,0.10043 -0.0899,0.21143 -0.12686,0.32772 z"
       id="path2543" />
    <path
       style="fill:none;stroke:#000000;stroke-width:0.211432px;stroke-linecap:round;stroke-linejoin:round;stroke-miterlimit:4;stroke-dasharray:none;stroke-opacity:1"
       d="m 213.4007,184.58678 c 0,-1.11531 -0.21672,-2.21475 -0.64487,-3.24549 -0.42815,-1.03073 -1.05716,-1.96631 -1.85003,-2.75918"
       id="path2545" />
    <path
       style="fill:#000000;fill-opacity:1;fill-rule:nonzero;stroke:none;stroke-width:0.264583"
       d="m 211.10137,184.04234 c 0,0.005 0,0.0106 -0.005,0.0211 0,0.0159 0,0.0264 -0.005,0.037 0,0.0159 -0.005,0.0317 -0.0106,0.0476 0,0.0106 -0.005,0.0264 -0.0106,0.037 -0.005,0.0159 -0.0106,0.0264 -0.0159,0.037 -0.005,0.0159 -0.0159,0.0211 -0.0211,0.0317 -0.005,0.005 -0.0212,0.0106 -0.037,0.0159 -0.0159,0.005 -0.0317,0.0106 -0.0582,0.0159 -0.0211,0.005 -0.0476,0.0106 -0.074,0.0159 -0.0317,0.005 -0.0529,0.005 -0.0793,0.005 -0.0793,0 -0.14272,-0.0106 -0.1903,-0.0264 -0.0528,-0.0211 -0.0898,-0.0476 -0.11628,-0.0793 -0.0264,-0.0317 -0.0476,-0.0793 -0.0582,-0.13743 -0.0159,-0.0529 -0.0159,-0.13214 -0.005,-0.22729 -0.0581,0.0846 -0.12686,0.15858 -0.20615,0.22201 -0.0793,0.0634 -0.15329,0.111 -0.22729,0.148 -0.0687,0.037 -0.13743,0.0634 -0.20086,0.0793 -0.0687,0.0159 -0.13214,0.0212 -0.19029,0.0212 -0.10571,0 -0.20086,-0.0106 -0.27486,-0.0423 -0.0793,-0.0264 -0.14271,-0.0687 -0.185,-0.12686 -0.0476,-0.0529 -0.0846,-0.11629 -0.10572,-0.185 -0.0211,-0.074 -0.0317,-0.15329 -0.0317,-0.24843 0,-0.0846 0.0106,-0.17443 0.0264,-0.26429 0.0159,-0.0951 0.0423,-0.18501 0.074,-0.28015 0.037,-0.0899 0.0793,-0.185 0.13743,-0.26958 0.0581,-0.0899 0.12686,-0.16914 0.20086,-0.23786 0.0793,-0.0634 0.17443,-0.12157 0.28543,-0.15857 0.10572,-0.0423 0.22729,-0.0634 0.35415,-0.0634 0.10043,0 0.185,0.0159 0.26429,0.0423 0.074,0.0264 0.13743,0.0687 0.19029,0.13214 0.0529,0.0634 0.0899,0.14272 0.111,0.24843 0.0212,0.10043 0.0264,0.20615 0.0159,0.31715 0.0159,-0.0529 0.037,-0.10572 0.0581,-0.15329 0.0211,-0.0476 0.0476,-0.0951 0.074,-0.148 0.0211,-0.0581 0.0476,-0.11629 0.0687,-0.17443 0.0264,-0.0582 0.0476,-0.12157 0.0634,-0.17972 0.005,-0.0106 0.0106,-0.0211 0.0159,-0.0264 0.0106,-0.005 0.0211,-0.0159 0.0317,-0.0211 0.0159,-0.005 0.0317,-0.005 0.0582,-0.0106 0.0211,0 0.0476,0 0.0846,0 0.0317,0 0.0634,0 0.0846,0 0.0211,0.005 0.037,0.005 0.0529,0.0106 0.0106,0.005 0.0211,0.0159 0.0211,0.0211 0.005,0.005 0.005,0.0159 0,0.0264 -0.0317,0.10043 -0.074,0.20086 -0.111,0.29072 -0.0423,0.0951 -0.0846,0.17972 -0.12686,0.26958 -0.0476,0.0846 -0.0951,0.16914 -0.14271,0.24843 -0.0476,0.0793 -0.10572,0.15857 -0.16915,0.24843 0,0.0476 0,0.0846 0,0.10043 0,0.0159 0,0.0476 0,0.0951 0,0.0476 0.005,0.0899 0.0106,0.12685 0.005,0.0423 0.0159,0.074 0.0264,0.0951 0.0159,0.0264 0.0317,0.037 0.0476,0.0423 0.0159,0.005 0.037,0.0106 0.0634,0.0106 0.0211,0 0.0476,0 0.074,-0.005 0.0211,-0.005 0.0423,-0.0106 0.0582,-0.0159 0.0159,0 0.0317,-0.005 0.0476,-0.0106 0.0106,-0.005 0.0264,-0.005 0.0317,-0.005 0.0159,0 0.0264,0.0106 0.0264,0.037 z m -0.73472,-0.76644 c 0,-0.14801 -0.0106,-0.25901 -0.0264,-0.32772 -0.0212,-0.0687 -0.0423,-0.12158 -0.0687,-0.15858 -0.0264,-0.0317 -0.0529,-0.0581 -0.0899,-0.074 -0.037,-0.0159 -0.0846,-0.0211 -0.13214,-0.0211 -0.0793,0 -0.148,0.0159 -0.21672,0.0476 -0.0634,0.0317 -0.11629,0.074 -0.16914,0.12686 -0.0476,0.0529 -0.0899,0.111 -0.12686,0.17972 -0.037,0.0687 -0.0687,0.13743 -0.0952,0.21143 -0.0264,0.0687 -0.0423,0.13743 -0.0529,0.21143 -0.0158,0.074 -0.0211,0.13743 -0.0211,0.20086 0,0.0582 0.005,0.111 0.0159,0.15858 0.0106,0.0476 0.0317,0.0898 0.0529,0.12157 0.0264,0.0317 0.0581,0.0581 0.0951,0.074 0.037,0.0106 0.0793,0.0211 0.12686,0.0211 0.0634,0 0.12686,-0.0159 0.19557,-0.0476 0.0687,-0.0317 0.13743,-0.074 0.20086,-0.13214 0.0687,-0.0529 0.12686,-0.11101 0.17443,-0.16915 0.0529,-0.0634 0.0846,-0.10572 0.10572,-0.13214 0.0211,-0.0264 0.0317,-0.0423 0.0317,-0.0476 0,0 0,-0.0846 0,-0.24314 z"
       id="path2547" />
    <path
       style="fill:none;stroke:#000000;stroke-width:0.211432px;stroke-linecap:round;stroke-linejoin:round;stroke-miterlimit:4;stroke-dasharray:none;stroke-opacity:1"
       d="m 195.42897,184.58678 c 0,-3.81635 2.3099,-7.26269 5.8461,-8.72686 3.5362,-1.46417 7.60098,-0.65544 10.30731,2.05089"
       id="path2549" />
    <path
       style="fill:#000000;fill-opacity:1;fill-rule:nonzero;stroke:none;stroke-width:0.264583"
       d="m 202.0838,181.86987 c 0,0.0238 -0.003,0.0423 -0.005,0.0555 -0.005,0.0159 -0.008,0.0264 -0.0132,0.037 -0.008,0.008 -0.0132,0.0159 -0.0212,0.0185 -0.008,0.005 -0.0132,0.005 -0.0211,0.005 h -1.13645 c -0.008,0 -0.0159,0 -0.0211,-0.005 -0.008,-0.003 -0.0132,-0.0106 -0.0185,-0.0185 -0.008,-0.0106 -0.0132,-0.0212 -0.0159,-0.037 -0.003,-0.0132 -0.005,-0.0317 -0.005,-0.0555 0,-0.0185 0.003,-0.037 0.005,-0.0529 0.003,-0.0132 0.008,-0.0264 0.0132,-0.037 0.005,-0.008 0.0106,-0.0159 0.0185,-0.0212 0.008,-0.005 0.0159,-0.008 0.0238,-0.008 h 0.45458 v -1.68617 l -0.42022,0.25636 c -0.0211,0.0106 -0.0396,0.0159 -0.0529,0.0185 -0.0106,0.003 -0.0211,0 -0.0291,-0.008 -0.008,-0.005 -0.0132,-0.0185 -0.0159,-0.037 -0.003,-0.0159 -0.005,-0.037 -0.005,-0.0634 0,-0.0212 0,-0.037 0.003,-0.0502 0.003,-0.0132 0.005,-0.0238 0.008,-0.0344 0.003,-0.008 0.008,-0.0159 0.0132,-0.0238 0.008,-0.008 0.0159,-0.0132 0.0238,-0.0212 l 0.50215,-0.32772 c 0.005,-0.003 0.0106,-0.005 0.0159,-0.008 0.008,-0.003 0.0159,-0.005 0.0264,-0.005 0.0106,-0.003 0.0211,-0.005 0.0343,-0.005 0.0132,0 0.0317,0 0.0502,0 0.0264,0 0.0502,0 0.0687,0.003 0.0159,0.003 0.0317,0.005 0.0396,0.008 0.0106,0.005 0.0185,0.0106 0.0211,0.0159 0.003,0.008 0.005,0.0132 0.005,0.0212 v 1.94781 h 0.39379 c 0.008,0 0.0159,0.003 0.0238,0.008 0.008,0.005 0.0159,0.0132 0.0212,0.0212 0.003,0.0106 0.008,0.0238 0.0106,0.037 0.003,0.0159 0.005,0.0343 0.005,0.0529 z m 1.70995,-0.51536 c 0,0.10043 -0.0159,0.19293 -0.0502,0.27486 -0.037,0.0819 -0.0846,0.15065 -0.15065,0.20879 -0.0661,0.0581 -0.14536,0.10307 -0.2405,0.13479 -0.0952,0.0317 -0.20351,0.0476 -0.32244,0.0476 -0.0713,0 -0.14007,-0.005 -0.2035,-0.0185 -0.0634,-0.0132 -0.11893,-0.0264 -0.16915,-0.0423 -0.0502,-0.0159 -0.0899,-0.0344 -0.12157,-0.0529 -0.0343,-0.0159 -0.0529,-0.0291 -0.0634,-0.037 -0.008,-0.008 -0.0132,-0.0159 -0.0185,-0.0238 -0.005,-0.008 -0.008,-0.0185 -0.0106,-0.0291 -0.005,-0.0132 -0.005,-0.0264 -0.008,-0.0423 -0.003,-0.0185 -0.003,-0.037 -0.003,-0.0608 0,-0.0423 0.003,-0.0714 0.0106,-0.0872 0.0106,-0.0159 0.0211,-0.0238 0.037,-0.0238 0.008,0 0.0291,0.0106 0.0608,0.0291 0.0291,0.0185 0.0687,0.037 0.11628,0.0582 0.0476,0.0211 0.10308,0.0396 0.16651,0.0581 0.0634,0.0185 0.13479,0.0291 0.21407,0.0291 0.074,0 0.14272,-0.0106 0.19822,-0.0291 0.0581,-0.0211 0.10572,-0.0476 0.14536,-0.0819 0.0396,-0.037 0.0687,-0.0793 0.0872,-0.12686 0.0211,-0.0476 0.0291,-0.10043 0.0291,-0.15857 0,-0.0634 -0.0106,-0.11893 -0.037,-0.16915 -0.0238,-0.0502 -0.0608,-0.0951 -0.10836,-0.13214 -0.0476,-0.0344 -0.10572,-0.0634 -0.17708,-0.0819 -0.0687,-0.0212 -0.15064,-0.0291 -0.23786,-0.0291 h -0.21407 c -0.008,0 -0.0185,-0.003 -0.0264,-0.008 -0.008,-0.003 -0.0159,-0.0106 -0.0238,-0.0185 -0.005,-0.0106 -0.0106,-0.0212 -0.0159,-0.037 -0.003,-0.0132 -0.005,-0.0344 -0.005,-0.0582 0,-0.0211 0.003,-0.0396 0.005,-0.0529 0.003,-0.0159 0.008,-0.0264 0.0132,-0.0344 0.008,-0.008 0.0132,-0.0159 0.0211,-0.0185 0.008,-0.005 0.0185,-0.008 0.0291,-0.008 h 0.18764 c 0.074,0 0.14007,-0.008 0.20086,-0.0291 0.0581,-0.0185 0.10836,-0.0476 0.148,-0.0819 0.0423,-0.037 0.074,-0.0819 0.0952,-0.13214 0.0211,-0.0502 0.0317,-0.10836 0.0317,-0.16915 0,-0.0476 -0.008,-0.0898 -0.0211,-0.13214 -0.0159,-0.0423 -0.037,-0.0793 -0.0661,-0.10836 -0.0291,-0.0317 -0.0661,-0.0555 -0.111,-0.074 -0.0449,-0.0185 -0.0978,-0.0264 -0.15594,-0.0264 -0.0661,0 -0.12686,0.0106 -0.17971,0.0291 -0.0555,0.0212 -0.10307,0.0423 -0.14536,0.0661 -0.0423,0.0212 -0.0793,0.0449 -0.10572,0.0634 -0.0291,0.0212 -0.0476,0.0291 -0.0581,0.0291 -0.008,0 -0.0159,0 -0.0212,-0.003 -0.008,-0.003 -0.0132,-0.008 -0.0159,-0.0185 -0.005,-0.008 -0.008,-0.0185 -0.008,-0.0343 -0.003,-0.0159 -0.003,-0.037 -0.003,-0.0608 0,-0.0185 0,-0.0317 0,-0.0449 0.003,-0.0132 0.005,-0.0264 0.008,-0.0344 0.003,-0.0106 0.008,-0.0185 0.0106,-0.0264 0.005,-0.008 0.0132,-0.0185 0.0238,-0.0291 0.0106,-0.0106 0.0317,-0.0264 0.0634,-0.0476 0.0344,-0.0211 0.074,-0.0396 0.12158,-0.0608 0.0476,-0.0211 0.10307,-0.037 0.16385,-0.0502 0.0634,-0.0132 0.12951,-0.0212 0.20087,-0.0212 0.10043,0 0.19028,0.0132 0.26693,0.0396 0.074,0.0264 0.13743,0.0634 0.19029,0.111 0.0502,0.0476 0.0872,0.10571 0.11364,0.17179 0.0238,0.0687 0.037,0.14271 0.037,0.222 0,0.0714 -0.008,0.13479 -0.0264,0.19558 -0.0185,0.0608 -0.0449,0.11364 -0.0793,0.15857 -0.0344,0.0476 -0.0767,0.0872 -0.12686,0.11893 -0.0502,0.0317 -0.10836,0.0555 -0.17443,0.0687 v 0.003 c 0.074,0.008 0.14271,0.0264 0.20614,0.0581 0.0608,0.0291 0.11365,0.0661 0.15858,0.11365 0.0449,0.0449 0.0793,0.0978 0.10571,0.15857 0.0264,0.0608 0.037,0.12686 0.037,0.19822 z m 1.74167,-0.0793 c 0,0.11893 -0.0211,0.22465 -0.0581,0.31715 -0.0396,0.0925 -0.0951,0.16914 -0.1665,0.23257 -0.0714,0.0634 -0.15858,0.11101 -0.25636,0.14536 -0.10043,0.0344 -0.20879,0.0502 -0.33037,0.0502 -0.0687,0 -0.13214,-0.005 -0.19293,-0.0159 -0.0581,-0.008 -0.11364,-0.0211 -0.16122,-0.0344 -0.0449,-0.0159 -0.0846,-0.0291 -0.11364,-0.0423 -0.0317,-0.0132 -0.0502,-0.0264 -0.0581,-0.0344 -0.008,-0.008 -0.0159,-0.0132 -0.0185,-0.0211 -0.003,-0.008 -0.005,-0.0159 -0.008,-0.0238 -0.005,-0.0106 -0.005,-0.0238 -0.008,-0.037 0,-0.0159 0,-0.0344 0,-0.0529 0,-0.0211 0,-0.037 0.003,-0.0529 0,-0.0159 0.003,-0.0291 0.008,-0.037 0.005,-0.0106 0.0106,-0.0185 0.0159,-0.0238 0.005,-0.003 0.0132,-0.005 0.0211,-0.005 0.0106,0 0.0291,0.008 0.0529,0.0211 0.0238,0.0132 0.0555,0.0291 0.0951,0.0449 0.0396,0.0185 0.0872,0.0344 0.148,0.0476 0.0582,0.0159 0.12686,0.0238 0.2088,0.0238 0.074,0 0.14271,-0.0106 0.20614,-0.0291 0.0634,-0.0185 0.11629,-0.0449 0.16122,-0.0846 0.0449,-0.0396 0.0819,-0.0872 0.10836,-0.148 0.0238,-0.0582 0.037,-0.12951 0.037,-0.21408 0,-0.0714 -0.0106,-0.13214 -0.0317,-0.18765 -0.0211,-0.0528 -0.0555,-0.10043 -0.10043,-0.13478 -0.0476,-0.037 -0.10307,-0.0634 -0.17179,-0.0819 -0.0713,-0.0159 -0.15328,-0.0264 -0.25107,-0.0264 -0.0661,0 -0.12686,0.005 -0.17443,0.0106 -0.0502,0.008 -0.0951,0.0106 -0.13743,0.0106 -0.0317,0 -0.0555,-0.008 -0.0687,-0.0211 -0.0132,-0.0159 -0.0185,-0.0449 -0.0185,-0.0872 v -0.90123 c 0,-0.0396 0.008,-0.0661 0.0238,-0.0846 0.0185,-0.0185 0.0423,-0.0291 0.0766,-0.0291 h 0.96202 c 0.008,0 0.0185,0.003 0.0264,0.008 0.008,0.005 0.0159,0.0132 0.0212,0.0238 0.005,0.0106 0.008,0.0238 0.0106,0.0396 0.003,0.0159 0.005,0.0343 0.005,0.0555 0,0.0423 -0.005,0.074 -0.0159,0.0978 -0.0106,0.0212 -0.0264,0.0344 -0.0449,0.0344 h -0.77701 v 0.62108 c 0.037,-0.005 0.0766,-0.008 0.11628,-0.0106 0.0396,0 0.0846,0 0.13479,0 0.12158,0 0.22465,0.0132 0.31451,0.0449 0.0899,0.0291 0.16386,0.0714 0.22464,0.12686 0.0608,0.0555 0.10572,0.12422 0.13479,0.2035 0.0317,0.0767 0.0476,0.16386 0.0476,0.26165 z"
       id="path2551" />
    <path
       style="fill:#000000;fill-opacity:1;fill-rule:nonzero;stroke:none;stroke-width:0.264583"
       d="m 206.75644,179.48333 c 0,0.0846 -0.0396,0.15594 -0.12157,0.21408 -0.0819,0.0581 -0.18236,0.0872 -0.29865,0.0872 -0.11628,0 -0.21407,-0.0291 -0.29864,-0.0872 -0.0819,-0.0581 -0.12158,-0.1295 -0.12158,-0.21408 0,-0.0819 0.0397,-0.15064 0.12158,-0.20878 0.0819,-0.0608 0.17971,-0.0899 0.29864,-0.0899 0.11365,0 0.21408,0.0291 0.29601,0.0899 0.0819,0.0581 0.12421,0.12685 0.12421,0.20878 z m -0.71358,0 c 0,0.0608 0.0291,0.10836 0.0846,0.15065 0.0582,0.0396 0.12951,0.0608 0.20879,0.0608 0.0846,0 0.15329,-0.0211 0.20879,-0.0608 0.0555,-0.0423 0.0846,-0.0899 0.0846,-0.15065 0,-0.0581 -0.0291,-0.10571 -0.0872,-0.148 -0.0555,-0.0396 -0.12686,-0.0608 -0.20879,-0.0608 -0.0793,0 -0.148,0.0211 -0.20615,0.0634 -0.0555,0.0396 -0.0846,0.0898 -0.0846,0.14535 z"
       id="path2553" />
  </g>
</svg>
