<?xml version="1.0" encoding="UTF-8" standalone="no"?>

<svg
   viewBox="0 0 33.406274 33.152541"
   version="1.1"
   id="svg5"
   inkscape:version="1.2.2 (732a01da63, 2022-12-09)"
   sodipodi:docname="marzec 2020 - zad. 14.svg"
   xmlns:inkscape="http://www.inkscape.org/namespaces/inkscape"
   xmlns:sodipodi="http://sodipodi.sourceforge.net/DTD/sodipodi-0.dtd"
   xmlns="http://www.w3.org/2000/svg"
   xmlns:svg="http://www.w3.org/2000/svg">
  <sodipodi:namedview
     id="namedview7"
     pagecolor="#ffffff"
     bordercolor="#000000"
     borderopacity="0.25"
     inkscape:showpageshadow="2"
     inkscape:pageopacity="0.0"
     inkscape:pagecheckerboard="0"
     inkscape:deskcolor="#d1d1d1"
     inkscape:document-units="mm"
     showgrid="false"
     inkscape:zoom="0.914906"
     inkscape:cx="-333.91408"
     inkscape:cy="120.77743"
     inkscape:window-width="1379"
     inkscape:window-height="1230"
     inkscape:window-x="2607"
     inkscape:window-y="186"
     inkscape:window-maximized="0"
     inkscape:current-layer="layer1" />
  <defs
     id="defs2">
    <clipPath
       clipPathUnits="userSpaceOnUse"
       id="clipEmfPath1">
      <path
         d="M 0,0 H 601.09294 V 161.42086 H 0 Z"
         id="path9" />
    </clipPath>
    <pattern
       id="EMFhbasepattern"
       patternUnits="userSpaceOnUse"
       width="6"
       height="6"
       x="0"
       y="0" />
    <clipPath
       clipPathUnits="userSpaceOnUse"
       id="clipEmfPath1-9">
      <path
         d="M 0,0 H 601.09294 V 148.47523 H 0 Z"
         id="path390" />
    </clipPath>
    <pattern
       id="EMFhbasepattern-3"
       patternUnits="userSpaceOnUse"
       width="6"
       height="6"
       x="0"
       y="0" />
    <clipPath
       clipPathUnits="userSpaceOnUse"
       id="clipEmfPath1-1">
      <path
         d="m 200.09794,0.79911319 h 50.34413 V 100.04897 h -50.34413 z"
         id="path580" />
    </clipPath>
    <clipPath
       clipPathUnits="userSpaceOnUse"
       id="clipEmfPath2">
      <path
         d="M 200.09766,100.04883 V 0.79882812 h 50.34375 -50.34375 z"
         id="path583" />
    </clipPath>
    <clipPath
       clipPathUnits="userSpaceOnUse"
       id="clipEmfPath3">
      <path
         d="M 250.44207,0.79911319 H 354.00714 V 100.04897 H 250.44207 Z"
         id="path586" />
    </clipPath>
    <clipPath
       clipPathUnits="userSpaceOnUse"
       id="clipEmfPath4">
      <path
         d="M 269.78125,67.605469 V 99.25 h 31.00586 V 67.605469 Z"
         id="path589" />
    </clipPath>
    <clipPath
       clipPathUnits="userSpaceOnUse"
       id="clipEmfPath5">
      <path
         d="M 301.58594,67.605469 V 99.25 h 30.8457 V 67.605469 Z"
         id="path592" />
    </clipPath>
    <clipPath
       clipPathUnits="userSpaceOnUse"
       id="clipEmfPath6">
      <path
         d="m 354.00714,0.79911319 h 132.0135 V 100.04897 h -132.0135 z"
         id="path595" />
    </clipPath>
    <clipPath
       clipPathUnits="userSpaceOnUse"
       id="clipEmfPath7">
      <path
         d="M 354.00781,100.04883 V 0.79882812 H 486.02148 354.00781 Z"
         id="path598" />
    </clipPath>
    <clipPath
       clipPathUnits="userSpaceOnUse"
       id="clipEmfPath8">
      <path
         d="M 0,0.79911319 H 601.09294 V 135.20995 H 0 Z"
         id="path601" />
    </clipPath>
    <pattern
       id="EMFhbasepattern-2"
       patternUnits="userSpaceOnUse"
       width="6"
       height="6"
       x="0"
       y="0" />
    <clipPath
       clipPathUnits="userSpaceOnUse"
       id="clipEmfPath1-4">
      <path
         d="M 0,0 H 601.09294 V 105.48294 H 0 Z"
         id="path927" />
    </clipPath>
    <pattern
       id="EMFhbasepattern-28"
       patternUnits="userSpaceOnUse"
       width="6"
       height="6"
       x="0"
       y="0" />
    <clipPath
       clipPathUnits="userSpaceOnUse"
       id="clipEmfPath1-2">
      <path
         d="M 0,0 H 601.09294 V 186.03355 H 0 Z"
         id="path1066" />
    </clipPath>
    <clipPath
       clipPathUnits="userSpaceOnUse"
       id="clipEmfPath2-6">
      <path
         d="m 283.04589,160.46193 h 14.70368 v 17.42067 h -14.70368 z"
         id="path1069" />
    </clipPath>
    <clipPath
       clipPathUnits="userSpaceOnUse"
       id="clipEmfPath3-3">
      <path
         d="m 357.52324,77.513979 h 12.14652 v 17.420667 h -12.14652 z"
         id="path1072" />
    </clipPath>
    <pattern
       id="EMFhbasepattern-24"
       patternUnits="userSpaceOnUse"
       width="6"
       height="6"
       x="0"
       y="0" />
    <clipPath
       clipPathUnits="userSpaceOnUse"
       id="clipEmfPath1-41">
      <path
         d="M -278.8905,0.79911319 H 322.20244 V 147.51629 H -278.8905 Z"
         id="path1190" />
    </clipPath>
    <clipPath
       clipPathUnits="userSpaceOnUse"
       id="clipEmfPath2-1">
      <path
         d="M 0.47946791,13.904569 H 15.183151 V 31.325237 H 0.47946791 Z"
         id="path1193" />
    </clipPath>
    <clipPath
       clipPathUnits="userSpaceOnUse"
       id="clipEmfPath3-0">
      <path
         d="M 58.974553,69.043379 H 70.961251 V 86.304224 H 58.974553 Z"
         id="path1196" />
    </clipPath>
    <pattern
       id="EMFhbasepattern-34"
       patternUnits="userSpaceOnUse"
       width="6"
       height="6"
       x="0"
       y="0" />
  </defs>
  <g
     inkscape:label="Warstwa 1"
     inkscape:groupmode="layer"
     id="layer1"
     transform="translate(-257.25541,-117.93656)">
    <text
       xml:space="preserve"
       style="font-style:normal;font-variant:normal;font-weight:400;font-size:3.88607px;line-height:125%;font-family:Calibri;text-align:start;letter-spacing:0px;word-spacing:0px;text-anchor:start;fill:#000000;fill-opacity:1;stroke:none;stroke-width:0.264583"
       x="290.66168"
       y="150.9834"
       id="text1206"><tspan
         sodipodi:role="line"
         x="290.66168"
         y="150.9834"
         id="tspan1204"
         style="stroke-width:0.264583"><tspan
           dx="0"
           dy="0"
           style="font-style:normal;font-variant:normal;font-weight:400;font-size:3.88607px;font-family:Calibri;fill:#181717;stroke-width:0.264583"
           id="tspan1202"> </tspan></tspan></text>
    <path
       style="fill:none;stroke:#000000;stroke-width:0.211432px;stroke-linecap:butt;stroke-linejoin:round;stroke-miterlimit:4;stroke-dasharray:none;stroke-opacity:1"
       d="m 290.49252,134.51284 c 0,-9.09158 -7.37369,-16.47056 -16.47055,-16.47056 -9.09158,0 -16.47056,7.37898 -16.47056,16.47056 0,9.09686 7.37898,16.47055 16.47056,16.47055 9.09686,0 16.47055,-7.37369 16.47055,-16.47055"
       id="path1208" />
    <path
       style="fill:none;stroke:#000000;stroke-width:0.211432px;stroke-linecap:round;stroke-linejoin:round;stroke-miterlimit:4;stroke-dasharray:none;stroke-opacity:1"
       d="M 287.36333,124.85039 H 260.68061"
       id="path1210" />
    <path
       style="fill:#000000;fill-opacity:1;fill-rule:nonzero;stroke:none"
       clip-path="url(#clipEmfPath2-1)"
       d="m 10.528316,27.139882 c 0.01998,0.09989 0.01998,0.189789 0.01,0.249722 -0.01,0.06992 -0.03996,0.119867 -0.09989,0.149834 -0.05993,0.02997 -0.159823,0.04995 -0.289679,0.05993 -0.119867,0.01 -0.2896781,0.01998 -0.5094342,0.01998 -0.1398448,0 -0.2597118,-0.01 -0.3596009,-0.01 -0.1098781,-0.01 -0.1798005,-0.01998 -0.239734,-0.03996 -0.049945,-0.01998 -0.0899,-0.03996 -0.119867,-0.06992 -0.019978,-0.02997 -0.039956,-0.05993 -0.049944,-0.09989 L 8.4206552,25.13211 H 3.2663751 l -1.6082152,2.237517 c -0.029967,0.04994 -0.069922,0.0899 -0.1098781,0.119867 -0.039956,0.02997 -0.099889,0.05993 -0.1798005,0.07991 -0.069922,0.01998 -0.1598226,0.02997 -0.2796896,0.03996 -0.11986696,0 -0.25971177,0.01 -0.43951224,0.01 -0.18978938,0 -0.3396231,-0.01 -0.45949008,-0.01998 C 0.07991132,27.589383 0,27.569405 -0.03995566,27.529449 c -0.04994457,-0.02997 -0.05993349,-0.07991 -0.03995566,-0.149833 0.01997783,-0.05993 0.05993349,-0.149834 0.12985589,-0.249723 L 6.4828057,18.49947 c 0.049945,-0.04994 0.099889,-0.09989 0.1498337,-0.129856 0.049945,-0.02997 0.119867,-0.05993 0.1997783,-0.07991 0.079911,-0.01998 0.1897894,-0.02997 0.3096564,-0.03996 0.1298559,-0.01 0.2896785,-0.01 0.469479,-0.01 0.2097672,0 0.3795788,0 0.5094347,0.01 0.1298558,0.01 0.2397339,0.01998 0.3196452,0.03996 0.079911,0.01998 0.1298559,0.04995 0.1698116,0.07991 0.029967,0.03996 0.049945,0.07991 0.059934,0.139845 z M 7.3118857,19.51834 h -0.00999 l -3.3462864,4.634856 h 4.2752555 z"
       id="path1212"
       transform="matrix(0.26458333,0,0,0.26458333,257.12855,117.83085)" />
    <path
       style="fill:#000000;fill-opacity:1;fill-rule:nonzero;stroke:none;stroke-width:0.264583"
       d="m 290.58238,123.14837 c 0,0.0793 -0.0158,0.148 -0.0423,0.222 -0.0317,0.0687 -0.074,0.13214 -0.12686,0.19029 -0.0529,0.0581 -0.12158,0.10571 -0.20086,0.15329 -0.074,0.0423 -0.16386,0.0793 -0.26429,0.111 0.0793,0.005 0.148,0.0264 0.21143,0.0529 0.0687,0.0264 0.12157,0.0581 0.16915,0.10043 0.0476,0.037 0.0846,0.0846 0.10571,0.14271 0.0264,0.0529 0.0423,0.111 0.0423,0.17972 0,0.0634 -0.0159,0.13215 -0.037,0.20086 -0.0264,0.0687 -0.0634,0.13215 -0.11629,0.19558 -0.0476,0.0581 -0.111,0.11628 -0.19029,0.16914 -0.074,0.0529 -0.16386,0.10043 -0.26429,0.13743 -0.10572,0.0423 -0.21672,0.0687 -0.34358,0.0899 -0.12686,0.0211 -0.26957,0.0317 -0.43872,0.0317 h -0.91973 c -0.0581,0 -0.10043,-0.0106 -0.13214,-0.0264 -0.0264,-0.0212 -0.0317,-0.0582 -0.0159,-0.10572 l 0.61315,-2.18832 c 0.0159,-0.0529 0.0423,-0.0846 0.0846,-0.10572 0.0476,-0.0211 0.0951,-0.0317 0.14271,-0.0317 h 0.7453 c 0.17443,0 0.32243,0.0106 0.44401,0.0317 0.11629,0.0212 0.21671,0.0529 0.296,0.0951 0.0793,0.037 0.13743,0.0899 0.17972,0.148 0.037,0.0581 0.0581,0.12686 0.0581,0.20615 z m -0.49158,0.0581 c 0,-0.0423 -0.0106,-0.0793 -0.0264,-0.111 -0.0211,-0.0317 -0.0529,-0.0634 -0.0951,-0.0846 -0.0476,-0.0211 -0.10043,-0.0423 -0.16914,-0.0529 -0.0634,-0.0159 -0.15329,-0.0211 -0.2643,-0.0211 h -0.48636 l -0.222,0.79287 h 0.52329 c 0.14272,0 0.259,-0.0159 0.34887,-0.0476 0.0898,-0.0317 0.16385,-0.074 0.222,-0.12686 0.0581,-0.0529 0.10043,-0.10571 0.12686,-0.16914 0.0317,-0.0634 0.0423,-0.12158 0.0423,-0.17972 z m -0.10043,1.1153 c 0,-0.10571 -0.0529,-0.185 -0.15857,-0.24314 -0.10572,-0.0582 -0.26958,-0.0846 -0.49158,-0.0846 h -0.59201 l -0.23786,0.86159 h 0.64487 c 0.148,0 0.26957,-0.0106 0.37,-0.0423 0.10043,-0.0317 0.18501,-0.0687 0.25372,-0.11628 0.0687,-0.0529 0.12157,-0.10572 0.15329,-0.16915 0.037,-0.0687 0.0581,-0.13215 0.0581,-0.20615 z"
       id="path1214" />
    <path
       style="fill:#000000;fill-opacity:1;fill-rule:evenodd;stroke:none;stroke-width:0.264583"
       d="m 274.00083,134.0054 c 0.26957,0 0.48629,0.222 0.48629,0.48629 0,0.26958 -0.21672,0.4863 -0.48629,0.4863 -0.26429,0 -0.4863,-0.21672 -0.4863,-0.4863 0,-0.26429 0.22201,-0.48629 0.4863,-0.48629 z"
       id="path1216" />
    <path
       style="fill:#000000;fill-opacity:1;fill-rule:nonzero;stroke:none"
       clip-path="url(#clipEmfPath3-0)"
       d="m 67.824732,74.297548 c 0,0.03996 0,0.07991 0,0.119867 -0.01998,0.05993 -0.01998,0.09989 -0.03996,0.159823 -0.01998,0.05993 -0.03996,0.119867 -0.05993,0.179801 -0.01998,0.05993 -0.03996,0.09989 -0.07991,0.159822 -0.03996,0.03996 -0.05993,0.07991 -0.09989,0.09989 -0.05993,0.03996 -0.09989,0.03996 -0.159823,0.03996 -0.05993,0 -0.159822,-0.01998 -0.279689,-0.07991 -0.139845,-0.05993 -0.299668,-0.139845 -0.499446,-0.199779 -0.1798,-0.07991 -0.419534,-0.139844 -0.699224,-0.199778 -0.259712,-0.05993 -0.579357,-0.09989 -0.938958,-0.09989 -0.399557,0 -0.73918,0.05993 -1.038847,0.139845 -0.299668,0.07991 -0.539402,0.199778 -0.73918,0.359601 -0.199778,0.159822 -0.359601,0.319645 -0.45949,0.519423 -0.09989,0.179801 -0.139845,0.379579 -0.139845,0.599335 0,0.199778 0.05993,0.379579 0.179801,0.539402 0.139845,0.159822 0.299667,0.299667 0.499445,0.439512 0.199779,0.119867 0.439513,0.239734 0.699225,0.359601 0.259711,0.119867 0.519423,0.239734 0.799113,0.359601 0.279689,0.119867 0.539401,0.239734 0.799113,0.379578 0.27969,0.139845 0.499446,0.299668 0.699224,0.479468 0.219756,0.179801 0.379579,0.379579 0.499446,0.619313 0.119867,0.219756 0.199778,0.499446 0.199778,0.799113 0,0.399557 -0.119867,0.779136 -0.339623,1.138737 -0.239734,0.3596 -0.559379,0.679246 -0.978914,0.938958 -0.399556,0.259711 -0.91898,0.479467 -1.498337,0.63929 -0.579357,0.139845 -1.238625,0.219756 -1.977805,0.219756 -0.379579,0 -0.759158,-0.01998 -1.098781,-0.05993 -0.339623,-0.05993 -0.63929,-0.119867 -0.899002,-0.199779 -0.27969,-0.07991 -0.519424,-0.139844 -0.699224,-0.219756 -0.179801,-0.07991 -0.319645,-0.159822 -0.399557,-0.219756 -0.07991,-0.05993 -0.139845,-0.159822 -0.139845,-0.279689 0,-0.01998 0.01998,-0.05993 0.01998,-0.119867 0.01998,-0.03996 0.01998,-0.09989 0.03996,-0.159823 0.01998,-0.05993 0.03996,-0.119867 0.05993,-0.179801 0.03996,-0.05993 0.05993,-0.119867 0.09989,-0.1798 0.03995,-0.03996 0.07991,-0.07991 0.119867,-0.119867 0.03996,-0.01998 0.07991,-0.03996 0.139844,-0.03996 0.09989,0 0.239734,0.03996 0.399557,0.119867 0.139845,0.05993 0.339623,0.159823 0.559379,0.239734 0.239734,0.07991 0.519424,0.179801 0.819091,0.239734 0.319645,0.07991 0.699224,0.119867 1.118759,0.119867 0.45949,0 0.859046,-0.03995 1.218647,-0.139845 0.359601,-0.09989 0.659269,-0.219756 0.899003,-0.379578 0.239734,-0.159823 0.419534,-0.339623 0.559379,-0.55938 0.119867,-0.219756 0.1798,-0.439512 0.1798,-0.699224 0,-0.199778 -0.05993,-0.399556 -0.1798,-0.559379 -0.119867,-0.159822 -0.27969,-0.299667 -0.479468,-0.439512 -0.199778,-0.119867 -0.439512,-0.239734 -0.699224,-0.359601 -0.259712,-0.09989 -0.519424,-0.219756 -0.799113,-0.339623 -0.259712,-0.119867 -0.519424,-0.239734 -0.779136,-0.379579 -0.259711,-0.139845 -0.499445,-0.299667 -0.699224,-0.479468 -0.199778,-0.1798 -0.359601,-0.379579 -0.479468,-0.619313 -0.119867,-0.219756 -0.199778,-0.499445 -0.199778,-0.799113 0,-0.379578 0.09989,-0.739179 0.319645,-1.078803 0.199779,-0.319645 0.479468,-0.619312 0.839069,-0.859046 0.379579,-0.259712 0.819091,-0.439512 1.338515,-0.599335 0.519423,-0.139845 1.118758,-0.199778 1.758049,-0.199778 0.299667,0 0.599335,0.01998 0.879024,0.03996 0.27969,0.03996 0.539402,0.09989 0.759158,0.139845 0.239734,0.05993 0.419534,0.119867 0.599335,0.179801 0.159822,0.07991 0.259712,0.119867 0.319645,0.1798 0.05993,0.03996 0.09989,0.07991 0.119867,0.119867 0.03996,0.03996 0.03996,0.09989 0.03996,0.1798 z"
       id="path1218"
       transform="matrix(0.26458333,0,0,0.26458333,257.12855,117.83085)" />
  </g>
</svg>
