<?xml version="1.0" encoding="UTF-8" standalone="no"?>

<svg
   viewBox="0 0 47.644424 35.60735"
   version="1.1"
   id="svg5"
   inkscape:version="1.2.2 (732a01da63, 2022-12-09)"
   sodipodi:docname="materiały CKE - zad. 15.svg"
   xmlns:inkscape="http://www.inkscape.org/namespaces/inkscape"
   xmlns:sodipodi="http://sodipodi.sourceforge.net/DTD/sodipodi-0.dtd"
   xmlns="http://www.w3.org/2000/svg"
   xmlns:svg="http://www.w3.org/2000/svg">
  <sodipodi:namedview
     id="namedview7"
     pagecolor="#ffffff"
     bordercolor="#000000"
     borderopacity="0.25"
     inkscape:showpageshadow="2"
     inkscape:pageopacity="0.0"
     inkscape:pagecheckerboard="0"
     inkscape:deskcolor="#d1d1d1"
     inkscape:document-units="mm"
     showgrid="false"
     inkscape:zoom="1.829812"
     inkscape:cx="27.598464"
     inkscape:cy="152.74793"
     inkscape:window-width="1958"
     inkscape:window-height="1368"
     inkscape:window-x="2553"
     inkscape:window-y="127"
     inkscape:window-maximized="0"
     inkscape:current-layer="layer1" />
  <defs
     id="defs2">
    <clipPath
       clipPathUnits="userSpaceOnUse"
       id="clipEmfPath1">
      <path
         d="M 0,0 H 601.09294 V 344.25796 H 0 Z"
         id="path278" />
    </clipPath>
    <pattern
       id="EMFhbasepattern"
       patternUnits="userSpaceOnUse"
       width="6"
       height="6"
       x="0"
       y="0" />
    <clipPath
       clipPathUnits="userSpaceOnUse"
       id="clipEmfPath1-0">
      <path
         d="M 0,0 H 601.09294 V 281.60749 H 0 Z"
         id="path697" />
    </clipPath>
    <clipPath
       clipPathUnits="userSpaceOnUse"
       id="clipEmfPath2">
      <path
         d="m 316.92829,14.54386 h 52.58165 v 62.330828 h -52.58165 z"
         id="path700" />
    </clipPath>
    <clipPath
       clipPathUnits="userSpaceOnUse"
       id="clipEmfPath3">
      <path
         d="m 318.52734,15.34375 v 60.732422 h 24.45118 V 15.34375 Z"
         id="path703" />
    </clipPath>
    <clipPath
       clipPathUnits="userSpaceOnUse"
       id="clipEmfPath4">
      <path
         d="m 343.29883,15.34375 v 29.886719 h 24.61328 V 15.34375 Z"
         id="path706" />
    </clipPath>
    <clipPath
       clipPathUnits="userSpaceOnUse"
       id="clipEmfPath5">
      <path
         d="m 342.97852,46.029297 v 30.046875 h 24.45312 V 46.029297 Z"
         id="path709" />
    </clipPath>
    <pattern
       id="EMFhbasepattern-6"
       patternUnits="userSpaceOnUse"
       width="6"
       height="6"
       x="0"
       y="0" />
    <clipPath
       clipPathUnits="userSpaceOnUse"
       id="clipEmfPath1-4">
      <path
         d="M 0,0 H 601.09294 V 221.51418 H 0 Z"
         id="path1547" />
    </clipPath>
    <pattern
       id="EMFhbasepattern-7"
       patternUnits="userSpaceOnUse"
       width="6"
       height="6"
       x="0"
       y="0" />
    <clipPath
       clipPathUnits="userSpaceOnUse"
       id="clipEmfPath1-6">
      <path
         d="M 0,0 H 686.11858 V 297.42993 H 0 Z"
         id="path1856" />
    </clipPath>
    <pattern
       id="EMFhbasepattern-0"
       patternUnits="userSpaceOnUse"
       width="6"
       height="6"
       x="0"
       y="0" />
    <clipPath
       clipPathUnits="userSpaceOnUse"
       id="clipEmfPath1-5">
      <path
         d="M -236.05804,0 H 450.06055 V 160.46193 H -236.05804 Z"
         id="path2132" />
    </clipPath>
    <pattern
       id="EMFhbasepattern-4"
       patternUnits="userSpaceOnUse"
       width="6"
       height="6"
       x="0"
       y="0" />
    <clipPath
       clipPathUnits="userSpaceOnUse"
       id="clipEmfPath1-7">
      <path
         d="M 0,0 H 686.11858 V 194.98362 H 0 Z"
         id="path2256" />
    </clipPath>
    <pattern
       id="EMFhbasepattern-1"
       patternUnits="userSpaceOnUse"
       width="6"
       height="6"
       x="0"
       y="0" />
    <clipPath
       clipPathUnits="userSpaceOnUse"
       id="clipEmfPath1-00">
      <path
         d="M 0,0 H 686.11858 V 131.53403 H 0 Z"
         id="path2517" />
    </clipPath>
    <pattern
       id="EMFhbasepattern-8"
       patternUnits="userSpaceOnUse"
       width="6"
       height="6"
       x="0"
       y="0" />
    <clipPath
       clipPathUnits="userSpaceOnUse"
       id="clipEmfPath1-9">
      <path
         d="M 0,0 H 686.11858 V 265.94487 H 0 Z"
         id="path3071" />
    </clipPath>
    <clipPath
       clipPathUnits="userSpaceOnUse"
       id="clipEmfPath2-4">
      <path
         d="M 188.75053,44.590516 H 242.1313 V 69.842492 H 188.75053 Z"
         id="path3074" />
    </clipPath>
    <clipPath
       clipPathUnits="userSpaceOnUse"
       id="clipEmfPath3-9">
      <path
         d="m 190.18945,49.865234 v 19.337891 h 25.41211 V 49.865234 Z"
         id="path3077" />
    </clipPath>
    <clipPath
       clipPathUnits="userSpaceOnUse"
       id="clipEmfPath4-8">
      <path
         d="m 216.24023,49.865234 v 19.337891 h 24.61329 V 49.865234 Z"
         id="path3080" />
    </clipPath>
    <clipPath
       clipPathUnits="userSpaceOnUse"
       id="clipEmfPath5-2">
      <path
         d="m 123.06343,110.91691 h 53.70041 v 25.4118 h -53.70041 z"
         id="path3083" />
    </clipPath>
    <clipPath
       clipPathUnits="userSpaceOnUse"
       id="clipEmfPath6">
      <path
         d="m 124.50195,116.19141 v 19.49804 h 24.77149 v -19.49804 z"
         id="path3086" />
    </clipPath>
    <clipPath
       clipPathUnits="userSpaceOnUse"
       id="clipEmfPath7">
      <path
         d="m 149.91406,116.19141 v 19.49804 h 25.57032 v -19.49804 z"
         id="path3089" />
    </clipPath>
    <pattern
       id="EMFhbasepattern-70"
       patternUnits="userSpaceOnUse"
       width="6"
       height="6"
       x="0"
       y="0" />
    <clipPath
       clipPathUnits="userSpaceOnUse"
       id="clipEmfPath1-02">
      <path
         d="M 0,0.79911319 H 686.11858 V 226.30885 H 0 Z"
         id="path3695" />
    </clipPath>
    <pattern
       id="EMFhbasepattern-64"
       patternUnits="userSpaceOnUse"
       width="6"
       height="6"
       x="0"
       y="0" />
    <clipPath
       clipPathUnits="userSpaceOnUse"
       id="clipEmfPath1-69">
      <path
         d="M 0,0 H 686.11858 V 139.84481 H 0 Z"
         id="path4322" />
    </clipPath>
    <clipPath
       clipPathUnits="userSpaceOnUse"
       id="clipEmfPath2-9">
      <path
         d="m 238.45537,108.67939 h 13.26528 v 15.66262 h -13.26528 z"
         id="path4325" />
    </clipPath>
    <pattern
       id="EMFhbasepattern-3"
       patternUnits="userSpaceOnUse"
       width="6"
       height="6"
       x="0"
       y="0" />
    <clipPath
       clipPathUnits="userSpaceOnUse"
       id="clipEmfPath1-78">
      <path
         d="M 0,0 H 686.11858 V 122.10449 H 0 Z"
         id="path4464" />
    </clipPath>
    <pattern
       id="EMFhbasepattern-81"
       patternUnits="userSpaceOnUse"
       width="6"
       height="6"
       x="0"
       y="0" />
    <clipPath
       clipPathUnits="userSpaceOnUse"
       id="clipEmfPath1-3">
      <path
         d="M 0,0 H 686.11858 V 166.21554 H 0 Z"
         id="path4666" />
    </clipPath>
    <pattern
       id="EMFhbasepattern-2"
       patternUnits="userSpaceOnUse"
       width="6"
       height="6"
       x="0"
       y="0" />
    <clipPath
       clipPathUnits="userSpaceOnUse"
       id="clipEmfPath1-786">
      <path
         d="M 0,0 H 686.11858 V 207.28996 H 0 Z"
         id="path4873" />
    </clipPath>
    <pattern
       id="EMFhbasepattern-9"
       patternUnits="userSpaceOnUse"
       width="6"
       height="6"
       x="0"
       y="0" />
    <clipPath
       clipPathUnits="userSpaceOnUse"
       id="clipEmfPath1-8">
      <path
         d="M 0,0 H 686.11858 V 171.96916 H 0 Z"
         id="path5000" />
    </clipPath>
    <pattern
       id="EMFhbasepattern-5"
       patternUnits="userSpaceOnUse"
       width="6"
       height="6"
       x="0"
       y="0" />
    <clipPath
       clipPathUnits="userSpaceOnUse"
       id="clipEmfPath1-2">
      <path
         d="M 0,0 H 686.11858 V 158.22441 H 0 Z"
         id="path5536" />
    </clipPath>
    <pattern
       id="EMFhbasepattern-26"
       patternUnits="userSpaceOnUse"
       width="6"
       height="6"
       x="0"
       y="0" />
    <clipPath
       clipPathUnits="userSpaceOnUse"
       id="clipEmfPath1-26">
      <path
         d="M 0,0 H 686.11858 V 158.22441 H 0 Z"
         id="path5700" />
    </clipPath>
    <pattern
       id="EMFhbasepattern-74"
       patternUnits="userSpaceOnUse"
       width="6"
       height="6"
       x="0"
       y="0" />
  </defs>
  <g
     inkscape:label="Warstwa 1"
     inkscape:groupmode="layer"
     id="layer1"
     transform="translate(-284.4277,-135.71362)">
    <text
       xml:space="preserve"
       style="font-style:italic;font-variant:normal;font-weight:400;font-size:3.88607px;line-height:125%;font-family:Calibri;text-align:start;letter-spacing:0px;word-spacing:0px;text-anchor:start;fill:#000000;fill-opacity:1;stroke:none;stroke-width:0.264583"
       x="284.52618"
       y="138.18036"
       id="text5712"><tspan
         sodipodi:role="line"
         x="284.52618"
         y="138.18036"
         id="tspan5710"
         style="stroke-width:0.264583"><tspan
           dx="0"
           dy="0"
           style="font-style:italic;font-variant:normal;font-weight:400;font-size:3.88607px;font-family:Calibri;fill:#000000;stroke-width:0.264583"
           id="tspan5706">A</tspan><tspan
           dx="0"
           dy="0"
           style="font-style:normal;font-variant:normal;font-weight:400;font-size:3.88607px;font-family:Calibri;fill:#181717;stroke-width:0.264583"
           id="tspan5708"> </tspan></tspan></text>
    <text
       xml:space="preserve"
       style="font-style:normal;font-variant:normal;font-weight:400;font-size:3.88607px;line-height:125%;font-family:Calibri;text-align:start;letter-spacing:0px;word-spacing:0px;text-anchor:start;fill:#000000;fill-opacity:1;stroke:none;stroke-width:0.264583"
       x="328.41949"
       y="165.92023"
       id="text5718"><tspan
         sodipodi:role="line"
         x="328.41949"
         y="165.92023"
         id="tspan5716"
         style="stroke-width:0.264583"><tspan
           dx="0"
           dy="0"
           style="font-style:normal;font-variant:normal;font-weight:400;font-size:3.88607px;font-family:Calibri;fill:#181717;stroke-width:0.264583"
           id="tspan5714"> </tspan></tspan></text>
    <text
       xml:space="preserve"
       style="font-style:normal;font-variant:normal;font-weight:400;font-size:3.88607px;line-height:125%;font-family:Calibri;text-align:start;letter-spacing:0px;word-spacing:0px;text-anchor:start;fill:#000000;fill-opacity:1;stroke:none;stroke-width:0.264583"
       x="232.487"
       y="163.91621"
       id="text5724"><tspan
         sodipodi:role="line"
         x="232.487"
         y="163.91621"
         id="tspan5722"
         style="stroke-width:0.264583"><tspan
           dx="0"
           dy="0"
           style="font-style:normal;font-variant:normal;font-weight:400;font-size:3.88607px;font-family:Calibri;fill:#000000;stroke-width:0.264583"
           id="tspan5720"> </tspan></tspan></text>
    <text
       xml:space="preserve"
       style="font-style:italic;font-variant:normal;font-weight:400;font-size:3.88607px;line-height:125%;font-family:Calibri;text-align:start;letter-spacing:0px;word-spacing:0px;text-anchor:start;fill:#000000;fill-opacity:1;stroke:none;stroke-width:0.264583"
       x="285.07593"
       y="171.2906"
       id="text5732"><tspan
         sodipodi:role="line"
         x="285.07593"
         y="171.2906"
         id="tspan5730"
         style="stroke-width:0.264583"><tspan
           dx="0"
           dy="0"
           style="font-style:italic;font-variant:normal;font-weight:400;font-size:3.88607px;font-family:Calibri;fill:#000000;stroke-width:0.264583"
           id="tspan5726">B</tspan><tspan
           dx="0"
           dy="0"
           style="font-style:italic;font-variant:normal;font-weight:400;font-size:3.88607px;font-family:Calibri;fill:#000000;stroke-width:0.264583"
           id="tspan5728"> </tspan></tspan></text>
    <text
       xml:space="preserve"
       style="font-style:italic;font-variant:normal;font-weight:400;font-size:3.88607px;line-height:125%;font-family:Calibri;text-align:start;letter-spacing:0px;word-spacing:0px;text-anchor:start;fill:#000000;fill-opacity:1;stroke:none;stroke-width:0.264583"
       x="329.89951"
       y="171.2906"
       id="text5740"><tspan
         sodipodi:role="line"
         x="329.89951"
         y="171.2906"
         id="tspan5738"
         style="stroke-width:0.264583"><tspan
           dx="0"
           dy="0"
           style="font-style:italic;font-variant:normal;font-weight:400;font-size:3.88607px;font-family:Calibri;fill:#000000;stroke-width:0.264583"
           id="tspan5734">C</tspan><tspan
           dx="0"
           dy="0"
           style="font-style:italic;font-variant:normal;font-weight:400;font-size:3.88607px;font-family:Calibri;fill:#000000;stroke-width:0.264583"
           id="tspan5736"> </tspan></tspan></text>
    <path
       style="fill:none;stroke:#000000;stroke-width:0.211432px;stroke-linecap:round;stroke-linejoin:round;stroke-miterlimit:4;stroke-dasharray:none;stroke-opacity:1"
       d="m 288.88169,165.96252 h 39.53779 l -39.53779,-26.38671 v 26.38671"
       id="path5742" />
    <path
       style="fill:none;stroke:#000000;stroke-width:0.211432px;stroke-linecap:round;stroke-linejoin:round;stroke-miterlimit:4;stroke-dasharray:none;stroke-opacity:1"
       d="M 288.88169,165.96252 312.1815,142.66271"
       id="path5744" />
    <path
       style="fill:none;stroke:#000000;stroke-width:0.211432px;stroke-linecap:round;stroke-linejoin:round;stroke-miterlimit:4;stroke-dasharray:none;stroke-opacity:1"
       d="m 288.88169,165.96252 11.84019,-18.47916"
       id="path5746" />
    <path
       style="fill:#000000;fill-opacity:1;fill-rule:nonzero;stroke:none;stroke-width:0.264583"
       d="m 304.78138,144.72946 c 0,0.005 0,0.0159 -0.005,0.0317 0,0.0106 0,0.0264 -0.005,0.0423 -0.005,0.0159 -0.0106,0.0317 -0.0159,0.0476 -0.0106,0.0159 -0.0159,0.0317 -0.0317,0.0423 -0.0106,0.0159 -0.0211,0.0264 -0.037,0.0317 -0.0211,0.0106 -0.037,0.0159 -0.0528,0.0159 h -1.4536 l -0.23258,0.77173 h 1.24745 c 0.0212,0 0.0423,0.005 0.0529,0.0159 0.0106,0.0106 0.0159,0.0211 0.0159,0.0423 0,0.005 0,0.0159 -0.005,0.0317 0,0.0106 -0.005,0.0264 -0.0106,0.0423 0,0.0159 -0.005,0.0317 -0.0159,0.0476 -0.005,0.0159 -0.0159,0.0264 -0.0264,0.0423 -0.0106,0.0106 -0.0211,0.0212 -0.037,0.0264 -0.0159,0.0106 -0.037,0.0159 -0.0529,0.0159 h -1.24745 l -0.26958,0.87744 h 1.48003 c 0.0159,0 0.0317,0.005 0.0476,0.0159 0.0106,0.0106 0.0159,0.0264 0.0159,0.0476 0,0.005 0,0.0159 0,0.0317 -0.005,0.0159 -0.005,0.0264 -0.0106,0.0423 -0.005,0.0159 -0.0106,0.0317 -0.0159,0.0476 -0.0106,0.0159 -0.0159,0.0317 -0.0317,0.0423 -0.0106,0.0159 -0.0211,0.0264 -0.037,0.0317 -0.0211,0.0106 -0.037,0.0106 -0.0529,0.0106 h -1.7866 c -0.0211,0 -0.0423,0 -0.0634,-0.005 -0.0159,-0.005 -0.037,-0.0106 -0.0476,-0.0211 -0.0159,-0.0106 -0.0264,-0.0264 -0.0317,-0.0423 -0.005,-0.0159 -0.005,-0.037 0.005,-0.0634 l 0.66073,-2.18832 c 0.0159,-0.0529 0.0423,-0.0846 0.0899,-0.10571 0.0476,-0.0212 0.0899,-0.0317 0.13743,-0.0317 h 1.75488 c 0.0476,0 0.0687,0.0212 0.0687,0.0634 z"
       id="path5748" />
    <path
       style="fill:#000000;fill-opacity:1;fill-rule:nonzero;stroke:none;stroke-width:0.264583"
       d="m 311.04505,150.16326 c 0,0.0793 -0.005,0.16915 -0.0211,0.25901 -0.0159,0.0846 -0.0423,0.17443 -0.074,0.26429 -0.0317,0.0899 -0.0793,0.17972 -0.13215,0.26429 -0.0529,0.0846 -0.11628,0.16914 -0.19557,0.24843 -0.074,0.074 -0.16386,0.148 -0.26429,0.21143 -0.10043,0.0687 -0.21672,0.12686 -0.34358,0.17443 -0.13214,0.0476 -0.27486,0.0846 -0.43343,0.11101 -0.15858,0.0264 -0.34887,0.037 -0.57087,0.037 h -0.74001 c -0.0212,0 -0.0423,0 -0.0634,-0.005 -0.0211,-0.005 -0.037,-0.0106 -0.0529,-0.0211 -0.0106,-0.0106 -0.0211,-0.0211 -0.0264,-0.0423 -0.005,-0.0159 -0.005,-0.037 0.005,-0.0634 l 0.59201,-2.18832 c 0.0159,-0.0529 0.0423,-0.0846 0.0793,-0.10571 0.0423,-0.0211 0.0899,-0.0317 0.13743,-0.0317 h 0.7083 c 0.25372,0 0.47044,0.0211 0.63958,0.0634 0.16386,0.037 0.30658,0.0951 0.41758,0.17443 0.11629,0.074 0.20086,0.16915 0.25372,0.27486 0.0581,0.111 0.0846,0.23786 0.0846,0.37529 z m -0.47043,0.0264 c 0,-0.0899 -0.0159,-0.17971 -0.0529,-0.259 -0.0317,-0.074 -0.0899,-0.14272 -0.16386,-0.20086 -0.0793,-0.0581 -0.17443,-0.10043 -0.29072,-0.13215 -0.12157,-0.0317 -0.27486,-0.0476 -0.47044,-0.0476 h -0.46515 l -0.518,1.91346 h 0.45986 c 0.21143,0 0.38586,-0.0211 0.52858,-0.0581 0.13743,-0.037 0.26429,-0.0899 0.37001,-0.15329 0.111,-0.0634 0.20086,-0.13743 0.28014,-0.222 0.074,-0.0846 0.13743,-0.17444 0.18501,-0.26958 0.0476,-0.0899 0.0846,-0.185 0.10571,-0.28543 0.0212,-0.10043 0.0317,-0.19029 0.0317,-0.28544 z"
       id="path5750" />
  </g>
</svg>
