<?xml version="1.0" encoding="UTF-8" standalone="no"?>

<svg
   viewBox="0 0 61.061213 41.077763"
   version="1.1"
   id="svg5"
   inkscape:version="1.2.2 (732a01da63, 2022-12-09)"
   sodipodi:docname="materialyCKEz5.svg"
   xmlns:inkscape="http://www.inkscape.org/namespaces/inkscape"
   xmlns:sodipodi="http://sodipodi.sourceforge.net/DTD/sodipodi-0.dtd"
   xmlns="http://www.w3.org/2000/svg"
   xmlns:svg="http://www.w3.org/2000/svg">
  <sodipodi:namedview
     id="namedview7"
     pagecolor="#ffffff"
     bordercolor="#000000"
     borderopacity="0.25"
     inkscape:showpageshadow="2"
     inkscape:pageopacity="0.0"
     inkscape:pagecheckerboard="0"
     inkscape:deskcolor="#d1d1d1"
     inkscape:document-units="mm"
     showgrid="false"
     inkscape:zoom="1.829812"
     inkscape:cx="480.65047"
     inkscape:cy="120.23093"
     inkscape:window-width="3440"
     inkscape:window-height="1377"
     inkscape:window-x="2552"
     inkscape:window-y="119"
     inkscape:window-maximized="1"
     inkscape:current-layer="layer1" />
  <defs
     id="defs2">
    <clipPath
       clipPathUnits="userSpaceOnUse"
       id="clipEmfPath1">
      <path
         d="M 0,0 H 601.09294 V 344.25796 H 0 Z"
         id="path278" />
    </clipPath>
    <pattern
       id="EMFhbasepattern"
       patternUnits="userSpaceOnUse"
       width="6"
       height="6"
       x="0"
       y="0" />
    <clipPath
       clipPathUnits="userSpaceOnUse"
       id="clipEmfPath1-0">
      <path
         d="M 0,0 H 601.09294 V 281.60749 H 0 Z"
         id="path697" />
    </clipPath>
    <clipPath
       clipPathUnits="userSpaceOnUse"
       id="clipEmfPath2">
      <path
         d="m 316.92829,14.54386 h 52.58165 v 62.330828 h -52.58165 z"
         id="path700" />
    </clipPath>
    <clipPath
       clipPathUnits="userSpaceOnUse"
       id="clipEmfPath3">
      <path
         d="m 318.52734,15.34375 v 60.732422 h 24.45118 V 15.34375 Z"
         id="path703" />
    </clipPath>
    <clipPath
       clipPathUnits="userSpaceOnUse"
       id="clipEmfPath4">
      <path
         d="m 343.29883,15.34375 v 29.886719 h 24.61328 V 15.34375 Z"
         id="path706" />
    </clipPath>
    <clipPath
       clipPathUnits="userSpaceOnUse"
       id="clipEmfPath5">
      <path
         d="m 342.97852,46.029297 v 30.046875 h 24.45312 V 46.029297 Z"
         id="path709" />
    </clipPath>
    <pattern
       id="EMFhbasepattern-6"
       patternUnits="userSpaceOnUse"
       width="6"
       height="6"
       x="0"
       y="0" />
    <clipPath
       clipPathUnits="userSpaceOnUse"
       id="clipEmfPath1-4">
      <path
         d="M 0,0 H 601.09294 V 221.51418 H 0 Z"
         id="path1547" />
    </clipPath>
    <pattern
       id="EMFhbasepattern-7"
       patternUnits="userSpaceOnUse"
       width="6"
       height="6"
       x="0"
       y="0" />
  </defs>
  <g
     inkscape:label="Warstwa 1"
     inkscape:groupmode="layer"
     id="layer1"
     transform="translate(-57.405436,-139.3408)">
    <text
       xml:space="preserve"
       style="font-style:normal;font-variant:normal;font-weight:400;font-size:3.88607px;line-height:125%;font-family:Calibri;text-align:start;letter-spacing:0px;word-spacing:0px;text-anchor:start;fill:#000000;fill-opacity:1;stroke:none;stroke-width:0.264583"
       x="26.376823"
       y="153.1107"
       id="text1565"><tspan
         sodipodi:role="line"
         x="26.376823"
         y="153.1107"
         id="tspan1563"
         style="stroke-width:0.264583"><tspan
           dx="0"
           dy="0"
           style="font-style:normal;font-variant:normal;font-weight:400;font-size:3.88607px;font-family:Calibri;fill:#000000;stroke-width:0.264583"
           id="tspan1561"> </tspan></tspan></text>
    <text
       xml:space="preserve"
       style="font-style:normal;font-variant:normal;font-weight:400;font-size:3.88607px;line-height:125%;font-family:Calibri;text-align:start;letter-spacing:0px;word-spacing:0px;text-anchor:start;fill:#000000;fill-opacity:1;stroke:none;stroke-width:0.264583"
       x="84.024719"
       y="141.83221"
       id="text1573"><tspan
         sodipodi:role="line"
         x="84.024719"
         y="141.83221"
         id="tspan1571"
         style="stroke-width:0.264583"><tspan
           dx="0"
           dy="0"
           style="font-style:normal;font-variant:normal;font-weight:400;font-size:3.88607px;font-family:Calibri;fill:#000000;stroke-width:0.264583"
           id="tspan1567">3</tspan><tspan
           dx="0"
           dy="0"
           style="font-style:normal;font-variant:normal;font-weight:400;font-size:3.88607px;font-family:Calibri;fill:#000000;stroke-width:0.264583"
           id="tspan1569"> </tspan></tspan></text>
    <text
       xml:space="preserve"
       style="font-style:italic;font-variant:normal;font-weight:400;font-size:3.88607px;line-height:125%;font-family:Calibri;text-align:start;letter-spacing:0px;word-spacing:0px;text-anchor:start;fill:#000000;fill-opacity:1;stroke:none;stroke-width:0.264583"
       x="106.01367"
       y="141.83221"
       id="text1581"><tspan
         sodipodi:role="line"
         x="106.01367"
         y="141.83221"
         id="tspan1579"
         style="stroke-width:0.264583"><tspan
           dx="0"
           dy="0"
           style="font-style:italic;font-variant:normal;font-weight:400;font-size:3.88607px;font-family:Calibri;fill:#000000;stroke-width:0.264583"
           id="tspan1575">a</tspan><tspan
           dx="0"
           dy="0"
           style="font-style:normal;font-variant:normal;font-weight:400;font-size:3.88607px;font-family:Calibri;fill:#181717;stroke-width:0.264583"
           id="tspan1577"> </tspan></tspan></text>
    <text
       xml:space="preserve"
       style="font-style:normal;font-variant:normal;font-weight:400;font-size:3.88607px;line-height:125%;font-family:Calibri;text-align:start;letter-spacing:0px;word-spacing:0px;text-anchor:start;fill:#000000;fill-opacity:1;stroke:none;stroke-width:0.264583"
       x="118.40358"
       y="180.31285"
       id="text1587"><tspan
         sodipodi:role="line"
         x="118.40358"
         y="180.31285"
         id="tspan1585"
         style="stroke-width:0.264583"><tspan
           dx="0"
           dy="0"
           style="font-style:normal;font-variant:normal;font-weight:400;font-size:3.88607px;font-family:Calibri;fill:#181717;stroke-width:0.264583"
           id="tspan1583"> </tspan></tspan></text>
    <path
       style="fill:none;stroke:#000000;stroke-width:0.211432px;stroke-linecap:round;stroke-linejoin:round;stroke-miterlimit:4;stroke-dasharray:none;stroke-opacity:1"
       d="m 115.18981,169.31839 h -2.74862"
       id="path1589" />
    <path
       style="fill:none;stroke:#000000;stroke-width:0.211432px;stroke-linecap:round;stroke-linejoin:round;stroke-miterlimit:4;stroke-dasharray:none;stroke-opacity:1"
       d="m 115.18981,169.31839 h 1.35316"
       id="path1591" />
    <path
       style="fill:none;stroke:#000000;stroke-width:0.211432px;stroke-linecap:round;stroke-linejoin:round;stroke-miterlimit:4;stroke-dasharray:none;stroke-opacity:1"
       d="m 115.18981,158.36621 h -2.74862"
       id="path1593" />
    <path
       style="fill:none;stroke:#000000;stroke-width:0.211432px;stroke-linecap:round;stroke-linejoin:round;stroke-miterlimit:4;stroke-dasharray:none;stroke-opacity:1"
       d="m 115.18981,158.36621 h 1.35316"
       id="path1595" />
    <path
       style="fill:none;stroke:#000000;stroke-width:0.211432px;stroke-linecap:round;stroke-linejoin:round;stroke-miterlimit:4;stroke-dasharray:none;stroke-opacity:1"
       d="m 115.18981,147.37174 h -2.74862"
       id="path1597" />
    <path
       style="fill:none;stroke:#000000;stroke-width:0.211432px;stroke-linecap:round;stroke-linejoin:round;stroke-miterlimit:4;stroke-dasharray:none;stroke-opacity:1"
       d="m 115.18981,147.37174 h 1.35316"
       id="path1599" />
    <path
       style="fill:none;stroke:#000000;stroke-width:0.211432px;stroke-linecap:round;stroke-linejoin:round;stroke-miterlimit:4;stroke-dasharray:none;stroke-opacity:1"
       d="m 112.44119,144.62312 v 2.74862"
       id="path1601" />
    <path
       style="fill:none;stroke:#000000;stroke-width:0.211432px;stroke-linecap:round;stroke-linejoin:round;stroke-miterlimit:4;stroke-dasharray:none;stroke-opacity:1"
       d="m 112.44119,144.62312 v -1.39545"
       id="path1603" />
    <path
       style="fill:none;stroke:#000000;stroke-width:0.211432px;stroke-linecap:round;stroke-linejoin:round;stroke-miterlimit:4;stroke-dasharray:none;stroke-opacity:1"
       d="m 101.44673,144.62312 v 2.74862"
       id="path1605" />
    <path
       style="fill:none;stroke:#000000;stroke-width:0.211432px;stroke-linecap:round;stroke-linejoin:round;stroke-miterlimit:4;stroke-dasharray:none;stroke-opacity:1"
       d="m 101.44673,144.62312 v -1.39545"
       id="path1607" />
    <path
       style="fill:none;stroke:#000000;stroke-width:0.211432px;stroke-linecap:round;stroke-linejoin:round;stroke-miterlimit:4;stroke-dasharray:none;stroke-opacity:1"
       d="m 68.505621,144.62312 v 2.74862"
       id="path1609" />
    <path
       style="fill:none;stroke:#000000;stroke-width:0.211432px;stroke-linecap:round;stroke-linejoin:round;stroke-miterlimit:4;stroke-dasharray:none;stroke-opacity:1"
       d="m 68.505621,144.62312 v -1.39545"
       id="path1611" />
    <path
       style="fill:#b2b2b2;fill-opacity:1;fill-rule:evenodd;stroke:none;stroke-width:0.264583"
       d="m 68.479191,147.3506 h 32.956969 v 10.98389 h 10.98389 v 10.97861 h -10.98389 v 10.97861 H 68.479191 V 169.3131 H 57.490009 v -10.97861 h 10.989182 z"
       id="path1613" />
    <path
       style="fill:none;stroke:#000000;stroke-width:0.211432px;stroke-linecap:round;stroke-linejoin:round;stroke-miterlimit:4;stroke-dasharray:none;stroke-opacity:1"
       d="M 57.511152,180.31285 H 112.44119 V 147.37174 H 57.511152 v 32.94111"
       id="path1615" />
    <path
       style="fill:none;stroke:#000000;stroke-width:0.211432px;stroke-linecap:round;stroke-linejoin:round;stroke-miterlimit:4;stroke-dasharray:none;stroke-opacity:1"
       d="M 68.505621,180.31285 V 169.31839 H 57.511152"
       id="path1617" />
    <path
       style="fill:none;stroke:#000000;stroke-width:0.211432px;stroke-linecap:round;stroke-linejoin:round;stroke-miterlimit:4;stroke-dasharray:none;stroke-opacity:1"
       d="M 57.511152,158.36621 H 68.505621 V 147.37174"
       id="path1619" />
    <path
       style="fill:none;stroke:#000000;stroke-width:0.211432px;stroke-linecap:round;stroke-linejoin:round;stroke-miterlimit:4;stroke-dasharray:none;stroke-opacity:1"
       d="m 101.44673,180.31285 v -10.99446 h 10.99446"
       id="path1621" />
    <path
       style="fill:none;stroke:#000000;stroke-width:0.211432px;stroke-linecap:round;stroke-linejoin:round;stroke-miterlimit:4;stroke-dasharray:none;stroke-opacity:1"
       d="M 112.44119,158.36621 H 101.44673 V 147.37174"
       id="path1623" />
    <path
       style="fill:none;stroke:#000000;stroke-width:0.211432px;stroke-linecap:round;stroke-linejoin:round;stroke-miterlimit:4;stroke-dasharray:none;stroke-opacity:1"
       d="M 115.18981,169.31839 V 158.36621"
       id="path1625" />
    <path
       style="fill:#000000;fill-opacity:1;fill-rule:evenodd;stroke:none;stroke-width:0.264583"
       d="m 115.18981,158.36621 0.59201,1.39545 h -1.18402 z"
       id="path1627" />
    <path
       style="fill:none;stroke:#000000;stroke-width:0.211432px;stroke-linecap:round;stroke-linejoin:round;stroke-miterlimit:4;stroke-dasharray:none;stroke-opacity:1"
       d="m 115.18981,158.36621 0.59201,1.39545 h -1.18402 z"
       id="path1629" />
    <path
       style="fill:#000000;fill-opacity:1;fill-rule:evenodd;stroke:none;stroke-width:0.264583"
       d="m 114.5978,167.92293 h 1.18402 l -0.59201,1.39546 z"
       id="path1631" />
    <path
       style="fill:none;stroke:#000000;stroke-width:0.211432px;stroke-linecap:round;stroke-linejoin:round;stroke-miterlimit:4;stroke-dasharray:none;stroke-opacity:1"
       d="m 114.5978,167.92293 h 1.18402 l -0.59201,1.39546 z"
       id="path1633" />
    <path
       style="fill:none;stroke:#000000;stroke-width:0.211432px;stroke-linecap:round;stroke-linejoin:round;stroke-miterlimit:4;stroke-dasharray:none;stroke-opacity:1"
       d="M 115.18981,158.36621 V 147.37174"
       id="path1635" />
    <path
       style="fill:#000000;fill-opacity:1;fill-rule:evenodd;stroke:none;stroke-width:0.264583"
       d="m 115.18981,147.37174 0.59201,1.43774 h -1.18402 z"
       id="path1637" />
    <path
       style="fill:none;stroke:#000000;stroke-width:0.211432px;stroke-linecap:round;stroke-linejoin:round;stroke-miterlimit:4;stroke-dasharray:none;stroke-opacity:1"
       d="m 115.18981,147.37174 0.59201,1.43774 h -1.18402 z"
       id="path1639" />
    <path
       style="fill:#000000;fill-opacity:1;fill-rule:evenodd;stroke:none;stroke-width:0.264583"
       d="m 114.5978,156.92847 h 1.18402 l -0.59201,1.43774 z"
       id="path1641" />
    <path
       style="fill:none;stroke:#000000;stroke-width:0.211432px;stroke-linecap:round;stroke-linejoin:round;stroke-miterlimit:4;stroke-dasharray:none;stroke-opacity:1"
       d="m 114.5978,156.92847 h 1.18402 l -0.59201,1.43774 z"
       id="path1643" />
    <path
       style="fill:none;stroke:#000000;stroke-width:0.211432px;stroke-linecap:round;stroke-linejoin:round;stroke-miterlimit:4;stroke-dasharray:none;stroke-opacity:1"
       d="M 112.44119,144.62312 H 101.44673"
       id="path1645" />
    <path
       style="fill:#000000;fill-opacity:1;fill-rule:evenodd;stroke:none;stroke-width:0.264583"
       d="m 102.88446,144.03111 v 1.18402 l -1.43773,-0.59201 z"
       id="path1647" />
    <path
       style="fill:none;stroke:#000000;stroke-width:0.211432px;stroke-linecap:round;stroke-linejoin:round;stroke-miterlimit:4;stroke-dasharray:none;stroke-opacity:1"
       d="m 102.88446,144.03111 v 1.18402 l -1.43773,-0.59201 z"
       id="path1649" />
    <path
       style="fill:#000000;fill-opacity:1;fill-rule:evenodd;stroke:none;stroke-width:0.264583"
       d="m 111.00346,144.03111 1.43773,0.59201 -1.43773,0.59201 z"
       id="path1651" />
    <path
       style="fill:none;stroke:#000000;stroke-width:0.211432px;stroke-linecap:round;stroke-linejoin:round;stroke-miterlimit:4;stroke-dasharray:none;stroke-opacity:1"
       d="m 111.00346,144.03111 1.43773,0.59201 -1.43773,0.59201 z"
       id="path1653" />
    <path
       style="fill:none;stroke:#000000;stroke-width:0.211432px;stroke-linecap:round;stroke-linejoin:round;stroke-miterlimit:4;stroke-dasharray:none;stroke-opacity:1"
       d="M 68.505621,144.62312 H 101.44673"
       id="path1655" />
    <path
       style="fill:#000000;fill-opacity:1;fill-rule:evenodd;stroke:none;stroke-width:0.264583"
       d="m 100.00899,144.03111 1.43774,0.59201 -1.43774,0.59201 z"
       id="path1657" />
    <path
       style="fill:none;stroke:#000000;stroke-width:0.211432px;stroke-linecap:round;stroke-linejoin:round;stroke-miterlimit:4;stroke-dasharray:none;stroke-opacity:1"
       d="m 100.00899,144.03111 1.43774,0.59201 -1.43774,0.59201 z"
       id="path1659" />
    <path
       style="fill:#000000;fill-opacity:1;fill-rule:evenodd;stroke:none;stroke-width:0.264583"
       d="m 69.943361,144.03111 v 1.18402 l -1.43774,-0.59201 z"
       id="path1661" />
    <path
       style="fill:none;stroke:#000000;stroke-width:0.211432px;stroke-linecap:round;stroke-linejoin:round;stroke-miterlimit:4;stroke-dasharray:none;stroke-opacity:1"
       d="m 69.943361,144.03111 v 1.18402 l -1.43774,-0.59201 z"
       id="path1663" />
    <path
       style="fill:#000000;fill-opacity:1;fill-rule:nonzero;stroke:none;stroke-width:0.264583"
       d="m 118.12343,165.91433 c 0,0.0264 0,0.0423 -0.005,0.0634 -0.005,0.0159 -0.0106,0.0264 -0.0159,0.037 -0.005,0.0106 -0.0106,0.0159 -0.0211,0.0211 -0.0106,0.005 -0.0159,0.005 -0.0264,0.005 h -1.25802 c -0.005,0 -0.0159,0 -0.0211,-0.005 -0.0106,-0.005 -0.0159,-0.0106 -0.0211,-0.0211 -0.0106,-0.0106 -0.0159,-0.0211 -0.0159,-0.037 -0.005,-0.0211 -0.005,-0.037 -0.005,-0.0634 0,-0.0211 0,-0.0423 0.005,-0.0581 0,-0.0159 0.005,-0.0317 0.0106,-0.0423 0.005,-0.0106 0.0159,-0.0159 0.0211,-0.0264 0.0106,-0.005 0.0159,-0.005 0.0264,-0.005 h 0.50215 v -1.87118 l -0.46515,0.28544 c -0.0211,0.0106 -0.0423,0.0211 -0.0581,0.0211 -0.0106,0.005 -0.0211,0 -0.0317,-0.0106 -0.0106,-0.005 -0.0159,-0.0212 -0.0159,-0.037 -0.005,-0.0211 -0.005,-0.0423 -0.005,-0.074 0,-0.0211 0,-0.037 0,-0.0529 0.005,-0.0159 0.005,-0.0317 0.0106,-0.037 0.005,-0.0106 0.0106,-0.0211 0.0159,-0.0317 0.005,-0.005 0.0159,-0.0106 0.0264,-0.0211 l 0.55501,-0.35944 c 0.005,-0.005 0.0106,-0.0106 0.0159,-0.0106 0.0106,-0.005 0.0211,-0.005 0.0317,-0.0106 0.0106,0 0.0211,0 0.037,-0.005 0.0159,0 0.0317,0 0.0581,0 0.0264,0 0.0529,0 0.074,0.005 0.0211,0 0.0317,0.005 0.0476,0.0106 0.0106,0.005 0.0159,0.0106 0.0211,0.0159 0.005,0.005 0.005,0.0159 0.005,0.0211 v 2.1619 h 0.43343 c 0.0106,0 0.0212,0 0.0317,0.005 0.005,0.0106 0.0159,0.0159 0.0211,0.0264 0.005,0.0106 0.005,0.0264 0.0106,0.0423 0.005,0.0159 0.005,0.037 0.005,0.0581 z"
       id="path1665" />
    <path
       style="fill:#000000;fill-opacity:1;fill-rule:nonzero;stroke:none;stroke-width:0.264583"
       d="m 118.08114,154.57629 c -0.005,0.0264 -0.0211,0.037 -0.0476,0.0476 -0.0211,0.0106 -0.0634,0.0159 -0.12686,0.0159 -0.0264,0 -0.0529,-0.005 -0.0687,-0.005 -0.0159,-0.005 -0.0317,-0.005 -0.0423,-0.0106 -0.0159,-0.005 -0.0211,-0.0106 -0.0264,-0.0159 -0.005,-0.0106 -0.005,-0.0159 0,-0.0317 l 0.0687,-0.32244 c -0.0159,0.0423 -0.0476,0.0846 -0.10043,0.13743 -0.0476,0.0476 -0.10042,0.0899 -0.16914,0.13215 -0.0634,0.037 -0.13743,0.074 -0.22201,0.10043 -0.0793,0.0264 -0.15857,0.037 -0.24314,0.037 -0.11629,0 -0.20615,-0.0159 -0.28543,-0.0529 -0.074,-0.0317 -0.13215,-0.0793 -0.17444,-0.13743 -0.0476,-0.0581 -0.074,-0.12686 -0.0899,-0.20086 -0.0159,-0.074 -0.0264,-0.148 -0.0264,-0.222 0,-0.074 0.005,-0.15329 0.0211,-0.24315 0.0159,-0.0899 0.0423,-0.185 0.074,-0.27486 0.0317,-0.0952 0.074,-0.185 0.13215,-0.27486 0.0529,-0.0899 0.11628,-0.16915 0.19029,-0.23786 0.074,-0.0687 0.16385,-0.12686 0.259,-0.16915 0.10043,-0.0423 0.21672,-0.0634 0.33829,-0.0634 0.12686,0 0.23786,0.0211 0.32772,0.0687 0.0899,0.0423 0.16915,0.10571 0.24315,0.185 l 0.037,-0.16915 c 0.005,-0.0211 0.0211,-0.037 0.0476,-0.0476 0.0317,-0.005 0.0687,-0.0106 0.12686,-0.0106 0.0317,0 0.0529,0 0.074,0 0.0159,0.005 0.0317,0.005 0.0423,0.0106 0.0106,0.005 0.0211,0.0159 0.0211,0.0211 0.005,0.005 0.005,0.0159 0.005,0.0264 z m -0.0634,-1.25802 c -0.0687,-0.0899 -0.13743,-0.15329 -0.21671,-0.20086 -0.0793,-0.0423 -0.16386,-0.0634 -0.25901,-0.0634 -0.0793,0 -0.148,0.0159 -0.21143,0.0476 -0.0581,0.0317 -0.11629,0.074 -0.16386,0.12686 -0.0476,0.0529 -0.0846,0.11629 -0.12157,0.185 -0.0317,0.0634 -0.0634,0.13743 -0.0846,0.20615 -0.0211,0.074 -0.037,0.14271 -0.0476,0.21672 -0.0106,0.0687 -0.0159,0.13214 -0.0159,0.185 0,0.0476 0,0.0899 0.0106,0.13214 0.005,0.0423 0.0211,0.0846 0.0423,0.12158 0.0264,0.037 0.0529,0.0634 0.0899,0.0846 0.0423,0.0264 0.0899,0.037 0.15329,0.037 0.074,0 0.15328,-0.0211 0.23257,-0.0581 0.0793,-0.0423 0.15329,-0.0952 0.22201,-0.16386 0.0687,-0.0687 0.12686,-0.14801 0.17971,-0.23786 0.0529,-0.0951 0.0899,-0.19558 0.11629,-0.30658 z"
       id="path1667" />
  </g>
</svg>
